# Blender 5.2.2 LTS
# www.blender.org
mtllib front post test 1.mtl
o sight_front_1_volt_lgnd_v23_voidsinister_main
v 0.000060 -0.114000 -0.023973
v 0.011388 -0.114000 -0.023973
v 0.000060 -0.114000 -0.014283
v 0.013844 -0.114000 -0.017695
v 0.013844 -0.114000 -0.014283
v 0.064750 -0.259349 -0.120599
v 0.083448 -0.259349 -0.120599
v 0.064750 -0.232190 -0.120599
v 0.083448 -0.224547 -0.120599
v 0.063932 -0.227959 -0.120599
v 0.062021 -0.224547 -0.120599
v 0.082902 -0.221954 -0.120190
v 0.059837 -0.221954 -0.120190
v 0.081674 -0.219225 -0.119917
v 0.058063 -0.219088 -0.119780
v 0.050420 -0.210763 -0.113775
v 0.053559 -0.187835 -0.096988
v 0.046872 -0.208716 -0.112274
v 0.049328 -0.185788 -0.095487
v 0.042505 -0.208307 -0.111864
v 0.045780 -0.185378 -0.095214
v 0.036636 -0.185378 -0.095214
v 0.000060 -0.208580 -0.112137
v 0.030631 -0.183331 -0.093713
v 0.026537 -0.178691 -0.090437
v 0.000060 -0.135291 -0.058775
v 0.011251 -0.135291 -0.058775
v 0.011388 -0.114000 -0.023973
v 0.000060 -0.114000 -0.023973
v -0.011404 -0.114000 -0.023973
v -0.011268 -0.135291 -0.058775
v -0.026553 -0.178691 -0.090437
v -0.030648 -0.183331 -0.093713
v -0.036653 -0.185378 -0.095214
v -0.042521 -0.208307 -0.111864
v -0.045797 -0.185378 -0.095214
v -0.049345 -0.185788 -0.095487
v -0.046888 -0.208716 -0.112274
v -0.053576 -0.187835 -0.096988
v -0.050437 -0.210763 -0.113775
v -0.081690 -0.219225 -0.119917
v -0.058080 -0.219088 -0.119780
v -0.059854 -0.221954 -0.120190
v -0.082919 -0.221954 -0.120190
v -0.062037 -0.224547 -0.120599
v -0.083464 -0.224547 -0.120599
v -0.063948 -0.227959 -0.120599
v -0.064767 -0.232190 -0.120599
v -0.083464 -0.259349 -0.120599
v -0.064767 -0.259349 -0.120599
v 0.084676 -0.259349 0.036078
v 0.065160 -0.259349 0.036078
v 0.065160 -0.231508 0.036078
v 0.084676 -0.224957 0.036078
v 0.064341 -0.227686 0.036078
v 0.084130 -0.222364 0.036078
v 0.082765 -0.220044 0.036078
v 0.062430 -0.224275 0.036078
v 0.051239 -0.211855 0.036078
v 0.054651 -0.187835 0.036078
v 0.046599 -0.209398 0.036078
v 0.050284 -0.185515 0.036078
v 0.046462 -0.185105 0.036078
v 0.041959 -0.208853 0.036078
v 0.035954 -0.185105 0.036078
v 0.000060 -0.208853 0.036078
v 0.031040 -0.183331 0.036078
v 0.027765 -0.179237 0.036078
v 0.000060 -0.135291 0.036078
v 0.012616 -0.135564 0.036078
v 0.012616 -0.082611 0.036078
v 0.000060 -0.066506 0.036078
v 0.018075 -0.070328 0.036078
v 0.018621 -0.069236 0.036078
v 0.020122 -0.068553 0.036078
v 0.027355 -0.068553 0.036078
v 0.029130 -0.067735 0.036078
v 0.030494 -0.066506 0.036078
v 0.000060 -0.057635 0.030072
v 0.025172 -0.057635 0.030072
v 0.026946 -0.057362 0.029936
v 0.028584 -0.056680 0.029390
v 0.029949 -0.055452 0.028708
v 0.050011 -0.042896 0.020110
v 0.045098 -0.038801 0.017517
v 0.050420 -0.041121 0.019018
v 0.046599 -0.038119 0.016971
v 0.047827 -0.038255 0.017107
v 0.049601 -0.039757 0.018062
v 0.000060 -0.082884 -0.014283
v 0.000060 -0.082884 -0.020015
v -0.013861 -0.082884 -0.014283
v -0.013042 -0.082884 -0.020015
v -0.013861 -0.082884 -0.019059
v -0.065176 -0.259349 0.036078
v -0.084693 -0.259349 0.036078
v -0.065176 -0.231508 0.036078
v -0.084693 -0.224957 0.036078
v -0.064358 -0.227686 0.036078
v -0.084147 -0.222364 0.036078
v -0.082782 -0.220044 0.036078
v -0.062447 -0.224275 0.036078
v -0.051256 -0.211855 0.036078
v -0.054668 -0.187835 0.036078
v -0.046615 -0.209398 0.036078
v -0.050300 -0.185515 0.036078
v -0.046479 -0.185105 0.036078
v -0.041975 -0.208853 0.036078
v -0.035970 -0.185105 0.036078
v 0.000060 -0.208853 0.036078
v -0.031057 -0.183331 0.036078
v -0.027782 -0.179237 0.036078
v 0.000060 -0.135291 0.036078
v -0.012633 -0.135564 0.036078
v -0.012633 -0.082611 0.036078
v 0.000060 -0.066506 0.036078
v -0.018092 -0.070328 0.036078
v -0.018638 -0.069236 0.036078
v -0.020139 -0.068553 0.036078
v -0.027372 -0.068553 0.036078
v -0.029146 -0.067735 0.036078
v -0.030511 -0.066506 0.036078
v -0.025052 -0.057635 0.030072
v 0.000060 -0.057635 0.030072
v -0.026826 -0.057362 0.029936
v -0.028600 -0.056680 0.029390
v -0.029965 -0.055452 0.028708
v -0.050027 -0.042896 0.020110
v -0.044978 -0.038801 0.017517
v -0.050300 -0.041121 0.019018
v -0.046615 -0.038119 0.016971
v -0.047844 -0.038255 0.017107
v -0.049618 -0.039757 0.018062
v 0.000060 -0.082884 -0.014283
v 0.013844 -0.082884 -0.014283
v 0.000060 -0.082884 -0.020015
v 0.013025 -0.082884 -0.020015
v 0.013844 -0.082884 -0.019059
v 0.050557 -0.041394 -0.023836
v 0.049738 -0.040030 -0.023836
v 0.047964 -0.038528 -0.023836
v 0.046599 -0.038392 -0.023836
v 0.050557 -0.043032 -0.023836
v 0.045507 -0.038665 -0.023836
v 0.029812 -0.055588 -0.023836
v 0.031450 -0.065414 -0.023836
v 0.029949 -0.067189 -0.023836
v 0.028447 -0.056680 -0.023836
v 0.028584 -0.068144 -0.023836
v 0.026810 -0.057499 -0.023836
v 0.025035 -0.057772 -0.023836
v 0.027083 -0.068553 -0.023836
v 0.019849 -0.068690 -0.023836
v 0.000060 -0.057772 -0.023836
v 0.018621 -0.069236 -0.023836
v 0.000060 -0.069372 -0.023836
v 0.018075 -0.070328 -0.023700
v 0.013025 -0.082884 -0.020015
v 0.000060 -0.082884 -0.020015
v -0.013042 -0.082884 -0.020015
v -0.018092 -0.070328 -0.023700
v -0.018638 -0.069236 -0.023836
v -0.019866 -0.068690 -0.023836
v -0.025052 -0.057772 -0.023836
v -0.027099 -0.068553 -0.023836
v -0.028600 -0.068144 -0.023836
v -0.026826 -0.057499 -0.023836
v -0.028464 -0.056680 -0.023836
v -0.029965 -0.067189 -0.023836
v -0.029829 -0.055588 -0.023836
v -0.031466 -0.065414 -0.023836
v -0.050573 -0.043032 -0.023836
v -0.045524 -0.038665 -0.023836
v -0.046615 -0.038392 -0.023836
v -0.050573 -0.041394 -0.023836
v -0.047980 -0.038528 -0.023836
v -0.049754 -0.040030 -0.023836
v 0.000060 -0.114000 -0.023973
v 0.000060 -0.114000 -0.014283
v -0.011404 -0.114000 -0.023973
v -0.013861 -0.114000 -0.017695
v -0.013861 -0.114000 -0.014283
v 0.062976 -0.259349 -0.118825
v 0.083448 -0.259349 -0.120599
v 0.064750 -0.259349 -0.120599
v 0.086177 -0.259349 -0.116778
v 0.062976 -0.259349 0.033757
v 0.086177 -0.259349 0.033211
v 0.065160 -0.259349 0.036078
v 0.084676 -0.259349 0.036078
v -0.086194 -0.259349 0.033211
v -0.084693 -0.259349 0.036078
v -0.065176 -0.259349 0.036078
v -0.062993 -0.259349 0.033757
v -0.086194 -0.259349 -0.116778
v -0.062993 -0.259349 -0.118825
v -0.083464 -0.259349 -0.120599
v -0.064767 -0.259349 -0.120599
v 0.013844 -0.114000 -0.014283
v 0.013844 -0.082884 -0.014283
v 0.000060 -0.114000 -0.014283
v 0.000060 -0.082884 -0.014283
v -0.013861 -0.082884 -0.014283
v -0.013861 -0.114000 -0.014283
v 0.084676 -0.259349 0.036078
v 0.084676 -0.224957 0.036078
v 0.086177 -0.259349 0.033211
v 0.086177 -0.224411 0.033211
v 0.084130 -0.222364 0.036078
v 0.086177 -0.224547 -0.116778
v 0.086177 -0.259349 -0.116778
v 0.083448 -0.259349 -0.120599
v 0.083448 -0.224547 -0.120599
v 0.085495 -0.221954 -0.116368
v 0.082902 -0.221954 -0.120190
v 0.081674 -0.219225 -0.119917
v 0.085359 -0.221818 0.033211
v 0.084267 -0.219634 -0.115413
v 0.053559 -0.187835 -0.096988
v 0.084130 -0.219498 0.033211
v 0.082765 -0.220044 0.036078
v 0.054651 -0.187835 0.036078
v 0.054787 -0.186197 -0.092075
v 0.049328 -0.185788 -0.095487
v 0.054924 -0.186334 0.033211
v 0.050284 -0.185515 0.036078
v 0.050693 -0.184150 -0.090710
v 0.050830 -0.184150 0.033211
v 0.047008 -0.183877 -0.090574
v 0.045780 -0.185378 -0.095214
v 0.047145 -0.183877 0.033211
v 0.046462 -0.185105 0.036078
v 0.036909 -0.183877 -0.090710
v 0.036636 -0.185378 -0.095214
v 0.030631 -0.183331 -0.093713
v 0.036909 -0.183877 0.033211
v 0.035954 -0.185105 0.036078
v 0.031996 -0.182103 -0.089209
v 0.026537 -0.178691 -0.090437
v 0.031996 -0.182103 0.033211
v 0.031040 -0.183331 0.036078
v 0.027765 -0.179237 0.036078
v 0.028720 -0.178009 -0.085934
v 0.011251 -0.135291 -0.058775
v 0.028720 -0.178009 0.033211
v 0.012616 -0.135564 0.036078
v 0.013844 -0.135291 -0.054953
v 0.011388 -0.114000 -0.023973
v 0.013844 -0.114000 -0.017695
v 0.013844 -0.135291 0.033211
v 0.013844 -0.114000 -0.014283
v 0.013844 -0.082884 0.033211
v 0.012616 -0.082611 0.036078
v 0.013844 -0.082884 -0.014283
v 0.018075 -0.070328 0.036078
v 0.018894 -0.070874 0.033211
v 0.018894 -0.070874 -0.022471
v 0.013844 -0.082884 -0.019059
v 0.013025 -0.082884 -0.020015
v 0.018075 -0.070328 -0.023700
v 0.019440 -0.070055 0.033211
v 0.018621 -0.069236 0.036078
v 0.019713 -0.068690 0.036078
v 0.019440 -0.070055 -0.022744
v 0.018621 -0.069236 -0.023836
v 0.020122 -0.069509 0.033211
v 0.020668 -0.068553 0.036078
v 0.020122 -0.069509 -0.022881
v 0.019713 -0.068690 -0.023836
v 0.020668 -0.068553 -0.023836
v 0.020805 -0.069372 0.033211
v 0.026810 -0.068553 0.036078
v 0.020805 -0.069372 -0.022881
v 0.027083 -0.068553 -0.023836
v 0.027083 -0.069372 0.033211
v 0.027083 -0.069372 -0.022881
v 0.028174 -0.068280 -0.023836
v 0.027765 -0.068417 0.036078
v 0.028447 -0.069099 -0.022881
v 0.029130 -0.067871 -0.023836
v 0.028447 -0.069099 0.033211
v 0.028720 -0.068144 0.036078
v 0.029539 -0.068553 -0.022881
v 0.029539 -0.068553 0.033211
v 0.029403 -0.067462 0.036078
v 0.030494 -0.067735 -0.022881
v 0.029949 -0.067189 -0.023836
v 0.030494 -0.067735 0.033211
v 0.030494 -0.066506 0.036078
v 0.031450 -0.065414 -0.023836
v 0.031586 -0.066506 0.032802
v 0.050011 -0.042896 0.020110
v 0.032269 -0.065687 -0.022881
v 0.050557 -0.043169 -0.023836
v 0.051376 -0.043441 0.017380
v 0.050420 -0.042077 0.019700
v 0.051376 -0.043441 -0.022881
v 0.050693 -0.042350 -0.023836
v 0.051649 -0.042350 0.016561
v 0.050420 -0.041258 0.019154
v 0.051649 -0.042350 -0.022881
v 0.050693 -0.041531 -0.023836
v 0.051512 -0.041258 0.015879
v 0.050147 -0.040439 0.018608
v 0.051512 -0.041258 -0.022881
v 0.051103 -0.040303 0.015196
v 0.049601 -0.039757 0.018062
v 0.051103 -0.040303 -0.022881
v 0.050420 -0.040712 -0.023836
v 0.050420 -0.039484 0.014514
v 0.048373 -0.038665 0.017380
v 0.050420 -0.039484 -0.022881
v 0.049738 -0.040030 -0.023836
v 0.048646 -0.038938 -0.023836
v 0.049192 -0.038255 0.013832
v 0.047691 -0.038255 0.016971
v 0.049192 -0.038255 -0.022881
v 0.047827 -0.038528 -0.023836
v 0.048237 -0.037709 0.013422
v 0.047008 -0.037982 0.016971
v 0.048237 -0.037709 -0.022881
v 0.047145 -0.037436 -0.022881
v 0.047008 -0.038392 -0.023836
v 0.047145 -0.037436 0.013286
v 0.046053 -0.037436 -0.022881
v 0.046189 -0.038392 -0.023836
v 0.046053 -0.037436 0.013422
v 0.046326 -0.038119 0.016971
v 0.045507 -0.038665 -0.023836
v 0.044961 -0.037846 0.013559
v 0.045643 -0.038392 0.017107
v 0.044961 -0.037846 -0.022881
v 0.044961 -0.038938 0.017517
v 0.029130 -0.055042 -0.022881
v 0.029812 -0.055588 -0.023836
v 0.029130 -0.055042 0.025023
v 0.029949 -0.055452 0.028708
v 0.028038 -0.055997 -0.022881
v 0.028447 -0.056680 -0.023836
v 0.026810 -0.057499 -0.023836
v 0.028038 -0.055997 0.025705
v 0.028584 -0.056680 0.029390
v 0.026537 -0.056680 -0.022881
v 0.025035 -0.057772 -0.023836
v 0.026537 -0.056543 0.026115
v 0.026946 -0.057362 0.029936
v 0.025035 -0.056816 -0.022881
v 0.000060 -0.057772 -0.023836
v 0.000060 -0.056816 -0.022881
v 0.000060 -0.056816 0.026251
v 0.025035 -0.056816 0.026251
v 0.025172 -0.057635 0.030072
v 0.000060 -0.057635 0.030072
v -0.084693 -0.259349 0.036078
v -0.086194 -0.259349 0.033211
v -0.084693 -0.224957 0.036078
v -0.086194 -0.224411 0.033211
v -0.084147 -0.222364 0.036078
v -0.086194 -0.224547 -0.116778
v -0.086194 -0.259349 -0.116778
v -0.083464 -0.259349 -0.120599
v -0.083464 -0.224547 -0.120599
v -0.085512 -0.221954 -0.116368
v -0.082919 -0.221954 -0.120190
v -0.081690 -0.219225 -0.119917
v -0.085375 -0.221818 0.033211
v -0.084283 -0.219634 -0.115413
v -0.053576 -0.187835 -0.096988
v -0.084147 -0.219498 0.033211
v -0.082782 -0.220044 0.036078
v -0.054668 -0.187835 0.036078
v -0.054804 -0.186197 -0.092075
v -0.049345 -0.185788 -0.095487
v -0.054941 -0.186334 0.033211
v -0.050300 -0.185515 0.036078
v -0.050710 -0.184150 -0.090710
v -0.050846 -0.184150 0.033211
v -0.047025 -0.183877 -0.090574
v -0.045797 -0.185378 -0.095214
v -0.047161 -0.183877 0.033211
v -0.046479 -0.185105 0.036078
v -0.036926 -0.183877 -0.090710
v -0.036653 -0.185378 -0.095214
v -0.030648 -0.183331 -0.093713
v -0.036926 -0.183877 0.033211
v -0.035970 -0.185105 0.036078
v -0.032012 -0.182103 -0.089209
v -0.026553 -0.178691 -0.090437
v -0.032012 -0.182103 0.033211
v -0.031057 -0.183331 0.036078
v -0.027782 -0.179237 0.036078
v -0.028737 -0.178009 -0.085934
v -0.011268 -0.135291 -0.058775
v -0.028737 -0.178009 0.033211
v -0.012633 -0.135564 0.036078
v -0.013861 -0.135291 -0.054953
v -0.011404 -0.114000 -0.023973
v -0.013861 -0.114000 -0.017695
v -0.013861 -0.135291 0.033211
v -0.013861 -0.114000 -0.014283
v -0.013861 -0.082884 0.033211
v -0.012633 -0.082611 0.036078
v -0.013861 -0.082884 -0.014283
v -0.018092 -0.070328 0.036078
v -0.018910 -0.070874 0.033211
v -0.018910 -0.070874 -0.022471
v -0.013861 -0.082884 -0.019059
v -0.013042 -0.082884 -0.020015
v -0.018092 -0.070328 -0.023700
v -0.019456 -0.070055 0.033211
v -0.018638 -0.069236 0.036078
v -0.019729 -0.068690 0.036078
v -0.019456 -0.070055 -0.022744
v -0.018638 -0.069236 -0.023836
v -0.020002 -0.069509 0.033211
v -0.020685 -0.068553 0.036078
v -0.020002 -0.069509 -0.022881
v -0.019729 -0.068690 -0.023836
v -0.020685 -0.068553 -0.023836
v -0.020821 -0.069372 0.033211
v -0.026826 -0.068553 0.036078
v -0.020821 -0.069372 -0.022881
v -0.027099 -0.068553 -0.023836
v -0.027099 -0.069372 0.033211
v -0.027099 -0.069372 -0.022881
v -0.028191 -0.068280 -0.023836
v -0.027782 -0.068417 0.036078
v -0.028327 -0.069099 -0.022881
v -0.029146 -0.067871 -0.023836
v -0.028327 -0.069099 0.033211
v -0.028737 -0.068144 0.036078
v -0.029556 -0.068553 -0.022881
v -0.029556 -0.068553 0.033211
v -0.029419 -0.067462 0.036078
v -0.030511 -0.067735 -0.022881
v -0.029965 -0.067189 -0.023836
v -0.030511 -0.067735 0.033211
v -0.030511 -0.066506 0.036078
v -0.031466 -0.065414 -0.023836
v -0.031603 -0.066506 0.032802
v -0.050027 -0.042896 0.020110
v -0.032285 -0.065687 -0.022881
v -0.050573 -0.043169 -0.023836
v -0.051392 -0.043441 0.017380
v -0.050437 -0.042077 0.019700
v -0.051392 -0.043441 -0.022881
v -0.050710 -0.042350 -0.023836
v -0.051665 -0.042350 0.016561
v -0.050437 -0.041258 0.019154
v -0.051665 -0.042350 -0.022881
v -0.050710 -0.041531 -0.023836
v -0.051529 -0.041258 0.015879
v -0.050164 -0.040439 0.018608
v -0.051529 -0.041258 -0.022881
v -0.051119 -0.040303 0.015196
v -0.049618 -0.039757 0.018062
v -0.051119 -0.040303 -0.022881
v -0.050437 -0.040712 -0.023836
v -0.050437 -0.039484 0.014514
v -0.048390 -0.038665 0.017380
v -0.050437 -0.039484 -0.022881
v -0.049754 -0.040030 -0.023836
v -0.048663 -0.038938 -0.023836
v -0.049072 -0.038255 0.013832
v -0.047707 -0.038255 0.016971
v -0.049072 -0.038255 -0.022881
v -0.047844 -0.038528 -0.023836
v -0.048253 -0.037709 0.013422
v -0.047025 -0.037982 0.016971
v -0.048253 -0.037709 -0.022881
v -0.047161 -0.037436 -0.022881
v -0.047025 -0.038392 -0.023836
v -0.047161 -0.037436 0.013286
v -0.046070 -0.037436 -0.022881
v -0.046206 -0.038392 -0.023836
v -0.046070 -0.037436 0.013422
v -0.046343 -0.038119 0.016971
v -0.045524 -0.038665 -0.023836
v -0.044978 -0.037846 0.013559
v -0.045660 -0.038392 0.017107
v -0.044978 -0.037846 -0.022881
v -0.044978 -0.038938 0.017517
v -0.029146 -0.055042 -0.022881
v -0.029829 -0.055588 -0.023836
v -0.029146 -0.055042 0.025023
v -0.029965 -0.055452 0.028708
v -0.027918 -0.055997 -0.022881
v -0.028464 -0.056680 -0.023836
v -0.026826 -0.057499 -0.023836
v -0.027918 -0.055997 0.025705
v -0.028600 -0.056680 0.029390
v -0.026553 -0.056680 -0.022881
v -0.025052 -0.057772 -0.023836
v -0.026553 -0.056543 0.026115
v -0.026826 -0.057362 0.029936
v -0.025052 -0.056816 -0.022881
v 0.000060 -0.057772 -0.023836
v 0.000060 -0.056816 -0.022881
v 0.000060 -0.056816 0.026251
v -0.025052 -0.056816 0.026251
v -0.025052 -0.057635 0.030072
v 0.000060 -0.057635 0.030072
v 0.041959 -0.211173 0.033757
v 0.000060 -0.211173 0.033757
v 0.000060 -0.208853 0.036078
v 0.041959 -0.208853 0.036078
v 0.000060 -0.211173 -0.109817
v 0.046053 -0.211446 0.033757
v 0.046599 -0.209398 0.036078
v 0.042232 -0.211173 -0.109817
v 0.000060 -0.208580 -0.112137
v 0.042505 -0.208307 -0.111864
v 0.049601 -0.213493 0.033757
v 0.046053 -0.211446 -0.110090
v 0.046872 -0.208716 -0.112274
v 0.051239 -0.211855 0.036078
v 0.049328 -0.213356 -0.111591
v 0.050420 -0.210763 -0.113775
v 0.056152 -0.220317 -0.116778
v 0.058063 -0.219088 -0.119780
v 0.060383 -0.225366 0.033757
v 0.057926 -0.222364 -0.118006
v 0.059837 -0.221954 -0.120190
v 0.062430 -0.224275 0.036078
v 0.059837 -0.224547 -0.118825
v 0.062021 -0.224547 -0.120599
v 0.062157 -0.228642 0.033757
v 0.064341 -0.227686 0.036078
v 0.065160 -0.231508 0.036078
v 0.062157 -0.228642 -0.118825
v 0.063932 -0.227959 -0.120599
v 0.064750 -0.232190 -0.120599
v 0.062976 -0.232327 0.033757
v 0.065160 -0.259349 0.036078
v 0.062976 -0.259349 0.033757
v 0.062976 -0.232327 -0.118825
v 0.064750 -0.259349 -0.120599
v 0.062976 -0.259349 -0.118825
v 0.000060 -0.211173 0.033757
v -0.041839 -0.211173 0.033757
v 0.000060 -0.208853 0.036078
v 0.000060 -0.211173 -0.109817
v -0.041975 -0.208853 0.036078
v -0.042248 -0.211173 -0.109817
v 0.000060 -0.208580 -0.112137
v -0.042521 -0.208307 -0.111864
v -0.046070 -0.211446 0.033757
v -0.046615 -0.209398 0.036078
v -0.046070 -0.211446 -0.110090
v -0.046888 -0.208716 -0.112274
v -0.049618 -0.213493 0.033757
v -0.051256 -0.211855 0.036078
v -0.049345 -0.213356 -0.111591
v -0.050437 -0.210763 -0.113775
v -0.056169 -0.220317 -0.116778
v -0.058080 -0.219088 -0.119780
v -0.060400 -0.225366 0.033757
v -0.057943 -0.222364 -0.118006
v -0.059854 -0.221954 -0.120190
v -0.062447 -0.224275 0.036078
v -0.059854 -0.224547 -0.118825
v -0.062037 -0.224547 -0.120599
v -0.062174 -0.228642 0.033757
v -0.064358 -0.227686 0.036078
v -0.065176 -0.231508 0.036078
v -0.062174 -0.228642 -0.118825
v -0.063948 -0.227959 -0.120599
v -0.064767 -0.232190 -0.120599
v -0.062993 -0.232327 0.033757
v -0.065176 -0.259349 0.036078
v -0.062993 -0.259349 0.033757
v -0.062993 -0.232327 -0.118825
v -0.064767 -0.259349 -0.120599
v -0.062993 -0.259349 -0.118825
vn -0.0117 0.9997 -0.0195
vn -0.0000 -0.0227 -0.9997
vn -0.0000 -0.0172 -0.9999
vn -0.0000 0.1065 -0.9943
vn -0.0031 0.1416 -0.9899
vn -0.0033 0.1419 -0.9899
vn -0.0033 0.5219 -0.8530
vn -0.0033 0.5225 -0.8526
vn 0.0003 0.5895 -0.8077
vn -0.0000 0.5907 -0.8069
vn -0.0087 0.5913 -0.8064
vn 0.0016 0.5889 -0.8082
vn -0.0081 0.5897 -0.8076
vn 0.0028 0.5873 -0.8093
vn 0.0002 0.5884 -0.8086
vn -0.0000 0.5878 -0.8090
vn 0.0040 0.5863 -0.8101
vn 0.0022 0.5863 -0.8101
vn -0.0000 0.6755 -0.7374
vn -0.0075 0.7077 -0.7065
vn -0.0114 0.8530 -0.5218
vn -0.0022 0.5863 -0.8101
vn -0.0040 0.5863 -0.8101
vn -0.0002 0.5884 -0.8086
vn 0.0005 0.5880 -0.8088
vn -0.0028 0.5873 -0.8093
vn -0.0016 0.5889 -0.8082
vn -0.0002 0.5883 -0.8087
vn -0.0003 0.5895 -0.8077
vn -0.0034 0.5225 -0.8527
vn -0.0003 0.1428 -0.9898
vn -0.0039 -0.0039 1.0000
vn -0.0039 -0.0038 1.0000
vn -0.0000 0.2105 0.9776
vn -0.0039 -0.0036 1.0000
vn -0.0000 0.5545 0.8322
vn -0.0021 0.5554 0.8316
vn -0.0000 0.5572 0.8304
vn 0.0014 0.5555 0.8315
vn -0.0004 0.5547 0.8320
vn -0.0014 0.5546 0.8321
vn 0.0003 0.5539 0.8326
vn 0.0009 0.5550 0.8319
vn -0.0000 0.5539 0.8326
vn 0.0003 0.5552 0.8317
vn -0.0004 0.5545 0.8322
vn 0.0002 0.5548 0.8320
vn 0.0264 -0.9995 -0.0176
vn 0.0021 0.5554 0.8316
vn -0.0016 0.5558 0.8313
vn 0.0005 0.5547 0.8320
vn 0.0014 0.5546 0.8321
vn -0.0003 0.5539 0.8326
vn -0.0010 0.5550 0.8319
vn -0.0003 0.5552 0.8317
vn 0.0004 0.5544 0.8322
vn -0.0002 0.5546 0.8321
vn -0.0000 -0.0226 -0.9997
vn -0.0001 -0.0099 -1.0000
vn -0.0000 -0.1368 -0.9906
vn -0.0000 -0.2714 -0.9625
vn -0.0043 -0.2760 -0.9612
vn -0.0000 -0.2722 -0.9623
vn 0.0043 -0.2760 -0.9611
vn 0.0001 -0.0098 -1.0000
vn -0.0000 -0.0228 -0.9997
vn -0.0000 -0.0224 -0.9997
vn 0.8837 0.0104 0.4679
vn 0.8838 0.0103 0.4678
vn 0.9998 0.0196 0.0079
vn 0.8363 0.3344 0.4346
vn 0.9998 0.0197 0.0078
vn 0.9998 0.0196 0.0078
vn 0.8194 0.0147 -0.5731
vn 0.8199 0.0164 -0.5723
vn 0.9309 0.3650 0.0147
vn 0.7918 0.3349 -0.5108
vn 0.6232 0.7318 -0.2759
vn 0.9309 0.3651 0.0144
vn 0.7601 0.6498 0.0058
vn 0.5290 0.7563 -0.3850
vn 0.7601 0.6498 0.0061
vn 0.6956 0.5958 0.4015
vn 0.6699 0.6220 0.4055
vn 0.7354 0.6776 -0.0086
vn 0.1995 0.9099 -0.3637
vn 0.7151 0.6988 0.0174
vn 0.2761 0.8550 0.4390
vn 0.3059 0.9520 0.0067
vn 0.3060 0.9520 0.0082
vn -0.0117 0.9997 -0.0198
vn 0.0132 0.9450 -0.3267
vn 0.0236 0.9997 0.0082
vn 0.0201 0.9154 0.4021
vn 0.0977 0.9949 -0.0238
vn 0.0889 0.9393 -0.3313
vn 0.3758 0.8581 -0.3499
vn 0.1016 0.9947 0.0123
vn 0.1202 0.8955 0.4286
vn 0.5069 0.8618 -0.0203
vn 0.6839 0.5958 -0.4211
vn 0.5766 0.8169 0.0128
vn 0.5137 0.7132 0.4769
vn 0.8482 0.3363 0.4093
vn 0.9110 0.4108 -0.0357
vn 0.6615 0.6020 -0.4473
vn 0.9309 0.3650 0.0144
vn 0.9040 0.1394 0.4041
vn 0.9473 0.3196 -0.0224
vn 0.7799 0.5430 -0.3113
vn 0.9998 0.0195 0.0079
vn 0.9826 0.1849 0.0196
vn 0.9997 0.0211 0.0084
vn 0.9956 -0.0896 0.0271
vn 0.9114 -0.0791 0.4039
vn 0.9873 -0.1591 -0.0039
vn 0.8680 -0.3741 0.3266
vn 0.9166 -0.3993 0.0185
vn 0.9110 -0.4111 -0.0326
vn 0.9007 -0.4132 -0.1342
vn 0.6049 -0.4415 -0.6627
vn 0.6084 -0.4363 -0.6629
vn 0.7702 -0.6371 0.0300
vn 0.6804 -0.6439 0.3500
vn 0.3313 -0.8852 0.3266
vn 0.7423 -0.6696 -0.0233
vn 0.4721 -0.4958 -0.7289
vn 0.4457 -0.8951 0.0142
vn 0.0026 -0.9644 0.2644
vn 0.4372 -0.8990 -0.0248
vn 0.2470 -0.6658 -0.7040
vn 0.0249 -0.7399 -0.6723
vn 0.0233 -0.9996 -0.0161
vn 0.0025 -0.9644 0.2644
vn 0.0235 -0.9996 -0.0155
vn 0.0240 -0.7397 -0.6725
vn 0.0235 -0.9996 -0.0156
vn 0.2035 -0.6824 -0.7021
vn 0.2125 -0.9370 0.2771
vn 0.2787 -0.9603 -0.0151
vn 0.3792 -0.5940 -0.7095
vn 0.2786 -0.9603 -0.0152
vn 0.5048 -0.8089 0.3016
vn 0.5408 -0.8410 -0.0165
vn 0.5409 -0.8409 -0.0165
vn 0.6289 -0.7066 0.3243
vn 0.7424 -0.6696 -0.0233
vn 0.5109 -0.4887 -0.7072
vn 0.7112 -0.7028 0.0171
vn 0.8123 -0.4966 0.3058
vn 0.5499 -0.4626 -0.6954
vn 0.7700 -0.6373 0.0299
vn 0.8083 -0.3833 0.4470
vn 0.5497 -0.4612 -0.6965
vn 0.7688 -0.6392 -0.0181
vn 0.9138 0.0088 0.4060
vn 0.7689 -0.6391 -0.0182
vn 0.6986 -0.0755 -0.7116
vn 0.9905 -0.1356 0.0235
vn 0.8954 0.2997 0.3293
vn 0.9950 -0.0975 -0.0237
vn 0.6833 0.1566 -0.7132
vn 0.9825 0.1852 0.0195
vn 0.7842 0.5601 0.2669
vn 0.9756 0.2181 -0.0232
vn 0.8750 0.4838 0.0172
vn 0.6382 0.7413 0.2077
vn 0.8587 0.5119 -0.0236
vn 0.5960 0.3692 -0.7131
vn 0.7151 0.6987 0.0182
vn 0.5615 0.8026 0.2013
vn 0.7083 0.7055 -0.0227
vn 0.4967 0.4997 -0.7097
vn 0.4394 0.5517 -0.7089
vn 0.6226 0.7824 0.0127
vn 0.3812 0.9063 0.1823
vn 0.6169 0.7866 -0.0247
vn 0.2774 0.6443 -0.7127
vn 0.4047 0.9144 0.0114
vn 0.0809 0.9829 0.1657
vn 0.3929 0.9192 -0.0254
vn 0.0976 0.9949 -0.0237
vn 0.0564 0.7019 -0.7101
vn 0.1020 0.9947 0.0133
vn -0.2034 0.9788 -0.0232
vn -0.1364 0.6907 -0.7102
vn -0.2106 0.9775 0.0119
vn -0.2213 0.9591 0.1764
vn -0.5158 0.4831 -0.7076
vn -0.7280 0.6852 -0.0228
vn -0.4704 0.8599 0.1982
vn -0.7281 0.6851 -0.0228
vn -0.6531 0.7331 0.1897
vn -0.7280 0.6852 -0.0229
vn -0.5161 0.4833 -0.7072
vn -0.7165 0.6972 0.0256
vn -0.6224 0.7452 0.2396
vn -0.5266 0.8498 -0.0235
vn -0.3710 0.5994 -0.7093
vn -0.1926 0.6774 -0.7099
vn -0.4965 0.8679 0.0183
vn -0.4208 0.8783 0.2271
vn -0.2752 0.9611 -0.0229
vn -0.0104 0.7061 -0.7080
vn -0.2611 0.9652 0.0156
vn -0.2220 0.9591 0.1759
vn -0.0118 0.9997 -0.0198
vn -0.0000 0.7071 -0.7071
vn -0.0118 0.9997 -0.0195
vn -0.0081 0.9790 0.2035
vn -0.0055 0.9787 0.2052
vn -0.9996 -0.0235 -0.0159
vn -0.8838 0.0103 0.4678
vn -0.8837 0.0104 0.4679
vn -0.9999 0.0002 0.0121
vn -0.8363 0.3344 0.4346
vn -0.9997 0.0158 -0.0199
vn -0.9996 -0.0235 -0.0155
vn -0.8194 0.0147 -0.5731
vn -0.8199 0.0164 -0.5723
vn -0.9309 0.3650 0.0147
vn -0.7918 0.3349 -0.5108
vn -0.6248 0.7306 -0.2753
vn -0.9309 0.3650 0.0144
vn -0.7601 0.6498 0.0058
vn -0.5315 0.7548 -0.3844
vn -0.7601 0.6498 0.0061
vn -0.6956 0.5958 0.4015
vn -0.6699 0.6220 0.4055
vn -0.2067 0.9076 -0.3654
vn -0.2811 0.8539 0.4380
vn -0.2751 0.9612 -0.0232
vn -0.3094 0.9509 0.0081
vn 0.0157 0.9451 -0.3263
vn -0.0118 0.9997 -0.0194
vn -0.0209 0.9154 0.4020
vn -0.1016 0.9945 -0.0239
vn -0.0903 0.9387 -0.3326
vn -0.3792 0.8575 -0.3477
vn -0.1054 0.9944 0.0119
vn -0.1240 0.8950 0.4285
vn -0.5265 0.8498 -0.0234
vn -0.6839 0.5958 -0.4211
vn -0.5788 0.8154 0.0130
vn -0.5123 0.7200 0.4681
vn -0.8481 0.3363 0.4093
vn -0.9110 0.4108 -0.0357
vn -0.6615 0.6020 -0.4473
vn -0.9040 0.1394 0.4041
vn -0.9473 0.3196 -0.0224
vn -0.7799 0.5430 -0.3113
vn -0.9999 0.0004 0.0115
vn -0.9826 0.1849 0.0196
vn -0.9995 -0.0264 -0.0176
vn -0.9956 -0.0896 0.0271
vn -0.9114 -0.0791 0.4039
vn -0.9873 -0.1591 -0.0039
vn -0.8680 -0.3741 0.3266
vn -0.9166 -0.3993 0.0185
vn -0.9110 -0.4111 -0.0326
vn -0.9007 -0.4132 -0.1342
vn -0.6072 -0.4409 -0.6610
vn -0.6014 -0.4477 -0.6617
vn -0.7586 -0.6514 -0.0141
vn -0.6804 -0.6439 0.3500
vn -0.3329 -0.8848 0.3261
vn -0.7585 -0.6515 -0.0152
vn -0.4730 -0.5016 -0.7243
vn -0.4486 -0.8936 0.0138
vn 0.0049 -0.9644 0.2645
vn -0.4400 -0.8977 -0.0250
vn -0.2506 -0.6647 -0.7038
vn -0.0256 -0.7392 -0.6730
vn -0.0075 -0.9999 0.0152
vn 0.0049 -0.9644 0.2644
vn -0.0275 -0.9995 -0.0158
vn -0.0259 -0.7394 -0.6728
vn -0.0075 -0.9999 0.0153
vn -0.0078 -0.9998 0.0158
vn -0.2065 -0.6824 -0.7012
vn -0.2224 -0.9353 0.2751
vn -0.2890 -0.9572 0.0149
vn -0.3811 -0.5923 -0.7099
vn -0.2890 -0.9572 0.0150
vn -0.5053 -0.8092 0.2999
vn -0.5431 -0.8395 -0.0167
vn -0.5432 -0.8395 -0.0161
vn -0.6310 -0.7052 0.3232
vn -0.7336 -0.6790 -0.0262
vn -0.5125 -0.4873 -0.7071
vn -0.7112 -0.7028 0.0171
vn -0.8123 -0.4966 0.3058
vn -0.5394 -0.4619 -0.7041
vn -0.7700 -0.6373 0.0299
vn -0.8083 -0.3832 0.4470
vn -0.7585 -0.6514 -0.0153
vn -0.5392 -0.4613 -0.7046
vn -0.7587 -0.6513 -0.0147
vn -0.9138 0.0089 0.4060
vn -0.7586 -0.6514 -0.0151
vn -0.7025 -0.0754 -0.7077
vn -0.9905 -0.1356 0.0235
vn -0.8954 0.2997 0.3293
vn -0.9950 -0.0975 -0.0237
vn -0.6875 0.1557 -0.7093
vn -0.9825 0.1852 0.0195
vn -0.7842 0.5602 0.2669
vn -0.9757 0.2181 -0.0232
vn -0.8750 0.4838 0.0172
vn -0.6533 0.7331 0.1891
vn -0.8587 0.5119 -0.0236
vn -0.5974 0.3685 -0.7122
vn -0.7165 0.6971 0.0257
vn -0.5647 0.8005 0.2008
vn -0.5162 0.4835 -0.7070
vn -0.4418 0.5496 -0.7090
vn -0.6243 0.7811 0.0130
vn -0.3852 0.9047 0.1821
vn -0.6188 0.7851 -0.0248
vn -0.2789 0.6449 -0.7116
vn -0.4079 0.9129 0.0116
vn -0.0852 0.9821 0.1679
vn -0.3960 0.9179 -0.0253
vn -0.1014 0.9946 -0.0238
vn -0.0564 0.7019 -0.7101
vn -0.1054 0.9944 0.0120
vn 0.1998 0.9796 -0.0231
vn 0.1364 0.6907 -0.7102
vn 0.2073 0.9782 0.0113
vn 0.2186 0.9596 0.1771
vn 0.4978 0.5000 -0.7087
vn 0.7150 0.6990 0.0170
vn 0.4652 0.8622 0.2002
vn 0.7082 0.7057 -0.0226
vn 0.6324 0.7435 0.2176
vn 0.7083 0.7056 -0.0227
vn 0.4973 0.4992 -0.7095
vn 0.7149 0.6990 0.0175
vn 0.6330 0.7426 0.2187
vn 0.5070 0.8617 -0.0204
vn 0.3693 0.6002 -0.7095
vn 0.1899 0.6776 -0.7105
vn 0.4942 0.8692 0.0170
vn 0.4183 0.8813 0.2201
vn 0.2717 0.9621 -0.0229
vn -0.0068 0.7060 -0.7082
vn 0.2577 0.9661 0.0146
vn 0.2182 0.9597 0.1773
vn 0.0238 0.9997 0.0083
vn -0.0073 0.9790 0.2035
vn -0.0078 -0.9998 0.0155
vn -0.0079 -0.9998 0.0156
vn -0.0000 -0.7071 0.7071
vn -0.0117 -0.7092 0.7049
vn 0.0236 -0.9996 -0.0156
vn -0.2890 -0.9572 0.0151
vn -0.2101 -0.6832 0.6993
vn -0.0000 -0.6861 -0.7275
vn -0.0027 -0.5854 -0.8107
vn -0.6868 -0.7267 -0.0171
vn -0.3261 -0.9451 -0.0221
vn -0.3709 -0.5040 -0.7800
vn -0.4889 -0.5128 0.7057
vn -0.6936 -0.2879 -0.6604
vn -0.7338 -0.6789 -0.0261
vn -0.7432 -0.2768 -0.6091
vn -0.7586 -0.6514 -0.0146
vn -0.7586 -0.6513 -0.0153
vn -0.6519 -0.3476 -0.6739
vn -0.5533 -0.4532 0.6989
vn -0.8305 -0.5568 -0.0164
vn -0.6069 -0.3552 -0.7110
vn -0.9382 -0.3458 0.0149
vn -0.6611 -0.2518 0.7068
vn -0.7166 -0.0258 0.6970
vn -0.9259 -0.3776 -0.0145
vn -0.6655 -0.2412 -0.7063
vn -0.7068 -0.0181 -0.7072
vn -0.9996 -0.0235 -0.0158
vn -0.7171 -0.0243 0.6966
vn -0.9999 -0.0001 0.0121
vn -0.9996 -0.0235 -0.0156
vn -0.7071 -0.0107 -0.7071
vn 0.0235 -0.9996 -0.0158
vn -0.0077 -0.9998 0.0155
vn -0.0064 -0.7087 0.7054
vn -0.0000 -0.6860 -0.7276
vn -0.0036 -0.5852 -0.8109
vn 0.2787 -0.9603 -0.0150
vn 0.2067 -0.6826 0.7009
vn 0.3228 -0.9462 -0.0221
vn 0.3645 -0.5097 -0.7794
vn 0.7112 -0.7028 0.0170
vn 0.4884 -0.5119 0.7066
vn 0.6853 -0.7281 -0.0173
vn 0.6936 -0.2879 -0.6604
vn 0.7432 -0.2768 -0.6091
vn 0.6519 -0.3476 -0.6739
vn 0.5502 -0.4557 0.6997
vn 0.8304 -0.5569 -0.0164
vn 0.6043 -0.3553 -0.7132
vn 0.9382 -0.3459 0.0149
vn 0.6542 -0.2495 0.7140
vn 0.7166 -0.0259 0.6970
vn 0.9259 -0.3776 -0.0145
vn 0.6630 -0.2414 -0.7086
vn 0.7054 -0.0200 -0.7086
vn 0.9996 -0.0235 -0.0159
vn 0.7171 -0.0243 0.6966
vn 0.9996 -0.0235 -0.0156
vn 0.7071 -0.0000 -0.7071
vt 0.495569 0.144749
vt 0.495569 0.149708
vt 0.491377 0.149708
vt 0.492842 0.143676
vt 0.491377 0.143676
vt 0.453381 0.079033
vt 0.453375 0.075980
vt 0.457800 0.075971
vt 0.459045 0.079021
vt 0.458483 0.075835
vt 0.459045 0.075520
vt 0.459484 0.078936
vt 0.459480 0.075169
vt 0.459932 0.078729
vt 0.459953 0.074867
vt 0.461608 0.073626
vt 0.466243 0.074128
vt 0.462025 0.073043
vt 0.466663 0.073432
vt 0.462125 0.072337
vt 0.466733 0.072844
vt 0.466727 0.071356
vt 0.462023 0.065392
vt 0.467153 0.070381
vt 0.468079 0.069704
vt 0.476826 0.065348
vt 0.476832 0.067185
vt 0.483484 0.065328
vt 0.483489 0.067193
vt 0.476821 0.063511
vt 0.483478 0.063463
vt 0.468053 0.061044
vt 0.467123 0.060373
vt 0.466691 0.059401
vt 0.462084 0.058447
vt 0.466688 0.057912
vt 0.466615 0.057325
vt 0.461979 0.057741
vt 0.466191 0.056631
vt 0.461560 0.057161
vt 0.459852 0.052068
vt 0.459896 0.055930
vt 0.459422 0.055630
vt 0.459403 0.051863
vt 0.458985 0.055283
vt 0.458964 0.051781
vt 0.458421 0.054970
vt 0.457737 0.054839
vt 0.453300 0.051803
vt 0.453311 0.054856
vt 0.571324 0.057623
vt 0.575947 0.057626
vt 0.571301 0.064226
vt 0.575942 0.065781
vt 0.571106 0.065114
vt 0.575816 0.066401
vt 0.575500 0.066951
vt 0.570664 0.065923
vt 0.568014 0.068869
vt 0.568794 0.074583
vt 0.566913 0.069477
vt 0.567771 0.075141
vt 0.566858 0.075235
vt 0.565811 0.069582
vt 0.564376 0.075233
vt 0.555835 0.069578
vt 0.563208 0.075650
vt 0.562431 0.076617
vt 0.555828 0.087053
vt 0.558831 0.087004
vt 0.558826 0.099558
vt 0.555821 0.103646
vt 0.560121 0.102490
vt 0.560249 0.102730
vt 0.560602 0.102891
vt 0.562306 0.102914
vt 0.562741 0.103110
vt 0.563055 0.103409
vt 0.561796 0.105953
vt 0.555832 0.105953
vt 0.562218 0.106008
vt 0.562625 0.106222
vt 0.562951 0.106536
vt 0.567738 0.110141
vt 0.566555 0.111284
vt 0.567816 0.110637
vt 0.566941 0.111510
vt 0.567216 0.111451
vt 0.567638 0.111022
vt 0.519388 0.129458
vt 0.521831 0.129458
vt 0.521831 0.123462
vt 0.519388 0.123849
vt 0.519761 0.123462
vt 0.560602 0.102891
vt 0.562306 0.102914
vt 0.562741 0.103110
vt 0.566941 0.111510
vt 0.567216 0.111451
vt 0.521831 0.123462
vt 0.519388 0.129458
vt 0.519388 0.123849
vt 0.519761 0.123462
vt 0.451759 0.086819
vt 0.451469 0.087004
vt 0.452097 0.086394
vt 0.452143 0.086088
vt 0.451077 0.086986
vt 0.452075 0.085840
vt 0.448247 0.082307
vt 0.446045 0.082679
vt 0.445656 0.082342
vt 0.447998 0.082007
vt 0.445441 0.082042
vt 0.447834 0.081638
vt 0.447780 0.081251
vt 0.445339 0.081691
vt 0.445318 0.080075
vt 0.447778 0.075598
vt 0.445172 0.079801
vt 0.445158 0.075598
vt 0.444942 0.079680
vt 0.441988 0.078529
vt 0.441987 0.075599
vt 0.441987 0.072669
vt 0.444941 0.071517
vt 0.445170 0.071396
vt 0.445316 0.071121
vt 0.447778 0.069944
vt 0.445337 0.069506
vt 0.445438 0.069154
vt 0.447832 0.069558
vt 0.447995 0.069188
vt 0.445653 0.068854
vt 0.448244 0.068888
vt 0.446042 0.068517
vt 0.451072 0.064208
vt 0.452071 0.065354
vt 0.452139 0.065106
vt 0.451465 0.064190
vt 0.452093 0.064800
vt 0.451754 0.064375
vt 0.491377 0.149708
vt 0.495569 0.149708
vt 0.495569 0.144749
vt 0.492842 0.143676
vt 0.491377 0.143676
vt 0.852201 0.493618
vt 0.851780 0.488884
vt 0.852201 0.489304
vt 0.851295 0.494250
vt 0.816601 0.488886
vt 0.816740 0.494250
vt 0.816078 0.489409
vt 0.816078 0.493899
vt 0.529290 0.319006
vt 0.529890 0.318688
vt 0.529290 0.323071
vt 0.529764 0.323544
vt 0.561174 0.318688
vt 0.561613 0.323546
vt 0.561994 0.319261
vt 0.561994 0.323166
vt 0.474459 0.052397
vt 0.481862 0.052397
vt 0.481862 0.055697
vt 0.474459 0.055698
vt 0.474460 0.058998
vt 0.481862 0.058998
vt 0.646775 0.147804
vt 0.655044 0.147758
vt 0.655049 0.148531
vt 0.646685 0.148574
vt 0.646026 0.147833
vt 0.646430 0.184295
vt 0.654720 0.184671
vt 0.654662 0.185818
vt 0.646321 0.185405
vt 0.645783 0.184192
vt 0.645522 0.185217
vt 0.644759 0.184961
vt 0.646032 0.148576
vt 0.645185 0.183960
vt 0.634712 0.179602
vt 0.645396 0.148579
vt 0.645290 0.147838
vt 0.635043 0.147895
vt 0.634673 0.178379
vt 0.633429 0.179249
vt 0.634865 0.148641
vt 0.633730 0.147923
vt 0.633612 0.178056
vt 0.633766 0.148650
vt 0.632725 0.178024
vt 0.632500 0.179196
vt 0.632874 0.148651
vt 0.632734 0.147917
vt 0.630320 0.178096
vt 0.630348 0.179267
vt 0.628947 0.178921
vt 0.630435 0.148649
vt 0.630283 0.147887
vt 0.629072 0.177752
vt 0.627678 0.178139
vt 0.629189 0.148654
vt 0.629187 0.147866
vt 0.628132 0.147916
vt 0.627825 0.176958
vt 0.616892 0.170626
vt 0.627944 0.148661
vt 0.617254 0.147962
vt 0.617179 0.169477
vt 0.612079 0.162177
vt 0.612272 0.160549
vt 0.617254 0.148702
vt 0.612282 0.159746
vt 0.604791 0.148782
vt 0.604747 0.148036
vt 0.605111 0.159977
vt 0.601611 0.148193
vt 0.601658 0.148908
vt 0.602113 0.162262
vt 0.605210 0.161125
vt 0.605339 0.161403
vt 0.602130 0.162603
vt 0.601422 0.148923
vt 0.601398 0.148196
vt 0.601177 0.148213
vt 0.601879 0.162372
vt 0.601932 0.162707
vt 0.601227 0.148928
vt 0.600987 0.148226
vt 0.601684 0.162384
vt 0.601698 0.162708
vt 0.601520 0.162683
vt 0.601038 0.148935
vt 0.599542 0.148278
vt 0.601495 0.162398
vt 0.599993 0.162716
vt 0.599537 0.148993
vt 0.599984 0.162437
vt 0.599679 0.162738
vt 0.599269 0.148286
vt 0.599672 0.162446
vt 0.599377 0.162754
vt 0.599228 0.149006
vt 0.599011 0.148290
vt 0.599361 0.162455
vt 0.598920 0.149019
vt 0.598728 0.148296
vt 0.599049 0.162464
vt 0.599066 0.162757
vt 0.598612 0.149032
vt 0.598344 0.148308
vt 0.598490 0.162775
vt 0.598213 0.149088
vt 0.591175 0.152390
vt 0.598392 0.162482
vt 0.591452 0.162879
vt 0.591168 0.153111
vt 0.590914 0.152528
vt 0.591394 0.162592
vt 0.591168 0.162891
vt 0.590925 0.153291
vt 0.590656 0.152667
vt 0.591137 0.162596
vt 0.590900 0.162903
vt 0.590683 0.153466
vt 0.590399 0.152797
vt 0.590881 0.162600
vt 0.590436 0.153635
vt 0.590126 0.152913
vt 0.590623 0.162605
vt 0.590643 0.162899
vt 0.590183 0.153785
vt 0.589676 0.153100
vt 0.590360 0.162610
vt 0.590375 0.162901
vt 0.589940 0.162913
vt 0.589785 0.153967
vt 0.589451 0.153188
vt 0.589944 0.162617
vt 0.589682 0.162921
vt 0.589541 0.154046
vt 0.589246 0.153228
vt 0.589691 0.162620
vt 0.589431 0.162625
vt 0.589421 0.162918
vt 0.589290 0.154086
vt 0.589170 0.162629
vt 0.589150 0.162914
vt 0.589035 0.154082
vt 0.589043 0.153231
vt 0.588863 0.162922
vt 0.588783 0.154036
vt 0.588843 0.153194
vt 0.588912 0.162633
vt 0.588631 0.153113
vt 0.583338 0.162716
vt 0.583333 0.163011
vt 0.583273 0.151243
vt 0.583349 0.150375
vt 0.582967 0.162717
vt 0.582969 0.163020
vt 0.582594 0.163014
vt 0.582903 0.151084
vt 0.582972 0.150183
vt 0.582595 0.162718
vt 0.582235 0.163014
vt 0.582529 0.150984
vt 0.582558 0.150060
vt 0.582224 0.162719
vt 0.576221 0.163014
vt 0.576221 0.162719
vt 0.576221 0.151009
vt 0.582158 0.150956
vt 0.582158 0.150031
vt 0.576221 0.150090
vt 0.655049 0.148531
vt 0.646685 0.148574
vt 0.634712 0.179602
vt 0.645289 0.147838
vt 0.632500 0.179196
vt 0.630348 0.179267
vt 0.629187 0.147866
vt 0.627825 0.176958
vt 0.612079 0.162177
vt 0.605111 0.159977
vt 0.601611 0.148193
vt 0.605339 0.161403
vt 0.602130 0.162603
vt 0.601422 0.148923
vt 0.601879 0.162372
vt 0.601684 0.162384
vt 0.601697 0.162708
vt 0.599542 0.148278
vt 0.601495 0.162398
vt 0.599984 0.162437
vt 0.598490 0.162775
vt 0.591394 0.162592
vt 0.590656 0.152667
vt 0.590881 0.162600
vt 0.590643 0.162899
vt 0.590183 0.153785
vt 0.590375 0.162901
vt 0.589941 0.162913
vt 0.589785 0.153967
vt 0.589451 0.153188
vt 0.589944 0.162617
vt 0.589431 0.162625
vt 0.589421 0.162918
vt 0.589290 0.154086
vt 0.589150 0.162914
vt 0.589035 0.154082
vt 0.589043 0.153231
vt 0.588783 0.154036
vt 0.588843 0.153194
vt 0.583333 0.163011
vt 0.582969 0.163020
vt 0.582235 0.163014
vt 0.582158 0.150956
vt 0.582159 0.150031
vt 0.490446 0.007499
vt 0.481769 0.007375
vt 0.490451 0.006838
vt 0.481796 0.006719
vt 0.490070 0.037255
vt 0.480895 0.007359
vt 0.480952 0.006731
vt 0.481290 0.037153
vt 0.490066 0.037888
vt 0.481270 0.037678
vt 0.480051 0.007347
vt 0.480492 0.037205
vt 0.480562 0.037700
vt 0.480012 0.006703
vt 0.479699 0.037512
vt 0.479845 0.037971
vt 0.477666 0.038561
vt 0.477553 0.039135
vt 0.476732 0.007302
vt 0.477105 0.038802
vt 0.476948 0.039349
vt 0.476667 0.006662
vt 0.476506 0.038948
vt 0.476343 0.039471
vt 0.475953 0.007291
vt 0.475973 0.006661
vt 0.475292 0.006635
vt 0.475523 0.038951
vt 0.475535 0.039482
vt 0.474747 0.039472
vt 0.475175 0.007282
vt 0.469575 0.006559
vt 0.469571 0.007218
vt 0.474748 0.038941
vt 0.469147 0.039397
vt 0.469151 0.038864
vt 0.481769 0.007375
vt 0.490451 0.006838
vt 0.480952 0.006731
vt 0.480051 0.007347
vt 0.479845 0.037971
vt 0.477666 0.038561
vt 0.477553 0.039135
vt 0.477105 0.038802
vt 0.476506 0.038948
vt 0.476343 0.039471
vt 0.475953 0.007291
vt 0.475523 0.038951
vt 0.469571 0.007218
vt 0.469151 0.038864
s 1
usemtl volt_lgnd_v23_voidsinister_main.002
f 2/1/1 1/2/1 3/3/1
f 2/1/1 3/3/1 4/4/1
f 4/4/1 3/3/1 5/5/1
f 7/6/2 6/7/2 8/8/2
f 9/9/3 7/6/2 8/8/2
f 9/9/3 8/8/2 10/10/2
f 11/11/4 9/9/3 10/10/2
f 12/12/5 9/9/3 11/11/4
f 13/13/6 12/12/5 11/11/4
f 14/14/7 12/12/5 13/13/6
f 15/15/8 14/14/7 13/13/6
f 15/15/8 16/16/9 14/14/7
f 16/16/9 17/17/10 14/14/7
f 17/17/10 16/16/9 18/18/11
f 19/19/12 17/17/10 18/18/11
f 19/19/12 18/18/11 20/20/13
f 21/21/14 19/19/12 20/20/13
f 22/22/15 21/21/14 20/20/13
f 23/23/16 22/22/15 20/20/13
f 24/24/17 22/22/15 23/23/16
f 23/23/16 25/25/18 24/24/17
f 25/25/18 23/23/16 26/26/19
f 27/27/20 25/25/18 26/26/19
f 29/28/21 28/29/21 27/27/20
f 26/26/19 29/28/21 27/27/20
f 31/30/20 30/31/21 29/28/21
f 26/26/19 31/30/20 29/28/21
f 32/32/22 31/30/20 26/26/19
f 23/23/16 32/32/22 26/26/19
f 33/33/23 32/32/22 23/23/16
f 23/23/16 34/34/24 33/33/23
f 23/23/16 35/35/25 34/34/24
f 35/35/25 36/36/26 34/34/24
f 37/37/27 36/36/26 35/35/25
f 38/38/28 37/37/27 35/35/25
f 39/39/10 37/37/27 38/38/28
f 40/40/29 39/39/10 38/38/28
f 39/39/10 40/40/29 41/41/7
f 40/40/29 42/42/30 41/41/7
f 42/42/30 43/43/31 41/41/7
f 43/43/31 44/44/5 41/41/7
f 43/43/31 45/45/4 44/44/5
f 45/45/4 46/46/3 44/44/5
f 47/47/2 46/46/3 45/45/4
f 47/47/2 48/48/2 46/46/3
f 49/49/2 46/46/3 48/48/2
f 50/50/2 49/49/2 48/48/2
f 52/51/32 51/52/32 53/53/32
f 51/52/32 54/54/32 53/53/32
f 55/55/33 53/53/32 54/54/32
f 56/56/32 55/55/33 54/54/32
f 55/55/33 56/56/32 57/57/32
f 58/58/32 55/55/33 57/57/32
f 58/58/32 57/57/32 59/59/32
f 57/57/32 60/60/32 59/59/32
f 61/61/32 59/59/32 60/60/32
f 62/62/32 61/61/32 60/60/32
f 61/61/32 62/62/32 63/63/32
f 64/64/32 61/61/32 63/63/32
f 64/64/32 63/63/32 65/65/32
f 66/66/32 64/64/32 65/65/32
f 67/67/32 66/66/32 65/65/32
f 67/67/32 68/68/32 66/66/32
f 68/68/32 69/69/32 66/66/32
f 70/70/32 69/69/32 68/68/32
f 70/70/32 71/71/32 69/69/32
f 71/71/32 72/72/34 69/69/32
f 73/73/33 72/72/34 71/71/32
f 74/74/35 72/72/34 73/73/33
f 75/75/32 72/72/34 74/74/35
f 76/76/32 72/72/34 75/75/32
f 76/76/32 77/77/32 72/72/34
f 78/78/36 72/72/34 77/77/32
f 80/79/37 79/80/38 72/72/34
f 78/78/36 80/79/37 72/72/34
f 81/81/39 80/79/37 78/78/36
f 81/81/39 78/78/36 82/82/40
f 82/82/40 78/78/36 83/83/41
f 83/83/41 78/78/36 84/84/42
f 85/85/43 83/83/41 84/84/42
f 85/85/43 84/84/42 86/86/44
f 87/87/45 85/85/43 86/86/44
f 88/88/46 87/87/45 86/86/44
f 88/88/46 86/86/44 89/89/47
f 91/90/48 90/91/48 92/92/48
f 93/93/48 91/90/48 92/92/48
f 94/94/48 93/93/48 92/92/48
f 96/52/32 95/51/32 97/53/32
f 98/54/32 96/52/32 97/53/32
f 98/54/32 97/53/32 99/55/32
f 100/56/32 98/54/32 99/55/32
f 100/56/32 99/55/32 101/57/32
f 99/55/32 102/58/32 101/57/32
f 101/57/32 102/58/32 103/59/32
f 104/60/32 101/57/32 103/59/32
f 104/60/32 103/59/32 105/61/32
f 106/62/32 104/60/32 105/61/32
f 106/62/32 105/61/32 107/63/32
f 105/61/32 108/64/32 107/63/32
f 107/63/32 108/64/32 109/65/32
f 108/64/32 110/66/32 109/65/32
f 109/65/32 110/66/32 111/67/32
f 110/66/32 112/68/32 111/67/32
f 110/66/32 113/69/32 112/68/32
f 112/68/32 113/69/32 114/70/32
f 114/70/32 113/69/32 115/71/32
f 113/69/32 116/72/34 115/71/32
f 115/71/32 116/72/34 117/73/33
f 117/73/33 116/72/34 118/74/33
f 118/74/33 116/72/34 119/95/32
f 119/95/32 116/72/34 120/96/32
f 116/72/34 121/97/32 120/96/32
f 121/97/32 116/72/34 122/78/36
f 124/80/38 123/79/49 116/72/34
f 123/79/49 122/78/36 116/72/34
f 122/78/36 123/79/49 125/81/50
f 126/82/51 122/78/36 125/81/50
f 127/83/52 122/78/36 126/82/51
f 122/78/36 127/83/52 128/84/53
f 127/83/52 129/85/54 128/84/53
f 128/84/53 129/85/54 130/86/44
f 129/85/54 131/98/55 130/86/44
f 131/98/55 132/99/56 130/86/44
f 130/86/44 132/99/56 133/89/57
f 135/100/48 134/91/48 136/101/48
f 135/100/48 136/101/48 137/102/48
f 135/100/48 137/102/48 138/103/48
f 140/104/2 139/105/2 141/106/58
f 139/105/2 142/107/58 141/106/58
f 139/105/2 143/108/2 142/107/58
f 143/108/2 144/109/2 142/107/58
f 145/110/2 144/109/2 143/108/2
f 146/111/2 145/110/2 143/108/2
f 146/111/2 147/112/2 145/110/2
f 145/110/2 147/112/2 148/113/2
f 147/112/2 149/114/2 148/113/2
f 148/113/2 149/114/2 150/115/2
f 151/116/2 150/115/2 149/114/2
f 152/117/2 151/116/2 149/114/2
f 153/118/2 151/116/2 152/117/2
f 153/118/2 154/119/2 151/116/2
f 154/119/2 153/118/2 155/120/59
f 154/119/2 155/120/59 156/121/60
f 157/122/61 156/121/60 155/120/59
f 157/122/61 158/123/62 156/121/60
f 158/123/62 159/124/63 156/121/60
f 159/124/63 160/125/64 156/121/60
f 160/125/64 161/126/61 156/121/60
f 162/127/65 156/121/60 161/126/61
f 156/121/60 162/127/65 154/119/2
f 162/127/65 163/128/2 154/119/2
f 164/129/2 154/119/2 163/128/2
f 165/130/2 164/129/2 163/128/2
f 164/129/2 165/130/2 166/131/2
f 167/132/2 164/129/2 166/131/2
f 168/133/2 167/132/2 166/131/2
f 168/133/2 166/131/2 169/134/2
f 170/135/2 168/133/2 169/134/2
f 170/135/2 169/134/2 171/136/2
f 170/135/2 171/136/2 172/137/66
f 173/138/66 170/135/2 172/137/66
f 173/138/66 172/137/66 174/139/2
f 172/137/66 175/140/2 174/139/2
f 174/139/2 175/140/2 176/141/67
f 176/141/67 175/140/2 177/142/2
f 179/143/1 178/144/1 180/145/1
f 181/146/1 179/143/1 180/145/1
f 182/147/1 179/143/1 181/146/1
f 184/148/48 183/149/48 185/150/48
f 186/151/48 183/149/48 184/148/48
f 186/151/48 187/152/48 183/149/48
f 188/153/48 187/152/48 186/151/48
f 187/152/48 188/153/48 189/154/48
f 189/154/48 188/153/48 190/155/48
f 192/156/48 191/157/48 193/158/48
f 193/158/48 191/157/48 194/159/48
f 195/160/48 194/159/48 191/157/48
f 196/161/48 194/159/48 195/160/48
f 197/162/48 196/161/48 195/160/48
f 198/163/48 196/161/48 197/162/48
f 200/164/2 199/165/2 201/166/2
f 202/167/2 200/164/2 201/166/2
f 202/167/2 201/166/2 203/168/2
f 201/166/2 204/169/2 203/168/2
f 206/170/68 205/171/69 207/172/70
f 208/173/70 206/170/68 207/172/70
f 209/174/71 206/170/68 208/173/70
f 208/173/70 207/172/70 210/175/72
f 207/172/70 211/176/73 210/175/72
f 211/176/73 212/177/74 210/175/72
f 212/177/74 213/178/75 210/175/72
f 214/179/76 210/175/72 213/178/75
f 210/175/72 214/179/76 208/173/70
f 215/180/77 214/179/76 213/178/75
f 215/180/77 216/181/78 214/179/76
f 217/182/79 209/174/71 208/173/70
f 214/179/76 217/182/79 208/173/70
f 216/181/78 218/183/80 214/179/76
f 214/179/76 218/183/80 217/182/79
f 216/181/78 219/184/81 218/183/80
f 209/174/71 217/182/79 220/185/82
f 218/183/80 220/185/82 217/182/79
f 221/186/83 209/174/71 220/185/82
f 221/186/83 220/185/82 222/187/84
f 219/184/81 223/188/85 218/183/80
f 218/183/80 223/188/85 220/185/82
f 219/184/81 224/189/86 223/188/85
f 220/185/82 225/190/87 222/187/84
f 223/188/85 225/190/87 220/185/82
f 222/187/84 225/190/87 226/191/88
f 224/189/86 227/192/89 223/188/85
f 223/188/85 227/192/89 225/190/87
f 225/190/87 228/193/90 226/191/88
f 227/192/89 228/193/90 225/190/87
f 229/194/91 227/192/89 224/189/86
f 227/192/89 229/194/91 228/193/90
f 230/195/92 229/194/91 224/189/86
f 226/191/88 228/193/90 231/196/93
f 229/194/91 231/196/93 228/193/90
f 232/197/94 226/191/88 231/196/93
f 233/198/95 229/194/91 230/195/92
f 234/199/96 233/198/95 230/195/92
f 234/199/96 235/200/97 233/198/95
f 236/201/98 231/196/93 229/194/91
f 231/196/93 236/201/98 232/197/94
f 233/198/95 236/201/98 229/194/91
f 236/201/98 237/202/99 232/197/94
f 235/200/97 238/203/100 233/198/95
f 233/198/95 238/203/100 236/201/98
f 235/200/97 239/204/101 238/203/100
f 237/202/99 236/201/98 240/205/102
f 238/203/100 240/205/102 236/201/98
f 241/206/103 237/202/99 240/205/102
f 242/207/104 241/206/103 240/205/102
f 239/204/101 243/208/105 238/203/100
f 238/203/100 243/208/105 240/205/102
f 243/208/105 239/204/101 244/209/106
f 245/210/107 242/207/104 240/205/102
f 243/208/105 245/210/107 240/205/102
f 246/211/108 242/207/104 245/210/107
f 247/212/109 243/208/105 244/209/106
f 243/208/105 247/212/109 245/210/107
f 244/209/106 248/213/110 247/212/109
f 248/213/110 249/214/111 247/212/109
f 247/212/109 250/215/112 245/210/107
f 250/215/112 247/212/109 249/214/111
f 250/215/112 246/211/108 245/210/107
f 250/215/112 249/214/111 251/216/113
f 250/215/112 252/217/114 246/211/108
f 252/217/114 250/215/112 251/216/113
f 252/217/114 253/218/115 246/211/108
f 254/219/116 252/217/114 251/216/113
f 255/220/117 253/218/115 252/217/114
f 252/217/114 254/219/116 256/221/118
f 256/221/118 255/220/117 252/217/114
f 256/221/118 254/219/116 257/222/119
f 254/219/116 258/223/120 257/222/119
f 257/222/119 258/223/120 259/224/121
f 260/225/122 257/222/119 259/224/121
f 256/221/118 261/226/123 255/220/117
f 256/221/118 257/222/119 261/226/123
f 261/226/123 262/227/124 255/220/117
f 263/228/125 262/227/124 261/226/123
f 257/222/119 260/225/122 264/229/126
f 257/222/119 264/229/126 261/226/123
f 260/225/122 265/230/127 264/229/126
f 266/231/128 263/228/125 261/226/123
f 261/226/123 264/229/126 266/231/128
f 267/232/129 263/228/125 266/231/128
f 268/233/130 264/229/126 265/230/127
f 264/229/126 268/233/130 266/231/128
f 269/234/131 268/233/130 265/230/127
f 268/233/130 269/234/131 270/235/132
f 271/236/133 267/232/129 266/231/128
f 266/231/128 268/233/130 271/236/133
f 272/237/134 267/232/129 271/236/133
f 273/238/135 268/233/130 270/235/132
f 268/233/130 273/238/135 271/236/133
f 270/235/132 274/239/136 273/238/135
f 275/240/133 272/237/134 271/236/133
f 274/239/136 276/241/137 273/238/135
f 271/236/133 273/238/135 276/241/137
f 275/240/133 271/236/133 276/241/137
f 276/241/137 274/239/136 277/242/138
f 278/243/139 272/237/134 275/240/133
f 279/244/140 276/241/137 277/242/138
f 275/240/133 276/241/137 279/244/140
f 279/244/140 277/242/138 280/245/141
f 281/246/142 278/243/139 275/240/133
f 281/246/142 275/240/133 279/244/140
f 278/243/139 281/246/142 282/247/143
f 283/248/144 279/244/140 280/245/141
f 281/246/142 279/244/140 283/248/144
f 281/246/142 284/249/145 282/247/143
f 284/249/145 281/246/142 283/248/144
f 282/247/143 284/249/145 285/250/146
f 283/248/144 280/245/141 286/251/147
f 284/249/145 283/248/144 286/251/147
f 280/245/141 287/252/148 286/251/147
f 284/249/145 288/253/149 285/250/146
f 288/253/149 284/249/145 286/251/147
f 289/254/150 285/250/146 288/253/149
f 286/251/147 287/252/148 290/255/151
f 291/256/152 289/254/150 288/253/149
f 291/256/152 288/253/149 286/251/147
f 292/257/153 289/254/150 291/256/152
f 293/258/147 286/251/147 290/255/151
f 293/258/147 291/256/152 286/251/147
f 290/255/151 294/259/154 293/258/147
f 295/260/155 292/257/153 291/256/152
f 295/260/155 291/256/152 293/258/147
f 296/261/156 292/257/153 295/260/155
f 294/259/154 297/262/157 293/258/147
f 297/262/157 295/260/155 293/258/147
f 294/259/154 298/263/158 297/262/157
f 299/264/159 296/261/156 295/260/155
f 295/260/155 297/262/157 299/264/159
f 300/265/160 296/261/156 299/264/159
f 298/263/158 301/266/161 297/262/157
f 297/262/157 301/266/161 299/264/159
f 298/263/158 302/267/162 301/266/161
f 303/268/163 300/265/160 299/264/159
f 299/264/159 301/266/161 303/268/163
f 304/269/164 300/265/160 303/268/163
f 302/267/162 305/270/165 301/266/161
f 301/266/161 305/270/165 303/268/163
f 306/271/166 304/269/164 303/268/163
f 303/268/163 305/270/165 306/271/166
f 307/272/167 304/269/164 306/271/166
f 308/273/168 305/270/165 302/267/162
f 305/270/165 308/273/168 306/271/166
f 309/274/169 308/273/168 302/267/162
f 310/275/170 307/272/167 306/271/166
f 306/271/166 308/273/168 310/275/170
f 311/276/171 307/272/167 310/275/170
f 312/277/172 308/273/168 309/274/169
f 308/273/168 312/277/172 310/275/170
f 313/278/173 312/277/172 309/274/169
f 313/278/173 314/279/174 312/277/172
f 315/280/175 311/276/171 310/275/170
f 310/275/170 312/277/172 315/280/175
f 316/281/176 311/276/171 315/280/175
f 314/279/174 317/282/177 312/277/172
f 312/277/172 317/282/177 315/280/175
f 317/282/177 314/279/174 318/283/178
f 319/284/179 316/281/176 315/280/175
f 315/280/175 317/282/177 319/284/179
f 320/285/180 316/281/176 319/284/179
f 321/286/181 317/282/177 318/283/178
f 317/282/177 321/286/181 319/284/179
f 322/287/182 321/286/181 318/283/178
f 323/288/183 322/287/182 318/283/178
f 319/284/179 321/286/181 324/289/184
f 321/286/181 322/287/182 324/289/184
f 324/289/184 320/285/180 319/284/179
f 322/287/182 323/288/183 325/290/185
f 324/289/184 322/287/182 325/290/185
f 323/288/183 326/291/186 325/290/185
f 324/289/184 327/292/187 320/285/180
f 327/292/187 324/289/184 325/290/185
f 327/292/187 328/293/188 320/285/180
f 326/291/186 329/294/189 325/290/185
f 327/292/187 330/295/190 328/293/188
f 330/295/190 331/296/191 328/293/188
f 325/290/185 332/297/192 327/292/187
f 329/294/189 332/297/192 325/290/185
f 332/297/192 330/295/190 327/292/187
f 330/295/190 333/298/193 331/296/191
f 332/297/192 329/294/189 334/299/194
f 330/295/190 332/297/192 334/299/194
f 329/294/189 335/300/195 334/299/194
f 333/298/193 330/295/190 336/301/196
f 336/301/196 330/295/190 334/299/194
f 337/302/197 333/298/193 336/301/196
f 334/299/194 335/300/195 338/303/198
f 336/301/196 334/299/194 338/303/198
f 335/300/195 339/304/199 338/303/198
f 339/304/199 340/305/200 338/303/198
f 336/301/196 341/306/201 337/302/197
f 341/306/201 336/301/196 338/303/198
f 341/306/201 342/307/202 337/302/197
f 340/305/200 343/308/203 338/303/198
f 341/306/201 338/303/198 343/308/203
f 340/305/200 344/309/204 343/308/203
f 341/306/201 345/310/205 342/307/202
f 345/310/205 341/306/201 343/308/203
f 345/310/205 346/311/206 342/307/202
f 344/309/204 347/312/207 343/308/203
f 345/310/205 343/308/203 347/312/207
f 347/312/207 344/309/204 348/313/208
f 349/314/1 347/312/207 348/313/208
f 347/312/207 349/314/1 350/315/209
f 345/310/205 351/316/209 346/311/206
f 351/316/209 345/310/205 347/312/207
f 351/316/209 347/312/207 350/315/209
f 351/316/209 352/317/210 346/311/206
f 351/316/209 350/315/209 353/318/211
f 352/317/210 351/316/209 353/318/211
f 355/319/212 354/171/213 356/170/214
f 357/320/215 355/319/212 356/170/214
f 357/320/215 356/170/214 358/174/216
f 357/320/215 359/175/217 355/319/212
f 359/175/217 360/176/218 355/319/212
f 360/176/218 359/175/217 361/177/219
f 359/175/217 362/178/220 361/177/219
f 359/175/217 363/179/221 362/178/220
f 359/175/217 357/320/215 363/179/221
f 363/179/221 364/180/222 362/178/220
f 364/180/222 363/179/221 365/181/223
f 366/182/224 357/320/215 358/174/216
f 357/320/215 366/182/224 363/179/221
f 363/179/221 367/183/225 365/181/223
f 367/183/225 363/179/221 366/182/224
f 368/321/226 365/181/223 367/183/225
f 366/182/224 358/174/216 369/185/227
f 369/185/227 367/183/225 366/182/224
f 358/174/216 370/322/228 369/185/227
f 370/322/228 371/187/229 369/185/227
f 372/188/190 368/321/226 367/183/225
f 367/183/225 369/185/227 372/188/190
f 368/321/226 372/188/190 373/189/230
f 371/187/229 374/190/190 369/185/227
f 369/185/227 374/190/190 372/188/190
f 371/187/229 375/191/231 374/190/190
f 372/188/190 376/192/232 373/189/230
f 372/188/190 374/190/190 376/192/232
f 375/191/231 377/193/233 374/190/190
f 374/190/190 377/193/233 376/192/232
f 376/192/232 378/194/207 373/189/230
f 378/194/207 376/192/232 377/193/233
f 378/194/207 379/323/234 373/189/230
f 377/193/233 375/191/231 380/196/235
f 380/196/235 378/194/207 377/193/233
f 375/191/231 381/197/236 380/196/235
f 378/194/207 382/198/237 379/323/234
f 382/198/237 383/324/238 379/323/234
f 383/324/238 382/198/237 384/200/239
f 380/196/235 385/201/240 378/194/207
f 380/196/235 381/197/236 385/201/240
f 385/201/240 382/198/237 378/194/207
f 381/197/236 386/202/241 385/201/240
f 382/198/237 387/203/242 384/200/239
f 382/198/237 385/201/240 387/203/242
f 384/200/239 387/203/242 388/204/243
f 385/201/240 386/202/241 389/205/244
f 385/201/240 389/205/244 387/203/242
f 386/202/241 390/325/245 389/205/244
f 389/205/244 390/325/245 391/207/246
f 387/203/242 392/326/247 388/204/243
f 392/326/247 387/203/242 389/205/244
f 388/204/243 392/326/247 393/209/248
f 394/210/224 389/205/244 391/207/246
f 394/210/224 392/326/247 389/205/244
f 391/207/246 395/211/249 394/210/224
f 392/326/247 396/212/250 393/209/248
f 392/326/247 394/210/224 396/212/250
f 393/209/248 396/212/250 397/327/251
f 396/212/250 398/214/252 397/327/251
f 394/210/224 399/215/253 396/212/250
f 398/214/252 396/212/250 399/215/253
f 395/211/249 399/215/253 394/210/224
f 400/216/254 398/214/252 399/215/253
f 399/215/253 395/211/249 401/217/255
f 399/215/253 401/217/255 400/216/254
f 395/211/249 402/218/256 401/217/255
f 401/217/255 403/328/257 400/216/254
f 401/217/255 402/218/256 404/329/258
f 405/221/259 403/328/257 401/217/255
f 405/221/259 401/217/255 404/329/258
f 406/222/260 403/328/257 405/221/259
f 406/222/260 407/223/261 403/328/257
f 408/330/262 407/223/261 406/222/260
f 409/331/263 408/330/262 406/222/260
f 404/329/258 410/332/264 405/221/259
f 406/222/260 405/221/259 410/332/264
f 404/329/258 411/227/265 410/332/264
f 410/332/264 411/227/265 412/228/266
f 409/331/263 406/222/260 413/333/267
f 413/333/267 406/222/260 410/332/264
f 414/230/268 409/331/263 413/333/267
f 415/231/269 410/332/264 412/228/266
f 413/333/267 410/332/264 415/231/269
f 415/231/269 412/228/266 416/232/270
f 414/230/268 413/333/267 417/334/271
f 417/334/271 413/333/267 415/231/269
f 418/335/272 414/230/268 417/334/271
f 418/335/272 417/334/271 419/235/273
f 420/236/274 415/231/269 416/232/270
f 417/334/271 415/231/269 420/236/274
f 420/236/274 416/232/270 421/336/275
f 417/334/271 422/337/276 419/235/273
f 422/337/276 417/334/271 420/236/274
f 419/235/273 422/337/276 423/239/277
f 424/240/278 420/236/274 421/336/275
f 422/337/276 425/338/279 423/239/277
f 425/338/279 422/337/276 420/236/274
f 424/240/278 425/338/279 420/236/274
f 423/239/277 425/338/279 426/242/280
f 424/240/278 421/336/275 427/243/281
f 425/338/279 428/244/282 426/242/280
f 428/244/282 425/338/279 424/240/278
f 429/245/283 426/242/280 428/244/282
f 430/246/284 424/240/278 427/243/281
f 430/246/284 428/244/282 424/240/278
f 427/243/281 431/247/285 430/246/284
f 432/248/286 429/245/283 428/244/282
f 432/248/286 428/244/282 430/246/284
f 431/247/285 433/249/287 430/246/284
f 433/249/287 432/248/286 430/246/284
f 433/249/287 431/247/285 434/250/288
f 429/245/283 432/248/286 435/251/289
f 435/251/289 432/248/286 433/249/287
f 436/252/290 429/245/283 435/251/289
f 437/253/291 433/249/287 434/250/288
f 437/253/291 435/251/289 433/249/287
f 434/250/288 438/254/292 437/253/291
f 436/252/290 435/251/289 439/339/293
f 438/254/292 440/256/294 437/253/291
f 437/253/291 440/256/294 435/251/289
f 440/256/294 438/254/292 441/257/295
f 435/251/289 442/258/296 439/339/293
f 440/256/294 442/258/296 435/251/289
f 443/259/297 439/339/293 442/258/296
f 444/260/298 440/256/294 441/257/295
f 440/256/294 444/260/298 442/258/296
f 444/260/298 441/257/295 445/261/299
f 446/340/300 443/259/297 442/258/296
f 444/260/298 446/340/300 442/258/296
f 443/259/297 446/340/300 447/263/301
f 448/264/302 444/260/298 445/261/299
f 446/340/300 444/260/298 448/264/302
f 448/264/302 445/261/299 449/341/303
f 446/340/300 450/266/304 447/263/301
f 450/266/304 446/340/300 448/264/302
f 447/263/301 450/266/304 451/267/305
f 452/268/306 448/264/302 449/341/303
f 450/266/304 448/264/302 452/268/306
f 452/268/306 449/341/303 453/269/307
f 450/266/304 454/342/308 451/267/305
f 454/342/308 450/266/304 452/268/306
f 455/271/309 452/268/306 453/269/307
f 452/268/306 455/271/309 454/342/308
f 455/271/309 453/269/307 456/272/310
f 454/342/308 457/273/311 451/267/305
f 455/271/309 457/273/311 454/342/308
f 457/273/311 458/343/312 451/267/305
f 459/344/313 455/271/309 456/272/310
f 457/273/311 455/271/309 459/344/313
f 459/344/313 456/272/310 460/276/314
f 457/273/311 461/277/194 458/343/312
f 461/277/194 457/273/311 459/344/313
f 461/277/194 462/345/315 458/343/312
f 462/345/315 461/277/194 463/346/316
f 464/347/317 459/344/313 460/276/314
f 459/344/313 464/347/317 461/277/194
f 464/347/317 460/276/314 465/348/318
f 461/277/194 466/349/319 463/346/316
f 464/347/317 466/349/319 461/277/194
f 467/283/320 463/346/316 466/349/319
f 468/284/321 464/347/317 465/348/318
f 464/347/317 468/284/321 466/349/319
f 468/284/321 465/348/318 469/285/322
f 470/286/323 467/283/320 466/349/319
f 468/284/321 470/286/323 466/349/319
f 470/286/323 471/350/324 467/283/320
f 471/350/324 472/351/325 467/283/320
f 468/284/321 473/352/326 470/286/323
f 473/352/326 471/350/324 470/286/323
f 473/352/326 468/284/321 469/285/322
f 471/350/324 474/290/327 472/351/325
f 474/290/327 471/350/324 473/352/326
f 474/290/327 475/353/328 472/351/325
f 476/354/329 473/352/326 469/285/322
f 476/354/329 474/290/327 473/352/326
f 477/355/330 476/354/329 469/285/322
f 475/353/328 474/290/327 478/294/331
f 479/356/332 476/354/329 477/355/330
f 480/357/333 479/356/332 477/355/330
f 481/297/334 474/290/327 476/354/329
f 474/290/327 481/297/334 478/294/331
f 479/356/332 481/297/334 476/354/329
f 480/357/333 482/298/335 479/356/332
f 478/294/331 481/297/334 483/299/336
f 483/299/336 481/297/334 479/356/332
f 484/358/337 478/294/331 483/299/336
f 479/356/332 482/298/335 485/301/338
f 485/301/338 483/299/336 479/356/332
f 482/298/335 486/302/339 485/301/338
f 484/358/337 483/299/336 487/303/340
f 487/303/340 483/299/336 485/301/338
f 488/359/341 484/358/337 487/303/340
f 488/359/341 487/303/340 489/305/342
f 490/306/343 485/301/338 486/302/339
f 490/306/343 487/303/340 485/301/338
f 491/307/344 490/306/343 486/302/339
f 487/303/340 492/308/345 489/305/342
f 492/308/345 487/303/340 490/306/343
f 489/305/342 492/308/345 493/360/346
f 494/310/347 490/306/343 491/307/344
f 494/310/347 492/308/345 490/306/343
f 495/311/348 494/310/347 491/307/344
f 492/308/345 496/312/91 493/360/346
f 496/312/91 492/308/345 494/310/347
f 497/313/208 493/360/346 496/312/91
f 498/314/207 497/313/208 496/312/91
f 499/315/1 498/314/207 496/312/91
f 500/361/349 494/310/347 495/311/348
f 500/361/349 496/312/91 494/310/347
f 500/361/349 499/315/1 496/312/91
f 501/362/350 500/361/349 495/311/348
f 502/318/211 499/315/1 500/361/349
f 501/362/350 502/318/211 500/361/349
f 504/363/351 503/364/352 505/365/353
f 503/364/352 506/366/354 505/365/353
f 504/363/351 507/367/355 503/364/352
f 503/364/352 508/368/356 506/366/354
f 508/368/356 509/369/357 506/366/354
f 507/367/355 510/370/135 503/364/352
f 503/364/352 510/370/135 508/368/356
f 507/367/355 511/371/358 510/370/135
f 511/371/358 512/372/359 510/370/135
f 508/368/356 513/373/360 509/369/357
f 510/370/135 512/372/359 514/374/361
f 510/370/135 514/374/361 508/368/356
f 508/368/356 514/374/361 513/373/360
f 512/372/359 515/375/362 514/374/361
f 513/373/360 516/376/363 509/369/357
f 517/377/360 514/374/361 515/375/362
f 514/374/361 517/377/360 513/373/360
f 518/378/364 517/377/360 515/375/362
f 519/379/365 517/377/360 518/378/364
f 519/379/365 513/373/360 517/377/360
f 520/380/366 519/379/365 518/378/364
f 513/373/360 521/381/367 516/376/363
f 519/379/365 520/380/366 522/382/368
f 519/379/365 522/382/368 513/373/360
f 521/381/367 513/373/360 522/382/368
f 520/380/366 523/383/369 522/382/368
f 521/381/367 524/384/370 516/376/363
f 522/382/368 523/383/369 525/385/371
f 525/385/371 521/381/367 522/382/368
f 523/383/369 526/386/372 525/385/371
f 521/381/367 527/387/373 524/384/370
f 527/387/373 521/381/367 525/385/371
f 527/387/373 528/388/374 524/384/370
f 529/389/375 528/388/374 527/387/373
f 525/385/371 526/386/372 530/390/376
f 530/390/376 527/387/373 525/385/371
f 526/386/372 531/391/377 530/390/376
f 531/391/377 532/392/378 530/390/376
f 533/393/379 529/389/375 527/387/373
f 533/393/379 527/387/373 530/390/376
f 529/389/375 533/393/379 534/394/380
f 533/393/379 535/395/381 534/394/380
f 532/392/378 536/396/382 530/390/376
f 536/396/382 533/393/379 530/390/376
f 535/395/381 533/393/379 536/396/382
f 532/392/378 537/397/383 536/396/382
f 538/398/382 535/395/381 536/396/382
f 537/397/383 538/398/382 536/396/382
f 540/399/384 539/363/385 541/400/353
f 539/363/385 540/399/384 542/367/137
f 543/366/386 540/399/384 541/400/353
f 540/399/384 544/370/135 542/367/137
f 545/371/387 542/367/137 544/370/135
f 546/372/388 545/371/387 544/370/135
f 547/368/389 540/399/384 543/366/386
f 540/399/384 547/368/389 544/370/135
f 548/401/390 547/368/389 543/366/386
f 546/372/388 544/370/135 549/374/391
f 547/368/389 549/374/391 544/370/135
f 550/375/392 546/372/388 549/374/391
f 551/402/393 547/368/389 548/401/390
f 547/368/389 551/402/393 549/374/391
f 552/376/394 551/402/393 548/401/390
f 549/374/391 553/377/395 550/375/392
f 551/402/393 553/377/395 549/374/391
f 553/377/395 554/403/396 550/375/392
f 554/403/396 553/377/395 555/404/126
f 553/377/395 551/402/393 555/404/126
f 556/405/397 554/403/396 555/404/126
f 551/402/393 552/376/394 557/381/155
f 555/404/126 558/406/147 556/405/397
f 551/402/393 558/406/147 555/404/126
f 558/406/147 551/402/393 557/381/155
f 558/406/147 559/383/398 556/405/397
f 552/376/394 560/384/399 557/381/155
f 559/383/398 558/406/147 561/407/400
f 561/407/400 558/406/147 557/381/155
f 562/408/401 559/383/398 561/407/400
f 557/381/155 560/384/399 563/409/402
f 561/407/400 557/381/155 563/409/402
f 560/384/399 564/388/403 563/409/402
f 563/409/402 564/388/403 565/389/404
f 562/408/401 561/407/400 566/410/405
f 566/410/405 561/407/400 563/409/402
f 567/391/406 562/408/401 566/410/405
f 567/391/406 566/410/405 568/392/407
f 569/393/408 563/409/402 565/389/404
f 566/410/405 563/409/402 569/393/408
f 565/389/404 570/394/409 569/393/408
f 570/394/409 571/411/70 569/393/408
f 566/410/405 572/396/410 568/392/407
f 572/396/410 566/410/405 569/393/408
f 572/396/410 569/393/408 571/411/70
f 568/392/407 572/396/410 573/397/411
f 574/412/73 572/396/410 571/411/70
f 572/396/410 574/412/73 573/397/411
