# Blender 5.1.0
# www.blender.org
o bACKUP_replacement_test3
v -9.100013 -3.414450 -40.055935
v -9.100013 -8.737237 -40.055935
v -8.254052 -3.414450 -40.055935
v -8.254052 -8.737237 -40.055935
v -9.100012 8.737239 -40.452503
v -8.254052 -3.414450 -40.055935
v -8.254051 8.737239 -40.452503
v -9.100013 -3.414450 -40.055935
v 0.000000 -3.414452 -40.055935
v -8.254052 -8.737237 -40.055935
v -0.000001 -8.737238 -40.055935
v -8.254052 -3.414450 -40.055935
v 8.254050 -8.737239 -40.055935
v 8.254050 -3.414452 -40.055935
v 9.100011 -8.737239 -40.055935
v 9.100011 -3.414452 -40.055935
v 8.254050 -3.414452 -40.055935
v 8.254050 -8.737239 -40.055935
v 9.100012 8.737237 -40.452503
v 8.254050 -3.414452 -40.055935
v 9.100011 -3.414452 -40.055935
v 8.254051 8.737237 -40.452503
v -8.254051 -8.737237 -50.083584
v -8.852245 -3.792382 -50.002094
v -8.254051 -3.792382 -50.083584
v -8.852245 -8.737237 -50.002094
v 8.852245 -3.792383 -50.002094
v 8.852245 -8.737239 -50.002094
v 8.254051 -8.737239 -50.083584
v 8.254051 -3.792383 -50.083584
v -8.852245 -3.792382 -50.002094
v -8.254051 -3.525081 -50.050583
v -8.254051 -3.792382 -50.083584
v -8.902465 -3.525081 -49.962193
v 8.852245 -3.792383 -50.002094
v 8.254051 -3.525083 -50.050583
v 8.902465 -3.525083 -49.962189
v 8.254051 -3.792383 -50.083584
v -8.902465 -8.737237 -49.962193
v -8.852245 -3.792382 -50.002094
v -8.852245 -8.737237 -50.002094
v -8.902465 -3.525081 -49.962193
v -9.023758 -8.737237 -49.865864
v -8.902465 -3.525081 -49.962193
v -8.902465 -8.737237 -49.962193
v -9.023758 -3.414451 -49.865864
v -9.100012 -8.737237 -49.805321
v -9.100012 -3.414451 -49.805321
v -9.023758 -8.737237 -49.865864
v 8.852245 -3.792383 -50.002094
v 8.902465 -8.737239 -49.962189
v 8.852245 -8.737239 -50.002094
v 8.902465 -3.525083 -49.962189
v 9.023758 -3.414453 -49.865860
v 9.023758 -8.737239 -49.865860
v 8.902465 -3.525083 -49.962189
v 8.902465 -8.737239 -49.962189
v 9.100012 -8.737239 -49.805317
v 9.023758 -8.737239 -49.865860
v 9.100012 -3.414453 -49.805317
v 0.000000 -8.737238 -50.083584
v -8.254051 -3.792382 -50.083584
v 0.000000 -3.792382 -50.083584
v -8.254051 -8.737237 -50.083584
v 8.254051 -3.792383 -50.083584
v 8.254051 -8.737239 -50.083584
v -9.100011 8.737239 -43.157070
v -9.100012 8.737239 -40.452503
v -8.254050 8.737239 -43.157070
v -8.254051 8.737239 -40.452503
v 9.100012 8.737237 -40.452503
v 9.100013 8.737237 -43.157070
v 8.254052 8.737237 -43.157070
v 8.254051 8.737237 -40.452503
v -8.254051 -3.792382 -50.083584
v 0.000000 -3.525083 -50.050659
v 0.000000 -3.792382 -50.083584
v -8.254051 -3.525081 -50.050583
v 8.254051 -3.792383 -50.083584
v 8.254051 -3.525083 -50.050583
v -9.100011 8.737239 -43.157070
v -9.100012 -2.047789 -43.663628
v -9.100012 -3.414451 -43.235126
v -9.100012 -3.414451 -44.518337
v -9.100012 -3.414451 -43.235126
v -9.100012 8.737239 -40.452503
v -9.100013 -3.414450 -40.055935
v -9.100013 -8.737237 -43.235126
v -9.100013 -8.737237 -40.055935
v -9.100013 -3.414450 -40.055935
v -9.100012 -3.414451 -43.235126
v -9.100013 -8.737237 -44.518337
v -9.100012 -3.414451 -44.518337
v -9.100012 -8.737237 -49.805321
v -9.100012 -3.414451 -49.805321
v 9.100013 8.737237 -43.157070
v 9.100012 -3.414452 -43.235126
v 9.100012 -2.047791 -43.663628
v 9.100012 -3.414452 -44.518337
v 9.100012 8.737237 -40.452503
v 9.100012 -3.414452 -43.235126
v 9.100011 -3.414452 -40.055935
v 9.100011 -3.414452 -40.055935
v 9.100011 -8.737239 -43.235123
v 9.100011 -8.737239 -40.055935
v 9.100011 -8.737239 -44.518337
v 9.100012 -3.414452 -44.518337
v 9.100012 -8.737239 -49.805317
v 9.100012 -3.414453 -49.805317
v -8.254051 -3.525081 -50.050583
v -8.902465 -3.525081 -49.962193
v -8.254051 -3.414451 -49.970966
v -9.023758 -3.414451 -49.865864
v 8.902465 -3.525083 -49.962189
v 8.254051 -3.414453 -49.970966
v 9.023758 -3.414453 -49.865860
v 8.254051 -3.525083 -50.050583
v 0.000000 -3.525083 -50.050659
v -8.254051 -3.525081 -50.050583
v 0.000000 -3.414453 -49.971119
v -8.254051 -3.414451 -49.970966
v 8.254051 -3.525083 -50.050583
v 8.254051 -3.414453 -49.970966
v -9.100013 -8.737237 -40.055935
v -9.100013 -8.737237 -43.235126
v -8.254052 -8.737237 -40.055935
v -8.254052 -8.737237 -43.235126
v -9.100013 -8.737237 -44.518337
v -8.254052 -8.737237 -44.518337
v -9.100012 -8.737237 -49.805321
v -8.254051 -8.737237 -49.805321
v -8.852245 -8.737237 -50.002094
v -8.254051 -8.737237 -50.083584
v -8.254051 -8.737237 -49.990845
v -8.902465 -8.737237 -49.962193
v -0.000001 -8.737238 -43.235126
v -8.254052 -8.737237 -44.518337
v -0.000001 -8.737238 -44.518337
v -8.254051 -8.737237 -49.805321
v -8.254052 -8.737237 -43.235126
v -0.000001 -8.737238 -40.055935
v -8.254052 -8.737237 -40.055935
v 8.254050 -8.737239 -43.235123
v 8.254050 -8.737239 -40.055935
v 8.254050 -8.737239 -44.518337
v 8.254051 -8.737239 -49.805317
v 0.000000 -8.737238 -49.805321
v -8.254051 -8.737237 -49.898102
v 8.254051 -8.737239 -49.898098
v 0.000000 -8.737238 -49.898098
v -8.254051 -8.737237 -49.990845
v 8.254051 -8.737239 -49.990841
v 0.000000 -8.737238 -49.990841
v -8.254051 -8.737237 -50.083584
v 8.254051 -8.737239 -50.083584
v 0.000000 -8.737238 -50.083584
v -9.023758 -8.737237 -49.865864
v -8.254051 -8.737237 -49.898102
v -8.254051 -8.737237 -49.805321
v -9.100012 -8.737237 -49.805321
v -8.902465 -8.737237 -49.962193
v -8.254051 -8.737237 -49.990845
v -8.254051 -8.737237 -49.898102
v -9.023758 -8.737237 -49.865864
v 9.100011 -8.737239 -43.235123
v 9.100011 -8.737239 -40.055935
v 8.254050 -8.737239 -40.055935
v 8.254050 -8.737239 -43.235123
v 9.100011 -8.737239 -44.518337
v 8.254050 -8.737239 -44.518337
v 9.100012 -8.737239 -49.805317
v 8.254051 -8.737239 -49.805317
v 8.902465 -8.737239 -49.962189
v 8.254051 -8.737239 -49.990841
v 8.852245 -8.737239 -50.002094
v 8.254051 -8.737239 -50.083584
v 9.100012 -8.737239 -49.805317
v 8.254051 -8.737239 -49.805317
v 9.023758 -8.737239 -49.865860
v 8.254051 -8.737239 -49.898098
v 9.023758 -8.737239 -49.865860
v 8.254051 -8.737239 -49.898098
v 8.902465 -8.737239 -49.962189
v 8.254051 -8.737239 -49.990841
v -9.100012 -3.414451 -49.805321
v -9.100012 -3.414451 -44.518337
v -8.254051 -3.414451 -49.805321
v -8.254051 -3.414451 -44.518337
v -9.023758 -3.414451 -49.865864
v -8.254051 -3.414451 -49.970966
v 0.000000 -3.414452 -43.235126
v -8.254052 -3.414450 -40.055935
v 0.000000 -3.414452 -40.055935
v -8.254051 -3.414451 -43.235126
v 8.254050 -3.414452 -40.055935
v 8.254051 -3.414452 -43.235126
v 0.000000 -3.414452 -44.518337
v -8.254051 -3.414451 -43.235126
v 0.000000 -3.414452 -43.235126
v -8.254051 -3.414451 -44.518337
v 8.254051 -3.414452 -43.235126
v 8.254051 -3.414452 -44.518337
v 0.000000 -3.414453 -49.805321
v -8.254051 -3.414451 -49.970966
v -8.254051 -3.414451 -49.805321
v 0.000000 -3.414453 -49.971119
v -8.254051 -3.414451 -44.518337
v 8.254051 -3.414453 -49.970966
v 0.000000 -3.414452 -44.518337
v 8.254051 -3.414453 -49.805317
v 8.254051 -3.414452 -44.518337
v 9.100012 -3.414452 -44.518337
v 9.100012 -3.414453 -49.805317
v 8.254051 -3.414453 -49.805317
v 8.254051 -3.414452 -44.518337
v 9.023758 -3.414453 -49.865860
v 8.254051 -3.414453 -49.970966
v -8.254051 -3.414451 -44.518337
v -9.100012 -2.047789 -43.663628
v -8.254051 -2.047789 -43.663628
v -9.100012 -3.414451 -44.518337
v 8.254051 -3.414452 -44.518337
v 9.100012 -2.047791 -43.663628
v 9.100012 -3.414452 -44.518337
v 8.254051 -2.047791 -43.663628
v -8.254051 -2.047789 -43.663628
v -9.100011 8.737239 -43.157070
v -8.254050 8.737239 -43.157070
v -9.100012 -2.047789 -43.663628
v 8.254051 -2.047791 -43.663628
v 9.100013 8.737237 -43.157070
v 9.100012 -2.047791 -43.663628
v 8.254052 8.737237 -43.157070
v -8.254051 8.737239 -40.452503
v -8.254051 -3.414451 -43.235126
v -8.254050 8.737239 -43.157070
v -8.254052 -3.414450 -40.055935
v -8.254051 -2.047789 -43.663628
v -8.254051 -3.414451 -43.235126
v -8.254051 -3.414451 -44.518337
v -8.254051 -3.414451 -43.235126
v -8.254051 -2.047789 -43.663628
v -8.254050 8.737239 -43.157070
v 8.254050 -3.414452 -40.055935
v 8.254051 8.737237 -40.452503
v 8.254051 -3.414452 -43.235126
v 8.254052 8.737237 -43.157070
v 8.254051 -2.047791 -43.663628
v 8.254051 -3.414452 -44.518337
v 8.254051 -3.414452 -43.235126
v 8.254051 -3.414452 -43.235126
v 8.254052 8.737237 -43.157070
v 8.254051 -2.047791 -43.663628
vn -0.0000 -0.0000 1.0000
vn -0.0000 0.0326 0.9995
vn -0.0004 0.0329 0.9995
vn -0.1350 -0.0000 -0.9908
vn 0.1350 -0.0000 -0.9908
vn -0.1340 0.1216 -0.9835
vn -0.1340 0.1215 -0.9835
vn -0.1340 0.1218 -0.9835
vn -0.1341 0.1216 -0.9835
vn 0.1340 0.1216 -0.9835
vn 0.1340 0.1215 -0.9835
vn 0.1341 0.1216 -0.9835
vn 0.1340 0.1214 -0.9835
vn -0.6218 0.0002 -0.7832
vn -0.6221 -0.0000 -0.7829
vn -0.6216 0.0003 -0.7833
vn -0.6219 -0.0000 -0.7831
vn -0.6218 -0.0000 -0.7832
vn -0.6216 0.0004 -0.7834
vn 0.6218 0.0002 -0.7832
vn 0.6221 -0.0000 -0.7829
vn 0.6216 0.0003 -0.7833
vn 0.6217 0.0002 -0.7832
vn 0.6219 -0.0000 -0.7831
vn 0.6218 -0.0000 -0.7832
vn -0.0000 -0.0000 -1.0000
vn -0.0002 0.0002 -1.0000
vn -0.0005 1.0000 0.0017
vn -0.0000 0.1225 -0.9925
vn -0.0000 0.1223 -0.9925
vn -0.0000 0.1222 -0.9925
vn -1.0000 0.0004 0.0015
vn -1.0000 0.0005 0.0018
vn 1.0000 0.0004 0.0015
vn 1.0000 0.0005 0.0018
vn 1.0000 0.0004 0.0014
vn -0.1100 0.5806 -0.8067
vn -0.1102 0.5808 -0.8065
vn -0.1100 0.5807 -0.8067
vn -0.1101 0.5807 -0.8067
vn 0.1101 0.5808 -0.8065
vn 0.1100 0.5807 -0.8067
vn 0.1101 0.5809 -0.8065
vn 0.1102 0.5811 -0.8063
vn -0.0002 0.5836 -0.8121
vn -0.0003 0.5837 -0.8120
vn -0.0000 0.5838 -0.8119
vn -0.0000 0.5841 -0.8117
vn -0.0002 0.5838 -0.8119
vn -0.0002 0.5839 -0.8118
vn -0.0005 -1.0000 0.0017
vn -0.0004 -1.0000 0.0012
vn -0.0006 -1.0000 0.0019
vn -0.0006 1.0000 0.0019
vn -0.0004 1.0000 0.0013
vn -0.0000 0.5302 -0.8478
vn -0.0002 0.0467 -0.9989
vn -0.0000 0.0469 -0.9989
vt 0.375000 0.750000
vt 0.625000 0.750000
vt 0.375000 0.500000
vt 0.625000 0.500000
vt 0.625000 0.250000
vt 0.402661 0.000000
vt 0.402660 0.250000
vt 0.625000 0.000000
vt 0.375000 0.233541
vt 0.375000 0.000000
vt 0.872797 0.701184
vt 0.871815 0.725592
vt 0.128260 0.727474
vt 0.870833 0.750000
vt 0.129167 0.750000
vt 0.291667 0.750000
vt 0.291667 0.500000
vt 0.375000 0.250000
vt 0.375000 0.833333
vt 0.375000 0.875000
vt 0.375000 0.916667
vt 0.625000 0.833333
vt 0.625000 0.916667
vt 0.625000 0.995833
vt 0.375000 0.995833
vt 0.125080 0.511639
vt 0.126220 0.676776
vt 0.126687 0.500000
vt 0.125000 0.500000
vt 0.126684 0.500000
vt 0.708333 0.750000
vt 0.708333 0.500000
vt 0.791667 0.750000
vt 0.791667 0.500000
vt 0.870833 0.500000
vt 0.873780 0.676776
vt 0.875000 0.500000
vt 0.873611 0.500000
vt 0.872222 0.500000
vt 0.208333 0.750000
vt 0.129167 0.500000
vt 0.208333 0.500000
vt 0.000000 0.000000
vt 0.250000 0.750000
vt 0.250000 0.500000
s 1
f 1/1/1 2/2/1 3/3/1
f 4/4/1 3/3/1 2/2/1
f 5/1/2 6/3/2 7/3/2
f 6/3/2 5/1/2 8/1/2
f 9/3/1 10/4/1 11/4/1
f 10/4/1 9/3/1 12/3/1
f 13/4/1 9/3/1 11/4/1
f 14/3/1 9/3/1 13/4/1
f 15/2/1 16/1/1 17/3/1
f 15/2/1 17/3/1 18/4/1
f 19/1/2 20/3/2 21/1/2
f 20/3/2 19/1/2 22/3/3
f 23/5/4 24/6/4 25/7/4
f 24/6/4 23/5/4 26/8/4
f 27/6/5 28/8/5 29/5/5
f 27/6/5 29/5/5 30/7/5
f 31/6/6 32/9/7 33/7/8
f 32/9/7 31/6/6 34/10/9
f 35/6/10 36/9/11 37/10/12
f 36/9/11 35/6/10 38/7/13
f 39/11/14 40/6/15 41/8/16
f 40/6/15 39/11/14 42/10/16
f 43/12/17 44/10/17 45/11/17
f 43/12/17 46/13/17 44/10/17
f 47/14/18 48/15/18 46/13/18
f 46/13/18 49/12/19 47/14/18
f 50/6/20 51/11/21 52/8/22
f 51/11/21 50/6/20 53/10/23
f 54/13/22 55/12/22 56/10/24
f 56/10/24 55/12/22 57/11/24
f 54/13/25 58/14/25 59/12/25
f 60/15/25 58/14/25 54/13/25
f 61/5/26 62/7/26 63/7/26
f 62/7/26 61/5/26 64/5/26
f 65/7/26 61/5/26 63/7/26
f 66/5/27 61/5/26 65/7/26
f 67/16/28 68/1/28 69/17/28
f 70/3/28 69/17/28 68/1/28
f 71/1/28 72/16/28 73/17/28
f 71/1/28 73/17/28 74/3/28
f 75/7/29 76/18/30 77/7/31
f 76/18/30 75/7/29 78/18/29
f 76/18/30 79/7/29 77/7/31
f 79/7/29 76/18/30 80/18/29
f 81/19/32 82/20/32 83/19/32
f 82/20/32 84/21/33 83/19/32
f 85/19/32 86/1/32 81/19/32
f 86/1/32 85/19/32 87/1/33
f 88/22/32 89/2/32 90/1/32
f 88/22/32 90/1/32 91/19/32
f 92/23/32 88/22/32 91/19/32
f 92/23/32 91/19/32 93/21/32
f 94/24/32 92/23/32 93/21/32
f 94/24/32 93/21/32 95/25/32
f 96/19/34 97/19/34 98/20/34
f 98/20/34 97/19/34 99/21/35
f 100/1/34 101/19/34 96/19/34
f 101/19/34 100/1/34 102/1/34
f 101/19/34 103/1/34 104/22/34
f 105/2/34 104/22/34 103/1/34
f 101/19/34 104/22/34 106/23/36
f 107/21/34 101/19/34 106/23/36
f 106/23/36 108/24/34 107/21/34
f 109/25/34 107/21/34 108/24/34
f 110/26/37 111/27/38 112/28/39
f 112/28/39 111/27/38 113/13/40
f 114/27/41 115/28/42 116/13/43
f 115/28/42 114/27/41 117/26/44
f 118/29/45 119/29/46 120/30/47
f 120/30/47 119/29/46 121/28/48
f 120/30/47 122/29/49 118/29/45
f 122/29/49 120/30/47 123/28/50
f 124/2/51 125/31/51 126/4/51
f 127/32/51 126/4/51 125/31/51
f 125/31/51 128/33/51 127/32/51
f 129/34/51 127/32/51 128/33/51
f 128/33/51 130/14/51 129/34/51
f 131/35/51 129/34/51 130/14/51
f 132/36/51 133/37/51 134/38/51
f 134/38/51 135/11/51 132/36/51
f 136/32/52 137/34/51 138/34/52
f 139/35/51 138/34/52 137/34/51
f 137/34/51 136/32/52 140/32/51
f 141/4/51 140/32/51 136/32/52
f 140/32/51 141/4/51 142/4/51
f 143/32/51 141/4/51 136/32/52
f 141/4/51 143/32/51 144/4/51
f 143/32/51 136/32/52 145/34/51
f 145/34/51 136/32/52 138/34/52
f 146/35/51 145/34/51 138/34/52
f 138/34/52 139/35/51 147/35/52
f 146/35/51 138/34/52 147/35/52
f 148/39/51 147/35/52 139/35/51
f 147/35/52 149/39/51 146/35/51
f 147/35/52 148/39/51 150/39/52
f 149/39/51 147/35/52 150/39/52
f 151/38/51 150/39/52 148/39/51
f 149/39/51 150/39/52 152/38/51
f 150/39/52 151/38/51 153/38/52
f 152/38/51 150/39/52 153/38/52
f 154/37/51 153/38/52 151/38/51
f 152/38/51 153/38/52 155/37/51
f 153/38/52 154/37/51 156/37/51
f 155/37/51 153/38/52 156/37/51
f 157/12/51 158/39/51 159/35/51
f 159/35/51 160/14/51 157/12/51
f 161/11/51 162/38/51 163/39/51
f 163/39/51 164/12/53 161/11/51
f 165/31/51 166/2/51 167/4/51
f 165/31/51 167/4/51 168/32/51
f 169/33/51 165/31/51 168/32/51
f 169/33/51 168/32/51 170/34/51
f 171/14/51 169/33/51 170/34/51
f 171/14/51 170/34/51 172/35/51
f 173/11/53 174/38/51 175/36/51
f 174/38/51 176/37/51 175/36/51
f 177/14/51 178/35/51 179/12/51
f 178/35/51 180/39/51 179/12/51
f 181/12/51 182/39/51 183/11/51
f 182/39/51 184/38/51 183/11/51
f 185/15/28 186/40/28 187/41/28
f 188/42/28 187/41/28 186/40/28
f 187/41/28 189/13/28 185/15/28
f 189/13/28 187/41/28 190/28/54
f 191/43/28 192/43/28 193/43/28
f 192/43/28 191/43/28 194/43/28
f 195/43/28 191/43/28 193/43/28
f 191/43/28 195/43/28 196/43/28
f 197/42/28 198/43/28 199/43/28
f 198/43/28 197/42/28 200/42/28
f 201/43/28 197/42/28 199/43/28
f 202/42/28 197/42/28 201/43/28
f 203/41/55 204/28/28 205/41/28
f 204/28/28 203/41/55 206/30/28
f 207/42/28 203/41/55 205/41/28
f 203/41/55 208/28/28 206/30/28
f 203/41/55 207/42/28 209/42/28
f 208/28/28 203/41/55 210/41/28
f 211/42/28 203/41/55 209/42/28
f 203/41/55 211/42/28 210/41/28
f 212/40/28 213/15/28 214/41/28
f 212/40/28 214/41/28 215/42/28
f 216/13/28 214/41/28 213/15/28
f 214/41/28 216/13/28 217/28/54
f 218/42/56 219/44/56 220/45/56
f 219/44/56 218/42/56 221/40/56
f 222/42/56 223/44/56 224/40/56
f 223/44/56 222/42/56 225/45/56
f 226/45/57 227/16/58 228/17/58
f 227/16/58 226/45/57 229/44/58
f 230/45/58 231/16/57 232/44/58
f 231/16/57 230/45/58 233/17/58
f 234/43/34 235/43/34 236/43/34
f 235/43/34 234/43/34 237/43/34
f 238/45/35 239/43/35 240/42/35
f 241/43/34 242/45/34 243/43/34
f 244/43/32 245/43/32 246/43/32
f 246/43/32 245/43/32 247/43/32
f 248/45/33 249/42/33 250/43/33
f 251/43/32 252/43/32 253/45/32
