# Blender 5.2.2 LTS
# www.blender.org
mtllib c25mag.mtl
o r101_magazine_0_0
v -0.048565 -0.370606 0.332368
v -0.068838 -0.365460 0.325244
v -0.035925 -0.345864 0.321817
v 0.035714 -0.345864 0.321817
v 0.068627 -0.365460 0.325244
v 0.048355 -0.370606 0.332368
v 0.066298 -0.651492 -0.305280
v 0.076485 -0.629338 -0.307244
v 0.066298 -0.626226 -0.315927
v 0.080409 -0.632450 -0.290486
v 0.066298 -0.793040 0.079315
v 0.080409 -0.632450 -0.290486
v 0.066298 -0.651492 -0.305280
v 0.080409 -0.775828 0.099083
v 0.080409 -0.255862 0.165771
v 0.071867 -0.263836 -0.049981
v 0.071867 -0.263406 0.162490
v 0.080409 -0.256301 -0.054508
v 0.080409 -0.256301 -0.054508
v 0.071867 -0.424365 -0.136557
v 0.071867 -0.263836 -0.049981
v 0.080409 -0.428572 -0.147329
v 0.080409 -0.240666 0.184276
v 0.071867 -0.248130 0.209958
v 0.080409 -0.240583 0.214114
v 0.071867 -0.248211 0.180741
v 0.080409 -0.545788 0.186790
v 0.071867 -0.424365 -0.136557
v 0.080409 -0.428572 -0.147329
v 0.071867 -0.536526 0.183154
v 0.071867 -0.356078 0.277820
v 0.080409 -0.240583 0.214114
v 0.071867 -0.248130 0.209958
v 0.080409 -0.355747 0.286513
v 0.080409 -0.355747 0.286513
v 0.071867 -0.536526 0.183154
v 0.080409 -0.545788 0.186790
v 0.071867 -0.356078 0.277820
v 0.080409 -0.255862 0.165771
v 0.071867 -0.248211 0.180741
v 0.080409 -0.240666 0.184276
v 0.071867 -0.263406 0.162490
v 0.080409 -0.471687 -0.171569
v 0.071867 -0.597567 0.142408
v 0.080409 -0.589057 0.163933
v 0.071867 -0.490182 -0.164337
v 0.071867 -0.542062 -0.191934
v 0.080409 -0.471687 -0.171569
v 0.080409 -0.550374 -0.213426
v 0.071867 -0.490182 -0.164337
v 0.071867 -0.574747 -0.179293
v 0.080409 -0.684582 0.083598
v 0.071867 -0.666044 0.076336
v 0.080409 -0.583059 -0.200784
v 0.080409 -0.669789 0.121363
v 0.071867 -0.597567 0.142408
v 0.071867 -0.651251 0.114102
v 0.080409 -0.589057 0.163933
v 0.080409 -0.550374 -0.213426
v 0.071867 -0.574747 -0.179293
v 0.071867 -0.542062 -0.191934
v 0.080409 -0.583059 -0.200784
v 0.080409 -0.669789 0.121363
v 0.071867 -0.666044 0.076336
v 0.080409 -0.684582 0.083598
v 0.071867 -0.651251 0.114102
v 0.068627 -0.365460 0.325244
v 0.047483 -0.338220 0.316083
v 0.080409 -0.357811 0.319499
v 0.035714 -0.345864 0.321817
v 0.070190 -0.208286 0.233933
v 0.070190 0.564161 0.721311
v 0.070190 0.564117 0.642256
v 0.070190 -0.276095 0.276804
v 0.034736 0.544284 0.803741
v 0.047483 -0.338220 0.316083
v 0.035714 -0.345864 0.321817
v 0.048503 0.549268 0.789990
v 0.080409 -0.285159 0.273521
v 0.070190 -0.276095 0.276804
v 0.075299 -0.280627 0.275163
v 0.062335 -0.282986 0.281162
v 0.062335 -0.282986 0.281162
v 0.070190 0.564161 0.721311
v 0.070190 -0.276095 0.276804
v 0.062335 0.564166 0.730356
v 0.080409 -0.285159 0.273521
v 0.047483 -0.338220 0.316083
v 0.062335 -0.282986 0.281162
v 0.080409 -0.357811 0.319499
v 0.070190 -0.208286 0.233933
v 0.075299 0.564117 0.642256
v 0.075299 -0.210396 0.230738
v 0.070190 0.564117 0.642256
v -0.076696 -0.629338 -0.307244
v -0.066509 -0.651492 -0.305280
v -0.066509 -0.626226 -0.315927
v -0.080620 -0.632450 -0.290486
v -0.080620 -0.632450 -0.290486
v -0.066509 -0.793040 0.079315
v -0.066509 -0.651492 -0.305280
v -0.080620 -0.775828 0.099083
v -0.072078 -0.263836 -0.049981
v -0.080620 -0.255862 0.165771
v -0.072078 -0.263406 0.162490
v -0.080620 -0.256301 -0.054508
v -0.072078 -0.424365 -0.136557
v -0.080620 -0.256301 -0.054508
v -0.072078 -0.263836 -0.049981
v -0.080620 -0.428572 -0.147329
v -0.072078 -0.248130 0.209958
v -0.080620 -0.240666 0.184276
v -0.080620 -0.240583 0.214114
v -0.072078 -0.248211 0.180741
v -0.080620 -0.355747 0.286513
v -0.072078 -0.536526 0.183154
v -0.072078 -0.356078 0.277820
v -0.080620 -0.545788 0.186790
v -0.072078 -0.424365 -0.136557
v -0.080620 -0.545788 0.186790
v -0.080620 -0.428572 -0.147329
v -0.072078 -0.536526 0.183154
v -0.072078 -0.248211 0.180741
v -0.080620 -0.255862 0.165771
v -0.080620 -0.240666 0.184276
v -0.072078 -0.263406 0.162490
v -0.072078 -0.542062 -0.191934
v -0.080620 -0.471687 -0.171569
v -0.072078 -0.490182 -0.164337
v -0.080620 -0.550374 -0.213426
v -0.072078 -0.597567 0.142408
v -0.080620 -0.669789 0.121363
v -0.072078 -0.651251 0.114102
v -0.080620 -0.589057 0.163933
v -0.072078 -0.574747 -0.179293
v -0.080620 -0.684582 0.083598
v -0.080620 -0.583059 -0.200784
v -0.072078 -0.666044 0.076336
v -0.072078 -0.574747 -0.179293
v -0.080620 -0.550374 -0.213426
v -0.072078 -0.542062 -0.191934
v -0.080620 -0.583059 -0.200784
v -0.080620 -0.669789 0.121363
v -0.072078 -0.666044 0.076336
v -0.072078 -0.651251 0.114102
v -0.080620 -0.684582 0.083598
v -0.047694 -0.338220 0.316083
v -0.068838 -0.365460 0.325244
v -0.080620 -0.357811 0.319499
v -0.035925 -0.345864 0.321817
v -0.070401 0.564161 0.721311
v -0.070401 -0.208286 0.233933
v -0.070401 0.564117 0.642256
v -0.070401 -0.276095 0.276804
v -0.047694 -0.338220 0.316083
v -0.034947 0.544284 0.803741
v -0.035925 -0.345864 0.321817
v -0.048714 0.549268 0.789990
v 0.066298 -0.651492 -0.305280
v -0.066509 -0.626226 -0.315927
v -0.066509 -0.651492 -0.305280
v 0.066298 -0.626226 -0.315927
v 0.066296 -0.145416 -0.058445
v -0.056294 -0.138668 -0.045492
v -0.066507 -0.145416 -0.058445
v 0.056083 -0.138668 -0.045492
v -0.072078 -0.597567 0.142408
v -0.080620 -0.471687 -0.171569
v -0.080620 -0.589057 0.163933
v -0.072078 -0.490182 -0.164337
v -0.080620 -0.240583 0.214114
v -0.072078 -0.356078 0.277820
v -0.072078 -0.248130 0.209958
v -0.080620 -0.355747 0.286513
v -0.080620 -0.285159 0.273521
v -0.070401 -0.276095 0.276804
v -0.062546 -0.282986 0.281162
v -0.075510 -0.280627 0.275163
v -0.070401 0.564161 0.721311
v -0.062546 -0.282986 0.281162
v -0.070401 -0.276095 0.276804
v -0.062546 0.564166 0.730356
v -0.080620 -0.285159 0.273521
v -0.047694 -0.338220 0.316083
v -0.080620 -0.357811 0.319499
v -0.062546 -0.282986 0.281162
v -0.075510 0.564117 0.642256
v -0.070401 -0.208286 0.233933
v -0.075510 -0.210396 0.230738
v -0.070401 0.564117 0.642256
v -0.051011 -0.746553 -0.043494
v 0.051017 -0.746553 -0.120355
v 0.051017 -0.746553 -0.043494
v -0.051011 -0.746553 -0.120355
v 0.051017 -0.746553 -0.120355
v -0.051011 -0.763124 -0.145282
v 0.051017 -0.763124 -0.145282
v -0.051011 -0.746553 -0.120355
v 0.051017 -0.763124 -0.145282
v -0.051011 -0.766438 -0.195856
v 0.051017 -0.766438 -0.195856
v -0.051011 -0.763124 -0.145282
v -0.051011 -0.651492 -0.305280
v 0.051017 -0.697866 -0.331206
v 0.051017 -0.651492 -0.305280
v -0.051011 -0.697866 -0.331206
v 0.051017 -0.697866 -0.296107
v -0.051011 -0.662425 -0.270783
v 0.051017 -0.662425 -0.270783
v -0.051011 -0.697866 -0.296107
v 0.035714 -0.345864 0.321817
v -0.048565 -0.370606 0.332368
v -0.035925 -0.345864 0.321817
v 0.048355 -0.370606 0.332368
v 0.034010 0.562960 0.790840
v 0.031129 0.557295 0.798733
v 0.028285 0.548638 0.802587
v 0.036169 0.564117 0.781022
v 0.026902 0.544429 0.803846
v 0.056079 0.582794 0.341779
v 0.063134 0.582794 0.341779
v 0.070190 0.582794 0.366266
v 0.056079 0.582794 0.556383
v 0.070190 0.582794 0.556383
v 0.075299 0.564117 0.642256
v 0.080409 0.582794 0.556383
v 0.075299 0.564117 0.546710
v 0.075299 -0.210396 0.230738
v 0.075299 -0.142041 0.183345
v 0.034736 0.544284 0.803741
v 0.026902 0.544429 0.803846
v 0.028285 0.548638 0.802587
v 0.038618 0.548638 0.801980
v 0.031129 0.557295 0.798733
v 0.043494 0.557295 0.798347
v 0.066298 -0.793040 0.079315
v 0.054517 -0.798773 0.086132
v 0.068629 -0.781798 0.105821
v 0.080409 -0.775828 0.099083
v 0.080409 -0.775828 0.099083
v 0.068629 -0.723189 0.136710
v 0.080409 -0.717571 0.129801
v 0.068629 -0.591646 0.206036
v 0.080409 -0.586123 0.199112
v 0.068629 -0.570646 0.217104
v 0.080409 -0.565141 0.210176
v 0.068627 -0.365460 0.325244
v 0.080409 -0.357811 0.319499
v 0.043494 0.557295 0.798347
v 0.031129 0.557295 0.798733
v 0.034010 0.562960 0.790840
v 0.047759 0.563046 0.790675
v 0.036169 0.564117 0.781022
v 0.050282 0.564205 0.781021
v 0.048473 0.564117 0.730356
v 0.062335 0.564166 0.730356
v 0.056076 0.564117 0.721312
v 0.070190 0.564161 0.721311
v 0.056076 0.564117 0.642256
v 0.070190 0.564117 0.642256
v -0.036380 0.564117 0.781022
v -0.027113 0.544429 0.803846
v -0.028496 0.548638 0.802587
v -0.034220 0.562960 0.790840
v -0.031340 0.557295 0.798733
v -0.056290 0.582794 0.556383
v -0.070401 0.582794 0.556383
v -0.070401 0.582794 0.366266
v -0.056290 0.582794 0.341779
v -0.063345 0.582794 0.341779
v -0.056290 0.582794 0.556383
v -0.056287 0.564117 0.642256
v -0.070401 0.564117 0.642256
v -0.070401 0.582794 0.556383
v -0.075510 0.564117 0.642256
v -0.080620 0.582794 0.556383
v -0.072078 -0.490182 -0.164337
v -0.072078 -0.597567 0.142408
v -0.072078 -0.651251 0.114102
v -0.072078 -0.542062 -0.191934
v -0.072078 -0.666044 0.076336
v -0.072078 -0.574747 -0.179293
v -0.066479 -0.138496 -0.035930
v -0.056294 -0.138668 -0.045492
v -0.056290 0.564117 0.331564
v -0.063345 0.564117 0.331564
v -0.056290 0.582794 0.341779
v -0.063345 0.582794 0.341779
v 0.051017 -0.789672 -0.304225
v -0.051011 -0.789672 -0.304225
v -0.051011 -0.795502 -0.271357
v 0.051017 -0.795502 -0.271357
v -0.051011 -0.795502 -0.195856
v 0.051017 -0.795502 -0.195856
v -0.051011 -0.795502 -0.145282
v 0.051017 -0.795502 -0.145282
v -0.051011 -0.795502 -0.120355
v 0.051017 -0.795502 -0.120355
v -0.051011 -0.795502 0.087970
v 0.051017 -0.795502 0.087970
v 0.051017 -0.697866 -0.331206
v -0.051011 -0.697866 -0.331206
v -0.051011 -0.757377 -0.331206
v 0.051017 -0.757377 -0.331206
v -0.051011 -0.789672 -0.304225
v 0.051017 -0.789672 -0.304225
v 0.051017 -0.766438 -0.195856
v -0.051011 -0.766438 -0.195856
v -0.051011 -0.766439 -0.271357
v 0.051017 -0.766439 -0.271357
v -0.051011 -0.757104 -0.287048
v 0.051017 -0.757104 -0.287048
v 0.051017 -0.757104 -0.287048
v -0.051011 -0.757104 -0.287048
v -0.051011 -0.741138 -0.296107
v 0.051017 -0.741138 -0.296107
v -0.051011 -0.697866 -0.296107
v 0.051017 -0.697866 -0.296107
v 0.011233 0.525400 0.387713
v 0.000003 0.523824 0.387713
v 0.000003 0.523824 0.404103
v 0.011233 0.525400 0.404103
v 0.021747 0.529651 0.387713
v 0.021747 0.529651 0.404103
v 0.030685 0.536631 0.387713
v 0.030685 0.536631 0.404103
v 0.037664 0.545568 0.387713
v 0.037664 0.545568 0.404103
v 0.041915 0.556082 0.404103
v 0.041915 0.556082 0.387713
v 0.043491 0.567312 0.404103
v 0.043491 0.567312 0.387713
v 0.041915 0.578542 0.387713
v 0.041915 0.578542 0.404103
v 0.037664 0.589056 0.387713
v 0.037664 0.589056 0.404103
v 0.030685 0.597994 0.404103
v 0.030685 0.597994 0.387713
v 0.021747 0.604973 0.404103
v 0.021747 0.604973 0.387713
v 0.011233 0.609224 0.404103
v 0.011233 0.609224 0.387713
v 0.000003 0.610800 0.404103
v 0.000003 0.610800 0.387713
v -0.011227 0.609224 0.404103
v -0.011227 0.609224 0.387713
v -0.021741 0.604973 0.404103
v -0.021741 0.604973 0.387713
v -0.030679 0.597994 0.404103
v -0.030679 0.597994 0.387713
v -0.037658 0.589056 0.404103
v -0.037658 0.589056 0.387713
v -0.041909 0.578542 0.404103
v -0.041909 0.578542 0.387713
v -0.043485 0.567312 0.387713
v -0.043485 0.567312 0.404103
v -0.041909 0.556082 0.404103
v -0.041909 0.556082 0.387713
v -0.037658 0.545568 0.387713
v -0.037658 0.545568 0.404103
v -0.030679 0.536631 0.387713
v -0.030679 0.536631 0.404103
v -0.021741 0.529651 0.387713
v -0.021741 0.529651 0.404103
v -0.011227 0.525400 0.387713
v -0.011227 0.525400 0.404103
v 0.000003 0.523824 0.387713
v 0.000003 0.523824 0.404103
v -0.011227 0.525400 0.629479
v 0.000003 0.523824 0.629479
v 0.000003 0.523824 0.444218
v -0.011227 0.525400 0.444218
v -0.021741 0.529651 0.629479
v -0.021741 0.529651 0.444218
v -0.030679 0.536631 0.629479
v -0.030679 0.536631 0.444218
v -0.037658 0.545568 0.444218
v -0.037658 0.545568 0.629479
v -0.041909 0.556082 0.629479
v -0.041909 0.556082 0.444218
v -0.043485 0.567312 0.444218
v -0.043485 0.567312 0.629479
v -0.041909 0.578542 0.629479
v -0.041909 0.578542 0.444218
v -0.037658 0.589056 0.444218
v -0.037658 0.589056 0.629479
v -0.030679 0.597994 0.629479
v -0.030679 0.597994 0.444218
v -0.021741 0.604973 0.444218
v -0.021741 0.604973 0.629479
v -0.011227 0.609224 0.629479
v -0.011227 0.609224 0.444218
v 0.000003 0.610800 0.444218
v 0.000003 0.610800 0.629479
v 0.011233 0.609224 0.629479
v 0.011233 0.609224 0.444218
v 0.021747 0.604973 0.444218
v 0.021747 0.604973 0.629479
v 0.030685 0.597994 0.629479
v 0.030685 0.597994 0.444218
v 0.037664 0.589056 0.444218
v 0.037664 0.589056 0.629479
v 0.041915 0.578542 0.629479
v 0.041915 0.578542 0.444218
v 0.043491 0.567312 0.444218
v 0.043491 0.567312 0.629479
v 0.041915 0.556082 0.629479
v 0.041915 0.556082 0.444218
v 0.037664 0.545568 0.444218
v 0.037664 0.545568 0.629479
v 0.030685 0.536631 0.629479
v 0.030685 0.536631 0.444218
v 0.021747 0.529651 0.444218
v 0.021747 0.529651 0.629479
v 0.011233 0.525400 0.629479
v 0.011233 0.525400 0.444218
v 0.000003 0.523824 0.444218
v 0.000003 0.523824 0.629479
v 0.070190 0.564117 0.642256
v 0.056076 0.564117 0.642256
v 0.056079 0.582794 0.556383
v 0.070190 0.582794 0.556383
v 0.075299 0.564117 0.642256
v 0.080409 0.582794 0.556383
v 0.071867 -0.490182 -0.164337
v 0.071867 -0.651251 0.114102
v 0.071867 -0.597567 0.142408
v 0.071867 -0.542062 -0.191934
v 0.071867 -0.666044 0.076336
v 0.071867 -0.574747 -0.179293
v 0.021614 0.530344 0.796436
v 0.026902 0.544429 0.803846
v 0.034736 0.544284 0.803741
v 0.035714 -0.345864 0.321817
v 0.011668 0.519381 0.790532
v -0.000105 0.515658 0.788477
v -0.035925 -0.345864 0.321817
v -0.011879 0.519381 0.790532
v -0.021825 0.530344 0.796436
v -0.034947 0.544284 0.803741
v -0.027113 0.544429 0.803846
v 0.056079 0.564117 0.331564
v 0.056083 -0.138668 -0.045492
v 0.066268 -0.138496 -0.035930
v 0.063134 0.564117 0.331564
v 0.056079 0.582794 0.341779
v 0.063134 0.582794 0.341779
v -0.075510 0.564117 0.642256
v -0.075510 0.564117 0.546710
v -0.080620 0.582794 0.556383
v -0.075510 -0.210396 0.230738
v -0.075510 -0.142041 0.183345
v -0.034947 0.544284 0.803741
v -0.028496 0.548638 0.802587
v -0.027113 0.544429 0.803846
v -0.038829 0.548638 0.801980
v -0.031340 0.557295 0.798733
v -0.043705 0.557295 0.798347
v -0.068840 -0.781798 0.105821
v -0.066509 -0.793040 0.079315
v -0.080620 -0.775828 0.099083
v -0.054728 -0.798773 0.086132
v -0.068840 -0.723189 0.136710
v -0.080620 -0.775828 0.099083
v -0.080620 -0.717571 0.129801
v -0.068840 -0.591646 0.206036
v -0.080620 -0.586123 0.199112
v -0.068840 -0.570646 0.217104
v -0.080620 -0.565141 0.210176
v -0.068838 -0.365460 0.325244
v -0.080620 -0.357811 0.319499
v -0.056287 0.564117 0.642256
v -0.070401 0.564161 0.721311
v -0.070401 0.564117 0.642256
v -0.056287 0.564117 0.721312
v -0.062546 0.564166 0.730356
v -0.048684 0.564117 0.730356
v -0.050493 0.564205 0.781021
v -0.036380 0.564117 0.781022
v -0.047970 0.563046 0.790675
v -0.034220 0.562960 0.790840
v -0.043705 0.557295 0.798347
v -0.031340 0.557295 0.798733
v 0.051017 -0.697866 -0.296107
v 0.051017 -0.662425 -0.270783
v 0.051017 -0.651492 -0.305280
v 0.051017 -0.697866 -0.331206
v 0.051017 -0.741138 -0.296107
v 0.051017 -0.757377 -0.331206
v 0.051017 -0.757104 -0.287048
v 0.051017 -0.789672 -0.304225
v 0.051017 -0.766439 -0.271357
v 0.051017 -0.795502 -0.271357
v 0.051017 -0.766438 -0.195856
v 0.051017 -0.795502 -0.195856
v 0.051017 -0.795502 -0.145282
v 0.051017 -0.763124 -0.145282
v 0.051017 -0.795502 -0.120355
v 0.051017 -0.746553 -0.120355
v 0.051017 -0.746553 -0.043494
v 0.051017 -0.795502 0.087970
v -0.051011 -0.697866 -0.296107
v -0.051011 -0.651492 -0.305280
v -0.051011 -0.662425 -0.270783
v -0.051011 -0.697866 -0.331206
v -0.051011 -0.741138 -0.296107
v -0.051011 -0.757377 -0.331206
v -0.051011 -0.757104 -0.287048
v -0.051011 -0.789672 -0.304225
v -0.051011 -0.766439 -0.271357
v -0.051011 -0.795502 -0.271357
v -0.051011 -0.766438 -0.195856
v -0.051011 -0.795502 -0.195856
v -0.051011 -0.795502 -0.145282
v -0.051011 -0.763124 -0.145282
v -0.051011 -0.795502 -0.120355
v -0.051011 -0.746553 -0.120355
v -0.051011 -0.746553 -0.043494
v -0.051011 -0.795502 0.087970
v 0.011233 0.525400 0.629479
v 0.000003 0.523824 0.629479
v 0.000003 0.528712 0.639545
v 0.009971 0.530111 0.639545
v 0.019303 0.533883 0.639545
v 0.021747 0.529651 0.629479
v 0.030685 0.536631 0.629479
v 0.027236 0.540079 0.639545
v 0.033432 0.548012 0.639545
v 0.037664 0.545568 0.629479
v 0.041915 0.556082 0.629479
v 0.037204 0.557344 0.639545
v 0.038603 0.567312 0.639545
v 0.043491 0.567312 0.629479
v 0.041915 0.578542 0.629479
v 0.037204 0.577280 0.639545
v 0.033432 0.586612 0.639545
v 0.037664 0.589056 0.629479
v 0.030685 0.597994 0.629479
v 0.027236 0.594545 0.639545
v 0.019303 0.600741 0.639545
v 0.021747 0.604973 0.629479
v 0.011233 0.609224 0.629479
v 0.009971 0.604513 0.639545
v 0.000003 0.605912 0.639545
v 0.000003 0.610800 0.629479
v -0.011227 0.609224 0.629479
v -0.009965 0.604513 0.639545
v -0.019297 0.600741 0.639545
v -0.021741 0.604973 0.629479
v -0.030679 0.597994 0.629479
v -0.027230 0.594545 0.639545
v -0.033426 0.586612 0.639545
v -0.037658 0.589056 0.629479
v -0.041909 0.578542 0.629479
v -0.037198 0.577280 0.639545
v -0.038597 0.567312 0.639545
v -0.043485 0.567312 0.629479
v -0.041909 0.556082 0.629479
v -0.037198 0.557344 0.639545
v -0.033426 0.548012 0.639545
v -0.037658 0.545568 0.629479
v -0.030679 0.536631 0.629479
v -0.027230 0.540079 0.639545
v -0.019297 0.533883 0.639545
v -0.021741 0.529651 0.629479
v -0.011227 0.525400 0.629479
v -0.009965 0.530111 0.639545
v 0.000003 0.528712 0.639545
v 0.000003 0.523824 0.629479
v 0.009971 0.530111 0.639545
v 0.000003 0.528712 0.639545
v 0.000003 0.534343 0.739845
v 0.008517 0.535538 0.739845
v 0.016487 0.538760 0.739845
v 0.019303 0.533883 0.639545
v 0.027236 0.540079 0.639545
v 0.023263 0.544052 0.739845
v 0.028555 0.550827 0.739845
v 0.033432 0.548012 0.639545
v 0.037204 0.557344 0.639545
v 0.031777 0.558798 0.739845
v 0.032972 0.567312 0.739845
v 0.038603 0.567312 0.639545
v 0.037204 0.577280 0.639545
v 0.031777 0.575826 0.739845
v 0.028555 0.583797 0.739845
v 0.033432 0.586612 0.639545
v 0.027236 0.594545 0.639545
v 0.023263 0.590573 0.739845
v 0.016487 0.595864 0.739845
v 0.019303 0.600741 0.639545
v 0.009971 0.604513 0.639545
v 0.008517 0.599087 0.739845
v 0.000003 0.600281 0.739845
v 0.000003 0.605912 0.639545
v -0.009965 0.604513 0.639545
v -0.008511 0.599087 0.739845
v -0.016481 0.595864 0.739845
v -0.019297 0.600741 0.639545
v -0.027230 0.594545 0.639545
v -0.023257 0.590573 0.739845
v -0.028549 0.583797 0.739845
v -0.033426 0.586612 0.639545
v -0.037198 0.577280 0.639545
v -0.031771 0.575826 0.739845
v -0.032966 0.567312 0.739845
v -0.038597 0.567312 0.639545
v -0.037198 0.557344 0.639545
v -0.031771 0.558798 0.739845
v -0.028549 0.550827 0.739845
v -0.033426 0.548012 0.639545
v -0.027230 0.540079 0.639545
v -0.023257 0.544052 0.739845
v -0.016481 0.538760 0.739845
v -0.019297 0.533883 0.639545
v -0.009965 0.530111 0.639545
v -0.008511 0.535538 0.739845
v 0.000003 0.534343 0.739845
v 0.000003 0.528712 0.639545
v 0.011233 0.525400 0.404103
v 0.000003 0.523824 0.404103
v 0.000003 0.530373 0.405703
v 0.009542 0.531712 0.405703
v 0.018473 0.535322 0.405703
v 0.021747 0.529651 0.404103
v 0.030685 0.536631 0.404103
v 0.026064 0.541251 0.405703
v 0.031993 0.548842 0.405703
v 0.037664 0.545568 0.404103
v 0.041915 0.556082 0.404103
v 0.035604 0.557773 0.405703
v 0.036942 0.567312 0.405703
v 0.043491 0.567312 0.404103
v 0.041915 0.578542 0.404103
v 0.035604 0.576851 0.405703
v 0.031993 0.585782 0.405703
v 0.037664 0.589056 0.404103
v 0.030685 0.597994 0.404103
v 0.026064 0.593373 0.405703
v 0.018473 0.599303 0.405703
v 0.021747 0.604973 0.404103
v 0.011233 0.609224 0.404103
v 0.009542 0.602913 0.405703
v 0.000003 0.604251 0.405703
v 0.000003 0.610800 0.404103
v -0.011227 0.609224 0.404103
v -0.009536 0.602913 0.405703
v -0.018467 0.599303 0.405703
v -0.021741 0.604973 0.404103
v -0.030679 0.597994 0.404103
v -0.026058 0.593373 0.405703
v -0.031987 0.585782 0.405703
v -0.037658 0.589056 0.404103
v -0.041909 0.578542 0.404103
v -0.035598 0.576851 0.405703
v -0.036936 0.567312 0.405703
v -0.043485 0.567312 0.404103
v -0.041909 0.556082 0.404103
v -0.035598 0.557773 0.405703
v -0.031987 0.548842 0.405703
v -0.037658 0.545568 0.404103
v -0.030679 0.536631 0.404103
v -0.026058 0.541251 0.405703
v -0.018467 0.535322 0.405703
v -0.021741 0.529651 0.404103
v -0.011227 0.525400 0.404103
v -0.009536 0.531712 0.405703
v 0.000003 0.530373 0.405703
v 0.000003 0.523824 0.404103
v 0.000003 0.530373 0.405703
v 0.000003 0.523824 0.444218
v 0.011233 0.525400 0.444218
v 0.009542 0.531712 0.405703
v 0.018473 0.535322 0.405703
v 0.021747 0.529651 0.444218
v 0.030685 0.536631 0.444218
v 0.026064 0.541251 0.405703
v 0.031993 0.548842 0.405703
v 0.037664 0.545568 0.444218
v 0.041915 0.556082 0.444218
v 0.035604 0.557773 0.405703
v 0.036942 0.567312 0.405703
v 0.043491 0.567312 0.444218
v 0.041915 0.578542 0.444218
v 0.035604 0.576851 0.405703
v 0.031993 0.585782 0.405703
v 0.037664 0.589056 0.444218
v 0.030685 0.597994 0.444218
v 0.026064 0.593373 0.405703
v 0.018473 0.599303 0.405703
v 0.021747 0.604973 0.444218
v 0.011233 0.609224 0.444218
v 0.009542 0.602913 0.405703
v 0.000003 0.604251 0.405703
v 0.000003 0.610800 0.444218
v -0.011227 0.609224 0.444218
v -0.009536 0.602913 0.405703
v -0.018467 0.599303 0.405703
v -0.021741 0.604973 0.444218
v -0.030679 0.597994 0.444218
v -0.026058 0.593373 0.405703
v -0.031987 0.585782 0.405703
v -0.037658 0.589056 0.444218
v -0.041909 0.578542 0.444218
v -0.035598 0.576851 0.405703
v -0.036936 0.567312 0.405703
v -0.043485 0.567312 0.444218
v -0.041909 0.556082 0.444218
v -0.035598 0.557773 0.405703
v -0.031987 0.548842 0.405703
v -0.037658 0.545568 0.444218
v -0.030679 0.536631 0.444218
v -0.026058 0.541251 0.405703
v -0.018467 0.535322 0.405703
v -0.021741 0.529651 0.444218
v -0.011227 0.525400 0.444218
v -0.009536 0.531712 0.405703
v 0.000003 0.530373 0.405703
v 0.000003 0.523824 0.444218
v 0.056079 0.582794 0.556383
v 0.056079 0.564117 0.331564
v 0.056079 0.582794 0.341779
v 0.056076 0.564117 0.642256
v 0.049041 0.544429 0.646744
v 0.049608 0.544429 0.321170
v 0.056076 0.564117 0.642256
v 0.056076 0.564117 0.721312
v 0.048473 0.564117 0.730356
v 0.036169 0.564117 0.781022
v 0.026902 0.544429 0.803846
v 0.021614 0.530344 0.796436
v 0.037298 0.530344 0.642259
v 0.037700 0.530344 0.313556
v 0.011668 0.519381 0.790532
v 0.018832 0.519381 0.640709
v -0.000105 0.515658 0.788477
v 0.019016 0.519381 0.307546
v -0.000105 0.515658 0.640170
v -0.000105 0.515658 0.305524
v 0.070190 -0.138232 0.185362
v 0.070190 0.442003 0.401295
v 0.070190 -0.138279 0.097289
v 0.070190 0.564117 0.546710
v 0.070190 0.582794 0.556383
v 0.070190 0.582794 0.366266
v 0.070190 0.564117 0.356051
v 0.063134 0.582794 0.341779
v 0.070190 0.442003 0.361255
v 0.063134 0.564117 0.331564
v 0.070190 -0.138325 -0.018293
v 0.070190 -0.138285 0.056603
v 0.066268 -0.138496 -0.035930
v 0.066298 -0.568805 -0.285177
v -0.066509 -0.626226 -0.315927
v 0.066298 -0.626226 -0.315927
v -0.066509 -0.568805 -0.285177
v -0.066509 -0.439904 -0.216149
v 0.066298 -0.439904 -0.216149
v -0.066509 -0.419425 -0.205183
v 0.066298 -0.419425 -0.205183
v -0.066509 -0.210999 -0.093568
v 0.066298 -0.210999 -0.093568
v 0.066296 -0.145416 -0.058445
v -0.066507 -0.145416 -0.058445
v 0.071867 -0.164646 0.140381
v 0.071867 -0.164646 -0.016036
v 0.071867 -0.213834 -0.042201
v 0.071867 -0.210629 0.181362
v 0.071867 -0.233298 0.150850
v 0.071867 -0.233696 -0.037032
v 0.070190 -0.138285 0.056603
v 0.070190 -0.138325 -0.018293
v 0.080409 -0.145757 -0.031599
v 0.066268 -0.138496 -0.035930
v 0.076484 -0.145586 -0.049060
v 0.056083 -0.138668 -0.045492
v 0.080409 -0.210999 -0.066297
v 0.066296 -0.145416 -0.058445
v 0.076485 -0.210999 -0.083970
v 0.080409 -0.427708 -0.181574
v 0.066298 -0.210999 -0.093568
v 0.076485 -0.423567 -0.197416
v 0.066298 -0.419425 -0.205183
v 0.080409 -0.448234 -0.192493
v 0.076485 -0.444069 -0.208359
v 0.066298 -0.439904 -0.216149
v 0.066298 -0.568805 -0.285177
v 0.066298 -0.626226 -0.315927
v 0.076485 -0.629338 -0.307244
v 0.076485 -0.573102 -0.277227
v 0.080409 -0.632450 -0.290486
v 0.080409 -0.577401 -0.261202
v 0.080409 -0.775828 0.099083
v 0.080409 -0.632450 -0.290486
v 0.080409 -0.717571 0.129801
v 0.080409 -0.550374 -0.213426
v 0.080409 -0.583059 -0.200784
v 0.080409 -0.471687 -0.171569
v 0.080409 -0.684582 0.083598
v 0.080409 -0.589057 0.163933
v 0.080409 -0.669789 0.121363
v 0.080409 -0.586123 0.199112
v 0.080409 -0.427708 -0.181574
v 0.080409 -0.565141 0.210176
v 0.080409 -0.428572 -0.147329
v 0.080409 -0.545788 0.186790
v 0.080409 -0.256301 -0.054508
v 0.080409 -0.355747 0.286513
v 0.080409 -0.210999 -0.066297
v 0.080409 -0.357811 0.319499
v 0.080409 -0.285159 0.273521
v 0.080409 -0.240583 0.214114
v 0.080409 -0.212506 0.227544
v 0.080409 -0.241231 -0.042858
v 0.080409 -0.255862 0.165771
v 0.080409 -0.212889 -0.050233
v 0.080409 -0.240819 0.155824
v 0.080409 -0.145757 -0.031599
v 0.080409 -0.210594 0.189576
v 0.080409 -0.157112 -0.020562
v 0.080409 -0.157112 0.145301
v 0.080409 -0.240666 0.184276
v 0.080409 -0.145851 0.181329
v -0.066509 -0.793040 0.079315
v 0.066298 -0.651492 -0.305280
v -0.066509 -0.651492 -0.305280
v 0.066298 -0.793040 0.079315
v 0.054517 -0.798773 0.086132
v -0.054728 -0.798773 0.086132
v 0.080409 -0.145851 0.181329
v 0.075299 -0.142041 0.183345
v 0.070190 -0.138232 0.185362
v 0.070190 -0.138279 0.097289
v 0.070190 -0.138285 0.056603
v 0.080409 -0.145757 -0.031599
v 0.070190 0.582794 0.556383
v 0.075299 0.564117 0.546710
v 0.080409 0.582794 0.556383
v 0.070190 0.564117 0.546710
v 0.070190 -0.138232 0.185362
v 0.075299 -0.142041 0.183345
v -0.056290 0.564117 0.331564
v -0.056290 0.582794 0.556383
v -0.056290 0.582794 0.341779
v -0.056287 0.564117 0.642256
v -0.049252 0.544429 0.646744
v -0.049819 0.544429 0.321170
v -0.056287 0.564117 0.642256
v -0.056287 0.564117 0.721312
v -0.048684 0.564117 0.730356
v -0.027113 0.544429 0.803846
v -0.036380 0.564117 0.781022
v -0.021825 0.530344 0.796436
v -0.037509 0.530344 0.642259
v -0.037911 0.530344 0.313556
v -0.011879 0.519381 0.790532
v -0.019043 0.519381 0.640709
v -0.000105 0.515658 0.788477
v -0.019227 0.519381 0.307546
v -0.000105 0.515658 0.640170
v -0.000105 0.515658 0.305524
v -0.070401 0.442003 0.401295
v -0.070401 -0.138232 0.185362
v -0.070401 -0.138279 0.097289
v -0.070401 0.564117 0.546710
v -0.070401 0.582794 0.366266
v -0.070401 0.582794 0.556383
v -0.070401 0.564117 0.356051
v -0.063345 0.582794 0.341779
v -0.070401 0.442003 0.361255
v -0.063345 0.564117 0.331564
v -0.070401 -0.138325 -0.018293
v -0.070401 -0.138285 0.056603
v -0.066479 -0.138496 -0.035930
v -0.072078 -0.164646 0.140381
v -0.072078 -0.213834 -0.042201
v -0.072078 -0.164646 -0.016036
v -0.072078 -0.210629 0.181362
v -0.072078 -0.233298 0.150850
v -0.072078 -0.233696 -0.037032
v -0.080620 -0.145851 0.181329
v -0.070401 -0.138232 0.185362
v -0.075510 -0.142041 0.183345
v -0.070401 -0.138279 0.097289
v -0.070401 -0.138285 0.056603
v -0.080620 -0.145757 -0.031599
v -0.080620 -0.145757 -0.031599
v -0.070401 -0.138325 -0.018293
v -0.066479 -0.138496 -0.035930
v -0.076695 -0.145586 -0.049060
v -0.056294 -0.138668 -0.045492
v -0.080620 -0.210999 -0.066297
v -0.066507 -0.145416 -0.058445
v -0.076696 -0.210999 -0.083970
v -0.080620 -0.427708 -0.181574
v -0.066509 -0.210999 -0.093568
v -0.076696 -0.423567 -0.197416
v -0.066509 -0.419425 -0.205183
v -0.080620 -0.448234 -0.192493
v -0.076696 -0.444069 -0.208359
v -0.066509 -0.439904 -0.216149
v -0.066509 -0.568805 -0.285177
v -0.076696 -0.629338 -0.307244
v -0.066509 -0.626226 -0.315927
v -0.076696 -0.573102 -0.277227
v -0.080620 -0.632450 -0.290486
v -0.080620 -0.577401 -0.261202
v -0.080620 -0.775828 0.099083
v -0.080620 -0.632450 -0.290486
v -0.080620 -0.717571 0.129801
v -0.080620 -0.550374 -0.213426
v -0.080620 -0.583059 -0.200784
v -0.080620 -0.471687 -0.171569
v -0.080620 -0.684582 0.083598
v -0.080620 -0.589057 0.163933
v -0.080620 -0.669789 0.121363
v -0.080620 -0.586123 0.199112
v -0.080620 -0.427708 -0.181574
v -0.080620 -0.565141 0.210176
v -0.080620 -0.428572 -0.147329
v -0.080620 -0.545788 0.186790
v -0.080620 -0.256301 -0.054508
v -0.080620 -0.355747 0.286513
v -0.080620 -0.210999 -0.066297
v -0.080620 -0.357811 0.319499
v -0.080620 -0.285159 0.273521
v -0.080620 -0.240583 0.214114
v -0.080620 -0.212506 0.227544
v -0.080620 -0.241231 -0.042858
v -0.080620 -0.255862 0.165771
v -0.080620 -0.212889 -0.050233
v -0.080620 -0.240819 0.155824
v -0.080620 -0.145757 -0.031599
v -0.080620 -0.210594 0.189576
v -0.080620 -0.157112 -0.020562
v -0.080620 -0.157112 0.145301
v -0.080620 -0.240666 0.184276
v -0.080620 -0.145851 0.181329
v -0.075510 0.564117 0.546710
v -0.070401 0.582794 0.556383
v -0.080620 0.582794 0.556383
v -0.070401 0.564117 0.546710
v -0.070401 -0.138232 0.185362
v -0.075510 -0.142041 0.183345
v 0.000003 0.610800 0.387713
v 0.021747 0.604973 0.387713
v 0.011233 0.609224 0.387713
v -0.021741 0.604973 0.387713
v -0.011227 0.609224 0.387713
v 0.030685 0.597994 0.387713
v -0.030679 0.597994 0.387713
v 0.037664 0.589056 0.387713
v -0.037658 0.589056 0.387713
v 0.041915 0.578542 0.387713
v -0.041909 0.578542 0.387713
v 0.043491 0.567312 0.387713
v -0.043485 0.567312 0.387713
v -0.041909 0.556082 0.387713
v 0.041915 0.556082 0.387713
v 0.037664 0.545568 0.387713
v -0.037658 0.545568 0.387713
v 0.030685 0.536631 0.387713
v -0.030679 0.536631 0.387713
v 0.021747 0.529651 0.387713
v -0.021741 0.529651 0.387713
v 0.000003 0.523824 0.387713
v -0.011227 0.525400 0.387713
v 0.011233 0.525400 0.387713
v 0.080409 -0.212506 0.227544
v 0.080409 -0.285159 0.273521
v 0.075299 -0.280627 0.275163
v 0.075299 -0.210396 0.230738
v 0.080409 -0.145851 0.181329
v 0.075299 -0.142041 0.183345
v 0.070190 -0.276095 0.276804
v 0.070190 -0.208286 0.233933
v -0.080620 -0.212506 0.227544
v -0.075510 -0.280627 0.275163
v -0.080620 -0.285159 0.273521
v -0.075510 -0.210396 0.230738
v -0.080620 -0.145851 0.181329
v -0.075510 -0.142041 0.183345
v -0.070401 -0.276095 0.276804
v -0.070401 -0.208286 0.233933
v 0.071867 -0.263406 0.162490
v 0.071867 -0.263836 -0.049981
v 0.071867 -0.424365 -0.136557
v 0.071867 -0.536526 0.183154
v 0.071867 -0.356078 0.277820
v 0.071867 -0.248130 0.209958
v 0.071867 -0.248211 0.180741
v 0.056083 -0.138668 -0.045492
v 0.056079 0.564117 0.331564
v 0.049608 0.544429 0.321170
v 0.037700 0.530344 0.313556
v 0.019016 0.519381 0.307546
v -0.000105 0.515658 0.305524
v -0.056294 -0.138668 -0.045492
v -0.019227 0.519381 0.307546
v -0.037911 0.530344 0.313556
v -0.049819 0.544429 0.321170
v -0.056290 0.564117 0.331564
v -0.072078 -0.248130 0.209958
v -0.072078 -0.263406 0.162490
v -0.072078 -0.248211 0.180741
v -0.072078 -0.356078 0.277820
v -0.072078 -0.536526 0.183154
v -0.072078 -0.424365 -0.136557
v -0.072078 -0.263836 -0.049981
v 0.048503 0.549268 0.789990
v 0.034736 0.544284 0.803741
v 0.038618 0.548638 0.801980
v 0.043494 0.557295 0.798347
v 0.047759 0.563046 0.790675
v 0.050282 0.564205 0.781021
v 0.062335 0.564166 0.730356
v 0.062335 -0.282986 0.281162
v 0.047483 -0.338220 0.316083
v -0.048714 0.549268 0.789990
v -0.047694 -0.338220 0.316083
v -0.062546 -0.282986 0.281162
v -0.062546 0.564166 0.730356
v -0.050493 0.564205 0.781021
v -0.047970 0.563046 0.790675
v -0.043705 0.557295 0.798347
v -0.038829 0.548638 0.801980
v -0.034947 0.544284 0.803741
v -0.050207 -0.570561 0.225841
v -0.068838 -0.365460 0.325244
v -0.048565 -0.370606 0.332368
v -0.068840 -0.570646 0.217104
v 0.048355 -0.370606 0.332368
v -0.050371 -0.591565 0.214785
v -0.068840 -0.591646 0.206036
v 0.049997 -0.570561 0.225841
v 0.068627 -0.365460 0.325244
v 0.068629 -0.570646 0.217104
v -0.051392 -0.723124 0.145532
v 0.050160 -0.591565 0.214785
v 0.068629 -0.591646 0.206036
v -0.068840 -0.723189 0.136710
v 0.051181 -0.723124 0.145532
v 0.068629 -0.723189 0.136710
v -0.051846 -0.781677 0.114725
v -0.068840 -0.781799 0.105821
v -0.054728 -0.798773 0.086132
v 0.054517 -0.798773 0.086132
v 0.068629 -0.781799 0.105821
v 0.051635 -0.781677 0.114725
v 0.080409 -0.212889 -0.050233
v 0.071867 -0.213834 -0.042201
v 0.071867 -0.164646 -0.016036
v 0.071867 -0.233696 -0.037032
v 0.080409 -0.157112 -0.020562
v 0.080409 -0.241231 -0.042858
v 0.071867 -0.164646 0.140381
v 0.080409 -0.240819 0.155824
v 0.080409 -0.157112 0.145301
v 0.071867 -0.233298 0.150850
v 0.071867 -0.210629 0.181362
v 0.080409 -0.210594 0.189576
v -0.080620 -0.157112 0.145301
v -0.080620 -0.210594 0.189576
v -0.072078 -0.210629 0.181362
v -0.080620 -0.240819 0.155824
v -0.072078 -0.164646 0.140381
v -0.072078 -0.233298 0.150850
v -0.080620 -0.157112 -0.020562
v -0.072078 -0.233696 -0.037032
v -0.072078 -0.164646 -0.016036
v -0.080620 -0.241231 -0.042858
v -0.080620 -0.212889 -0.050233
v -0.072078 -0.213834 -0.042201
v 0.070190 -0.138279 0.097289
v 0.070190 0.442003 0.401295
v 0.058011 0.438498 0.383731
v 0.070190 0.442003 0.361255
v 0.058011 -0.136526 0.082473
v 0.058011 0.438498 0.376109
v 0.058011 -0.136531 0.074212
v 0.070190 -0.138285 0.056603
v -0.070401 0.442003 0.361255
v -0.070401 0.442003 0.401295
v -0.058222 0.438498 0.383731
v -0.070401 -0.138279 0.097289
v -0.058222 0.438498 0.376109
v -0.058222 -0.136526 0.082473
v -0.058222 -0.136531 0.074212
v -0.070401 -0.138285 0.056603
v 0.032972 0.567312 0.739845
v 0.000003 0.567312 0.739845
v 0.031777 0.575826 0.739845
v 0.031777 0.558798 0.739845
v 0.028555 0.583797 0.739845
v 0.028555 0.550827 0.739845
v 0.023263 0.590573 0.739845
v 0.023263 0.544052 0.739845
v 0.016487 0.595864 0.739845
v 0.016487 0.538760 0.739845
v 0.008517 0.599087 0.739845
v 0.008517 0.535538 0.739845
v 0.000003 0.600281 0.739845
v 0.000003 0.534343 0.739845
v -0.008511 0.599087 0.739845
v -0.008511 0.535538 0.739845
v -0.016481 0.595864 0.739845
v -0.016481 0.538760 0.739845
v -0.023257 0.590573 0.739845
v -0.023257 0.544052 0.739845
v -0.028549 0.583797 0.739845
v -0.028549 0.550827 0.739845
v -0.031771 0.575826 0.739845
v -0.031771 0.558798 0.739845
v -0.032966 0.567312 0.739845
vn -0.1665 0.4305 0.8871
vn -0.1896 0.4525 0.8714
vn 0.1643 0.4326 0.8865
vn 0.1864 0.4644 0.8658
vn 0.7566 -0.3950 -0.5211
vn 0.7598 -0.3952 -0.5163
vn 0.7583 -0.3956 -0.5181
vn 0.7590 -0.3958 -0.5170
vn 0.8522 -0.4911 -0.1807
vn 0.6620 -0.7495 0.0015
vn 0.6617 -0.7498 0.0015
vn 0.6676 -0.3617 0.6508
vn 0.6568 -0.3686 0.6578
vn 0.6563 -0.3683 0.6585
vn 0.6676 -0.3614 0.6509
vn 0.6615 -0.7499 0.0021
vn 0.6616 -0.7499 0.0021
vn 0.6616 0.7076 0.2482
vn 0.6615 -0.3991 -0.6349
vn 0.6609 0.3487 -0.6645
vn 0.6619 0.3482 -0.6638
vn 0.6620 0.3482 -0.6637
vn 0.3896 -0.7108 0.5856
vn 0.3950 -0.7069 0.5867
vn 0.3873 -0.7125 0.5851
vn 0.3973 -0.7052 0.5871
vn 0.8672 -0.4699 -0.1649
vn 0.8666 -0.4709 -0.1653
vn 0.8672 -0.4700 -0.1649
vn 0.8665 -0.4709 -0.1654
vn 0.8700 -0.2316 0.4353
vn 0.8692 0.4656 0.1663
vn 0.8697 0.4648 0.1659
vn 0.8674 0.2329 -0.4398
vn 0.9401 0.1218 0.3185
vn 0.9401 0.1217 0.3185
vn 0.9214 0.3604 -0.1450
vn 0.9214 0.3604 -0.1451
vn 0.9215 0.3604 -0.1450
vn 0.1594 0.4236 0.8917
vn 0.1596 0.4237 0.8916
vn 1.0000 -0.0055 -0.0000
vn 0.6624 -0.3577 0.6582
vn 0.6607 -0.3584 0.6596
vn 0.6624 -0.3577 0.6583
vn 0.6607 -0.3584 0.6595
vn 0.3939 0.1154 0.9119
vn 0.3933 0.1167 0.9120
vn -0.4734 -0.8102 0.3458
vn 0.6923 -0.3401 0.6365
vn 0.6936 -0.3395 0.6354
vn 0.2765 0.4892 0.8272
vn 0.2753 0.4900 0.8271
vn 0.2756 0.4899 0.8271
vn 0.2762 0.4895 0.8271
vn 0.1738 -0.4634 0.8689
vn 0.1736 -0.4634 0.8690
vn 0.1737 -0.4634 0.8689
vn -0.7598 -0.3952 -0.5163
vn -0.7566 -0.3950 -0.5211
vn -0.7583 -0.3956 -0.5181
vn -0.7590 -0.3958 -0.5170
vn -0.8522 -0.4911 -0.1807
vn -0.6617 -0.7498 0.0015
vn -0.6620 -0.7495 0.0015
vn -0.6569 -0.3686 0.6578
vn -0.6676 -0.3617 0.6508
vn -0.6564 -0.3683 0.6584
vn -0.6676 -0.3614 0.6509
vn -0.6616 -0.7499 0.0021
vn -0.6615 -0.7499 0.0021
vn -0.6609 0.3487 -0.6645
vn -0.6619 0.3482 -0.6638
vn -0.6620 0.3482 -0.6637
vn -0.6616 0.7076 0.2482
vn -0.3946 -0.7150 0.5771
vn -0.4019 -0.7069 0.5820
vn -0.4006 -0.7066 0.5833
vn -0.3916 -0.7146 0.5797
vn -0.8700 -0.2316 0.4353
vn -0.8553 0.2425 -0.4579
vn -0.8692 0.4656 0.1663
vn -0.8697 0.4648 0.1659
vn -0.9401 0.1218 0.3186
vn -0.9400 0.1218 0.3186
vn -0.9401 0.1218 0.3185
vn -0.9401 0.1217 0.3185
vn -0.9214 0.3604 -0.1451
vn -0.9214 0.3605 -0.1450
vn -0.1688 0.4331 0.8854
vn -1.0000 -0.0000 -0.0055
vn -0.6607 -0.3584 0.6596
vn -0.6624 -0.3577 0.6583
vn -0.0000 -0.3883 -0.9215
vn -0.0000 0.8869 -0.4620
vn -0.8666 -0.4709 -0.1653
vn -0.8672 -0.4700 -0.1649
vn -0.8665 -0.4709 -0.1654
vn -0.6615 -0.3991 -0.6349
vn -0.4011 0.1083 0.9096
vn -0.4008 0.1081 0.9098
vn -0.6218 0.6811 -0.3866
vn -0.6936 -0.3395 0.6354
vn -0.6923 -0.3401 0.6365
vn -0.2791 0.4891 0.8264
vn -0.2785 0.4895 0.8264
vn -0.2789 0.4892 0.8264
vn -0.2787 0.4893 0.8264
vn -0.1771 -0.4632 0.8684
vn -0.1769 -0.4632 0.8684
vn -0.1771 -0.4631 0.8684
vn -0.0039 1.0000 -0.0039
vn -0.0000 0.8328 -0.5536
vn -0.0000 0.9979 -0.0654
vn -0.0000 0.4734 -0.8808
vn -0.0000 0.4734 -0.8809
vn -0.0000 -0.5814 0.8136
vn -0.0000 0.3923 0.9199
vn -0.9554 0.2331 -0.1814
vn -0.9554 0.2321 -0.1826
vn -0.9551 0.2335 -0.1824
vn -0.9549 0.2369 -0.1790
vn -0.9512 0.2655 -0.1572
vn 0.9609 -0.2771 -0.0000
vn 1.0000 -0.0038 -0.0000
vn 1.0000 -0.0039 -0.0000
vn 0.0348 0.3058 0.9515
vn 0.0454 0.3183 0.9469
vn 0.0400 0.3704 0.9280
vn 0.0445 0.3667 0.9293
vn 0.0404 0.3733 0.9268
vn 0.0374 0.3715 0.9277
vn 0.0303 -0.8615 0.5068
vn 0.5504 -0.7849 0.2845
vn 0.2118 -0.7603 0.6141
vn 0.5572 -0.7810 0.2822
vn 0.2118 -0.7602 0.6142
vn 0.5959 -0.3744 0.7104
vn 0.4786 -0.4108 0.7760
vn 0.5954 -0.3747 0.7107
vn 0.5941 -0.3751 0.7116
vn 0.5939 -0.3752 0.7117
vn 0.5918 -0.3760 0.7130
vn 0.0070 0.8037 0.5950
vn 0.0116 0.8088 0.5880
vn 0.0028 0.9155 0.4024
vn -0.0003 0.9547 0.2976
vn -0.0039 1.0000 -0.0038
vn 0.9512 0.2655 -0.1572
vn 0.9549 0.2369 -0.1790
vn 0.9551 0.2335 -0.1824
vn 0.9554 0.2321 -0.1826
vn 0.9554 0.2331 -0.1814
vn -0.0074 0.9778 0.2093
vn -0.0074 0.9778 0.2092
vn -0.4395 0.4203 -0.7938
vn -0.4389 0.4204 -0.7942
vn -0.4389 0.4204 -0.7941
vn -0.0000 0.4799 -0.8773
vn -0.0000 -0.9826 -0.1859
vn -0.0000 -0.9984 -0.0557
vn -0.0000 -0.9984 -0.0558
vn -0.0000 -1.0000 -0.0000
vn -0.0000 -0.0000 -1.0000
vn -0.0000 -0.2823 -0.9593
vn -0.0000 -0.6411 -0.7674
vn -0.0000 0.9948 0.1017
vn -0.0000 0.8655 0.5009
vn -0.0000 0.4870 0.8734
vn -0.0000 0.1482 0.9890
vn -0.0000 -0.0000 1.0000
vn -0.0039 -1.0000 -0.0000
vn 0.2486 -0.9686 -0.0001
vn 0.2486 -0.9686 -0.0000
vn 0.4997 -0.8662 -0.0020
vn 0.7071 -0.7071 -0.0000
vn 0.8660 -0.5000 -0.0000
vn 0.9659 -0.2588 -0.0000
vn 1.0000 -0.0000 -0.0000
vn 0.9686 0.2486 -0.0000
vn 0.8662 0.4997 -0.0020
vn 0.7071 0.7071 -0.0000
vn 0.4997 0.8662 -0.0020
vn 0.4997 0.8662 -0.0021
vn 0.2557 0.9667 -0.0101
vn -0.2588 0.9659 -0.0000
vn -0.5000 0.8660 -0.0000
vn -0.7071 0.7071 -0.0000
vn -0.8670 0.4982 -0.0000
vn -0.8671 0.4982 -0.0000
vn -0.9686 0.2486 -0.0000
vn -1.0000 -0.0000 -0.0000
vn -0.9659 -0.2588 -0.0000
vn -0.8660 -0.5000 -0.0000
vn -0.7071 -0.7071 -0.0000
vn -0.5000 -0.8660 -0.0000
vn -0.2588 -0.9659 -0.0000
vn -0.0040 -1.0000 -0.0000
vn 0.2557 0.9667 -0.0100
vn 0.8662 0.4997 -0.0021
vn 0.4996 -0.8662 -0.0021
vn 0.0097 -0.4739 0.8805
vn 0.0122 -0.4751 0.8799
vn 0.0089 -0.4707 0.8823
vn 0.0023 -0.4767 0.8791
vn 0.0010 -0.4763 0.8793
vn 0.0028 -0.4768 0.8790
vn 0.0033 -0.4768 0.8790
vn 0.0050 -0.4772 0.8788
vn 0.0099 -0.4781 0.8783
vn 0.0098 -0.4772 0.8787
vn 0.0100 -0.4759 0.8794
vn 0.4364 0.4210 -0.7952
vn 0.4366 0.4209 -0.7951
vn 0.4365 0.4209 -0.7952
vn 0.4366 0.4210 -0.7951
vn -1.0000 -0.0000 -0.0039
vn -1.0000 0.0002 -0.0039
vn -0.9609 -0.2771 -0.0000
vn -0.0402 0.3523 0.9350
vn -0.0427 0.3127 0.9489
vn -0.0403 0.3085 0.9504
vn -0.0422 0.3605 0.9318
vn -0.0404 0.3572 0.9331
vn -0.0388 0.3576 0.9331
vn -0.5504 -0.7849 0.2845
vn -0.2146 -0.7598 0.6137
vn -0.5572 -0.7810 0.2822
vn -0.0337 -0.8614 0.5067
vn -0.2146 -0.7597 0.6139
vn -0.4899 -0.4079 0.7705
vn -0.5959 -0.3744 0.7104
vn -0.5954 -0.3747 0.7107
vn -0.5941 -0.3751 0.7116
vn -0.4899 -0.4079 0.7704
vn -0.5938 -0.3752 0.7117
vn -0.5918 -0.3760 0.7130
vn -0.0038 1.0000 -0.0039
vn 0.0003 0.9547 0.2976
vn -0.0028 0.9155 0.4024
vn 0.0116 0.8050 0.5931
vn 0.0108 0.8047 0.5935
vn -0.0004 -0.9007 0.4345
vn 0.2329 -0.8693 0.4360
vn 0.4499 -0.7834 0.4288
vn 0.4498 -0.7834 0.4288
vn 0.6364 -0.6364 0.4360
vn 0.7791 -0.4498 0.4368
vn 0.8693 -0.2329 0.4360
vn 0.9043 -0.0000 0.4268
vn 0.9043 -0.0000 0.4269
vn 0.8693 0.2329 0.4360
vn 0.7834 0.4499 0.4288
vn 0.6364 0.6364 0.4360
vn 0.4499 0.7834 0.4288
vn 0.2329 0.8693 0.4360
vn -0.0000 0.9043 0.4269
vn -0.0000 0.9043 0.4268
vn -0.2329 0.8693 0.4360
vn -0.4498 0.7791 0.4368
vn -0.4498 0.7791 0.4367
vn -0.6364 0.6364 0.4360
vn -0.7834 0.4499 0.4288
vn -0.8693 0.2329 0.4360
vn -0.9043 -0.0000 0.4268
vn -0.9043 -0.0000 0.4269
vn -0.8693 -0.2329 0.4360
vn -0.7791 -0.4498 0.4368
vn -0.6364 -0.6364 0.4360
vn -0.4498 -0.7791 0.4368
vn -0.4498 -0.7791 0.4367
vn -0.2329 -0.8693 0.4360
vn 0.0003 -0.9007 0.4344
vn 0.0004 -0.9007 0.4344
vn 0.0003 -0.9985 0.0549
vn 0.2584 -0.9644 0.0559
vn -0.0000 -0.6837 0.7297
vn 0.1742 -0.6626 0.7285
vn 0.3406 -0.5926 0.7299
vn 0.4992 -0.8647 0.0561
vn 0.7060 -0.7060 0.0559
vn 0.4828 -0.4857 0.7287
vn 0.5901 -0.3437 0.7305
vn 0.8604 -0.5073 0.0486
vn 0.9644 -0.2584 0.0559
vn 0.6606 -0.1773 0.7295
vn 0.6822 -0.0000 0.7311
vn 0.9984 -0.0000 0.0561
vn 0.9644 0.2584 0.0559
vn 0.6611 0.1746 0.7297
vn 0.5907 0.3412 0.7312
vn 0.8647 0.4992 0.0561
vn 0.7060 0.7060 0.0559
vn 0.4835 0.4834 0.7298
vn 0.3412 0.5907 0.7312
vn 0.4992 0.8647 0.0561
vn 0.2584 0.9644 0.0559
vn 0.1746 0.6610 0.7298
vn -0.0029 0.6822 0.7311
vn -0.0000 0.9984 0.0561
vn -0.2584 0.9644 0.0559
vn -0.1773 0.6606 0.7295
vn -0.3438 0.5901 0.7305
vn -0.5073 0.8604 0.0486
vn -0.7060 0.7060 0.0559
vn -0.4856 0.4828 0.7287
vn -0.5926 0.3406 0.7299
vn -0.8647 0.4992 0.0561
vn -0.9644 0.2584 0.0559
vn -0.6626 0.1742 0.7284
vn -0.6837 -0.0000 0.7298
vn -0.9984 -0.0000 0.0561
vn -0.9644 -0.2584 0.0559
vn -0.6623 -0.1770 0.7281
vn -0.5919 -0.3431 0.7293
vn -0.8604 -0.5073 0.0486
vn -0.7062 -0.7067 0.0440
vn -0.4850 -0.4850 0.7277
vn -0.3431 -0.5919 0.7294
vn -0.5073 -0.8604 0.0486
vn -0.2584 -0.9644 0.0559
vn -0.1769 -0.6623 0.7281
vn 0.0001 -0.6837 0.7297
vn -0.0003 -0.9985 0.0548
vn -0.0038 -0.2399 0.9708
vn 0.0615 -0.2297 0.9713
vn -0.0039 -0.2398 0.9708
vn 0.1095 -0.2094 0.9717
vn 0.1094 -0.2093 0.9717
vn 0.1658 -0.1798 0.9696
vn 0.1657 -0.1798 0.9697
vn 0.2032 -0.1208 0.9717
vn 0.2031 -0.1209 0.9717
vn 0.2250 -0.0744 0.9715
vn 0.2287 -0.0000 0.9735
vn 0.2286 -0.0000 0.9735
vn 0.2190 0.0558 0.9741
vn 0.2055 0.1187 0.9714
vn 0.1592 0.1590 0.9743
vn 0.1591 0.1592 0.9743
vn 0.1187 0.2055 0.9714
vn 0.0557 0.2190 0.9741
vn 0.0557 0.2191 0.9741
vn -0.0000 0.2287 0.9735
vn -0.0001 0.2286 0.9735
vn -0.0744 0.2250 0.9715
vn -0.1208 0.2032 0.9717
vn -0.1209 0.2031 0.9717
vn -0.1798 0.1658 0.9696
vn -0.2092 0.1094 0.9717
vn -0.2094 0.1095 0.9717
vn -0.2297 0.0616 0.9713
vn -0.2297 0.0615 0.9713
vn -0.2420 -0.0000 0.9703
vn -0.2297 -0.0615 0.9713
vn -0.2060 -0.1325 0.9695
vn -0.2061 -0.1326 0.9695
vn -0.1756 -0.1755 0.9687
vn -0.1756 -0.1756 0.9687
vn -0.1326 -0.2061 0.9695
vn -0.1326 -0.2060 0.9695
vn -0.0615 -0.2297 0.9713
vn -0.0616 -0.2297 0.9713
vn -0.0037 -0.2399 0.9708
vn -0.0003 -0.9854 -0.1700
vn -0.0003 -0.9854 -0.1701
vn 0.2552 -0.9523 -0.1673
vn 0.4900 -0.8532 -0.1785
vn 0.4900 -0.8533 -0.1784
vn 0.6971 -0.6971 -0.1673
vn 0.6971 -0.6972 -0.1673
vn 0.8538 -0.4929 -0.1676
vn 0.9523 -0.2552 -0.1673
vn 0.9842 -0.0000 -0.1773
vn 0.9523 0.2552 -0.1673
vn 0.8533 0.4900 -0.1784
vn 0.8532 0.4900 -0.1785
vn 0.6999 0.6927 -0.1739
vn 0.4900 0.8533 -0.1784
vn 0.4900 0.8533 -0.1785
vn 0.2552 0.9523 -0.1673
vn -0.0000 0.9842 -0.1772
vn -0.0000 0.9842 -0.1773
vn -0.2552 0.9523 -0.1673
vn -0.4929 0.8538 -0.1676
vn -0.6999 0.6927 -0.1739
vn -0.8533 0.4900 -0.1784
vn -0.9523 0.2552 -0.1673
vn -0.9842 -0.0000 -0.1773
vn -0.9523 -0.2552 -0.1673
vn -0.8538 -0.4929 -0.1676
vn -0.6971 -0.6971 -0.1673
vn -0.6971 -0.6972 -0.1673
vn -0.4929 -0.8538 -0.1676
vn -0.2552 -0.9523 -0.1673
vn 0.0003 -0.9854 -0.1700
vn -0.9733 0.2296 -0.0035
vn -0.9533 0.3021 -0.0000
vn -0.8745 0.4843 -0.0271
vn -0.8450 0.5348 -0.0012
vn -0.4532 0.8714 -0.1881
vn -0.9417 0.3365 -0.0000
vn -0.8797 0.4495 -0.1553
vn -0.8803 0.4482 -0.1555
vn -0.8553 0.5038 -0.1207
vn -0.7519 0.6541 -0.0826
vn -0.6660 0.7457 -0.0210
vn -0.6093 0.7930 -0.0025
vn -0.4703 0.8819 -0.0311
vn -0.3880 0.9216 -0.0105
vn -0.2361 0.9717 -0.0076
vn -0.3400 0.9404 -0.0020
vn -0.1929 0.9812 -0.0001
vn -0.1911 0.9816 -0.0000
vn 0.9970 0.0347 -0.0696
vn 0.9587 0.1317 -0.2520
vn 0.9936 0.0504 -0.1009
vn 0.9588 0.1316 -0.2518
vn -0.0000 0.4721 -0.8816
vn -0.0000 0.4721 -0.8815
vn 0.5664 0.8238 -0.0245
vn 0.5685 0.8224 -0.0219
vn 0.8740 0.4522 -0.1782
vn 0.3958 0.8997 -0.1843
vn 0.8583 0.3369 -0.3871
vn 0.2628 0.9218 -0.2849
vn 0.9679 0.1084 -0.2267
vn 0.5991 0.4786 -0.6419
vn 0.8865 0.2152 -0.4096
vn 0.9675 0.1162 -0.2245
vn 0.6603 0.3474 -0.6659
vn 0.8658 0.2347 -0.4420
vn 0.6602 0.3478 -0.6658
vn 0.9993 0.0157 -0.0353
vn 0.6601 0.3479 -0.6657
vn 0.6609 0.3478 -0.6650
vn 0.6609 0.3475 -0.6652
vn 0.8659 0.2345 -0.4418
vn 0.8656 0.2348 -0.4423
vn 0.9680 0.1162 -0.2224
vn -0.0000 -0.9329 -0.3602
vn -0.0000 -0.9362 -0.3514
vn -0.0000 -0.9360 -0.3521
vn 0.5896 0.8033 -0.0838
vn 0.5972 0.8021 -0.0005
vn 0.5976 0.8018 -0.0004
vn 0.5960 0.8030 -0.0001
vn 0.5924 0.8057 0.0003
vn 0.5922 0.8058 0.0004
vn -0.0000 0.4658 -0.8849
vn -0.0000 0.4648 -0.8854
vn -0.0000 0.4659 -0.8848
vn -0.0020 0.4679 -0.8838
vn -0.0019 0.4679 -0.8838
vn 0.9733 0.2296 -0.0035
vn 0.9533 0.3021 -0.0000
vn 0.8745 0.4843 -0.0271
vn 0.8450 0.5348 -0.0012
vn 0.9417 0.3365 -0.0000
vn 0.4517 0.8721 -0.1881
vn 0.8741 0.4519 -0.1783
vn 0.8553 0.5038 -0.1207
vn 0.8933 0.4235 -0.1508
vn 0.7519 0.6541 -0.0826
vn 0.6636 0.7478 -0.0213
vn 0.5989 0.8008 -0.0029
vn 0.4679 0.8832 -0.0312
vn 0.3874 0.9219 -0.0109
vn 0.2342 0.9722 -0.0078
vn 0.3335 0.9427 -0.0001
vn 0.1852 0.9827 -0.0070
vn 0.1859 0.9825 -0.0083
vn -0.9970 0.0347 -0.0696
vn -0.9487 0.1473 -0.2796
vn -0.9485 0.1514 -0.2783
vn -0.9936 0.0504 -0.1009
vn -0.9496 0.1491 -0.2758
vn -0.6061 0.7954 -0.0028
vn -0.6062 0.7953 -0.0028
vn -0.5928 0.7987 -0.1033
vn -0.6063 0.7952 -0.0028
vn -0.6066 0.7950 -0.0029
vn -0.8799 0.4491 -0.1553
vn -0.6068 0.7949 -0.0030
vn -0.5720 0.8200 -0.0207
vn -0.3958 0.8997 -0.1843
vn -0.8583 0.3369 -0.3871
vn -0.2628 0.9218 -0.2849
vn -0.9697 0.1148 -0.2154
vn -0.6007 0.4778 -0.6410
vn -0.8865 0.2152 -0.4096
vn -0.9709 0.1125 -0.2112
vn -0.6598 0.3482 -0.6659
vn -0.8587 0.2386 -0.4536
vn -0.6540 0.3568 -0.6670
vn -0.9993 0.0157 -0.0353
vn -0.8866 0.2151 -0.4095
vn -0.6551 0.3567 -0.6660
vn -0.6636 0.3523 -0.6599
vn -0.8568 0.2412 -0.4557
vn -0.6671 0.3517 -0.6567
vn -0.8535 0.2383 -0.4634
vn -0.9720 0.1106 -0.2072
vn 0.0020 0.4679 -0.8838
vn 0.0019 0.4679 -0.8838
vn 0.5995 0.4589 0.6557
vn 0.5992 0.4623 0.6537
vn 0.5992 0.4608 0.6546
vn 0.5970 0.4415 0.6699
vn 0.5993 0.4590 0.6559
vn -0.6008 0.4521 0.6593
vn -0.6005 0.4492 0.6615
vn -0.6007 0.4521 0.6593
vn -0.6008 0.4509 0.6601
vn -0.5995 0.4560 0.6577
vn -0.6010 0.4521 0.6592
vn -0.0026 0.4708 -0.8822
vn -0.0000 0.4727 -0.8812
vn -0.0035 0.4710 -0.8821
vn 0.0045 0.4730 -0.8811
vn 0.0040 0.4729 -0.8811
vn -0.0000 0.4728 -0.8812
vn -0.0040 0.4729 -0.8811
vn -0.0045 0.4730 -0.8811
vn 0.0035 0.4710 -0.8821
vn 0.0026 0.4708 -0.8822
vn 0.7150 -0.4077 0.5680
vn 0.9712 -0.1143 0.2091
vn 0.7430 -0.3077 0.5943
vn 0.8185 -0.0813 0.5687
vn 0.9342 0.0328 0.3553
vn 0.9711 -0.1147 0.2094
vn 0.9706 -0.1171 0.2102
vn 0.9723 -0.1124 0.2051
vn 0.9722 -0.1124 0.2053
vn -0.9722 -0.1125 0.2053
vn -0.9712 -0.1144 0.2091
vn -0.9723 -0.1124 0.2051
vn -0.9706 -0.1171 0.2102
vn -0.9711 -0.1147 0.2094
vn -0.9342 0.0328 0.3553
vn -0.8185 -0.0813 0.5687
vn -0.7430 -0.3077 0.5943
vn -0.7150 -0.4077 0.5680
vn -0.4892 -0.4081 0.7708
vn -0.0693 -0.4668 0.8817
vn -0.0692 -0.4668 0.8817
vn 0.0731 -0.4693 0.8800
vn -0.0693 -0.4667 0.8817
vn -0.4892 -0.4080 0.7708
vn 0.4771 -0.4112 0.7767
vn 0.4769 -0.4112 0.7768
vn -0.0433 -0.6707 0.7404
vn -0.2149 -0.7595 0.6140
vn -0.0320 -0.8618 0.5063
vn 0.0304 -0.8617 0.5065
vn 0.2119 -0.7596 0.6149
vn 0.0407 -0.6709 0.7404
vn 0.6815 -0.2016 0.7035
vn 0.7041 -0.6847 0.1880
vn 0.6904 0.7185 0.0845
vn 0.7042 -0.6847 0.1880
vn 0.6903 0.7185 0.0845
vn 0.6867 -0.7095 -0.1579
vn 0.6708 0.7339 -0.1068
vn 0.6895 -0.6978 -0.1941
vn 0.6709 0.7338 -0.1068
vn 0.7671 -0.0725 -0.6375
vn 0.7625 -0.1135 -0.6370
vn -0.7625 -0.1135 -0.6370
vn -0.6912 -0.6960 -0.1947
vn -0.7671 -0.0725 -0.6375
vn -0.6695 0.7389 -0.0756
vn -0.6887 -0.7074 -0.1590
vn -0.6696 0.7389 -0.0757
vn -0.7041 -0.6847 0.1880
vn -0.6919 0.7171 0.0845
vn -0.7042 -0.6847 0.1880
vn -0.6831 -0.2000 0.7025
vn -0.6831 -0.2000 0.7024
vn 0.7505 0.3119 -0.5827
vn 0.7504 0.3122 -0.5826
vn 0.8287 0.2373 -0.5070
vn 0.7756 -0.2860 0.5627
vn 0.8862 0.2154 -0.4102
vn 0.8976 -0.2290 0.3765
vn 0.8428 -0.2312 0.4859
vn 0.7756 -0.2859 0.5627
vn -0.7504 0.3119 -0.5828
vn -0.7756 -0.2860 0.5627
vn -0.8287 0.2373 -0.5070
vn -0.7504 0.3122 -0.5826
vn -0.8976 -0.2290 0.3766
vn -0.8863 0.2154 -0.4101
vn -0.8429 -0.2313 0.4858
vn -0.7756 -0.2859 0.5627
vn -0.0055 -0.0000 1.0000
vn 0.6824 0.0001 0.7310
vn 0.6608 -0.1774 0.7293
vn 0.4837 0.4836 0.7295
vn 0.4830 -0.4858 0.7285
vn 0.3407 -0.5925 0.7300
vn 0.1745 0.6611 0.7297
vn 0.1743 -0.6627 0.7283
vn -0.0029 0.6824 0.7310
vn 0.0001 -0.6840 0.7295
vn -0.1774 0.6608 0.7293
vn -0.1770 -0.6624 0.7279
vn -0.3432 -0.5921 0.7291
vn -0.4858 0.4830 0.7285
vn -0.4851 -0.4851 0.7276
vn -0.5925 0.3406 0.7300
vn -0.5921 -0.3432 0.7291
vn -0.6628 0.1742 0.7283
vn -0.6624 -0.1770 0.7279
vn -0.6840 -0.0000 0.7295
vt 0.097425 0.576898
vt 0.100320 0.576652
vt 0.101246 0.580132
vt 0.116176 0.576875
vt 0.112365 0.580115
vt 0.113281 0.576636
vt 0.253824 0.515787
vt 0.252590 0.512629
vt 0.255476 0.515203
vt 0.251650 0.516286
vt 0.195720 0.516611
vt 0.194460 0.520597
vt 0.243102 0.576406
vt 0.217351 0.590623
vt 0.216940 0.589057
vt 0.244485 0.577280
vt 0.244325 0.551595
vt 0.245642 0.550192
vt 0.211893 0.593787
vt 0.215838 0.593649
vt 0.211840 0.595528
vt 0.215477 0.592024
vt 0.197228 0.555258
vt 0.198533 0.556464
vt 0.197348 0.584101
vt 0.195948 0.584722
vt 0.199832 0.545760
vt 0.246115 0.543329
vt 0.197503 0.548286
vt 0.243975 0.541286
vt 0.244378 0.533300
vt 0.246780 0.530945
vt 0.201827 0.531242
vt 0.240990 0.529997
vt 0.203967 0.533375
vt 0.243281 0.527529
vt 0.197914 0.535412
vt 0.200168 0.537411
vt 0.190672 0.591059
vt 0.189875 0.585890
vt 0.191785 0.586126
vt 0.188571 0.590803
vt 0.200305 0.731745
vt 0.210757 0.601505
vt 0.210298 0.726487
vt 0.200766 0.595640
vt 0.187161 0.734720
vt 0.189999 0.734413
vt 0.201120 0.593577
vt 0.200885 0.594959
vt 0.199116 0.595466
vt 0.198726 0.732341
vt 0.211007 0.726488
vt 0.211407 0.600923
vt 0.122907 0.512513
vt 0.121143 0.515676
vt 0.119990 0.515078
vt 0.123322 0.516192
vt 0.179553 0.516892
vt 0.180797 0.520930
vt 0.157112 0.591126
vt 0.131429 0.576590
vt 0.157542 0.589547
vt 0.130042 0.577449
vt 0.130422 0.551692
vt 0.129110 0.550275
vt 0.158603 0.594175
vt 0.162562 0.594323
vt 0.162615 0.596064
vt 0.158980 0.592537
vt 0.176333 0.557013
vt 0.178609 0.585376
vt 0.177219 0.584741
vt 0.177660 0.555816
vt 0.128684 0.543386
vt 0.130502 0.533332
vt 0.130845 0.541353
vt 0.128108 0.530950
vt 0.177186 0.535833
vt 0.175149 0.546236
vt 0.174895 0.537826
vt 0.177464 0.548804
vt 0.173285 0.531599
vt 0.133930 0.530041
vt 0.131647 0.527545
vt 0.171110 0.533729
vt 0.184668 0.586610
vt 0.183812 0.591759
vt 0.182756 0.586824
vt 0.185908 0.591523
vt 0.163700 0.602013
vt 0.173223 0.731848
vt 0.163304 0.726540
vt 0.173713 0.596245
vt 0.186296 0.734906
vt 0.183470 0.734580
vt 0.277081 0.516830
vt 0.258556 0.513006
vt 0.277081 0.513006
vt 0.258556 0.516830
vt 0.275672 0.594956
vt 0.258555 0.592909
vt 0.277081 0.592909
vt 0.259963 0.594956
vt 0.173347 0.594185
vt 0.175356 0.596083
vt 0.173465 0.594863
vt 0.174791 0.732454
vt 0.162600 0.726534
vt 0.163044 0.601412
vt 0.099418 0.473536
vt 0.092296 0.482989
vt 0.092296 0.473536
vt 0.099418 0.482989
vt 0.102191 0.482989
vt 0.102191 0.473536
vt 0.106887 0.482989
vt 0.106887 0.473536
vt 0.176615 0.468761
vt 0.185899 0.450933
vt 0.185899 0.468761
vt 0.176615 0.450933
vt 0.125321 0.482989
vt 0.121285 0.473536
vt 0.125321 0.473536
vt 0.121285 0.482989
vt 0.258194 0.715471
vt 0.258823 0.714922
vt 0.257746 0.716245
vt 0.259603 0.714620
vt 0.257568 0.716699
vt 0.302071 0.710655
vt 0.302067 0.711340
vt 0.299698 0.709959
vt 0.281299 0.711293
vt 0.281165 0.709952
vt 0.222975 0.723249
vt 0.223109 0.720148
vt 0.221979 0.606528
vt 0.256945 0.716042
vt 0.257099 0.715366
vt 0.257706 0.714423
vt 0.193787 0.515423
vt 0.192567 0.519804
vt 0.191858 0.529446
vt 0.193944 0.529812
vt 0.191166 0.550557
vt 0.193231 0.550848
vt 0.191104 0.553921
vt 0.193142 0.554214
vt 0.258543 0.713691
vt 0.259547 0.713308
vt 0.264452 0.713795
vt 0.264515 0.712481
vt 0.265378 0.713154
vt 0.265386 0.711810
vt 0.272973 0.713011
vt 0.272824 0.711657
vt 0.257572 0.724568
vt 0.259581 0.726659
vt 0.257745 0.725023
vt 0.258806 0.726351
vt 0.258184 0.725798
vt 0.281035 0.731557
vt 0.281187 0.730218
vt 0.299557 0.731792
vt 0.301943 0.730443
vt 0.301937 0.731127
vt 0.272889 0.728393
vt 0.272724 0.729743
vt 0.272618 0.730226
vt 0.280824 0.732524
vt 0.741754 0.608360
vt 0.644249 0.608360
vt 0.741754 0.591169
vt 0.644249 0.590929
vt 0.733918 0.583354
vt 0.652811 0.583179
vt 0.122525 0.593123
vt 0.123941 0.593564
vt 0.121729 0.705573
vt 0.122724 0.705573
vt 0.121742 0.708578
vt 0.122737 0.708574
vt 0.158863 0.450933
vt 0.158863 0.468761
vt 0.153030 0.450933
vt 0.153030 0.468761
vt 0.139837 0.450933
vt 0.139837 0.468761
vt 0.131000 0.450933
vt 0.131000 0.468761
vt 0.126644 0.450933
vt 0.126644 0.468761
vt 0.090242 0.450933
vt 0.090242 0.468761
vt 0.166216 0.450933
vt 0.166216 0.468761
vt 0.113883 0.482989
vt 0.113883 0.473536
vt 0.115575 0.482989
vt 0.115575 0.473536
vt 0.117276 0.482989
vt 0.117276 0.473536
vt 0.394428 0.539398
vt 0.394428 0.537859
vt 0.390145 0.539423
vt 0.390145 0.537910
vt 0.394428 0.536320
vt 0.390145 0.536397
vt 0.394428 0.534973
vt 0.390145 0.535012
vt 0.394428 0.533627
vt 0.390145 0.533627
vt 0.390145 0.532242
vt 0.394428 0.532229
vt 0.390145 0.530857
vt 0.394428 0.530831
vt 0.394428 0.529459
vt 0.390145 0.529485
vt 0.394428 0.528087
vt 0.390145 0.528113
vt 0.390145 0.526760
vt 0.394428 0.526740
vt 0.390145 0.525407
vt 0.394428 0.525394
vt 0.390145 0.524073
vt 0.394428 0.524054
vt 0.390145 0.522739
vt 0.394428 0.522714
vt 0.390145 0.521412
vt 0.394428 0.521386
vt 0.390145 0.520085
vt 0.394428 0.520059
vt 0.390145 0.518757
vt 0.394428 0.518732
vt 0.390145 0.517430
vt 0.394428 0.517404
vt 0.390145 0.516097
vt 0.394428 0.516084
vt 0.394428 0.514763
vt 0.390145 0.514763
vt 0.390145 0.513378
vt 0.394428 0.513365
vt 0.394428 0.511967
vt 0.390145 0.511993
vt 0.394428 0.510589
vt 0.390145 0.510601
vt 0.394428 0.509210
vt 0.390145 0.509210
vt 0.394428 0.507768
vt 0.390145 0.507780
vt 0.394428 0.506325
vt 0.390145 0.506350
vt 0.311483 0.506735
vt 0.311483 0.508383
vt 0.375731 0.506415
vt 0.375731 0.507761
vt 0.311483 0.510031
vt 0.375731 0.509108
vt 0.311483 0.511384
vt 0.375731 0.510614
vt 0.375731 0.512121
vt 0.311483 0.512737
vt 0.311483 0.514045
vt 0.375731 0.513365
vt 0.375731 0.514609
vt 0.311483 0.515353
vt 0.311483 0.516635
vt 0.375731 0.516052
vt 0.375731 0.517494
vt 0.311483 0.517918
vt 0.311483 0.519194
vt 0.375731 0.518828
vt 0.375731 0.520162
vt 0.311483 0.520470
vt 0.311483 0.521745
vt 0.375731 0.521495
vt 0.375731 0.522829
vt 0.311483 0.523022
vt 0.311483 0.524297
vt 0.375731 0.524176
vt 0.375731 0.525522
vt 0.311483 0.525573
vt 0.311483 0.526869
vt 0.375731 0.526881
vt 0.375731 0.528241
vt 0.311483 0.528164
vt 0.311483 0.529485
vt 0.375731 0.529619
vt 0.375731 0.530998
vt 0.311483 0.530806
vt 0.311483 0.532171
vt 0.375731 0.532274
vt 0.375731 0.533550
vt 0.311483 0.533537
vt 0.311483 0.534961
vt 0.375731 0.535294
vt 0.375731 0.537038
vt 0.311483 0.536384
vt 0.311483 0.538102
vt 0.375731 0.538263
vt 0.375731 0.539487
vt 0.311483 0.539821
vt 0.272724 0.711172
vt 0.280967 0.708982
vt 0.644249 0.591180
vt 0.644249 0.608360
vt 0.741754 0.590940
vt 0.652811 0.583365
vt 0.733918 0.583190
vt 0.111034 0.728459
vt 0.110259 0.726122
vt 0.112182 0.728430
vt 0.108799 0.724294
vt 0.107074 0.723672
vt 0.105350 0.724297
vt 0.103898 0.726125
vt 0.101985 0.728438
vt 0.103132 0.728459
vt 0.252395 0.593034
vt 0.252112 0.705690
vt 0.250474 0.593463
vt 0.251115 0.705684
vt 0.252083 0.708700
vt 0.251085 0.708691
vt 0.150586 0.720138
vt 0.150713 0.723215
vt 0.152465 0.606813
vt 0.256945 0.725217
vt 0.257092 0.725893
vt 0.257689 0.726838
vt 0.182717 0.520142
vt 0.181518 0.515693
vt 0.183349 0.529878
vt 0.181242 0.530227
vt 0.183812 0.551162
vt 0.181731 0.551430
vt 0.183827 0.554546
vt 0.181776 0.554815
vt 0.265316 0.729513
vt 0.265321 0.728173
vt 0.264455 0.728836
vt 0.264405 0.727526
vt 0.259512 0.727966
vt 0.258516 0.727575
vt 0.209461 0.512654
vt 0.212680 0.502723
vt 0.218133 0.512654
vt 0.220699 0.500182
vt 0.209547 0.492838
vt 0.216390 0.486587
vt 0.206322 0.489846
vt 0.207888 0.481162
vt 0.202061 0.488850
vt 0.199957 0.482210
vt 0.184812 0.494316
vt 0.182708 0.487676
vt 0.171154 0.491338
vt 0.173498 0.498735
vt 0.165459 0.493142
vt 0.169003 0.504325
vt 0.151444 0.509890
vt 0.117867 0.508225
vt 0.228400 0.492703
vt 0.222480 0.483044
vt 0.219737 0.493116
vt 0.230369 0.480124
vt 0.218880 0.473319
vt 0.225418 0.466749
vt 0.215516 0.470484
vt 0.216667 0.461735
vt 0.211213 0.469691
vt 0.208795 0.463159
vt 0.194244 0.475972
vt 0.191826 0.469440
vt 0.180459 0.473647
vt 0.183153 0.480924
vt 0.174857 0.475721
vt 0.178929 0.486722
vt 0.161654 0.493116
vt 0.128036 0.493051
vt 0.296146 0.532652
vt 0.296146 0.532158
vt 0.296146 0.531665
vt 0.296146 0.530825
vt 0.296146 0.529985
vt 0.296146 0.529138
vt 0.296146 0.528292
vt 0.296146 0.527439
vt 0.296146 0.526587
vt 0.296146 0.525721
vt 0.296146 0.524855
vt 0.296146 0.523996
vt 0.296146 0.523137
vt 0.296146 0.522278
vt 0.296146 0.521419
vt 0.296146 0.520566
vt 0.296146 0.519713
vt 0.296146 0.518873
vt 0.296146 0.518033
vt 0.296146 0.517199
vt 0.296146 0.516366
vt 0.296146 0.515558
vt 0.296146 0.514750
vt 0.296146 0.514288
vt 0.296146 0.513827
vt 0.279244 0.531934
vt 0.279244 0.531094
vt 0.279244 0.530254
vt 0.279244 0.529549
vt 0.279244 0.528843
vt 0.279244 0.528138
vt 0.279244 0.527433
vt 0.279244 0.526715
vt 0.279244 0.525997
vt 0.279244 0.525279
vt 0.279244 0.524560
vt 0.279244 0.523836
vt 0.279244 0.523111
vt 0.279244 0.522568
vt 0.279244 0.521662
vt 0.279244 0.521119
vt 0.279244 0.520213
vt 0.279244 0.519495
vt 0.279244 0.518777
vt 0.279244 0.518065
vt 0.279244 0.517353
vt 0.279244 0.516654
vt 0.279244 0.515956
vt 0.279244 0.515109
vt 0.279244 0.514263
vt 0.388195 0.539436
vt 0.388195 0.537980
vt 0.388195 0.536525
vt 0.388195 0.535069
vt 0.388195 0.533614
vt 0.388195 0.532248
vt 0.388195 0.530882
vt 0.388195 0.529510
vt 0.388195 0.528138
vt 0.388195 0.526785
vt 0.388195 0.525432
vt 0.388195 0.524092
vt 0.388195 0.522752
vt 0.388195 0.521425
vt 0.388195 0.520098
vt 0.388195 0.518770
vt 0.388195 0.517443
vt 0.388195 0.516084
vt 0.388195 0.514724
vt 0.388195 0.513365
vt 0.388195 0.512006
vt 0.388195 0.510595
vt 0.388195 0.509184
vt 0.388195 0.507774
vt 0.388195 0.506363
vt 0.303050 0.713147
vt 0.272550 0.715037
vt 0.304051 0.715152
vt 0.258343 0.718087
vt 0.272996 0.716796
vt 0.304781 0.716937
vt 0.258930 0.719477
vt 0.273145 0.718856
vt 0.259126 0.720645
vt 0.305355 0.719033
vt 0.273189 0.720707
vt 0.305544 0.720917
vt 0.234026 0.694970
vt 0.222556 0.607554
vt 0.233499 0.601888
vt 0.223923 0.720079
vt 0.224192 0.723044
vt 0.247875 0.710321
vt 0.247901 0.707311
vt 0.239179 0.692374
vt 0.248105 0.594595
vt 0.238684 0.599483
vt 0.258556 0.525916
vt 0.277081 0.525916
vt 0.277081 0.546312
vt 0.258555 0.546312
vt 0.277081 0.549552
vt 0.258555 0.549552
vt 0.277081 0.582532
vt 0.258555 0.582532
vt 0.245143 0.590793
vt 0.226208 0.600441
vt 0.245274 0.583449
vt 0.218510 0.597328
vt 0.220865 0.592812
vt 0.243568 0.581475
vt 0.248656 0.592196
vt 0.250669 0.591084
vt 0.248743 0.582168
vt 0.252399 0.590725
vt 0.250972 0.581106
vt 0.249956 0.548261
vt 0.252815 0.580556
vt 0.252248 0.547840
vt 0.254105 0.547925
vt 0.250110 0.545047
vt 0.252413 0.544636
vt 0.254278 0.544735
vt 0.255437 0.524413
vt 0.253532 0.524348
vt 0.251194 0.524768
vt 0.211890 0.600116
vt 0.243925 0.579842
vt 0.246683 0.582909
vt 0.219483 0.591896
vt 0.217036 0.597955
vt 0.246565 0.591581
vt 0.226062 0.602164
vt 0.222159 0.605908
vt 0.136333 0.442609
vt 0.092271 0.428314
vt 0.136338 0.428328
vt 0.092267 0.442594
vt 0.091062 0.441560
vt 0.091065 0.429348
vt 0.302949 0.728650
vt 0.272489 0.726366
vt 0.303975 0.726659
vt 0.258346 0.723193
vt 0.272954 0.724614
vt 0.304729 0.724885
vt 0.258932 0.721811
vt 0.273125 0.722557
vt 0.305330 0.722797
vt 0.151785 0.607643
vt 0.139834 0.694974
vt 0.140901 0.602132
vt 0.149776 0.720075
vt 0.149496 0.723054
vt 0.125932 0.710218
vt 0.125923 0.707213
vt 0.134705 0.692356
vt 0.126307 0.594718
vt 0.135698 0.599699
vt 0.129205 0.583614
vt 0.148105 0.601017
vt 0.129254 0.590964
vt 0.155890 0.597903
vt 0.153568 0.593317
vt 0.130929 0.581657
vt 0.152138 0.606704
vt 0.135698 0.599699
vt 0.125761 0.592280
vt 0.123757 0.591167
vt 0.125743 0.582308
vt 0.122533 0.590802
vt 0.123523 0.581228
vt 0.124796 0.548304
vt 0.122188 0.580665
vt 0.122499 0.547865
vt 0.121139 0.547937
vt 0.124663 0.545078
vt 0.122356 0.544649
vt 0.120987 0.544736
vt 0.119965 0.524328
vt 0.121375 0.524276
vt 0.123720 0.524714
vt 0.162562 0.600647
vt 0.130583 0.580019
vt 0.127799 0.583064
vt 0.154961 0.592397
vt 0.157376 0.598513
vt 0.127837 0.591714
vt 0.148227 0.602812
vt 0.405435 0.538517
vt 0.414558 0.541089
vt 0.409796 0.540588
vt 0.423681 0.538517
vt 0.419319 0.540588
vt 0.401544 0.535576
vt 0.427572 0.535576
vt 0.398747 0.531486
vt 0.430370 0.531486
vt 0.396783 0.526904
vt 0.432342 0.526904
vt 0.396313 0.521902
vt 0.432821 0.521902
vt 0.432342 0.516890
vt 0.396783 0.516890
vt 0.398747 0.512300
vt 0.430370 0.512300
vt 0.401544 0.508218
vt 0.427572 0.508218
vt 0.405435 0.505287
vt 0.423681 0.505287
vt 0.414558 0.502716
vt 0.419319 0.503216
vt 0.409796 0.503216
vt 0.259959 0.706420
vt 0.260864 0.703307
vt 0.262528 0.701070
vt 0.265140 0.699323
vt 0.267812 0.698731
vt 0.270484 0.699323
vt 0.273096 0.701070
vt 0.274760 0.703308
vt 0.275664 0.706421
vt 0.187926 0.735178
vt 0.189214 0.736026
vt 0.190729 0.736237
vt 0.192108 0.735740
vt 0.181360 0.735887
vt 0.182730 0.736391
vt 0.184241 0.736192
vt 0.185530 0.735356
vt 0.100085 0.546553
vt 0.097396 0.546003
vt 0.100060 0.543385
vt 0.097388 0.542834
vt 0.113453 0.546542
vt 0.116139 0.545988
vt 0.099927 0.523539
vt 0.113472 0.543377
vt 0.116142 0.542823
vt 0.097379 0.522967
vt 0.113592 0.523540
vt 0.116138 0.522968
vt 0.099928 0.514795
vt 0.097490 0.514095
vt 0.099139 0.510420
vt 0.114390 0.510441
vt 0.116031 0.514110
vt 0.113597 0.514806
vt 0.236046 0.693010
vt 0.235870 0.601735
vt 0.236703 0.692453
vt 0.236589 0.601193
vt 0.137828 0.693007
vt 0.137175 0.692448
vt 0.138520 0.601968
vt 0.137794 0.601422
vt 0.351922 0.608998
vt 0.365152 0.608998
vt 0.364673 0.612414
vt 0.364673 0.605581
vt 0.363380 0.615613
vt 0.363380 0.602383
vt 0.361256 0.618332
vt 0.361256 0.599663
vt 0.358537 0.620455
vt 0.358537 0.597540
vt 0.355338 0.621748
vt 0.355338 0.596247
vt 0.351922 0.622227
vt 0.351922 0.595768
vt 0.348505 0.621748
vt 0.348505 0.596247
vt 0.345307 0.620455
vt 0.345307 0.597540
vt 0.342588 0.618332
vt 0.342588 0.599663
vt 0.340465 0.615613
vt 0.340465 0.602383
vt 0.339171 0.612414
vt 0.339171 0.605581
vt 0.338692 0.608998
s 1
usemtl r101
f 2/1/1 1/2/2 3/3/1
f 5/4/3 4/5/3 6/6/4
f 8/7/5 7/8/6 9/9/7
f 10/10/8 7/8/6 8/7/5
f 12/10/9 11/11/9 13/8/9
f 14/12/9 11/11/9 12/10/9
f 16/13/10 15/14/11 17/15/11
f 18/16/10 15/14/11 16/13/10
f 20/17/12 19/16/13 21/13/14
f 22/18/15 19/16/13 20/17/12
f 24/19/16 23/20/17 25/21/16
f 26/22/17 23/20/17 24/19/16
f 28/17/18 27/23/18 29/18/18
f 30/24/18 27/23/18 28/17/18
f 32/21/19 31/25/19 33/19/19
f 34/26/19 31/25/19 32/21/19
f 36/24/20 35/26/21 37/23/20
f 38/25/22 35/26/21 36/24/20
f 40/22/23 39/14/24 41/20/25
f 42/15/26 39/14/24 40/22/23
f 44/27/27 43/28/28 45/29/29
f 46/30/30 43/28/28 44/27/27
f 48/28/31 47/31/31 49/32/31
f 50/30/31 47/31/31 48/28/31
f 52/33/32 51/34/33 53/35/32
f 54/36/33 51/34/33 52/33/32
f 56/27/34 55/37/34 57/38/34
f 58/29/34 55/37/34 56/27/34
f 60/34/35 59/32/35 61/31/36
f 62/36/35 59/32/35 60/34/35
f 64/35/37 63/37/38 65/33/39
f 66/38/38 63/37/38 64/35/37
f 68/39/40 67/40/41 69/41/41
f 70/42/40 67/40/41 68/39/40
f 72/43/42 71/44/42 73/45/42
f 74/46/42 71/44/42 72/43/42
f 76/39/43 75/47/44 77/42/45
f 78/48/46 75/47/44 76/39/43
f 80/46/47 79/49/48 81/50/49
f 82/51/47 79/49/48 80/46/47
f 84/43/50 83/51/51 85/46/51
f 86/52/50 83/51/51 84/43/50
f 88/39/52 87/49/53 89/51/54
f 90/41/55 87/49/53 88/39/52
f 92/53/56 91/44/57 93/54/58
f 94/45/56 91/44/57 92/53/56
f 96/55/59 95/56/60 97/57/61
f 98/58/62 95/56/60 96/55/59
f 100/59/63 99/58/63 101/55/63
f 102/60/63 99/58/63 100/59/63
f 104/61/64 103/62/65 105/63/64
f 106/64/65 103/62/65 104/61/64
f 108/64/66 107/65/67 109/62/68
f 110/66/69 107/65/67 108/64/66
f 112/67/70 111/68/71 113/69/71
f 114/70/70 111/68/71 112/67/70
f 116/71/72 115/72/73 117/73/74
f 118/74/72 115/72/73 116/71/72
f 120/74/75 119/65/75 121/66/75
f 122/71/75 119/65/75 120/74/75
f 124/61/76 123/70/77 125/67/78
f 126/63/79 123/70/77 124/61/76
f 128/75/80 127/76/80 129/77/80
f 130/78/80 127/76/80 128/75/80
f 132/79/81 131/80/81 133/81/81
f 134/82/81 131/80/81 132/79/81
f 136/83/82 135/84/83 137/85/83
f 138/86/82 135/84/83 136/83/82
f 140/78/84 139/84/85 141/76/86
f 142/85/87 139/84/85 140/78/84
f 144/86/88 143/79/88 145/81/88
f 146/83/89 143/79/88 144/86/88
f 148/87/90 147/88/90 149/89/90
f 150/90/90 147/88/90 148/87/90
f 152/91/91 151/92/91 153/93/91
f 154/94/91 151/92/91 152/91/91
f 156/95/92 155/88/93 157/90/93
f 158/96/92 155/88/93 156/95/92
f 160/97/94 159/98/94 161/99/94
f 162/100/94 159/98/94 160/97/94
f 164/101/95 163/102/95 165/103/95
f 166/104/95 163/102/95 164/101/95
f 168/75/96 167/80/97 169/82/97
f 170/77/98 167/80/97 168/75/96
f 172/73/99 171/69/99 173/68/99
f 174/72/99 171/69/99 172/73/99
f 176/94/100 175/105/101 177/106/100
f 178/107/102 175/105/101 176/94/100
f 180/106/103 179/92/104 181/94/103
f 182/108/104 179/92/104 180/106/103
f 184/88/105 183/105/106 185/89/107
f 186/106/108 183/105/106 184/88/105
f 188/91/109 187/109/110 189/110/111
f 190/93/110 187/109/110 188/91/109
f 192/111/112 191/112/112 193/113/112
f 194/114/112 191/112/112 192/111/112
f 196/115/113 195/111/113 197/116/113
f 198/114/113 195/111/113 196/115/113
f 200/117/114 199/116/114 201/118/114
f 202/115/114 199/116/114 200/117/114
f 204/119/115 203/120/116 205/121/115
f 206/122/116 203/120/116 204/119/115
f 208/123/117 207/124/117 209/125/117
f 210/126/117 207/124/117 208/123/117
f 212/2/118 211/5/118 213/3/118
f 214/6/118 211/5/118 212/2/118
f 216/127/119 215/128/120 217/129/121
f 217/129/121 215/128/120 218/130/122
f 217/129/121 218/130/122 219/131/123
f 221/132/112 220/133/112 222/134/112
f 220/133/112 223/135/112 222/134/112
f 222/134/112 223/135/112 224/136/112
f 226/137/124 225/53/125 227/138/126
f 225/53/125 228/54/42 227/138/126
f 227/138/126 228/54/42 229/139/42
f 231/131/127 230/140/128 232/129/129
f 232/129/129 230/140/128 233/141/130
f 232/129/129 233/141/130 234/127/131
f 234/127/131 233/141/130 235/142/132
f 237/143/133 236/11/134 238/144/135
f 238/144/135 236/11/134 239/12/136
f 238/144/137 240/12/138 241/145/139
f 241/145/139 240/12/138 242/146/140
f 241/145/139 242/146/140 243/147/139
f 243/147/139 242/146/140 244/148/141
f 243/147/139 244/148/141 245/149/139
f 245/149/139 244/148/141 246/150/142
f 245/149/139 246/150/142 247/40/139
f 247/40/139 246/150/142 248/41/143
f 250/127/144 249/142/145 251/128/146
f 251/128/146 249/142/145 252/151/147
f 251/128/146 252/151/147 253/130/112
f 253/130/112 252/151/147 254/152/112
f 253/130/112 254/152/112 255/153/112
f 255/153/112 254/152/112 256/154/112
f 255/153/112 256/154/112 257/155/148
f 257/155/148 256/154/112 258/156/112
f 257/155/148 258/156/112 259/157/112
f 259/157/112 258/156/112 260/158/112
f 262/159/149 261/160/150 263/161/151
f 264/162/152 263/161/151 261/160/150
f 265/163/153 263/161/151 264/162/152
f 267/164/112 266/165/112 268/166/112
f 268/166/112 266/165/112 269/167/112
f 268/166/112 269/167/112 270/168/112
f 272/169/154 271/165/155 273/170/154
f 273/170/154 271/165/155 274/164/155
f 273/170/154 274/164/155 275/171/155
f 275/171/155 274/164/155 276/172/155
f 278/173/91 277/174/91 279/175/91
f 279/175/91 277/174/91 280/176/91
f 279/175/91 280/176/91 281/177/91
f 281/177/91 280/176/91 282/178/91
f 284/179/156 283/180/156 285/181/157
f 285/181/157 283/180/156 286/182/158
f 286/182/158 287/183/159 285/181/157
f 288/184/159 287/183/159 286/182/158
f 290/185/160 289/186/160 291/187/161
f 291/187/161 289/186/160 292/188/162
f 291/187/161 292/188/162 293/189/163
f 293/189/163 292/188/162 294/190/163
f 293/189/163 294/190/163 295/191/163
f 295/191/163 294/190/163 296/192/163
f 295/191/163 296/192/163 297/193/163
f 297/193/163 296/192/163 298/194/163
f 297/193/163 298/194/163 299/195/163
f 299/195/163 298/194/163 300/196/163
f 302/122/164 301/119/164 303/197/165
f 303/197/165 301/119/164 304/198/165
f 303/197/165 304/198/165 305/185/166
f 305/185/166 304/198/165 306/186/166
f 308/117/112 307/118/112 309/199/167
f 309/199/167 307/118/112 310/200/167
f 309/199/167 310/200/167 311/201/168
f 311/201/168 310/200/167 312/202/168
f 314/201/169 313/202/169 315/203/170
f 315/203/170 313/202/169 316/204/170
f 315/203/170 316/204/170 317/126/171
f 317/126/171 316/204/170 318/124/171
f 320/205/172 319/206/173 321/207/172
f 321/207/172 319/206/173 322/208/174
f 323/209/175 322/208/174 319/206/173
f 324/210/175 322/208/174 323/209/175
f 323/209/175 325/211/176 324/210/175
f 324/210/175 325/211/176 326/212/176
f 327/213/177 326/212/176 325/211/176
f 328/214/177 326/212/176 327/213/177
f 328/214/177 327/213/177 329/215/178
f 329/215/178 327/213/177 330/216/178
f 329/215/178 330/216/178 331/217/179
f 331/217/179 330/216/178 332/218/179
f 332/218/179 333/219/180 331/217/179
f 331/217/179 333/219/180 334/220/180
f 335/221/181 334/220/180 333/219/180
f 336/222/181 334/220/180 335/221/181
f 336/222/181 335/221/181 337/223/182
f 337/223/182 335/221/181 338/224/182
f 337/223/182 338/224/182 339/225/183
f 339/225/183 338/224/182 340/226/184
f 339/225/183 340/226/184 341/227/185
f 341/227/185 340/226/184 342/228/185
f 341/227/185 342/228/185 343/229/112
f 343/229/112 342/228/185 344/230/112
f 343/229/112 344/230/112 345/231/186
f 345/231/186 344/230/112 346/232/186
f 345/231/186 346/232/186 347/233/187
f 347/233/187 346/232/186 348/234/187
f 347/233/187 348/234/187 349/235/188
f 349/235/188 348/234/187 350/236/188
f 349/235/188 350/236/188 351/237/189
f 351/237/189 350/236/188 352/238/190
f 351/237/189 352/238/190 353/239/191
f 353/239/191 352/238/190 354/240/191
f 355/241/192 353/239/191 354/240/191
f 356/242/192 353/239/191 355/241/192
f 356/242/192 355/241/192 357/243/193
f 357/243/193 355/241/192 358/244/193
f 359/245/194 357/243/193 358/244/193
f 360/246/194 357/243/193 359/245/194
f 359/245/194 361/247/195 360/246/194
f 360/246/194 361/247/195 362/248/195
f 363/249/196 362/248/195 361/247/195
f 364/250/196 362/248/195 363/249/196
f 365/251/197 364/250/196 363/249/196
f 366/252/197 364/250/196 365/251/197
f 367/253/198 366/252/197 365/251/197
f 368/254/198 366/252/197 367/253/198
f 370/255/198 369/256/197 371/257/198
f 371/257/198 369/256/197 372/258/197
f 369/256/197 373/259/196 372/258/197
f 372/258/197 373/259/196 374/260/196
f 373/259/196 375/261/195 374/260/196
f 374/260/196 375/261/195 376/262/195
f 375/261/195 377/263/194 376/262/195
f 378/264/194 377/263/194 375/261/195
f 378/264/194 379/265/193 377/263/194
f 377/263/194 379/265/193 380/266/193
f 379/265/193 381/267/192 380/266/193
f 382/268/192 381/267/192 379/265/193
f 382/268/192 383/269/191 381/267/192
f 381/267/192 383/269/191 384/270/191
f 383/269/191 385/271/190 384/270/191
f 386/272/190 385/271/190 383/269/191
f 386/272/190 387/273/188 385/271/190
f 385/271/190 387/273/188 388/274/188
f 387/273/188 389/275/187 388/274/188
f 390/276/187 389/275/187 387/273/188
f 390/276/187 391/277/186 389/275/187
f 389/275/187 391/277/186 392/278/186
f 391/277/186 393/279/112 392/278/186
f 394/280/112 393/279/112 391/277/186
f 394/280/112 395/281/199 393/279/112
f 393/279/112 395/281/199 396/282/185
f 395/281/199 397/283/183 396/282/185
f 398/284/184 397/283/183 395/281/199
f 398/284/184 399/285/182 397/283/183
f 397/283/183 399/285/182 400/286/182
f 399/285/182 401/287/200 400/286/182
f 402/288/181 401/287/200 399/285/182
f 402/288/181 403/289/180 401/287/200
f 401/287/200 403/289/180 404/290/180
f 403/289/180 405/291/179 404/290/180
f 406/292/179 405/291/179 403/289/180
f 406/292/179 407/293/178 405/291/179
f 405/291/179 407/293/178 408/294/178
f 407/293/178 409/295/177 408/294/178
f 410/296/177 409/295/177 407/293/178
f 410/296/177 411/297/176 409/295/177
f 409/295/177 411/297/176 412/298/176
f 411/297/176 413/299/175 412/298/176
f 414/300/201 413/299/175 411/297/176
f 414/300/201 415/301/174 413/299/175
f 413/299/175 415/301/174 416/302/174
f 415/301/174 417/303/172 416/302/174
f 418/304/172 417/303/172 415/301/174
f 420/157/154 419/158/154 421/135/155
f 421/135/155 419/158/154 422/136/155
f 423/305/155 422/136/155 419/158/154
f 424/306/155 422/136/155 423/305/155
f 426/307/42 425/173/42 427/308/42
f 428/309/42 425/173/42 426/307/42
f 429/310/42 428/309/42 426/307/42
f 430/311/42 428/309/42 429/310/42
f 432/312/202 431/313/203 433/314/204
f 433/314/204 431/313/203 434/5/205
f 434/5/205 431/313/203 435/315/206
f 436/316/207 434/5/205 435/315/206
f 437/3/208 434/5/205 436/316/207
f 438/317/209 437/3/208 436/316/207
f 439/318/210 437/3/208 438/317/209
f 440/319/211 437/3/208 439/318/210
f 440/319/211 439/318/210 441/320/212
f 443/321/213 442/322/214 444/323/215
f 444/323/215 442/322/214 445/324/216
f 446/325/159 445/324/216 442/322/214
f 447/326/159 445/324/216 446/325/159
f 449/327/217 448/109/218 450/328/219
f 448/109/218 449/327/217 451/110/91
f 451/110/91 449/327/217 452/329/91
f 454/161/220 453/330/221 455/159/222
f 456/331/223 453/330/221 454/161/220
f 457/163/224 456/331/223 454/161/220
f 458/332/225 456/331/223 457/163/224
f 460/59/226 459/333/227 461/60/228
f 462/334/229 459/333/227 460/59/226
f 459/333/230 463/335/231 464/60/232
f 464/60/232 463/335/231 465/336/233
f 463/335/231 466/337/231 465/336/233
f 465/336/233 466/337/231 467/338/234
f 466/337/231 468/339/235 467/338/234
f 467/338/234 468/339/235 469/340/236
f 468/339/235 470/87/231 469/340/236
f 469/340/236 470/87/231 471/89/237
f 473/341/112 472/169/112 474/170/112
f 475/342/112 472/169/112 473/341/112
f 476/343/112 475/342/112 473/341/112
f 477/344/238 475/342/112 476/343/112
f 478/345/112 477/344/238 476/343/112
f 479/160/112 477/344/238 478/345/112
f 478/345/112 480/346/239 479/160/112
f 479/160/112 480/346/239 481/162/240
f 480/346/239 482/332/241 481/162/240
f 481/162/240 482/332/241 483/163/242
f 485/347/42 484/348/42 486/349/42
f 486/349/42 484/348/42 487/350/42
f 488/351/42 487/350/42 484/348/42
f 489/352/42 487/350/42 488/351/42
f 488/351/42 490/353/42 489/352/42
f 489/352/42 490/353/42 491/354/42
f 492/355/42 491/354/42 490/353/42
f 493/356/42 491/354/42 492/355/42
f 492/355/42 494/357/42 493/356/42
f 493/356/42 494/357/42 495/358/42
f 494/357/42 496/359/42 495/358/42
f 497/360/42 496/359/42 494/357/42
f 497/360/42 498/361/42 496/359/42
f 499/362/42 498/361/42 497/360/42
f 500/363/42 498/361/42 499/362/42
f 501/364/42 498/361/42 500/363/42
f 503/365/91 502/366/91 504/367/91
f 505/368/91 502/366/91 503/365/91
f 505/368/91 506/369/91 502/366/91
f 507/370/91 506/369/91 505/368/91
f 507/370/91 508/371/91 506/369/91
f 509/372/91 508/371/91 507/370/91
f 509/372/91 510/373/91 508/371/91
f 511/374/91 510/373/91 509/372/91
f 511/374/91 512/375/91 510/373/91
f 513/376/91 512/375/91 511/374/91
f 514/377/91 512/375/91 513/376/91
f 515/378/91 512/375/91 514/377/91
f 516/379/91 515/378/91 514/377/91
f 517/380/91 515/378/91 516/379/91
f 517/380/91 516/379/91 518/381/91
f 518/381/91 516/379/91 519/382/91
f 521/304/243 520/301/244 522/383/243
f 522/383/243 520/301/244 523/384/244
f 523/384/244 520/301/244 524/385/245
f 524/385/245 520/301/244 525/300/246
f 525/300/246 526/297/247 524/385/245
f 524/385/245 526/297/247 527/386/247
f 527/386/247 526/297/247 528/387/248
f 528/387/248 526/297/247 529/296/248
f 529/296/248 530/293/249 528/387/248
f 528/387/248 530/293/249 531/388/249
f 531/388/249 530/293/249 532/389/250
f 532/389/250 530/293/249 533/292/251
f 533/292/251 534/289/252 532/389/250
f 532/389/250 534/289/252 535/390/252
f 535/390/252 534/289/252 536/391/253
f 536/391/253 534/289/252 537/288/253
f 537/288/253 538/285/254 536/391/253
f 536/391/253 538/285/254 539/392/254
f 539/392/254 538/285/254 540/393/255
f 540/393/255 538/285/254 541/284/255
f 541/284/255 542/281/256 540/393/255
f 540/393/255 542/281/256 543/394/256
f 543/394/256 542/281/256 544/395/257
f 544/395/257 542/281/256 545/280/258
f 545/280/258 546/277/259 544/395/257
f 544/395/257 546/277/259 547/396/259
f 547/396/259 546/277/259 548/397/260
f 548/397/260 546/277/259 549/276/261
f 549/276/261 550/273/262 548/397/260
f 548/397/260 550/273/262 551/398/262
f 551/398/262 550/273/262 552/399/263
f 552/399/263 550/273/262 553/272/263
f 553/272/263 554/269/264 552/399/263
f 552/399/263 554/269/264 555/400/264
f 555/400/264 554/269/264 556/401/265
f 556/401/265 554/269/264 557/268/266
f 557/268/266 558/265/267 556/401/265
f 556/401/265 558/265/267 559/402/267
f 559/402/267 558/265/267 560/403/268
f 560/403/268 558/265/267 561/264/268
f 561/264/268 562/261/269 560/403/268
f 560/403/268 562/261/269 563/404/269
f 563/404/269 562/261/269 564/405/270
f 564/405/270 562/261/269 565/259/271
f 566/256/272 564/405/270 565/259/271
f 567/406/272 564/405/270 566/256/272
f 567/406/272 566/256/272 568/407/273
f 568/407/273 566/256/272 569/255/274
f 571/383/275 570/384/276 572/408/277
f 572/408/277 570/384/276 573/409/278
f 573/409/278 570/384/276 574/410/279
f 574/410/279 570/384/276 575/385/280
f 575/385/280 576/386/281 574/410/279
f 574/410/279 576/386/281 577/411/282
f 577/411/282 576/386/281 578/412/283
f 578/412/283 576/386/281 579/387/284
f 579/387/284 580/388/285 578/412/283
f 578/412/283 580/388/285 581/413/286
f 581/413/286 580/388/285 582/414/287
f 582/414/287 580/388/285 583/389/288
f 583/389/288 584/390/289 582/414/287
f 582/414/287 584/390/289 585/415/290
f 585/415/290 584/390/289 586/416/291
f 586/416/291 584/390/289 587/391/292
f 587/391/292 588/392/293 586/416/291
f 586/416/291 588/392/293 589/417/294
f 588/392/293 590/418/295 589/417/294
f 591/393/296 590/418/295 588/392/293
f 591/393/296 592/394/297 590/418/295
f 590/418/295 592/394/297 593/419/298
f 593/419/298 592/394/297 594/420/299
f 594/420/299 592/394/297 595/395/300
f 595/395/300 596/396/301 594/420/299
f 594/420/299 596/396/301 597/421/302
f 597/421/302 596/396/301 598/422/303
f 598/422/303 596/396/301 599/397/304
f 599/397/304 600/398/305 598/422/303
f 598/422/303 600/398/305 601/423/306
f 601/423/306 600/398/305 602/424/307
f 602/424/307 600/398/305 603/399/308
f 603/399/308 604/400/309 602/424/307
f 602/424/307 604/400/309 605/425/310
f 605/425/310 604/400/309 606/426/311
f 606/426/311 604/400/309 607/401/312
f 607/401/312 608/402/313 606/426/311
f 606/426/311 608/402/313 609/427/314
f 609/427/314 608/402/313 610/428/315
f 610/428/315 608/402/313 611/403/316
f 611/403/316 612/404/317 610/428/315
f 610/428/315 612/404/317 613/429/318
f 613/429/318 612/404/317 614/430/319
f 614/430/319 612/404/317 615/405/320
f 616/406/321 614/430/319 615/405/320
f 617/431/322 614/430/319 616/406/321
f 617/431/322 616/406/321 618/432/323
f 618/432/323 616/406/321 619/407/324
f 621/207/325 620/208/326 622/433/327
f 622/433/327 620/208/326 623/434/326
f 623/434/326 620/208/326 624/435/328
f 624/435/328 620/208/326 625/210/329
f 625/210/329 626/212/330 624/435/328
f 624/435/328 626/212/330 627/436/331
f 627/436/331 626/212/330 628/437/332
f 628/437/332 626/212/330 629/214/333
f 629/214/333 630/215/334 628/437/332
f 628/437/332 630/215/334 631/438/334
f 631/438/334 630/215/334 632/439/335
f 632/439/335 630/215/334 633/217/336
f 633/217/336 634/220/337 632/439/335
f 632/439/335 634/220/337 635/440/337
f 635/440/337 634/220/337 636/441/338
f 636/441/338 634/220/337 637/222/338
f 637/222/338 638/223/339 636/441/338
f 636/441/338 638/223/339 639/442/340
f 639/442/340 638/223/339 640/443/341
f 640/443/341 638/223/339 641/225/341
f 641/225/341 642/227/342 640/443/341
f 640/443/341 642/227/342 643/444/343
f 643/444/343 642/227/342 644/445/344
f 644/445/344 642/227/342 645/229/345
f 645/229/345 646/231/346 644/445/344
f 644/445/344 646/231/346 647/446/346
f 647/446/346 646/231/346 648/447/347
f 648/447/347 646/231/346 649/233/348
f 649/233/348 650/235/349 648/447/347
f 648/447/347 650/235/349 651/448/349
f 651/448/349 650/235/349 652/449/350
f 652/449/350 650/235/349 653/237/351
f 653/237/351 654/239/352 652/449/350
f 652/449/350 654/239/352 655/450/353
f 655/450/353 654/239/352 656/451/354
f 656/451/354 654/239/352 657/242/354
f 657/242/354 658/243/355 656/451/354
f 656/451/354 658/243/355 659/452/355
f 659/452/355 658/243/355 660/453/356
f 660/453/356 658/243/355 661/246/357
f 661/246/357 662/248/358 660/453/356
f 660/453/356 662/248/358 663/454/359
f 663/454/359 662/248/358 664/455/360
f 664/455/360 662/248/358 665/250/361
f 666/252/362 664/455/360 665/250/361
f 667/456/363 664/455/360 666/252/362
f 667/456/363 666/252/362 668/457/364
f 668/457/364 666/252/362 669/254/325
f 671/303/365 670/433/366 672/302/367
f 672/302/367 670/433/366 673/434/367
f 674/435/368 672/302/367 673/434/367
f 675/299/369 672/302/367 674/435/368
f 675/299/369 674/435/368 676/298/370
f 676/298/370 674/435/368 677/436/371
f 678/437/372 676/298/370 677/436/371
f 679/295/372 676/298/370 678/437/372
f 679/295/372 678/437/372 680/294/373
f 680/294/373 678/437/372 681/438/373
f 682/439/374 680/294/373 681/438/373
f 683/291/374 680/294/373 682/439/374
f 683/291/374 682/439/374 684/290/375
f 684/290/375 682/439/374 685/440/375
f 686/441/376 684/290/375 685/440/375
f 687/287/377 684/290/375 686/441/376
f 687/287/377 686/441/376 688/286/378
f 688/286/378 686/441/376 689/442/378
f 690/443/379 688/286/378 689/442/378
f 691/283/380 688/286/378 690/443/379
f 691/283/380 690/443/379 692/282/381
f 692/282/381 690/443/379 693/444/381
f 694/445/382 692/282/381 693/444/381
f 695/279/383 692/282/381 694/445/382
f 695/279/383 694/445/382 696/278/384
f 696/278/384 694/445/382 697/446/384
f 698/447/385 696/278/384 697/446/384
f 699/275/385 696/278/384 698/447/385
f 699/275/385 698/447/385 700/274/386
f 700/274/386 698/447/385 701/448/386
f 702/449/387 700/274/386 701/448/386
f 703/271/387 700/274/386 702/449/387
f 703/271/387 702/449/387 704/270/388
f 704/270/388 702/449/387 705/450/388
f 706/451/389 704/270/388 705/450/388
f 707/267/389 704/270/388 706/451/389
f 707/267/389 706/451/389 708/266/390
f 708/266/390 706/451/389 709/452/390
f 710/453/391 708/266/390 709/452/390
f 711/263/391 708/266/390 710/453/391
f 711/263/391 710/453/391 712/262/392
f 712/262/392 710/453/391 713/454/393
f 714/455/394 712/262/392 713/454/393
f 715/260/394 712/262/392 714/455/394
f 715/260/394 714/455/394 716/258/395
f 716/258/395 714/455/394 717/456/395
f 718/457/396 716/258/395 717/456/395
f 719/257/396 716/258/395 718/457/396
f 721/458/397 720/135/91 722/133/91
f 723/157/398 720/135/91 721/458/397
f 721/458/397 724/459/399 723/157/398
f 725/460/400 724/459/399 721/458/397
f 727/155/401 726/157/402 724/459/399
f 728/153/403 727/155/401 724/459/399
f 729/130/404 728/153/403 730/131/405
f 730/131/405 728/153/403 724/459/399
f 730/131/405 724/459/399 731/461/406
f 725/460/400 732/462/407 724/459/399
f 731/461/406 724/459/399 732/462/407
f 733/463/408 732/462/407 725/460/400
f 732/462/407 734/464/409 731/461/406
f 733/463/408 735/465/410 732/462/407
f 735/465/410 734/464/409 732/462/407
f 734/464/409 735/465/410 736/466/411
f 737/467/412 735/465/410 733/463/408
f 736/466/411 735/465/410 738/468/413
f 737/467/412 738/468/413 735/465/410
f 739/469/414 738/468/413 737/467/412
f 741/470/42 740/471/42 742/472/42
f 743/473/42 740/471/42 741/470/42
f 744/474/42 743/473/42 745/475/126
f 741/470/42 746/476/415 743/473/42
f 745/475/126 743/473/42 746/476/415
f 745/475/126 746/476/415 747/326/416
f 748/477/42 746/476/415 741/470/42
f 747/326/416 746/476/415 749/324/416
f 748/477/42 750/478/417 746/476/415
f 746/476/415 750/478/417 749/324/416
f 751/479/42 750/478/417 748/477/42
f 749/324/416 750/478/417 752/323/418
f 754/97/419 753/480/419 755/100/419
f 756/481/419 753/480/419 754/97/419
f 756/481/419 757/482/419 753/480/419
f 753/480/419 757/482/419 758/483/419
f 757/482/419 759/484/419 758/483/419
f 758/483/419 759/484/419 760/485/419
f 761/486/420 760/485/419 759/484/419
f 762/487/420 760/485/419 761/486/420
f 762/487/420 761/486/420 763/102/420
f 763/102/420 761/486/420 764/103/420
f 766/488/42 765/489/42 767/490/42
f 767/490/42 765/489/42 768/491/42
f 768/491/42 769/492/42 767/490/42
f 767/490/42 769/492/42 770/493/42
f 772/478/421 771/479/422 773/494/423
f 773/494/423 774/323/424 772/478/421
f 775/495/425 774/323/424 773/494/423
f 775/495/425 776/321/426 774/323/424
f 777/496/427 775/495/425 773/494/423
f 778/497/428 776/321/426 775/495/425
f 779/498/429 775/495/425 777/496/427
f 779/498/429 778/497/428 775/495/425
f 780/499/430 779/498/429 777/496/427
f 781/500/431 778/497/428 779/498/429
f 782/501/432 779/498/429 780/499/430
f 782/501/432 781/500/431 779/498/429
f 783/502/433 781/500/431 782/501/432
f 784/503/434 782/501/432 780/499/430
f 785/504/432 783/502/433 782/501/432
f 785/504/432 782/501/432 784/503/434
f 786/505/435 783/502/433 785/504/432
f 786/505/435 785/504/432 787/506/436
f 788/9/437 787/506/436 789/7/438
f 789/7/438 787/506/436 790/507/439
f 787/506/436 785/504/432 790/507/439
f 789/7/438 790/507/439 791/10/440
f 791/10/440 790/507/439 792/508/126
f 790/507/439 785/504/432 792/508/126
f 792/508/126 785/504/432 784/503/434
f 792/508/126 793/12/42 794/10/42
f 795/146/42 793/12/42 792/508/126
f 792/508/126 784/503/434 796/32/42
f 796/32/42 797/36/42 792/508/126
f 797/36/42 795/146/42 792/508/126
f 796/32/42 784/503/434 798/28/42
f 799/33/42 795/146/42 797/36/42
f 798/28/42 784/503/434 800/29/42
f 799/33/42 801/37/42 795/146/42
f 801/37/42 802/148/42 795/146/42
f 800/29/42 802/148/42 801/37/42
f 800/29/42 784/503/434 802/148/42
f 803/499/42 802/148/42 784/503/434
f 804/150/42 802/148/42 803/499/42
f 805/18/42 804/150/42 803/499/42
f 806/23/42 804/150/42 805/18/42
f 805/18/42 803/499/42 807/16/42
f 808/26/42 804/150/42 806/23/42
f 807/16/42 803/499/42 809/496/42
f 810/41/42 804/150/42 808/26/42
f 810/41/42 808/26/42 811/49/42
f 812/21/42 811/49/42 808/26/42
f 813/509/42 811/49/42 812/21/42
f 807/16/42 809/496/42 814/510/42
f 814/510/42 815/14/42 807/16/42
f 814/510/42 809/496/42 816/511/42
f 817/512/42 815/14/42 814/510/42
f 809/496/42 818/494/42 816/511/42
f 817/512/42 819/513/42 815/14/42
f 816/511/42 818/494/42 820/514/42
f 812/21/42 819/513/42 813/509/42
f 818/494/42 821/515/42 820/514/42
f 822/20/42 819/513/42 812/21/42
f 822/20/42 815/14/42 819/513/42
f 823/516/42 821/515/42 818/494/42
f 813/509/42 819/513/42 823/516/42
f 823/516/42 819/513/42 821/515/42
f 825/517/441 824/518/442 826/519/441
f 827/520/442 824/518/442 825/517/441
f 828/521/443 824/518/442 827/520/442
f 829/522/443 824/518/442 828/521/443
f 831/139/444 830/516/445 832/471/446
f 832/471/446 830/516/445 833/472/447
f 830/516/445 834/479/448 833/472/447
f 835/494/449 834/479/448 830/516/445
f 837/138/450 836/474/451 838/137/451
f 839/473/452 836/474/451 837/138/450
f 837/138/450 840/471/453 839/473/452
f 841/139/454 840/471/453 837/138/450
f 843/165/42 842/523/455 844/167/42
f 845/169/456 842/523/455 843/165/42
f 846/524/457 842/523/455 845/169/456
f 847/525/458 842/523/455 846/524/457
f 846/524/457 848/169/459 849/342/460
f 846/524/457 849/342/460 850/344/461
f 851/159/462 850/344/461 852/160/463
f 846/524/457 850/344/461 851/159/462
f 851/159/462 853/526/464 846/524/457
f 846/524/457 854/527/465 847/525/458
f 846/524/457 853/526/464 854/527/465
f 847/525/458 854/527/465 855/528/466
f 853/526/464 856/529/467 854/527/465
f 854/527/465 857/530/468 855/528/466
f 854/527/465 856/529/467 857/530/468
f 858/466/469 857/530/468 856/529/467
f 855/528/466 857/530/468 859/531/470
f 860/468/471 857/530/468 858/466/469
f 860/468/471 859/531/470 857/530/468
f 861/469/472 859/531/470 860/468/471
f 863/532/91 862/533/91 864/534/91
f 865/535/91 862/533/91 863/532/91
f 867/536/91 866/537/217 865/535/91
f 865/535/91 868/538/473 862/533/91
f 865/535/91 866/537/217 868/538/473
f 869/184/474 868/538/473 866/537/217
f 862/533/91 868/538/473 870/539/91
f 871/182/475 868/538/473 869/184/474
f 868/538/473 872/540/476 870/539/91
f 871/182/475 872/540/476 868/538/473
f 870/539/91 872/540/476 873/541/91
f 874/180/477 872/540/476 871/182/475
f 876/542/91 875/543/91 877/544/91
f 878/545/91 875/543/91 876/542/91
f 878/545/91 876/542/91 879/546/91
f 879/546/91 876/542/91 880/547/91
f 882/532/478 881/548/479 883/329/480
f 884/534/481 881/548/479 882/532/478
f 884/534/481 885/549/482 881/548/479
f 881/548/479 885/549/482 886/550/482
f 887/550/483 885/549/484 888/540/485
f 889/180/486 887/550/483 888/540/485
f 890/551/487 887/550/483 889/180/486
f 891/179/488 890/551/487 889/180/486
f 890/551/487 892/552/489 887/550/483
f 893/553/490 890/551/487 891/179/488
f 894/554/491 892/552/489 890/551/487
f 890/551/487 893/553/490 894/554/491
f 894/554/491 895/555/492 892/552/489
f 894/554/491 893/553/490 896/556/493
f 897/557/494 895/555/492 894/554/491
f 894/554/491 896/556/493 897/557/494
f 897/557/494 896/556/493 898/558/495
f 897/557/494 899/559/496 895/555/492
f 897/557/494 898/558/495 900/560/497
f 900/560/497 899/559/496 897/557/494
f 900/560/497 898/558/495 901/561/498
f 901/561/498 902/562/499 900/560/497
f 903/56/500 902/562/499 904/57/501
f 905/563/502 902/562/499 903/56/500
f 900/560/497 902/562/499 905/563/502
f 903/56/500 906/58/503 905/563/502
f 905/563/502 906/58/503 907/564/217
f 905/563/502 907/564/217 900/560/497
f 900/560/497 907/564/217 899/559/496
f 908/60/91 907/564/217 909/58/91
f 910/336/91 907/564/217 908/60/91
f 907/564/217 911/78/91 899/559/496
f 907/564/217 912/85/91 911/78/91
f 910/336/91 912/85/91 907/564/217
f 899/559/496 911/78/91 913/75/91
f 914/83/91 912/85/91 910/336/91
f 913/75/91 915/82/91 899/559/496
f 910/336/91 916/79/91 914/83/91
f 910/336/91 917/338/91 916/79/91
f 916/79/91 917/338/91 915/82/91
f 899/559/496 915/82/91 917/338/91
f 917/338/91 918/555/91 899/559/496
f 919/340/91 918/555/91 917/338/91
f 919/340/91 920/66/91 918/555/91
f 921/74/91 920/66/91 919/340/91
f 922/64/91 918/555/91 920/66/91
f 919/340/91 923/72/91 921/74/91
f 924/552/91 918/555/91 922/64/91
f 925/89/91 923/72/91 919/340/91
f 925/89/91 926/105/91 923/72/91
f 923/72/91 926/105/91 927/69/91
f 927/69/91 926/105/91 928/565/91
f 922/64/91 929/566/91 924/552/91
f 930/61/91 929/566/91 922/64/91
f 924/552/91 929/566/91 931/567/91
f 932/568/91 929/566/91 930/61/91
f 924/552/91 931/567/91 933/550/91
f 930/61/91 934/569/91 932/568/91
f 933/550/91 931/567/91 935/570/91
f 934/569/91 927/69/91 928/565/91
f 936/571/91 933/550/91 935/570/91
f 937/67/91 927/69/91 934/569/91
f 934/569/91 930/61/91 937/67/91
f 938/548/91 933/550/91 936/571/91
f 928/565/91 938/548/91 934/569/91
f 934/569/91 938/548/91 936/571/91
f 940/536/451 939/327/450 941/328/451
f 942/535/450 939/327/450 940/536/451
f 942/535/450 943/532/504 939/327/450
f 939/327/450 943/532/504 944/329/505
f 946/572/164 945/573/164 947/574/164
f 948/575/164 945/573/164 946/572/164
f 949/576/164 945/573/164 948/575/164
f 946/572/164 950/577/164 948/575/164
f 948/575/164 950/577/164 951/578/164
f 950/577/164 952/579/164 951/578/164
f 951/578/164 952/579/164 953/580/164
f 952/579/164 954/581/164 953/580/164
f 953/580/164 954/581/164 955/582/164
f 954/581/164 956/583/164 955/582/164
f 955/582/164 956/583/164 957/584/164
f 957/584/164 956/583/164 958/585/164
f 958/585/164 956/583/164 959/586/164
f 960/587/164 958/585/164 959/586/164
f 961/588/164 958/585/164 960/587/164
f 962/589/164 961/588/164 960/587/164
f 963/590/164 961/588/164 962/589/164
f 964/591/164 963/590/164 962/589/164
f 965/592/164 963/590/164 964/591/164
f 964/591/164 966/593/164 965/592/164
f 965/592/164 966/593/164 967/594/164
f 968/595/164 966/593/164 964/591/164
f 970/49/506 969/509/507 971/50/506
f 971/50/506 969/509/507 972/54/508
f 973/516/509 972/54/508 969/509/507
f 974/139/509 972/54/508 973/516/509
f 971/50/506 972/54/508 975/46/506
f 975/46/506 972/54/508 976/44/510
f 978/107/511 977/565/512 979/105/513
f 980/110/514 977/565/512 978/107/511
f 980/110/514 981/548/515 977/565/512
f 982/329/515 981/548/515 980/110/514
f 978/107/511 983/94/511 980/110/514
f 980/110/514 983/94/511 984/91/516
f 986/13/42 985/15/42 987/17/42
f 987/17/42 985/15/42 988/24/42
f 988/24/42 985/15/42 989/25/42
f 985/15/42 990/19/42 989/25/42
f 991/22/42 990/19/42 985/15/42
f 993/596/517 992/104/518 994/597/519
f 994/597/519 992/104/518 995/598/520
f 995/598/520 992/104/518 996/599/521
f 996/599/521 992/104/518 997/600/522
f 992/104/518 998/101/518 997/600/522
f 998/101/518 999/601/523 997/600/522
f 1000/602/524 999/601/523 998/101/518
f 1001/603/525 1000/602/524 998/101/518
f 1002/604/526 1001/603/525 998/101/518
f 1004/63/91 1003/68/91 1005/70/91
f 1006/73/91 1003/68/91 1004/63/91
f 1007/71/91 1006/73/91 1004/63/91
f 1007/71/91 1004/63/91 1008/65/91
f 1008/65/91 1004/63/91 1009/62/91
f 1011/47/527 1010/48/528 1012/605/529
f 1012/605/529 1010/48/528 1013/606/530
f 1013/606/530 1010/48/528 1014/607/531
f 1014/607/531 1010/48/528 1015/608/532
f 1015/608/532 1010/48/528 1016/52/533
f 1016/52/533 1010/48/528 1017/51/534
f 1017/51/534 1010/48/528 1018/39/535
f 1020/88/536 1019/96/537 1021/106/538
f 1021/106/538 1019/96/537 1022/108/539
f 1022/108/539 1019/96/537 1023/609/540
f 1023/609/540 1019/96/537 1024/610/541
f 1024/610/541 1019/96/537 1025/611/542
f 1025/611/542 1019/96/537 1026/612/543
f 1026/612/543 1019/96/537 1027/95/544
f 1029/1/545 1028/613/546 1030/2/547
f 1031/614/545 1028/613/546 1029/1/545
f 1030/2/547 1028/613/546 1032/6/548
f 1031/614/545 1033/615/549 1028/613/546
f 1034/616/550 1033/615/549 1031/614/545
f 1032/6/548 1028/613/546 1035/617/548
f 1028/613/546 1033/615/549 1035/617/548
f 1032/6/548 1035/617/548 1036/4/551
f 1036/4/551 1035/617/548 1037/618/551
f 1034/616/550 1038/619/546 1033/615/549
f 1035/617/548 1039/620/548 1037/618/551
f 1035/617/548 1033/615/549 1039/620/548
f 1033/615/549 1038/619/546 1039/620/548
f 1037/618/551 1039/620/548 1040/621/551
f 1041/622/545 1038/619/546 1034/616/550
f 1039/620/548 1042/623/548 1040/621/551
f 1039/620/548 1038/619/546 1042/623/548
f 1040/621/551 1042/623/548 1043/624/552
f 1041/622/545 1044/625/553 1038/619/546
f 1038/619/546 1044/625/553 1042/623/548
f 1045/626/554 1044/625/553 1041/622/545
f 1046/627/555 1044/625/553 1045/626/554
f 1047/628/556 1044/625/553 1046/627/555
f 1048/629/557 1044/625/553 1047/628/556
f 1049/630/558 1043/624/552 1042/623/548
f 1042/623/548 1044/625/553 1049/630/558
f 1048/629/557 1043/624/552 1049/630/558
f 1049/630/558 1044/625/553 1048/629/557
f 1051/490/559 1050/511/559 1052/488/560
f 1053/493/561 1050/511/559 1051/490/559
f 1052/488/560 1050/511/559 1054/514/562
f 1055/510/563 1050/511/559 1053/493/561
f 1054/514/562 1056/489/564 1052/488/560
f 1053/493/561 1057/512/565 1055/510/563
f 1058/515/566 1056/489/564 1054/514/562
f 1059/492/567 1057/512/565 1053/493/561
f 1056/489/564 1058/515/566 1060/491/568
f 1060/491/568 1057/512/565 1059/492/567
f 1060/491/568 1058/515/566 1061/513/569
f 1061/513/569 1057/512/565 1060/491/568
f 1063/569/570 1062/571/571 1064/545/572
f 1063/569/570 1064/545/572 1065/568/573
f 1064/545/572 1062/571/571 1066/543/574
f 1065/568/573 1064/545/572 1067/546/575
f 1062/571/571 1068/570/576 1066/543/574
f 1067/546/575 1069/547/577 1065/568/573
f 1066/543/574 1068/570/576 1070/544/578
f 1065/568/573 1069/547/577 1071/566/577
f 1068/570/576 1072/567/579 1070/544/578
f 1071/566/577 1069/547/577 1072/567/579
f 1070/544/578 1072/567/579 1073/542/580
f 1072/567/579 1069/547/577 1073/542/580
f 1075/470/581 1074/472/582 1076/631/583
f 1075/470/581 1076/631/583 1077/477/584
f 1076/631/583 1074/472/582 1078/632/585
f 1077/477/584 1076/631/583 1079/633/586
f 1078/632/585 1079/633/586 1076/631/583
f 1079/633/586 1080/634/587 1077/477/584
f 1080/634/587 1079/633/586 1078/632/585
f 1078/632/585 1074/472/582 1080/634/587
f 1077/477/584 1080/634/587 1081/479/588
f 1080/634/587 1074/472/582 1081/479/588
f 1083/533/589 1082/539/590 1084/635/591
f 1084/635/591 1085/534/592 1083/533/589
f 1084/635/591 1082/539/590 1086/636/593
f 1087/637/594 1085/534/592 1084/635/591
f 1084/635/591 1086/636/593 1087/637/594
f 1087/637/594 1088/638/595 1085/534/592
f 1087/637/594 1086/636/593 1088/638/595
f 1082/539/590 1088/638/595 1086/636/593
f 1085/534/592 1088/638/595 1089/541/596
f 1089/541/596 1088/638/595 1082/539/590
f 1091/639/597 1090/640/598 1092/641/290
f 1090/640/598 1091/639/597 1093/642/599
f 1094/643/291 1091/639/597 1092/641/290
f 1091/639/597 1095/644/283 1093/642/599
f 1096/645/600 1091/639/597 1094/643/291
f 1095/644/283 1091/639/597 1097/646/601
f 1098/647/295 1091/639/597 1096/645/600
f 1091/639/597 1099/648/602 1097/646/601
f 1091/639/597 1098/647/295 1100/649/603
f 1099/648/602 1091/639/597 1101/650/604
f 1102/651/605 1091/639/597 1100/649/603
f 1091/639/597 1103/652/606 1101/650/604
f 1102/651/605 1104/653/607 1091/639/597
f 1105/654/608 1103/652/606 1091/639/597
f 1106/655/303 1091/639/597 1104/653/607
f 1107/656/609 1105/654/608 1091/639/597
f 1091/639/597 1106/655/303 1108/657/610
f 1107/656/609 1091/639/597 1109/658/611
f 1110/659/612 1091/639/597 1108/657/610
f 1091/639/597 1111/660/613 1109/658/611
f 1091/639/597 1110/659/612 1112/661/614
f 1111/660/613 1091/639/597 1113/662/615
f 1114/663/616 1091/639/597 1112/661/614
f 1091/639/597 1114/663/616 1113/662/615
