# Blender 5.2.2 LTS
# www.blender.org
mtllib can.mtl
o model_5
v 0.000090 -0.056160 -2.139762
v -0.022565 -0.051673 -2.139762
v -0.000566 -0.062508 -2.142170
v -0.025958 -0.057473 -2.142772
v -0.000566 -0.062508 -2.151802
v -0.025958 -0.057473 -2.151802
v -0.023988 -0.052548 -2.154812
v -0.043797 -0.039305 -2.154812
v -0.041718 -0.038868 -2.139762
v -0.047518 -0.043027 -2.142772
v -0.047518 -0.043027 -2.151802
v -0.057040 -0.019496 -2.154812
v -0.054523 -0.019715 -2.139762
v -0.061856 -0.021466 -2.142772
v -0.061856 -0.021466 -2.151802
v -0.067000 0.003926 -2.151802
v -0.061746 0.003926 -2.154812
v -0.061856 0.029317 -2.151802
v -0.057040 0.027347 -2.154812
v -0.047518 0.050878 -2.151802
v -0.043797 0.047157 -2.154812
v -0.025958 0.065215 -2.151802
v -0.023988 0.060400 -2.154812
v -0.000566 0.070359 -2.151802
v -0.000566 0.065106 -2.154812
v 0.024825 0.065215 -2.151802
v 0.022855 0.060400 -2.154812
v 0.046386 0.050878 -2.151200
v 0.042665 0.047157 -2.154812
v 0.060833 0.029317 -2.151200
v 0.056017 0.027347 -2.154812
v 0.065867 0.003926 -2.151200
v 0.060614 0.003926 -2.154812
v 0.060833 -0.021466 -2.151200
v 0.056017 -0.019496 -2.154812
v 0.042665 -0.039305 -2.154812
v -0.061856 0.029317 -2.142772
v -0.047518 0.050878 -2.142772
v -0.025958 0.065215 -2.142772
v -0.000566 0.070359 -2.142772
v 0.024935 0.065215 -2.142170
v 0.046386 0.050878 -2.142170
v 0.060833 0.029317 -2.142170
v 0.065867 0.003926 -2.142170
v 0.060833 -0.021466 -2.142170
v 0.059191 0.002941 -2.139762
v 0.054704 -0.019715 -2.139762
v 0.054704 0.025596 -2.139762
v 0.041899 0.044749 -2.139762
v 0.022746 0.057554 -2.139762
v 0.000090 0.062041 -2.139762
v -0.022565 0.057554 -2.139762
v -0.041718 0.044749 -2.139762
v -0.054523 0.025596 -2.139762
v -0.066890 0.003926 -2.142772
v -0.059010 0.002941 -2.139762
v -0.000566 -0.057255 -2.154812
v -0.023988 -0.052548 -2.154812
v -0.000566 -0.057583 -2.182506
v -0.024097 -0.052877 -2.182506
v -0.000566 -0.055066 -2.188526
v -0.023112 -0.050578 -2.188526
v -0.020595 -0.044449 -2.192138
v -0.037559 -0.033067 -2.192138
v -0.043797 -0.039305 -2.154812
v -0.044016 -0.039634 -2.182506
v -0.042265 -0.037773 -2.188526
v -0.048941 -0.016103 -2.192138
v -0.057040 -0.019496 -2.154812
v -0.057369 -0.019605 -2.182506
v -0.054961 -0.018620 -2.188526
v -0.052881 0.003926 -2.192138
v -0.061746 0.003926 -2.154812
v -0.062075 0.003926 -2.182506
v -0.059448 0.003926 -2.188526
v -0.048941 0.023954 -2.192138
v -0.057040 0.027347 -2.154812
v -0.057369 0.027456 -2.182506
v -0.054961 0.026471 -2.188526
v -0.037559 0.040918 -2.192138
v -0.043797 0.047157 -2.154812
v -0.044016 0.047375 -2.182506
v -0.042265 0.045624 -2.188526
v -0.020595 0.052301 -2.192138
v -0.023988 0.060400 -2.154812
v -0.024097 0.060728 -2.182506
v -0.023112 0.058430 -2.188526
v -0.000566 0.056241 -2.192138
v -0.000566 0.065106 -2.154812
v -0.000566 0.065434 -2.182506
v -0.000566 0.062917 -2.188526
v 0.019462 0.052301 -2.192138
v 0.022855 0.060400 -2.154812
v 0.022965 0.060728 -2.182506
v 0.021980 0.058430 -2.188526
v 0.036426 0.040918 -2.192138
v 0.042665 0.047157 -2.154812
v 0.042993 0.047375 -2.182506
v 0.041133 0.045624 -2.188526
v 0.047809 0.023954 -2.192138
v 0.056017 0.027347 -2.154812
v 0.056236 0.027456 -2.182506
v 0.053938 0.026471 -2.188526
v 0.051749 0.003926 -2.192138
v 0.060942 0.003926 -2.182506
v 0.058425 0.003926 -2.188526
v 0.047809 -0.016103 -2.192138
v 0.060614 0.003926 -2.154812
v 0.056017 -0.019496 -2.154812
v 0.056236 -0.019605 -2.182506
v 0.053938 -0.018620 -2.188526
v 0.036426 -0.033067 -2.192138
v 0.041133 -0.037773 -2.188526
v 0.019462 -0.044449 -2.192138
v 0.021980 -0.050578 -2.188526
v -0.000566 -0.048389 -2.192138
v -0.000566 -0.055066 -2.188526
v 0.042993 -0.039634 -2.182506
v 0.022965 -0.052877 -2.182506
v -0.000566 -0.057583 -2.182506
v 0.042665 -0.039305 -2.154812
v 0.022855 -0.052548 -2.154812
v -0.000566 -0.057255 -2.154812
v 0.000090 -0.065354 -1.251762
v 0.026248 -0.060210 -1.251762
v 0.000090 -0.079144 -1.246344
v 0.031501 -0.072905 -1.246344
v 0.000200 -0.082755 -1.231895
v 0.032924 -0.076298 -1.231895
v 0.000200 -0.073015 -1.229487
v 0.029203 -0.067214 -1.229487
v 0.048465 -0.045434 -1.251762
v 0.058097 -0.055066 -1.246344
v 0.060723 -0.057692 -1.231895
v 0.053828 -0.050797 -1.229487
v 0.063240 -0.023217 -1.251762
v 0.075936 -0.028470 -1.246344
v 0.079329 -0.029893 -1.231895
v 0.070245 -0.026172 -1.229487
v 0.068384 0.002941 -1.251762
v 0.082175 0.002941 -1.246344
v 0.085786 0.002941 -1.231895
v 0.076046 0.002941 -1.229487
v 0.079329 0.035665 -1.231895
v 0.075936 0.034242 -1.246344
v 0.063240 0.028989 -1.251762
v 0.048465 0.051206 -1.251762
v 0.058097 0.060837 -1.246344
v 0.026248 0.065981 -1.251762
v 0.031501 0.078677 -1.246344
v 0.060723 0.063464 -1.231895
v 0.070245 0.031944 -1.229487
v 0.032924 0.082070 -1.231895
v 0.053828 0.056569 -1.229487
v 0.029203 0.072986 -1.229487
v 0.000200 0.088527 -1.231895
v 0.000200 0.078786 -1.229487
v -0.032634 0.082070 -1.231895
v -0.028913 0.072986 -1.229487
v -0.060433 0.063464 -1.231895
v -0.053538 0.056569 -1.229487
v -0.079039 0.035665 -1.231895
v -0.069955 0.031944 -1.229487
v -0.085496 0.002831 -1.231895
v -0.075755 0.002831 -1.229487
v -0.079039 -0.029893 -1.231895
v -0.069955 -0.026172 -1.229487
v -0.060433 -0.057692 -1.231895
v -0.053538 -0.050797 -1.229487
v -0.032634 -0.076298 -1.231895
v -0.028913 -0.067214 -1.229487
v 0.000200 -0.082755 -1.231895
v 0.000200 -0.073015 -1.229487
v 0.000200 0.084915 -1.246344
v -0.031211 0.078677 -1.246344
v -0.057806 0.060837 -1.246344
v -0.075646 0.034242 -1.246344
v -0.081884 0.002831 -1.246344
v -0.075646 -0.028470 -1.246344
v -0.057806 -0.055066 -1.246344
v -0.031211 -0.072905 -1.246344
v 0.000090 -0.079144 -1.246344
v -0.025958 0.065981 -1.251762
v -0.048175 0.051206 -1.251762
v -0.062950 0.028989 -1.251762
v -0.068094 0.002831 -1.251762
v -0.062950 -0.023217 -1.251762
v -0.048175 -0.045434 -1.251762
v -0.025958 -0.060210 -1.251762
v 0.000090 -0.065354 -1.251762
v 0.000200 0.071125 -1.251762
v -0.036683 0.091810 -0.959776
v -0.067875 0.070906 -0.959776
v 0.000200 0.099143 -0.959776
v -0.088780 0.039714 -0.959776
v 0.036973 0.091810 -0.959776
v -0.096112 0.002940 -0.959776
v 0.068166 0.070906 -0.959776
v -0.088780 -0.033943 -0.959776
v 0.089070 0.039714 -0.959776
v -0.067875 -0.065135 -0.959776
v 0.096402 0.002940 -0.959776
v -0.036683 -0.086039 -0.959776
v 0.089070 -0.033943 -0.959776
v 0.000200 -0.093372 -0.959776
v 0.036973 -0.086039 -0.959776
v 0.000200 -0.093372 -0.959776
v 0.000200 -0.099282 -0.965194
v 0.036973 -0.086039 -0.959776
v 0.039272 -0.091511 -0.965194
v 0.068166 -0.065135 -0.959776
v 0.072324 -0.069294 -0.965194
v 0.089070 -0.033943 -0.959776
v 0.094542 -0.036241 -0.965194
v 0.096402 0.002940 -0.959776
v 0.102313 0.002940 -0.965194
v 0.089070 0.039714 -0.959776
v 0.094542 0.042013 -0.965194
v 0.068166 0.070906 -0.959776
v 0.072324 0.075065 -0.965194
v 0.036973 0.091810 -0.959776
v 0.039272 0.097283 -0.965194
v 0.000200 0.099143 -0.959776
v 0.000200 0.105053 -0.965194
v -0.036683 0.091810 -0.959776
v -0.038982 0.097283 -0.965194
v -0.067875 0.070906 -0.959776
v -0.072034 0.075065 -0.965194
v -0.088780 0.039714 -0.959776
v -0.094252 0.042013 -0.965194
v -0.096112 0.002940 -0.959776
v -0.102022 0.002940 -0.965194
v -0.088780 -0.033943 -0.959776
v -0.094252 -0.036241 -0.965194
v -0.067875 -0.065135 -0.959776
v -0.072034 -0.069294 -0.965194
v -0.036683 -0.086039 -0.959776
v -0.038982 -0.091511 -0.965194
v 0.000200 -0.093372 -0.959776
v 0.000200 -0.099282 -0.965194
v 0.072324 0.075065 -1.189753
v 0.039272 0.097283 -1.189753
v 0.000200 0.105053 -1.189753
v -0.038982 0.097283 -1.189753
v -0.072034 0.075065 -1.189753
v -0.094252 0.042013 -1.189753
v -0.102022 0.002941 -1.189753
v -0.094252 -0.036241 -1.189753
v -0.072034 -0.069294 -1.189753
v -0.038982 -0.091511 -1.189753
v 0.000200 -0.099282 -1.189753
v 0.094542 0.042013 -1.189753
v 0.102313 0.002941 -1.189753
v 0.094542 -0.036241 -1.189753
v 0.072324 -0.069294 -1.189753
v 0.039272 -0.091511 -1.189753
v 0.000200 -0.099282 -1.189753
v 0.000090 -0.065354 -1.251762
v -0.025958 -0.060210 -1.251762
v 0.000090 -0.063384 -1.305343
v -0.025192 -0.058349 -1.305343
v 0.000090 -0.059334 -1.313772
v -0.023659 -0.054628 -1.313772
v -0.023878 -0.055175 -1.612380
v -0.044235 -0.041494 -1.612380
v -0.021142 -0.048389 -1.767103
v -0.039091 -0.036350 -1.767103
v -0.019829 -0.045325 -1.907979
v -0.036683 -0.033943 -1.907979
v -0.020376 -0.046529 -1.971794
v -0.037668 -0.034928 -1.971794
v -0.023331 -0.053643 -2.072936
v -0.043141 -0.040400 -2.072936
v -0.023222 -0.053533 -2.108456
v -0.043031 -0.040290 -2.108456
v -0.048175 -0.045434 -1.251762
v -0.046752 -0.044012 -1.305343
v -0.043797 -0.041057 -1.313772
v -0.057916 -0.021138 -1.612380
v -0.051130 -0.018401 -1.767103
v -0.048066 -0.017088 -1.907979
v -0.049270 -0.017635 -1.971794
v -0.056384 -0.020590 -2.072936
v -0.056274 -0.020481 -2.108456
v -0.062950 -0.023217 -1.251762
v -0.061090 -0.022451 -1.305343
v -0.057369 -0.020919 -1.313772
v -0.062622 0.002831 -1.612380
v -0.055399 0.002831 -1.767103
v -0.052006 0.002831 -1.907979
v -0.053429 0.002831 -1.971794
v -0.061090 0.002831 -2.072936
v -0.060980 0.002831 -2.108456
v -0.068094 0.002831 -1.251762
v -0.066124 0.002831 -1.305343
v -0.062075 0.002831 -1.313772
v -0.057916 0.026909 -1.612380
v -0.051130 0.024173 -1.767103
v -0.048066 0.022860 -1.907979
v -0.049270 0.023407 -1.971794
v -0.056384 0.026362 -2.072936
v -0.056274 0.026252 -2.108456
v -0.062950 0.028989 -1.251762
v -0.061090 0.028222 -1.305343
v -0.057369 0.026690 -1.313772
v -0.044235 0.047266 -1.612380
v -0.039091 0.042122 -1.767103
v -0.036683 0.039714 -1.907979
v -0.037668 0.040699 -1.971794
v -0.043141 0.046172 -2.072936
v -0.043031 0.046062 -2.108456
v -0.048175 0.051206 -1.251762
v -0.046752 0.049783 -1.305343
v -0.043797 0.046828 -1.313772
v -0.023878 0.060947 -1.612380
v -0.021142 0.054161 -1.767103
v -0.019829 0.051097 -1.907979
v -0.020376 0.052301 -1.971794
v -0.023331 0.059415 -2.072936
v -0.023222 0.059305 -2.108456
v -0.025958 0.065981 -1.251762
v -0.025192 0.064121 -1.305343
v -0.023659 0.060399 -1.313772
v 0.000200 0.065653 -1.612380
v 0.000200 0.058429 -1.767103
v 0.000200 0.055037 -1.907979
v 0.000200 0.056459 -1.971794
v 0.000200 0.064121 -2.072936
v 0.000200 0.064011 -2.108456
v 0.000200 0.071125 -1.251762
v 0.000200 0.069155 -1.305343
v 0.000200 0.065106 -1.313772
v 0.024168 0.060947 -1.612380
v 0.021432 0.054161 -1.767103
v 0.020119 0.051097 -1.907979
v 0.020666 0.052301 -1.971794
v 0.023621 0.059415 -2.072936
v 0.023512 0.059305 -2.108456
v 0.026248 0.065981 -1.251762
v 0.025482 0.064121 -1.305343
v 0.023949 0.060399 -1.313772
v 0.044525 0.047266 -1.612380
v 0.039381 0.042122 -1.767103
v 0.036974 0.039714 -1.907979
v 0.037959 0.040699 -1.971794
v 0.043431 0.046172 -2.072936
v 0.043321 0.046062 -2.108456
v 0.048465 0.051206 -1.251762
v 0.047043 0.049783 -1.305343
v 0.044087 0.046828 -1.313772
v 0.058206 0.026909 -1.612380
v 0.051420 0.024173 -1.767103
v 0.048356 0.022860 -1.907979
v 0.049560 0.023407 -1.971794
v 0.056674 0.026362 -2.072936
v 0.056564 0.026252 -2.108456
v 0.061380 0.002941 -2.072936
v 0.061271 0.002941 -2.108456
v 0.056674 -0.020590 -2.072936
v 0.056564 -0.020481 -2.108456
v 0.043431 -0.040400 -2.072936
v 0.043321 -0.040290 -2.108456
v 0.023621 -0.053643 -2.072936
v 0.023512 -0.053533 -2.108456
v 0.000090 -0.058349 -2.072936
v 0.000090 -0.058240 -2.108456
v 0.063240 0.028989 -1.251762
v 0.061380 0.028222 -1.305343
v 0.057659 0.026690 -1.313772
v 0.062912 0.002941 -1.612380
v 0.055689 0.002941 -1.767103
v 0.052296 0.002941 -1.907979
v 0.053719 0.002941 -1.971794
v 0.066414 0.002941 -1.305343
v 0.062365 0.002941 -1.313772
v 0.058206 -0.021138 -1.612380
v 0.051420 -0.018401 -1.767103
v 0.048356 -0.017088 -1.907979
v 0.049560 -0.017635 -1.971794
v 0.061380 -0.022451 -1.305343
v 0.057659 -0.020919 -1.313772
v 0.044525 -0.041494 -1.612380
v 0.039381 -0.036350 -1.767103
v 0.036974 -0.033943 -1.907979
v 0.037959 -0.034928 -1.971794
v 0.047043 -0.044012 -1.305343
v 0.044087 -0.041057 -1.313772
v 0.024168 -0.055175 -1.612380
v 0.021432 -0.048389 -1.767103
v 0.020119 -0.045325 -1.907979
v 0.020666 -0.046529 -1.971794
v 0.025482 -0.058349 -1.305343
v 0.023949 -0.054628 -1.313772
v 0.000090 -0.059881 -1.612380
v 0.000090 -0.052658 -1.767103
v 0.000090 -0.049265 -1.907979
v 0.000090 -0.050688 -1.971794
v 0.000090 -0.063384 -1.305343
v 0.000090 -0.059334 -1.313772
v 0.000090 -0.065354 -1.251762
v 0.026248 -0.060210 -1.251762
v 0.048465 -0.045434 -1.251762
v 0.063240 -0.023217 -1.251762
v 0.068384 0.002941 -1.251762
v 0.000090 -0.059881 -1.612380
v 0.000090 -0.052658 -1.767103
v 0.000090 -0.049265 -1.907979
v 0.000090 -0.050688 -1.971794
v 0.000090 -0.058349 -2.072936
v 0.000090 -0.058240 -2.108456
v 0.000200 -0.073015 -1.212028
v -0.028913 -0.067214 -1.212028
v 0.000200 -0.073015 -1.229487
v -0.028913 -0.067214 -1.229487
v -0.053538 -0.050797 -1.212028
v -0.053538 -0.050797 -1.229487
v -0.069955 -0.026172 -1.212028
v -0.069955 -0.026172 -1.229487
v -0.075755 0.002831 -1.212028
v -0.075755 0.002831 -1.229487
v -0.069955 0.031944 -1.212028
v -0.069955 0.031944 -1.229487
v -0.053538 0.056569 -1.212028
v -0.053538 0.056569 -1.229487
v -0.028913 0.072986 -1.212028
v -0.028913 0.072986 -1.229487
v 0.000200 0.078786 -1.212028
v 0.000200 0.078786 -1.229487
v 0.029203 0.072986 -1.212028
v 0.029203 0.072986 -1.229487
v 0.053828 0.056569 -1.212028
v 0.053828 0.056569 -1.229487
v 0.070245 0.031944 -1.212028
v 0.070245 0.031944 -1.229487
v 0.076046 0.002941 -1.229487
v 0.076046 0.002941 -1.212028
v 0.070245 -0.026172 -1.212028
v 0.070245 -0.026172 -1.229487
v 0.053828 -0.050797 -1.212028
v 0.053828 -0.050797 -1.229487
v 0.029203 -0.067214 -1.212028
v 0.029203 -0.067214 -1.229487
v 0.000200 -0.073015 -1.212028
v 0.000200 -0.073015 -1.229487
v 0.000090 -0.054518 -2.110864
v 0.022089 -0.050141 -2.110864
v 0.000090 -0.058240 -2.108456
v 0.023512 -0.053533 -2.108456
v 0.040804 -0.037773 -2.110864
v 0.043321 -0.040290 -2.108456
v 0.053172 -0.019058 -2.110864
v 0.056564 -0.020481 -2.108456
v 0.057549 0.002941 -2.110864
v 0.061271 0.002941 -2.108456
v 0.053172 0.024830 -2.110864
v 0.056564 0.026252 -2.108456
v 0.040804 0.043545 -2.110864
v 0.043321 0.046062 -2.108456
v 0.022089 0.055912 -2.110864
v 0.023512 0.059305 -2.108456
v 0.000200 0.060290 -2.110864
v 0.000200 0.064011 -2.108456
v -0.021799 0.055912 -2.110864
v -0.023222 0.059305 -2.108456
v -0.040514 0.043545 -2.110864
v -0.043031 0.046062 -2.108456
v -0.052881 0.024830 -2.110864
v -0.056274 0.026252 -2.108456
v -0.057259 0.002831 -2.110864
v -0.060980 0.002831 -2.108456
v -0.052881 -0.019058 -2.110864
v -0.056274 -0.020481 -2.108456
v -0.040514 -0.037773 -2.110864
v -0.043031 -0.040290 -2.108456
v -0.021799 -0.050141 -2.110864
v -0.023222 -0.053533 -2.108456
v 0.000090 -0.054518 -2.110864
v 0.000090 -0.058240 -2.108456
v 0.000090 -0.056160 -2.139762
v 0.022746 -0.051673 -2.139762
v 0.000090 -0.054518 -2.110864
v 0.022089 -0.050141 -2.110864
v 0.041899 -0.038868 -2.139762
v 0.040804 -0.037773 -2.110864
v 0.053172 -0.019058 -2.110864
v 0.054704 -0.019715 -2.139762
v 0.057549 0.002941 -2.110864
v 0.059191 0.002941 -2.139762
v 0.053172 0.024830 -2.110864
v 0.054704 0.025596 -2.139762
v 0.040804 0.043545 -2.110864
v 0.041899 0.044749 -2.139762
v 0.022089 0.055912 -2.110864
v 0.022746 0.057554 -2.139762
v 0.000200 0.060290 -2.110864
v 0.000090 0.062041 -2.139762
v -0.021799 0.055912 -2.110864
v -0.022565 0.057554 -2.139762
v -0.041718 0.044749 -2.139762
v -0.040514 0.043545 -2.110864
v -0.054523 0.025596 -2.139762
v -0.052881 0.024830 -2.110864
v -0.059010 0.002941 -2.139762
v -0.057259 0.002831 -2.110864
v -0.054523 -0.019715 -2.139762
v -0.052881 -0.019058 -2.110864
v -0.041718 -0.038868 -2.139762
v -0.040514 -0.037773 -2.110864
v -0.022565 -0.051673 -2.139762
v -0.021799 -0.050141 -2.110864
v 0.000090 -0.056160 -2.139762
v 0.000090 -0.054518 -2.110864
v -0.052881 0.003926 -2.192138
v -0.048941 0.023954 -2.192138
v -0.048941 -0.016103 -2.192138
v -0.037559 -0.033067 -2.192138
v -0.020595 -0.044449 -2.192138
v -0.037559 0.040918 -2.192138
v -0.000566 -0.048389 -2.192138
v -0.020595 0.052301 -2.192138
v 0.019462 -0.044449 -2.192138
v -0.000566 0.056241 -2.192138
v 0.036426 -0.033067 -2.192138
v 0.019462 0.052301 -2.192138
v 0.047809 -0.016103 -2.192138
v 0.036426 0.040918 -2.192138
v 0.051749 0.003926 -2.192138
v 0.047809 0.023954 -2.192138
v 0.046386 -0.043027 -2.142170
v 0.046386 -0.043027 -2.151200
v 0.024935 -0.057473 -2.142170
v 0.024825 -0.057473 -2.151200
v -0.000566 -0.062508 -2.142170
v -0.000566 -0.062508 -2.151802
v -0.000566 -0.057255 -2.154812
v 0.022855 -0.052548 -2.154812
v 0.041899 -0.038868 -2.139762
v 0.022746 -0.051673 -2.139762
v 0.000090 -0.056160 -2.139762
v -0.103336 -0.039962 -1.204202
v -0.110121 0.002941 -1.191559
v -0.111873 0.002941 -1.204202
v -0.101694 0.045077 -1.191559
v -0.103336 0.045734 -1.204202
v -0.077835 0.080866 -1.191559
v -0.079039 0.082070 -1.204202
v -0.042046 0.104725 -1.191559
v -0.042703 0.106367 -1.204202
v 0.000200 0.113152 -1.191559
v 0.000200 0.114903 -1.204202
v 0.042336 0.104725 -1.191559
v 0.042993 0.106367 -1.204202
v 0.078125 0.080866 -1.191559
v 0.079329 0.082070 -1.204202
v 0.101984 0.045077 -1.191559
v 0.103626 0.045734 -1.204202
v 0.110412 0.002941 -1.191559
v 0.112163 0.002941 -1.204202
v 0.101984 -0.039305 -1.191559
v 0.103626 -0.039962 -1.204202
v 0.078125 -0.075094 -1.191559
v 0.079329 -0.076298 -1.204202
v 0.042336 -0.098953 -1.191559
v 0.042993 -0.100595 -1.204202
v 0.000200 -0.107381 -1.191559
v 0.000200 -0.109132 -1.204202
v -0.042046 -0.098953 -1.191559
v -0.042703 -0.100595 -1.204202
v -0.077835 -0.075094 -1.191559
v -0.079039 -0.076298 -1.204202
v -0.101694 -0.039305 -1.191559
v -0.102022 0.002941 -1.189753
v -0.094252 0.042013 -1.189753
v -0.072034 0.075065 -1.189753
v -0.038982 0.097283 -1.189753
v 0.000200 0.105053 -1.189753
v 0.039272 0.097283 -1.189753
v 0.072324 0.075065 -1.189753
v 0.094542 0.042013 -1.189753
v 0.102313 0.002941 -1.189753
v 0.094542 -0.036241 -1.189753
v 0.072324 -0.069294 -1.189753
v 0.039272 -0.091511 -1.189753
v 0.000200 -0.099282 -1.189753
v -0.038982 -0.091511 -1.189753
v -0.072034 -0.069294 -1.189753
v -0.094252 -0.036241 -1.189753
v -0.053538 -0.050797 -1.212028
v -0.085715 -0.032629 -1.209620
v -0.069955 -0.026172 -1.212028
v -0.092720 0.002831 -1.209620
v -0.075755 0.002831 -1.212028
v -0.085715 0.038401 -1.209620
v -0.069955 0.031944 -1.212028
v -0.065577 0.068608 -1.209620
v -0.053538 0.056569 -1.212028
v -0.035370 0.088746 -1.209620
v -0.028913 0.072986 -1.212028
v 0.000200 0.095750 -1.209620
v 0.000200 0.078786 -1.212028
v 0.035660 0.088746 -1.209620
v 0.029203 0.072986 -1.212028
v 0.065867 0.068608 -1.209620
v 0.053828 0.056569 -1.212028
v 0.086005 0.038401 -1.209620
v 0.070245 0.031944 -1.212028
v 0.076046 0.002941 -1.212028
v 0.090274 0.040261 -1.206008
v 0.097716 0.002941 -1.206008
v 0.093010 0.002941 -1.209620
v 0.090274 -0.034490 -1.206008
v 0.086005 -0.032629 -1.209620
v 0.069151 -0.066120 -1.206008
v 0.065867 -0.062836 -1.209620
v 0.037521 -0.087243 -1.206008
v 0.035660 -0.082974 -1.209620
v 0.000200 -0.094685 -1.206008
v 0.000200 -0.089979 -1.209620
v -0.037231 -0.087243 -1.206008
v -0.035370 -0.082974 -1.209620
v -0.068860 -0.066120 -1.206008
v -0.065577 -0.062836 -1.209620
v -0.089983 -0.034490 -1.206008
v -0.097426 0.002831 -1.206008
v -0.089983 0.040261 -1.206008
v -0.068860 0.071891 -1.206008
v -0.037231 0.093014 -1.206008
v 0.000200 0.100457 -1.206008
v 0.037521 0.093014 -1.206008
v 0.069151 0.071891 -1.206008
v 0.112163 0.002941 -1.204202
v 0.103626 -0.039962 -1.204202
v 0.079329 -0.076298 -1.204202
v 0.042993 -0.100595 -1.204202
v 0.000200 -0.109132 -1.204202
v -0.042703 -0.100595 -1.204202
v -0.079039 -0.076298 -1.204202
v -0.103336 -0.039962 -1.204202
v -0.111873 0.002941 -1.204202
v -0.103336 0.045734 -1.204202
v -0.079039 0.082070 -1.204202
v -0.042703 0.106367 -1.204202
v 0.000200 0.114903 -1.204202
v 0.042993 0.106367 -1.204202
v 0.079329 0.082070 -1.204202
v 0.103626 0.045734 -1.204202
v 0.070245 -0.026172 -1.212028
v 0.053828 -0.050797 -1.212028
v 0.029203 -0.067214 -1.212028
v 0.000200 -0.073015 -1.212028
v -0.028913 -0.067214 -1.212028
v -0.000566 -0.048389 -2.192138
v -0.000566 -0.057255 -2.154812
v 0.068166 -0.065135 -0.959776
vn -0.0000 -0.3832 0.9237
vn -0.1447 -0.3505 0.9253
vn -0.0038 -0.9051 0.4252
vn -0.3474 -0.8276 0.4409
vn -0.0000 -0.9373 -0.3487
vn -0.3604 -0.8652 -0.3487
vn -0.2066 -0.5086 -0.8359
vn -0.3770 -0.3837 -0.8430
vn -0.3827 -0.9239 -0.0022
vn -0.0000 -1.0000 -0.0022
vn -0.3843 -0.9216 0.0546
vn 0.7054 0.7067 0.0546
vn 0.9239 0.3827 -0.0022
vn 0.7071 0.7071 -0.0022
vn 0.1405 -0.1418 0.9799
vn 0.0731 -0.0288 0.9969
vn 0.0786 -0.1835 0.9799
vn 0.2380 -0.0000 -0.9713
vn 0.2210 0.0885 -0.9713
vn 0.1220 -0.0000 -0.9925
vn -0.2610 -0.2637 0.9286
vn -0.6323 -0.6230 0.4604
vn -0.6630 -0.6603 -0.3528
vn -0.4849 -0.2060 -0.8500
vn 0.3202 0.1326 -0.9380
vn 0.7968 -0.0000 -0.6043
vn 0.3466 -0.0000 -0.9380
vn 0.3071 0.7352 -0.6043
vn -0.0019 0.7968 -0.6043
vn 0.3674 0.8875 0.2782
vn 0.0018 -0.5598 -0.8286
vn 0.9238 -0.3827 0.0109
vn 0.7071 -0.7071 0.0109
vn 0.9223 -0.3812 -0.0633
vn -0.3308 -0.1391 0.9334
vn -0.8112 -0.3345 0.4797
vn -0.8634 -0.3607 -0.3527
vn -0.9357 -0.0000 -0.3528
vn -0.5231 -0.0038 -0.8522
vn -0.8634 0.3607 -0.3528
vn -0.4824 0.2024 -0.8522
vn -0.6630 0.6603 -0.3528
vn -0.3712 0.3739 -0.8499
vn -0.3572 0.8649 -0.3527
vn -0.1992 0.4958 -0.8453
vn -0.0000 0.9372 -0.3487
vn 0.0019 0.5453 -0.8382
vn 0.3604 0.8652 -0.3487
vn 0.2172 0.5121 -0.8310
vn 0.6654 0.6601 -0.3487
vn 0.4056 0.3963 -0.8237
vn 0.8668 0.3606 -0.3446
vn 0.5300 0.2211 -0.8187
vn 0.9388 -0.0000 -0.3446
vn 0.5814 -0.0000 -0.8136
vn 0.8668 -0.3606 -0.3446
vn 0.5377 -0.2212 -0.8136
vn 0.4086 -0.4086 -0.8162
vn -0.0000 -0.0481 -0.9988
vn -0.0019 -0.7583 -0.6519
vn -0.0239 -0.0515 -0.9984
vn 0.3493 -0.8409 0.4133
vn -0.0037 -0.9051 0.4251
vn -0.7931 0.3270 0.5138
vn -0.2041 -0.2041 -0.9574
vn -0.2666 -0.1104 -0.9575
vn -0.0870 -0.0856 -0.9925
vn -0.6054 0.6014 0.5213
vn -0.3253 0.7890 0.5213
vn -0.0057 0.8556 0.5175
vn 0.3270 0.7979 0.5063
vn 0.6168 0.6181 0.4873
vn 0.8157 0.3450 0.4643
vn 0.8956 -0.0000 0.4449
vn 0.8366 -0.3455 0.4252
vn 0.3424 -0.0075 0.9395
vn 0.3308 -0.1391 0.9334
vn -0.0498 -0.1114 -0.9925
vn -0.1104 -0.2666 -0.9574
vn 0.0019 -0.1220 -0.9925
vn -0.0000 -0.2886 -0.9574
vn 0.0463 -0.1129 -0.9925
vn 0.3057 0.1246 0.9439
vn 0.2309 0.2242 0.9468
vn 0.1207 0.2939 0.9482
vn -0.0038 0.3136 0.9496
vn -0.1207 0.2939 0.9482
vn 0.1105 -0.2667 -0.9574
vn 0.0843 -0.0883 -0.9925
vn 0.2041 -0.2041 -0.9574
vn 0.1136 -0.0445 -0.9925
vn 0.2666 -0.1104 -0.9574
vn -0.2338 0.2272 0.9454
vn -0.3114 0.1214 0.9425
vn -0.8667 -0.0000 0.4988
vn -0.3466 -0.0000 0.9380
vn 0.1221 -0.0000 -0.9925
vn 0.2886 -0.0000 -0.9575
vn 0.2666 0.1105 -0.9574
vn 0.1136 0.0445 -0.9925
vn 0.0842 0.0883 -0.9925
vn 0.1670 0.1696 -0.9713
vn 0.0462 0.1129 -0.9925
vn 0.0920 0.2196 -0.9713
vn 0.0019 0.1220 -0.9925
vn 0.0038 0.2380 -0.9713
vn -0.0001 -0.9999 0.0109
vn -0.3827 -0.9238 0.0110
vn -0.0019 -0.9980 -0.0633
vn -0.3841 -0.9211 -0.0633
vn -0.2889 -0.7012 -0.6518
vn -0.0617 -0.0617 -0.9962
vn -0.0497 0.1115 -0.9925
vn -0.0920 0.2196 -0.9713
vn -0.0870 0.0856 -0.9925
vn -0.1670 0.1696 -0.9713
vn -0.7071 -0.7071 0.0109
vn -0.7077 -0.7037 -0.0633
vn -0.5383 -0.5342 -0.6518
vn -0.1855 -0.0738 -0.9799
vn -0.1122 0.0480 -0.9925
vn -0.2210 0.0885 -0.9713
vn -0.1220 0.0038 -0.9925
vn -0.2380 -0.0000 -0.9713
vn -0.9238 -0.3827 0.0110
vn -0.9233 -0.3789 -0.0633
vn -0.7004 -0.2906 -0.6519
vn -0.1997 -0.0000 -0.9799
vn -0.1122 -0.0480 -0.9925
vn -0.2210 -0.0885 -0.9713
vn -0.1670 -0.1697 -0.9712
vn -0.9999 -0.0000 0.0109
vn -0.9980 0.0038 -0.0633
vn -0.7583 0.0038 -0.6518
vn -0.0820 0.0299 -0.9962
vn -0.0497 -0.1115 -0.9925
vn -0.0920 -0.2196 -0.9713
vn 0.0038 -0.2380 -0.9713
vn -0.9238 0.3827 0.0110
vn -0.9233 0.3789 -0.0633
vn -0.7004 0.2906 -0.6519
vn -0.0421 0.0381 -0.9984
vn 0.0920 -0.2196 -0.9713
vn 0.0842 -0.0883 -0.9925
vn 0.1670 -0.1696 -0.9713
vn -0.7070 0.7071 0.0111
vn -0.7077 0.7037 -0.0633
vn -0.5382 0.5342 -0.6518
vn -0.0218 0.0428 -0.9988
vn 0.2210 -0.0885 -0.9713
vn -0.3827 0.9238 0.0109
vn -0.3841 0.9211 -0.0634
vn -0.2889 0.7012 -0.6518
vn -0.0000 0.0481 -0.9988
vn 0.2041 0.2041 -0.9574
vn 0.1104 0.2667 -0.9574
vn -0.0000 0.2886 -0.9574
vn -0.0000 0.9999 0.0109
vn -0.0019 0.9980 -0.0633
vn -0.0019 0.7583 -0.6519
vn 0.0204 0.0530 -0.9984
vn -0.1105 0.2667 -0.9574
vn -0.2041 0.2041 -0.9574
vn 0.3827 0.9238 0.0110
vn 0.3806 0.9226 -0.0633
vn 0.2924 0.6997 -0.6519
vn 0.0617 0.0617 -0.9962
vn -0.2666 0.1104 -0.9574
vn -0.2886 -0.0000 -0.9574
vn 0.7071 0.7071 0.0109
vn 0.7050 0.7064 -0.0633
vn 0.5356 0.5368 -0.6519
vn 0.1856 0.0738 -0.9799
vn 0.9238 0.3827 0.0108
vn 0.9218 0.3824 -0.0634
vn 0.7019 0.2871 -0.6519
vn 0.1997 -0.0000 -0.9799
vn 0.9980 -0.0000 -0.0633
vn 0.7584 -0.0000 -0.6518
vn 0.0820 -0.0299 -0.9962
vn 0.9999 -0.0000 0.0109
vn 0.7019 -0.2871 -0.6519
vn 0.1137 0.0445 -0.9925
vn 0.0395 -0.0408 -0.9984
vn 0.5356 -0.5369 -0.6518
vn 0.0149 -0.0457 -0.9988
vn 0.2924 -0.6997 -0.6518
vn -0.0018 -0.7583 -0.6519
vn 0.0843 0.0883 -0.9925
vn 0.0463 0.1129 -0.9925
vn 0.7050 -0.7064 -0.0634
vn 0.3806 -0.9226 -0.0633
vn -0.0498 0.1115 -0.9925
vn 0.3827 -0.9238 0.0109
vn -0.0000 -0.9999 0.0109
vn -0.1967 -0.0804 0.9772
vn -0.2125 -0.0000 0.9772
vn -0.7987 -0.3309 0.5026
vn -0.6113 -0.6113 0.5026
vn -0.0000 -0.3466 -0.9380
vn 0.1326 -0.3202 -0.9380
vn -0.0019 -0.7968 -0.6043
vn 0.3071 -0.7352 -0.6043
vn -0.0000 -0.9605 0.2781
vn 0.3676 -0.8874 0.2781
vn -0.0019 -0.2422 0.9702
vn 0.0931 -0.2236 0.9702
vn -0.1516 -0.1489 0.9772
vn -0.3308 -0.7987 0.5025
vn -0.0839 -0.1952 0.9772
vn -0.0000 -0.8645 0.5026
vn 0.2451 -0.2451 -0.9380
vn 0.5627 -0.5641 -0.6043
vn 0.6792 -0.6792 0.2781
vn 0.1733 -0.1693 0.9702
vn -0.0038 -0.2124 0.9772
vn 0.3309 -0.7987 0.5026
vn 0.0839 -0.1952 0.9772
vn 0.6113 -0.6113 0.5026
vn 0.3202 -0.1326 -0.9380
vn 0.7374 -0.3019 -0.6043
vn 0.8874 -0.3676 0.2782
vn 0.2229 -0.0949 0.9702
vn 0.1516 -0.1489 0.9772
vn 0.7987 -0.3308 0.5025
vn 0.1966 -0.0804 0.9772
vn 0.8645 -0.0000 0.5026
vn 0.9605 -0.0000 0.2782
vn 0.2422 -0.0000 0.9702
vn 0.2125 -0.0000 0.9772
vn 0.7987 0.3309 0.5026
vn 0.8874 0.3676 0.2781
vn 0.7374 0.3019 -0.6043
vn 0.2451 0.2451 -0.9380
vn 0.1967 0.0804 0.9772
vn 0.6113 0.6113 0.5026
vn 0.1516 0.1489 0.9772
vn 0.3308 0.7987 0.5025
vn 0.0839 0.1952 0.9772
vn 0.5627 0.5641 -0.6043
vn 0.1326 0.3202 -0.9380
vn -0.0000 0.8645 0.5026
vn -0.0038 0.2124 0.9772
vn -0.3309 0.7987 0.5026
vn 0.6795 0.6789 0.2781
vn 0.2229 0.0949 0.9702
vn -0.0839 0.1952 0.9772
vn -0.6113 0.6113 0.5026
vn -0.1516 0.1489 0.9772
vn -0.7987 0.3308 0.5025
vn -0.1966 0.0804 0.9772
vn 0.1732 0.1693 0.9702
vn -0.8645 -0.0000 0.5026
vn -0.9159 -0.3789 0.1329
vn -0.6988 -0.7028 0.1329
vn 0.0931 0.2236 0.9702
vn -0.0000 0.9605 0.2781
vn -0.0019 0.2422 0.9702
vn -0.3676 0.8874 0.2781
vn -0.0897 0.2250 0.9702
vn -0.6792 0.6792 0.2781
vn -0.1706 0.1719 0.9702
vn -0.8874 0.3676 0.2782
vn -0.2244 0.0914 0.9702
vn -0.9605 -0.0000 0.2781
vn -0.2422 0.0037 0.9702
vn -0.8874 -0.3676 0.2782
vn -0.2243 -0.0914 0.9702
vn -0.6792 -0.6792 0.2781
vn -0.1706 -0.1719 0.9702
vn -0.3676 -0.8874 0.2782
vn -0.0897 -0.2250 0.9702
vn -0.0001 -0.9605 0.2781
vn -0.3806 -0.9151 0.1329
vn 0.0019 -0.9911 0.1329
vn -0.3036 0.7367 -0.6043
vn -0.5654 0.5614 -0.6043
vn -0.7360 0.3053 -0.6043
vn -0.7968 0.0038 -0.6043
vn -0.7360 -0.3054 -0.6043
vn -0.5654 -0.5614 -0.6043
vn -0.3036 -0.7366 -0.6043
vn 0.3771 -0.9166 0.1329
vn 0.7015 -0.7002 0.1329
vn 0.9144 -0.3823 0.1329
vn -0.1326 0.3202 -0.9380
vn -0.2451 0.2451 -0.9380
vn -0.3202 0.1326 -0.9380
vn -0.3466 -0.0000 -0.9380
vn -0.3202 -0.1326 -0.9380
vn -0.2451 -0.2451 -0.9380
vn -0.1326 -0.3202 -0.9380
vn 0.9911 -0.0000 0.1329
vn 0.9144 0.3823 0.1329
vn -0.0000 0.3466 -0.9380
vn 0.7015 0.7002 0.1329
vn 0.3771 0.9166 0.1328
vn 0.0019 0.9911 0.1329
vn -0.0751 0.1849 0.9799
vn -0.1431 0.1391 0.9799
vn -0.0018 0.0785 0.9969
vn -0.0716 0.0322 0.9969
vn 0.0162 0.0452 0.9988
vn -0.0479 -0.0037 0.9988
vn 0.0290 0.0265 0.9992
vn -0.0366 -0.0142 0.9992
vn 0.0366 0.0142 0.9992
vn -0.0290 -0.0265 0.9992
vn 0.0480 -0.0000 0.9988
vn -0.0196 -0.0438 0.9988
vn -0.0018 -0.0785 0.9969
vn -0.3806 0.9151 0.1329
vn -0.6988 0.7028 0.1329
vn -0.0000 -0.9997 0.0241
vn 0.3826 -0.9236 0.0241
vn 0.7069 -0.7069 0.0241
vn 0.0731 -0.0287 0.9969
vn 0.9236 -0.3825 0.0240
vn 0.9997 -0.0000 0.0241
vn 0.9236 0.3826 0.0241
vn 0.7069 0.7069 0.0241
vn 0.3826 0.9236 0.0241
vn 0.0001 0.9997 0.0241
vn -0.0751 0.1850 0.9799
vn -0.3825 0.9236 0.0241
vn -0.7070 0.7068 0.0241
vn -0.0717 0.0322 0.9969
vn -0.9236 0.3826 0.0241
vn -0.9997 -0.0000 0.0241
vn -0.9236 -0.3825 0.0241
vn -0.7068 -0.7070 0.0241
vn -0.3826 -0.9236 0.0240
vn -0.0000 -0.9997 0.0240
vn -0.9159 0.3789 0.1329
vn -0.9911 -0.0038 0.1329
vn 0.7071 0.7071 0.0022
vn 0.3827 0.9239 0.0021
vn -0.0000 1.0000 0.0022
vn -0.3827 0.9239 0.0021
vn -0.7071 0.7071 0.0022
vn -0.9239 0.3827 0.0021
vn -1.0000 -0.0000 0.0022
vn -0.9239 -0.3827 0.0021
vn -0.7071 -0.7071 0.0022
vn -0.3827 -0.9239 0.0021
vn -0.0001 -1.0000 0.0022
vn 0.1412 -0.3519 0.9253
vn 0.2610 -0.2637 0.9286
vn 0.6406 -0.6446 0.4173
vn 0.9239 0.3827 0.0022
vn 1.0000 -0.0000 0.0022
vn 0.6618 -0.6658 -0.3446
vn 0.2175 -0.5276 -0.8212
vn 0.3604 -0.8652 -0.3487
vn 0.9239 -0.3827 0.0022
vn 0.7071 -0.7071 0.0022
vn 0.3827 -0.9239 0.0022
vn -0.0000 -1.0000 0.0022
vn 0.0019 -0.5599 -0.8286
vn -0.0000 -0.9372 -0.3487
vn -0.0000 -0.9993 -0.0371
vn -0.3824 -0.9232 -0.0371
vn 0.0018 -0.9956 -0.0938
vn -0.3806 -0.9200 -0.0938
vn -0.0000 -0.9999 -0.0110
vn -0.3827 -0.9238 -0.0110
vn -0.3826 -0.9238 -0.0153
vn -0.7070 -0.7070 -0.0153
vn -0.3825 -0.9232 -0.0371
vn -0.7066 -0.7066 -0.0371
vn -0.3827 -0.9238 -0.0109
vn -0.7071 -0.7071 -0.0109
vn -0.7080 -0.7041 0.0546
vn -0.7081 -0.7040 0.0546
vn -0.7071 -0.7071 -0.0022
vn -0.7066 -0.7066 -0.0375
vn -0.7047 -0.7033 -0.0938
vn -0.9238 -0.3826 -0.0153
vn -0.9232 -0.3825 -0.0371
vn -0.9238 -0.3827 -0.0109
vn -0.9238 -0.3791 0.0546
vn -0.9239 -0.3827 -0.0022
vn 0.1855 0.0738 -0.9799
vn 0.1996 -0.0000 -0.9799
vn 0.0820 -0.0298 -0.9962
vn -0.9233 -0.3824 -0.0371
vn -0.9207 -0.3788 -0.0939
vn -0.9238 -0.3827 -0.0110
vn -0.9999 -0.0000 -0.0153
vn -0.9993 -0.0000 -0.0371
vn -0.9999 -0.0000 -0.0109
vn -0.9985 0.0038 0.0546
vn -1.0000 -0.0000 -0.0022
vn -0.0000 0.0480 -0.9988
vn 0.0148 -0.0457 -0.9988
vn -0.0000 -0.0480 -0.9988
vn -0.9993 -0.0002 -0.0371
vn -0.9956 0.0038 -0.0938
vn -0.9999 -0.0000 -0.0110
vn -0.9238 0.3826 -0.0153
vn -0.9232 0.3824 -0.0371
vn -0.9238 0.3827 -0.0109
vn -0.9238 0.3791 0.0546
vn -0.9239 0.3827 -0.0023
vn -0.0820 0.0298 -0.9962
vn -0.9207 0.3788 -0.0938
vn -0.9238 0.3826 -0.0110
vn -0.7070 0.7070 -0.0153
vn -0.7066 0.7066 -0.0371
vn -0.7071 0.7071 -0.0109
vn -0.7081 0.7040 0.0546
vn -0.7080 0.7041 0.0546
vn -0.7071 0.7071 -0.0022
vn -0.1996 -0.0000 -0.9799
vn -0.3842 -0.9214 0.0590
vn -0.0019 -0.9985 0.0546
vn -0.7066 0.7066 -0.0375
vn -0.7047 0.7033 -0.0939
vn -0.7071 0.7071 -0.0110
vn -0.3826 0.9238 -0.0153
vn -0.3824 0.9232 -0.0371
vn -0.3827 0.9238 -0.0109
vn -0.3843 0.9216 0.0546
vn -0.3827 0.9239 -0.0023
vn -0.7078 -0.7039 0.0589
vn -0.7079 -0.7039 0.0590
vn -0.9235 -0.3790 0.0590
vn -0.3806 0.9200 -0.0939
vn -0.3827 0.9238 -0.0110
vn -0.0000 0.9999 -0.0153
vn -0.0000 0.9993 -0.0372
vn -0.0000 0.9999 -0.0109
vn -0.0019 0.9985 0.0546
vn -0.0000 1.0000 -0.0022
vn -0.9983 -0.0038 0.0589
vn -0.9983 0.0038 0.0590
vn -0.9235 0.3790 0.0590
vn 0.0002 0.9993 -0.0370
vn 0.0019 0.9956 -0.0938
vn -0.0000 0.9999 -0.0110
vn 0.3826 0.9238 -0.0153
vn 0.3825 0.9232 -0.0371
vn 0.3827 0.9238 -0.0109
vn 0.3808 0.9230 0.0546
vn 0.3827 0.9239 -0.0022
vn -0.7079 0.7039 0.0590
vn -0.3842 0.9214 0.0589
vn 0.3824 0.9233 -0.0371
vn 0.3840 0.9185 -0.0938
vn 0.3827 0.9238 -0.0110
vn 0.7070 0.7070 -0.0153
vn 0.7066 0.7066 -0.0370
vn 0.7071 0.7071 -0.0109
vn -0.0019 0.9983 0.0590
vn -0.0019 0.9983 0.0589
vn 0.3807 0.9228 0.0589
vn 0.3807 0.9228 0.0590
vn 0.7066 0.7066 -0.0375
vn 0.7020 0.7060 -0.0938
vn 0.7070 0.7071 -0.0110
vn 0.9238 0.3826 -0.0153
vn 0.9232 0.3825 -0.0371
vn 0.9238 0.3827 -0.0109
vn 0.9223 0.3826 0.0546
vn 0.9223 0.3825 0.0546
vn 0.9985 -0.0000 0.0546
vn 1.0000 -0.0000 -0.0022
vn 0.9223 -0.3825 0.0546
vn 0.9239 -0.3827 -0.0023
vn 0.7054 -0.7067 0.0546
vn 0.7071 -0.7071 -0.0022
vn 0.3808 -0.9230 0.0546
vn 0.3827 -0.9239 -0.0023
vn -0.0018 -0.9985 0.0546
vn 0.7052 0.7065 0.0590
vn 0.9221 0.3824 0.0589
vn 0.9221 0.3825 0.0590
vn 0.9983 -0.0000 0.0589
vn 0.9233 0.3823 -0.0371
vn 0.9193 0.3823 -0.0938
vn 0.9238 0.3827 -0.0110
vn 0.9999 -0.0000 -0.0153
vn 0.9993 -0.0000 -0.0371
vn 0.9999 -0.0000 -0.0109
vn 0.9956 -0.0000 -0.0938
vn 0.9999 -0.0000 -0.0110
vn 0.9238 -0.3826 -0.0153
vn 0.9232 -0.3824 -0.0371
vn 0.9238 -0.3827 -0.0109
vn 0.9223 -0.3826 0.0546
vn 0.9193 -0.3823 -0.0938
vn 0.9238 -0.3826 -0.0110
vn 0.7070 -0.7070 -0.0153
vn 0.7066 -0.7066 -0.0370
vn 0.7071 -0.7071 -0.0109
vn -0.0019 -0.5526 -0.8334
vn -0.2084 -0.5118 -0.8335
vn -0.2084 -0.5118 -0.8334
vn -0.3901 -0.3914 -0.8334
vn 0.7020 -0.7060 -0.0939
vn 0.7071 -0.7070 -0.0110
vn 0.3826 -0.9238 -0.0153
vn 0.3825 -0.9232 -0.0371
vn 0.3827 -0.9238 -0.0109
vn -0.5111 -0.2102 -0.8334
vn -0.5111 -0.2102 -0.8335
vn -0.5526 -0.0038 -0.8334
vn 0.3840 -0.9185 -0.0939
vn 0.3827 -0.9238 -0.0110
vn -0.0000 -0.9999 -0.0153
vn 0.0001 -0.9993 -0.0371
vn 0.0001 -0.9999 -0.0109
vn -0.5526 0.0038 -0.8334
vn -0.5111 0.2102 -0.8334
vn -0.3901 0.3914 -0.8334
vn 0.0019 -0.9956 -0.0938
vn -0.2084 0.5118 -0.8334
vn -0.0019 0.5526 -0.8334
vn -0.0019 0.5526 -0.8335
vn 0.3824 -0.9232 -0.0371
vn 0.2119 0.5104 -0.8334
vn 0.3927 0.3887 -0.8334
vn 0.3928 0.3887 -0.8334
vn 0.7066 -0.7066 -0.0375
vn 0.5096 0.2137 -0.8334
vn 0.5096 0.2136 -0.8334
vn 0.5526 -0.0000 -0.8334
vn 0.5096 -0.2136 -0.8335
vn 0.5096 -0.2137 -0.8334
vn 0.3928 -0.3887 -0.8334
vn 0.9993 0.0001 -0.0370
vn 0.2119 -0.5104 -0.8334
vn -0.0018 -0.5526 -0.8334
vn 0.3827 -0.9239 0.0021
vn -0.0001 -0.9993 -0.0371
vn -0.0000 -0.9999 -0.0109
vn 0.9239 0.3827 -0.0021
vn -0.9239 0.3827 0.0022
vn -0.3827 -0.9239 0.0022
vn -0.9239 -0.3827 0.0022
vn -0.7071 -0.7071 0.0021
vt 0.774517 0.400747
vt 0.774517 0.375947
vt 0.784124 0.400747
vt 0.784124 0.375947
vt 0.795893 0.400747
vt 0.795893 0.375947
vt 0.803819 0.375947
vt 0.803819 0.351867
vt 0.052410 0.963586
vt 0.025870 0.963586
vt 0.056133 0.923452
vt 0.288148 0.923452
vt 0.315769 0.963586
vt 0.289349 0.963586
vt 0.903735 0.475145
vt 0.942524 0.491199
vt 0.861943 0.475145
vt 0.632569 0.759200
vt 0.592939 0.742667
vt 0.641576 0.745662
vt 0.774517 0.351867
vt 0.784124 0.351867
vt 0.795893 0.351867
vt 0.803819 0.327547
vt 0.921268 0.310894
vt 0.941443 0.339168
vt 0.921268 0.339168
vt 0.941443 0.254945
vt 0.941443 0.227151
vt 0.963300 0.254945
vt 0.803819 0.400747
vt 0.857740 0.080031
vt 0.857740 0.059665
vt 0.893407 0.080031
vt 0.774517 0.327547
vt 0.784124 0.327547
vt 0.795893 0.327547
vt 0.795893 0.303226
vt 0.803819 0.303226
vt 0.795893 0.278786
vt 0.803819 0.278786
vt 0.795893 0.254226
vt 0.803819 0.254226
vt 0.795893 0.229667
vt 0.803819 0.229667
vt 0.795893 0.205107
vt 0.803819 0.205107
vt 0.795893 0.180547
vt 0.803819 0.180547
vt 0.795893 0.155987
vt 0.803819 0.155987
vt 0.795893 0.131547
vt 0.803819 0.131547
vt 0.795893 0.107107
vt 0.803819 0.107107
vt 0.795893 0.082787
vt 0.803819 0.082787
vt 0.803819 0.058587
vt 0.912381 0.366363
vt 0.902294 0.366363
vt 0.912381 0.340246
vt 0.784124 0.034027
vt 0.774517 0.008149
vt 0.784124 0.008149
vt 0.784124 0.278786
vt 0.591618 0.951965
vt 0.551268 0.951965
vt 0.587896 0.933276
vt 0.784124 0.254226
vt 0.784124 0.229667
vt 0.784124 0.205107
vt 0.784124 0.180547
vt 0.784124 0.155987
vt 0.784124 0.131547
vt 0.784124 0.107107
vt 0.784124 0.082787
vt 0.774517 0.107107
vt 0.774517 0.082787
vt 0.618279 0.920696
vt 0.628847 0.936510
vt 0.641576 0.897454
vt 0.657428 0.907997
vt 0.654186 0.867024
vt 0.774517 0.131547
vt 0.774517 0.155987
vt 0.774517 0.180547
vt 0.774517 0.205107
vt 0.774517 0.229667
vt 0.672920 0.870738
vt 0.654186 0.834078
vt 0.672920 0.830364
vt 0.641576 0.803648
vt 0.657428 0.793105
vt 0.774517 0.254226
vt 0.774517 0.278786
vt 0.784124 0.303226
vt 0.774517 0.303226
vt 0.618279 0.780406
vt 0.628847 0.764592
vt 0.591618 0.749137
vt 0.596062 0.726853
vt 0.546824 0.726733
vt 0.549947 0.742787
vt 0.501310 0.745662
vt 0.510317 0.759200
vt 0.466484 0.780406
vt 0.480054 0.789511
vt 0.857740 0.366363
vt 0.857740 0.340246
vt 0.893407 0.366363
vt 0.893407 0.340246
vt 0.902294 0.340246
vt 0.912381 0.319759
vt 0.447749 0.825931
vt 0.463601 0.829046
vt 0.447749 0.875171
vt 0.463601 0.871936
vt 0.857740 0.319759
vt 0.893407 0.319759
vt 0.902294 0.319759
vt 0.912381 0.299752
vt 0.466484 0.920696
vt 0.480054 0.911591
vt 0.501310 0.955439
vt 0.510437 0.941901
vt 0.857740 0.299752
vt 0.893407 0.299752
vt 0.902294 0.299752
vt 0.912381 0.279385
vt 0.546824 0.974248
vt 0.549947 0.958315
vt 0.596062 0.974248
vt 0.592939 0.958315
vt 0.857740 0.279385
vt 0.893407 0.279385
vt 0.902294 0.279385
vt 0.912381 0.258180
vt 0.641576 0.955439
vt 0.632569 0.941901
vt 0.676403 0.920696
vt 0.662832 0.911591
vt 0.857740 0.258180
vt 0.893407 0.258180
vt 0.902294 0.258180
vt 0.912381 0.236016
vt 0.695137 0.875171
vt 0.679285 0.871936
vt 0.695137 0.825931
vt 0.679285 0.829046
vt 0.857740 0.236016
vt 0.893407 0.236016
vt 0.902294 0.236016
vt 0.912381 0.213253
vt 0.676403 0.780406
vt 0.662832 0.789511
vt 0.857740 0.213253
vt 0.893407 0.213253
vt 0.902294 0.213253
vt 0.912381 0.190131
vt 0.551268 0.749137
vt 0.514040 0.764592
vt 0.485458 0.793105
vt 0.857740 0.190131
vt 0.893407 0.190131
vt 0.902294 0.190131
vt 0.912381 0.167009
vt 0.469966 0.830364
vt 0.469966 0.870738
vt 0.857740 0.167009
vt 0.893407 0.167009
vt 0.902294 0.167009
vt 0.912381 0.144007
vt 0.485458 0.907997
vt 0.514040 0.936510
vt 0.857740 0.144007
vt 0.893407 0.144007
vt 0.902294 0.144007
vt 0.912381 0.121843
vt 0.857740 0.121843
vt 0.893407 0.121843
vt 0.902294 0.121843
vt 0.912381 0.100638
vt 0.893407 0.100638
vt 0.902294 0.100638
vt 0.912381 0.080031
vt 0.857740 0.100638
vt 0.902294 0.080031
vt 0.587896 0.767826
vt 0.912381 0.059665
vt 0.902294 0.059665
vt 0.912381 0.038579
vt 0.902294 0.038579
vt 0.912381 0.012222
vt 0.902294 0.012222
vt 0.554991 0.767826
vt 0.524608 0.780406
vt 0.893407 0.059665
vt 0.893407 0.038579
vt 0.893407 0.012222
vt 0.501310 0.803648
vt 0.488700 0.834078
vt 0.488700 0.867024
vt 0.857740 0.038579
vt 0.501310 0.897334
vt 0.524608 0.920696
vt 0.857740 0.012222
vt 0.554991 0.933276
vt 0.794572 0.945735
vt 0.836844 0.957835
vt 0.790369 0.953882
vt 0.753141 0.924170
vt 0.921268 0.452861
vt 0.921268 0.424708
vt 0.941443 0.452861
vt 0.941443 0.424708
vt 0.963300 0.452861
vt 0.963300 0.424708
vt 0.977591 0.452861
vt 0.977591 0.424708
vt 0.760106 0.918300
vt 0.730083 0.882598
vt 0.738850 0.879843
vt 0.724799 0.835276
vt 0.921268 0.395835
vt 0.941443 0.395835
vt 0.963300 0.395835
vt 0.977591 0.395835
vt 0.733926 0.836114
vt 0.737889 0.789511
vt 0.746055 0.793704
vt 0.767552 0.752371
vt 0.921268 0.367441
vt 0.941443 0.367441
vt 0.963300 0.367441
vt 0.977591 0.367441
vt 0.773436 0.759320
vt 0.809223 0.729249
vt 0.811985 0.737995
vt 0.856539 0.723978
vt 0.963300 0.339168
vt 0.977591 0.339168
vt 0.855698 0.733083
vt 0.902174 0.737037
vt 0.963300 0.310894
vt 0.941443 0.310894
vt 0.921268 0.282860
vt 0.897970 0.745303
vt 0.939402 0.766748
vt 0.932437 0.772618
vt 0.962459 0.808440
vt 0.953693 0.811195
vt 0.941443 0.282860
vt 0.921268 0.254945
vt 0.967864 0.855643
vt 0.958737 0.854924
vt 0.954653 0.901408
vt 0.963300 0.282860
vt 0.977591 0.310894
vt 0.946487 0.897215
vt 0.924991 0.938667
vt 0.919107 0.931598
vt 0.883439 0.961669
vt 0.880557 0.952923
vt 0.977591 0.282860
vt 0.836124 0.967060
vt 0.783764 0.966940
vt 0.741972 0.933755
vt 0.977591 0.254945
vt 0.963300 0.227151
vt 0.977591 0.227151
vt 0.963300 0.199476
vt 0.977591 0.199476
vt 0.963300 0.172161
vt 0.977591 0.172161
vt 0.963300 0.145085
vt 0.977591 0.145085
vt 0.963300 0.118489
vt 0.977591 0.118489
vt 0.963300 0.092251
vt 0.977591 0.092251
vt 0.963300 0.066374
vt 0.977591 0.066374
vt 0.963300 0.040257
vt 0.977591 0.040257
vt 0.963300 0.016416
vt 0.977591 0.016416
vt 0.716153 0.887151
vt 0.710148 0.834198
vt 0.941443 0.199476
vt 0.941443 0.172161
vt 0.941443 0.145085
vt 0.941443 0.118489
vt 0.941443 0.092251
vt 0.941443 0.066374
vt 0.941443 0.040257
vt 0.941443 0.016416
vt 0.724799 0.782921
vt 0.758065 0.741230
vt 0.804660 0.715352
vt 0.921268 0.199476
vt 0.921268 0.172161
vt 0.921268 0.145085
vt 0.921268 0.118489
vt 0.921268 0.092251
vt 0.921268 0.066374
vt 0.921268 0.040257
vt 0.921268 0.016416
vt 0.857620 0.709362
vt 0.908899 0.723978
vt 0.921268 0.227151
vt 0.950570 0.757164
vt 0.976390 0.803887
vt 0.982394 0.856841
vt 0.903735 0.685760
vt 0.861943 0.685760
vt 0.942524 0.669827
vt 0.823154 0.669827
vt 0.972067 0.640115
vt 0.793611 0.640115
vt 0.988159 0.601418
vt 0.777519 0.601418
vt 0.988159 0.559487
vt 0.777519 0.559487
vt 0.972067 0.520790
vt 0.793611 0.520790
vt 0.823154 0.491199
vt 0.967743 0.908117
vt 0.934598 0.949808
vt 0.473929 0.006951
vt 0.482816 0.006951
vt 0.473929 0.050200
vt 0.482816 0.050200
vt 0.473929 0.094168
vt 0.482816 0.094168
vt 0.473929 0.138376
vt 0.482816 0.138376
vt 0.473929 0.182823
vt 0.482816 0.182823
vt 0.473929 0.227390
vt 0.482816 0.227390
vt 0.473929 0.271957
vt 0.482816 0.271957
vt 0.473929 0.316644
vt 0.482816 0.316644
vt 0.473929 0.361331
vt 0.482816 0.361331
vt 0.473929 0.406018
vt 0.482816 0.406018
vt 0.473929 0.450585
vt 0.482816 0.450585
vt 0.473929 0.495272
vt 0.482816 0.495272
vt 0.473929 0.539719
vt 0.482816 0.539719
vt 0.473929 0.584167
vt 0.482816 0.584167
vt 0.473929 0.628494
vt 0.482816 0.628494
vt 0.473929 0.672462
vt 0.482816 0.672462
vt 0.473929 0.715592
vt 0.482816 0.715592
vt 0.887883 0.975566
vt 0.834923 0.981676
vt 0.733686 0.271957
vt 0.733686 0.316644
vt 0.733686 0.361331
vt 0.733686 0.406018
vt 0.733686 0.450585
vt 0.733686 0.495272
vt 0.733686 0.539719
vt 0.733686 0.584167
vt 0.733686 0.628494
vt 0.733686 0.672462
vt 0.733686 0.715592
vt 0.774517 0.034027
vt 0.774517 0.058587
vt 0.784124 0.058587
vt 0.733686 0.227390
vt 0.733686 0.182823
vt 0.795893 0.058587
vt 0.803819 0.034027
vt 0.795893 0.034027
vt 0.733686 0.138376
vt 0.733686 0.094168
vt 0.733686 0.050200
vt 0.733686 0.006951
vt 0.803819 0.008149
vt 0.795893 0.008149
vt 0.004493 0.007550
vt 0.033796 0.007550
vt 0.008577 0.068171
vt 0.037158 0.068171
vt 0.010858 0.078474
vt 0.038119 0.078474
vt 0.045084 0.413087
vt 0.072225 0.413087
vt 0.063698 0.586323
vt 0.087957 0.586323
vt 0.073306 0.741589
vt 0.096243 0.741589
vt 0.070303 0.811315
vt 0.093721 0.811315
vt 0.082312 0.923452
vt 0.078950 0.963586
vt 0.062858 0.007550
vt 0.065260 0.068171
vt 0.065740 0.078474
vt 0.099245 0.413087
vt 0.112335 0.586323
vt 0.119300 0.741589
vt 0.117379 0.811315
vt 0.108252 0.923452
vt 0.105490 0.963586
vt 0.899171 0.816826
vt 0.907818 0.837792
vt 0.907818 0.860674
vt 0.899171 0.881640
vt 0.882959 0.800653
vt 0.882959 0.897814
vt 0.091680 0.007550
vt 0.093241 0.068171
vt 0.093481 0.078474
vt 0.126266 0.413087
vt 0.136834 0.586323
vt 0.142478 0.741589
vt 0.141037 0.811315
vt 0.134072 0.923452
vt 0.131910 0.963586
vt 0.861943 0.791907
vt 0.861943 0.906559
vt 0.839126 0.791907
vt 0.839126 0.906559
vt 0.120141 0.007550
vt 0.121222 0.068171
vt 0.121342 0.078474
vt 0.153166 0.413087
vt 0.161212 0.586323
vt 0.165776 0.741589
vt 0.164815 0.811315
vt 0.159891 0.923452
vt 0.158210 0.963586
vt 0.818110 0.800653
vt 0.818110 0.897814
vt 0.802018 0.816826
vt 0.802018 0.881640
vt 0.148483 0.007550
vt 0.149203 0.068171
vt 0.149323 0.078474
vt 0.180067 0.413087
vt 0.185711 0.586323
vt 0.189073 0.741589
vt 0.188593 0.811315
vt 0.185591 0.923452
vt 0.184510 0.963586
vt 0.793251 0.860674
vt 0.793251 0.837792
vt 0.812826 0.348273
vt 0.848853 0.371634
vt 0.812826 0.371634
vt 0.848853 0.348273
vt 0.176824 0.007550
vt 0.177184 0.068171
vt 0.177184 0.078474
vt 0.206967 0.413087
vt 0.210209 0.586323
vt 0.212491 0.741589
vt 0.212491 0.811315
vt 0.211170 0.923452
vt 0.210690 0.963586
vt 0.812826 0.325749
vt 0.848853 0.325749
vt 0.812826 0.303466
vt 0.848853 0.303466
vt 0.205045 0.007550
vt 0.205166 0.068171
vt 0.205166 0.078474
vt 0.233867 0.413087
vt 0.234708 0.586323
vt 0.235909 0.741589
vt 0.236389 0.811315
vt 0.236870 0.923452
vt 0.236870 0.963586
vt 0.812826 0.281302
vt 0.848853 0.281302
vt 0.812826 0.258899
vt 0.848853 0.258899
vt 0.233147 0.007550
vt 0.233147 0.068171
vt 0.233147 0.078474
vt 0.260648 0.413087
vt 0.259206 0.586323
vt 0.259206 0.741589
vt 0.260287 0.811315
vt 0.262569 0.923452
vt 0.263169 0.963586
vt 0.812826 0.236495
vt 0.848853 0.236495
vt 0.812826 0.214092
vt 0.848853 0.214092
vt 0.261368 0.007550
vt 0.261248 0.068171
vt 0.261128 0.078474
vt 0.287548 0.413087
vt 0.283705 0.586323
vt 0.282624 0.741589
vt 0.284185 0.811315
vt 0.848853 0.191569
vt 0.812826 0.191569
vt 0.848853 0.169046
vt 0.812826 0.169046
vt 0.289469 0.007550
vt 0.289229 0.068171
vt 0.289109 0.078474
vt 0.314448 0.413087
vt 0.308204 0.586323
vt 0.305922 0.741589
vt 0.307963 0.811315
vt 0.313968 0.923452
vt 0.339667 0.923452
vt 0.342189 0.963586
vt 0.365607 0.923452
vt 0.368609 0.963586
vt 0.391667 0.923452
vt 0.395149 0.963586
vt 0.417847 0.923452
vt 0.421810 0.963586
vt 0.444147 0.923452
vt 0.448230 0.963586
vt 0.848853 0.146403
vt 0.812826 0.146403
vt 0.848853 0.123880
vt 0.812826 0.123880
vt 0.848853 0.101237
vt 0.317811 0.007550
vt 0.317210 0.068171
vt 0.316970 0.078474
vt 0.341349 0.413087
vt 0.332582 0.586323
vt 0.329220 0.741589
vt 0.331741 0.811315
vt 0.812826 0.101237
vt 0.848853 0.078594
vt 0.812826 0.078594
vt 0.848853 0.055831
vt 0.345192 0.068171
vt 0.344951 0.078474
vt 0.368369 0.413087
vt 0.356961 0.586323
vt 0.352397 0.741589
vt 0.355519 0.811315
vt 0.812826 0.055831
vt 0.812826 0.032948
vt 0.848853 0.032948
vt 0.812826 0.009107
vt 0.373173 0.068171
vt 0.372813 0.078474
vt 0.395510 0.413087
vt 0.381339 0.586323
vt 0.375455 0.741589
vt 0.379057 0.811315
vt 0.848853 0.009107
vt 0.466484 0.976884
vt 0.466363 0.988266
vt 0.438622 0.988266
vt 0.438622 0.977124
vt 0.410881 0.988266
vt 0.401034 0.068171
vt 0.400554 0.078474
vt 0.422650 0.413087
vt 0.405597 0.586323
vt 0.398392 0.741589
vt 0.402595 0.811315
vt 0.410881 0.977124
vt 0.383140 0.988266
vt 0.383140 0.977124
vt 0.355399 0.988266
vt 0.429135 0.068171
vt 0.428054 0.078474
vt 0.449911 0.413087
vt 0.429736 0.586323
vt 0.421209 0.741589
vt 0.425893 0.811315
vt 0.355399 0.977124
vt 0.327418 0.988266
vt 0.327418 0.977124
vt 0.299437 0.988266
vt 0.457597 0.068171
vt 0.455435 0.078474
vt 0.299437 0.977124
vt 0.271456 0.988266
vt 0.271456 0.977124
vt 0.243475 0.988266
vt 0.243475 0.977124
vt 0.462040 0.007550
vt 0.432498 0.007550
vt 0.215493 0.988266
vt 0.215493 0.977124
vt 0.187512 0.988266
vt 0.187512 0.977124
vt 0.403436 0.007550
vt 0.159531 0.988266
vt 0.159531 0.977124
vt 0.131550 0.988266
vt 0.131550 0.977124
vt 0.374614 0.007550
vt 0.103689 0.988266
vt 0.103569 0.977124
vt 0.075707 0.988266
vt 0.075707 0.977124
vt 0.346152 0.007550
vt 0.047726 0.988266
vt 0.047726 0.977244
vt 0.019745 0.988266
vt 0.019625 0.977124
vt 0.746175 0.503179
vt 0.765630 0.536125
vt 0.746175 0.536125
vt 0.765630 0.503179
vt 0.017824 0.413087
vt 0.039440 0.586323
vt 0.746175 0.470113
vt 0.765630 0.470113
vt 0.746175 0.437047
vt 0.765630 0.437047
vt 0.050488 0.741589
vt 0.746175 0.404101
vt 0.765630 0.404101
vt 0.765630 0.371035
vt 0.746175 0.371035
vt 0.047006 0.811315
vt 0.746175 0.337969
vt 0.765630 0.337969
vt 0.746175 0.304904
vt 0.765630 0.304904
vt 0.029833 0.923452
vt 0.746175 0.271957
vt 0.765630 0.271957
vt 0.746175 0.238892
vt 0.765630 0.238892
vt 0.746175 0.205826
vt 0.765630 0.205826
vt 0.746175 0.172880
vt 0.765630 0.172880
vt 0.765630 0.007670
vt 0.765630 0.040736
vt 0.746175 0.007670
vt 0.746175 0.040736
vt 0.746175 0.139814
vt 0.765630 0.139814
vt 0.746175 0.106748
vt 0.765630 0.106748
vt 0.765630 0.073802
vt 0.746175 0.073802
s 1
usemtl Material
f 1/1/1 2/2/2 3/3/3
f 2/2/2 4/4/4 3/3/3
f 3/3/3 4/4/4 5/5/5
f 4/4/4 6/6/6 5/5/5
f 5/5/5 6/6/6 7/7/7
f 6/6/6 8/8/8 7/7/7
f 274/9/9 410/10/10 272/11/11
f 346/12/12 356/13/13 347/14/14
f 654/15/15 204/16/16 206/17/17
f 609/18/18 608/19/19 631/20/20
f 2/2/2 9/21/21 4/4/4
f 9/21/21 10/22/22 4/4/4
f 4/4/4 10/22/22 6/6/6
f 10/22/22 11/23/23 6/6/6
f 6/6/6 11/23/23 8/8/8
f 11/23/23 12/24/24 8/8/8
f 146/25/25 141/26/26 140/27/27
f 150/28/28 174/29/29 153/30/30
f 5/5/5 7/7/7 653/31/31
f 109/32/32 121/33/33 110/34/34
f 9/21/21 13/35/35 10/22/22
f 13/35/35 14/36/36 10/22/22
f 10/22/22 14/36/36 11/23/23
f 14/36/36 15/37/37 11/23/23
f 11/23/23 15/37/37 12/24/24
f 15/37/37 16/38/38 12/24/24
f 12/24/24 16/38/38 17/39/39
f 16/38/38 18/40/40 17/39/39
f 17/39/39 18/40/40 19/41/41
f 18/40/40 20/42/42 19/41/41
f 19/41/41 20/42/42 21/43/43
f 20/42/42 22/44/44 21/43/43
f 21/43/43 22/44/44 23/45/45
f 22/44/44 24/46/46 23/45/45
f 23/45/45 24/46/46 25/47/47
f 24/46/46 26/48/48 25/47/47
f 25/47/47 26/48/48 27/49/49
f 26/48/48 28/50/50 27/49/49
f 27/49/49 28/50/50 29/51/51
f 28/50/50 30/52/52 29/51/51
f 29/51/51 30/52/52 31/53/53
f 30/52/52 32/54/54 31/53/53
f 31/53/53 32/54/54 33/55/55
f 32/54/54 34/56/56 33/55/55
f 33/55/55 34/56/56 35/57/57
f 34/56/56 36/58/58 35/57/57
f 652/59/59 61/60/60 63/61/61
f 531/62/62 539/63/1 533/64/63
f 18/40/40 16/38/38 37/65/64
f 622/66/65 589/67/66 588/68/67
f 18/40/40 37/65/64 20/42/42
f 37/65/64 38/69/68 20/42/42
f 20/42/42 38/69/68 22/44/44
f 38/69/68 39/70/69 22/44/44
f 22/44/44 39/70/69 24/46/46
f 39/70/69 40/71/70 24/46/46
f 24/46/46 40/71/70 26/48/48
f 40/71/70 41/72/71 26/48/48
f 26/48/48 41/72/71 28/50/50
f 41/72/71 42/73/72 28/50/50
f 28/50/50 42/73/72 30/52/52
f 42/73/72 43/74/73 30/52/52
f 30/52/52 43/74/73 32/54/54
f 43/74/73 44/75/74 32/54/54
f 32/54/54 44/75/74 45/76/75
f 44/75/74 46/77/76 45/76/75
f 45/76/75 46/77/76 47/78/77
f 651/79/78 622/66/65 588/68/67
f 620/80/79 622/66/65 651/79/78
f 650/81/80 620/80/79 651/79/78
f 618/82/81 620/80/79 650/81/80
f 649/83/82 618/82/81 650/81/80
f 46/77/76 44/75/74 48/84/83
f 44/75/74 43/74/73 48/84/83
f 48/84/83 43/74/73 49/85/84
f 43/74/73 42/73/72 49/85/84
f 49/85/84 42/73/72 50/86/85
f 42/73/72 41/72/71 50/86/85
f 50/86/85 41/72/71 51/87/86
f 41/72/71 40/71/70 51/87/86
f 51/87/86 40/71/70 52/88/87
f 40/71/70 39/70/69 52/88/87
f 52/88/87 39/70/69 38/69/68
f 616/89/88 618/82/81 649/83/82
f 648/90/89 616/89/88 649/83/82
f 614/91/90 616/89/88 648/90/89
f 647/92/91 614/91/90 648/90/89
f 612/93/92 614/91/90 647/92/91
f 52/88/87 38/69/68 53/94/93
f 38/69/68 37/65/64 53/94/93
f 53/94/93 37/65/64 54/95/94
f 37/65/64 55/96/95 54/95/94
f 54/95/94 55/96/95 56/97/96
f 55/96/95 14/36/36 56/97/96
f 56/97/96 14/36/36 13/35/35
f 607/98/97 612/93/92 647/92/91
f 610/99/98 612/93/92 607/98/97
f 605/100/99 610/99/98 607/98/97
f 608/19/19 646/101/100 631/20/20
f 645/102/101 646/101/100 608/19/19
f 37/65/64 16/38/38 55/96/95
f 16/38/38 15/37/37 55/96/95
f 55/96/95 15/37/37 14/36/36
f 630/103/102 645/102/101 608/19/19
f 644/104/103 645/102/101 630/103/102
f 629/105/104 644/104/103 630/103/102
f 643/106/105 644/104/103 629/105/104
f 628/107/106 643/106/105 629/105/104
f 57/108/107 58/109/108 59/110/109
f 58/109/108 60/111/110 59/110/109
f 59/110/109 60/111/110 61/60/60
f 60/111/110 62/112/111 61/60/60
f 61/60/60 62/112/111 63/61/61
f 62/112/111 64/113/112 63/61/61
f 642/114/113 643/106/105 628/107/106
f 627/115/114 642/114/113 628/107/106
f 641/116/115 642/114/113 627/115/114
f 626/117/116 641/116/115 627/115/114
f 58/109/108 65/118/117 60/111/110
f 65/118/117 66/119/118 60/111/110
f 60/111/110 66/119/118 62/112/111
f 66/119/118 67/120/119 62/112/111
f 62/112/111 67/120/119 64/113/112
f 67/120/119 68/121/120 64/113/112
f 640/122/121 641/116/115 626/117/116
f 625/123/122 640/122/121 626/117/116
f 639/124/123 640/122/121 625/123/122
f 624/125/124 639/124/123 625/123/122
f 65/118/117 69/126/125 66/119/118
f 69/126/125 70/127/126 66/119/118
f 66/119/118 70/127/126 67/120/119
f 70/127/126 71/128/127 67/120/119
f 67/120/119 71/128/127 68/121/120
f 71/128/127 72/129/128 68/121/120
f 638/130/129 639/124/123 624/125/124
f 623/131/130 638/130/129 624/125/124
f 637/132/67 638/130/129 623/131/130
f 621/133/131 637/132/67 623/131/130
f 69/126/125 73/134/132 70/127/126
f 73/134/132 74/135/133 70/127/126
f 70/127/126 74/135/133 71/128/127
f 74/135/133 75/136/134 71/128/127
f 71/128/127 75/136/134 72/129/128
f 75/136/134 76/137/135 72/129/128
f 636/138/136 637/132/67 621/133/131
f 619/139/137 636/138/136 621/133/131
f 635/140/80 636/138/136 619/139/137
f 617/141/138 635/140/80 619/139/137
f 73/134/132 77/142/139 74/135/133
f 77/142/139 78/143/140 74/135/133
f 74/135/133 78/143/140 75/136/134
f 78/143/140 79/144/141 75/136/134
f 75/136/134 79/144/141 76/137/135
f 79/144/141 80/145/142 76/137/135
f 634/146/82 635/140/80 617/141/138
f 615/147/143 634/146/82 617/141/138
f 633/148/144 634/146/82 615/147/143
f 613/149/145 633/148/144 615/147/143
f 77/142/139 81/150/146 78/143/140
f 81/150/146 82/151/147 78/143/140
f 78/143/140 82/151/147 79/144/141
f 82/151/147 83/152/148 79/144/141
f 79/144/141 83/152/148 80/145/142
f 83/152/148 84/153/149 80/145/142
f 632/154/91 633/148/144 613/149/145
f 611/155/150 632/154/91 613/149/145
f 631/20/20 632/154/91 611/155/150
f 609/18/18 631/20/20 611/155/150
f 81/150/146 85/156/151 82/151/147
f 85/156/151 86/157/152 82/151/147
f 82/151/147 86/157/152 83/152/148
f 86/157/152 87/158/153 83/152/148
f 83/152/148 87/158/153 84/153/149
f 87/158/153 88/159/154 84/153/149
f 630/103/102 608/19/19 603/160/155
f 601/161/156 630/103/102 603/160/155
f 629/105/104 630/103/102 601/161/156
f 599/162/157 629/105/104 601/161/156
f 85/156/151 89/163/158 86/157/152
f 89/163/158 90/164/159 86/157/152
f 86/157/152 90/164/159 87/158/153
f 90/164/159 91/165/160 87/158/153
f 87/158/153 91/165/160 88/159/154
f 91/165/160 92/166/161 88/159/154
f 628/107/106 629/105/104 599/162/157
f 597/167/162 628/107/106 599/162/157
f 627/115/114 628/107/106 597/167/162
f 595/168/163 627/115/114 597/167/162
f 89/163/158 93/169/164 90/164/159
f 93/169/164 94/170/165 90/164/159
f 90/164/159 94/170/165 91/165/160
f 94/170/165 95/171/166 91/165/160
f 91/165/160 95/171/166 92/166/161
f 95/171/166 96/172/167 92/166/161
f 626/117/116 627/115/114 595/168/163
f 593/173/168 626/117/116 595/168/163
f 625/123/122 626/117/116 593/173/168
f 591/174/169 625/123/122 593/173/168
f 93/169/164 97/175/170 94/170/165
f 97/175/170 98/176/171 94/170/165
f 94/170/165 98/176/171 95/171/166
f 98/176/171 99/177/172 95/171/166
f 95/171/166 99/177/172 96/172/167
f 99/177/172 100/178/173 96/172/167
f 624/125/124 625/123/122 591/174/169
f 589/67/66 624/125/124 591/174/169
f 623/131/130 624/125/124 589/67/66
f 622/66/65 623/131/130 589/67/66
f 97/175/170 101/179/174 98/176/171
f 101/179/174 102/180/175 98/176/171
f 98/176/171 102/180/175 99/177/172
f 102/180/175 103/181/176 99/177/172
f 99/177/172 103/181/176 100/178/173
f 103/181/176 104/182/177 100/178/173
f 621/133/131 623/131/130 622/66/65
f 620/80/79 621/133/131 622/66/65
f 619/139/137 621/133/131 620/80/79
f 618/82/81 619/139/137 620/80/79
f 102/180/175 105/183/178 103/181/176
f 105/183/178 106/184/179 103/181/176
f 103/181/176 106/184/179 104/182/177
f 106/184/179 107/185/180 104/182/177
f 617/141/138 619/139/137 618/82/81
f 616/89/88 617/141/138 618/82/81
f 615/147/143 617/141/138 616/89/88
f 614/91/90 615/147/143 616/89/88
f 102/180/175 101/179/174 105/183/178
f 101/179/174 108/186/181 105/183/178
f 105/183/178 108/186/181 109/32/32
f 613/149/145 615/147/143 614/91/90
f 612/93/92 613/149/145 614/91/90
f 611/155/150 613/149/145 612/93/92
f 109/32/32 110/34/34 105/183/178
f 110/34/34 106/184/179 105/183/178
f 610/99/98 611/155/150 612/93/92
f 609/18/18 611/155/150 610/99/98
f 605/100/99 609/18/18 610/99/98
f 608/19/19 609/18/18 605/100/99
f 110/34/34 111/187/182 106/184/179
f 111/187/182 107/185/180 106/184/179
f 603/160/155 608/19/19 605/100/99
f 605/100/99 607/98/97 606/188/183
f 107/185/180 111/187/182 112/189/184
f 111/187/182 113/190/185 112/189/184
f 112/189/184 113/190/185 114/191/186
f 113/190/185 115/192/187 114/191/186
f 114/191/186 115/192/187 116/193/59
f 115/192/187 117/194/188 116/193/59
f 604/195/189 605/100/99 606/188/183
f 603/160/155 605/100/99 604/195/189
f 602/196/190 603/160/155 604/195/189
f 601/161/156 603/160/155 602/196/190
f 111/187/182 118/197/191 113/190/185
f 118/197/191 119/198/192 113/190/185
f 113/190/185 119/198/192 115/192/187
f 119/198/192 120/199/109 115/192/187
f 115/192/187 120/199/109 117/194/188
f 600/200/105 601/161/156 602/196/190
f 599/162/157 601/161/156 600/200/105
f 598/201/193 599/162/157 600/200/105
f 597/167/162 599/162/157 598/201/193
f 596/202/115 597/167/162 598/201/193
f 111/187/182 110/34/34 118/197/191
f 110/34/34 121/33/33 118/197/191
f 118/197/191 121/33/33 122/203/194
f 595/168/163 597/167/162 596/202/115
f 594/204/121 595/168/163 596/202/115
f 593/173/168 595/168/163 594/204/121
f 592/205/123 593/173/168 594/204/121
f 591/174/169 593/173/168 592/205/123
f 118/197/191 122/203/194 119/198/192
f 122/203/194 123/206/195 119/198/192
f 119/198/192 123/206/195 120/199/109
f 590/207/129 591/174/169 592/205/123
f 589/67/66 591/174/169 590/207/129
f 588/68/67 589/67/66 590/207/129
f 587/208/196 572/209/197 571/210/198
f 569/211/199 587/208/196 571/210/198
f 124/212/200 125/213/201 126/214/202
f 125/213/201 127/215/203 126/214/202
f 126/214/202 127/215/203 128/216/204
f 127/215/203 129/217/205 128/216/204
f 128/216/204 129/217/205 130/218/206
f 129/217/205 131/219/207 130/218/206
f 586/220/208 587/208/196 569/211/199
f 567/221/209 586/220/208 569/211/199
f 585/222/210 586/220/208 567/221/209
f 565/223/211 585/222/210 567/221/209
f 125/213/201 132/224/212 127/215/203
f 132/224/212 133/225/213 127/215/203
f 127/215/203 133/225/213 129/217/205
f 133/225/213 134/226/214 129/217/205
f 129/217/205 134/226/214 131/219/207
f 134/226/214 135/227/215 131/219/207
f 584/228/216 585/222/210 565/223/211
f 563/229/217 584/228/216 565/223/211
f 583/230/218 584/228/216 563/229/217
f 561/231/219 583/230/218 563/229/217
f 132/224/212 136/232/220 133/225/213
f 136/232/220 137/233/221 133/225/213
f 133/225/213 137/233/221 134/226/214
f 137/233/221 138/234/222 134/226/214
f 134/226/214 138/234/222 135/227/215
f 138/234/222 139/235/223 135/227/215
f 582/236/224 583/230/218 561/231/219
f 559/237/225 582/236/224 561/231/219
f 581/238/226 582/236/224 559/237/225
f 557/239/227 581/238/226 559/237/225
f 136/232/220 140/27/27 137/233/221
f 140/27/27 141/26/26 137/233/221
f 137/233/221 141/26/26 138/234/222
f 141/26/26 142/240/228 138/234/222
f 138/234/222 142/240/228 139/235/223
f 142/240/228 143/241/229 139/235/223
f 580/242/230 581/238/226 557/239/227
f 555/243/231 580/242/230 557/239/227
f 143/241/229 142/240/228 144/244/232
f 142/240/228 141/26/26 144/244/232
f 144/244/232 141/26/26 145/245/233
f 141/26/26 146/25/25 145/245/233
f 145/245/233 146/25/25 147/246/234
f 579/247/235 580/242/230 555/243/231
f 553/248/236 579/247/235 555/243/231
f 578/249/237 579/247/235 553/248/236
f 551/250/238 578/249/237 553/248/236
f 577/251/239 578/249/237 551/250/238
f 144/244/232 145/245/233 148/252/240
f 145/245/233 147/246/234 148/252/240
f 148/252/240 147/246/234 149/253/241
f 549/254/242 577/251/239 551/250/238
f 576/255/243 577/251/239 549/254/242
f 547/256/244 576/255/243 549/254/242
f 149/253/241 150/28/28 148/252/240
f 150/28/28 151/257/245 148/252/240
f 148/252/240 151/257/245 144/244/232
f 151/257/245 152/258/246 144/244/232
f 144/244/232 152/258/246 143/241/229
f 575/259/247 576/255/243 547/256/244
f 545/260/248 575/259/247 547/256/244
f 574/261/249 575/259/247 545/260/248
f 543/262/250 574/261/249 545/260/248
f 573/263/251 574/261/249 543/262/250
f 150/28/28 153/30/30 151/257/245
f 153/30/30 154/264/252 151/257/245
f 151/257/245 154/264/252 152/258/246
f 541/265/253 573/263/251 543/262/250
f 572/209/197 573/263/251 541/265/253
f 571/210/198 572/209/197 541/265/253
f 571/210/198 541/265/253 540/266/254
f 570/267/255 571/210/198 540/266/254
f 154/264/252 153/30/30 155/268/256
f 153/30/30 156/269/257 155/268/256
f 155/268/256 156/269/257 157/270/258
f 156/269/257 158/271/259 157/270/258
f 157/270/258 158/271/259 159/272/260
f 158/271/259 160/273/261 159/272/260
f 159/272/260 160/273/261 161/274/262
f 160/273/261 162/275/263 161/274/262
f 161/274/262 162/275/263 163/276/264
f 162/275/263 164/277/265 163/276/264
f 163/276/264 164/277/265 165/278/266
f 164/277/265 166/279/267 165/278/266
f 165/278/266 166/279/267 167/280/268
f 166/279/267 168/281/269 167/280/268
f 167/280/268 168/281/269 169/282/270
f 168/281/269 170/283/271 169/282/270
f 169/282/270 170/283/271 171/284/272
f 170/283/271 172/285/273 171/284/272
f 171/284/272 172/285/273 173/286/206
f 569/211/199 571/210/198 570/267/255
f 568/287/274 569/211/199 570/267/255
f 567/221/209 569/211/199 568/287/274
f 566/288/275 567/221/209 568/287/274
f 565/223/211 567/221/209 566/288/275
f 153/30/30 174/29/29 156/269/257
f 174/29/29 175/289/276 156/269/257
f 156/269/257 175/289/276 158/271/259
f 175/289/276 176/290/277 158/271/259
f 158/271/259 176/290/277 160/273/261
f 176/290/277 177/291/278 160/273/261
f 160/273/261 177/291/278 162/275/263
f 177/291/278 178/292/279 162/275/263
f 162/275/263 178/292/279 164/277/265
f 178/292/279 179/293/280 164/277/265
f 164/277/265 179/293/280 166/279/267
f 179/293/280 180/294/281 166/279/267
f 166/279/267 180/294/281 168/281/269
f 180/294/281 181/295/282 168/281/269
f 168/281/269 181/295/282 170/283/271
f 181/295/282 182/296/202 170/283/271
f 170/283/271 182/296/202 172/285/273
f 564/297/283 565/223/211 566/288/275
f 563/229/217 565/223/211 564/297/283
f 562/298/284 563/229/217 564/297/283
f 561/231/219 563/229/217 562/298/284
f 560/299/285 561/231/219 562/298/284
f 174/29/29 183/300/286 175/289/276
f 183/300/286 184/301/287 175/289/276
f 175/289/276 184/301/287 176/290/277
f 184/301/287 185/302/288 176/290/277
f 176/290/277 185/302/288 177/291/278
f 185/302/288 186/303/289 177/291/278
f 177/291/278 186/303/289 178/292/279
f 186/303/289 187/304/290 178/292/279
f 178/292/279 187/304/290 179/293/280
f 187/304/290 188/305/291 179/293/280
f 179/293/280 188/305/291 180/294/281
f 188/305/291 189/306/292 180/294/281
f 180/294/281 189/306/292 181/295/282
f 189/306/292 190/307/200 181/295/282
f 181/295/282 190/307/200 182/296/202
f 559/237/225 561/231/219 560/299/285
f 558/308/293 559/237/225 560/299/285
f 557/239/227 559/237/225 558/308/293
f 556/309/294 557/239/227 558/308/293
f 555/243/231 557/239/227 556/309/294
f 183/300/286 174/29/29 191/310/295
f 174/29/29 150/28/28 191/310/295
f 191/310/295 150/28/28 149/253/241
f 554/311/296 555/243/231 556/309/294
f 553/248/236 555/243/231 554/311/296
f 552/312/297 553/248/236 554/311/296
f 551/250/238 553/248/236 552/312/297
f 550/313/298 551/250/238 552/312/297
f 192/314/299 193/315/300 194/316/301
f 193/315/300 195/317/302 194/316/301
f 194/316/301 195/317/302 196/318/303
f 195/317/302 197/319/304 196/318/303
f 196/318/303 197/319/304 198/320/305
f 197/319/304 199/321/306 198/320/305
f 198/320/305 199/321/306 200/322/307
f 199/321/306 201/323/308 200/322/307
f 200/322/307 201/323/308 202/324/309
f 201/323/308 203/325/310 202/324/309
f 202/324/309 203/325/310 204/16/16
f 203/325/310 205/326/311 204/16/16
f 204/16/16 205/326/311 206/17/17
f 549/254/242 551/250/238 550/313/298
f 548/327/312 549/254/242 550/313/298
f 547/256/244 549/254/242 548/327/312
f 546/328/313 547/256/244 548/327/312
f 545/260/248 547/256/244 546/328/313
f 207/329/311 208/330/314 209/331/17
f 208/330/314 210/332/315 209/331/17
f 209/331/17 210/332/315 211/333/15
f 210/332/315 212/334/316 211/333/15
f 211/333/15 212/334/316 213/335/317
f 212/334/316 214/336/318 213/335/317
f 213/335/317 214/336/318 215/337/309
f 214/336/318 216/338/319 215/337/309
f 215/337/309 216/338/319 217/339/307
f 216/338/319 218/340/320 217/339/307
f 217/339/307 218/340/320 219/341/305
f 218/340/320 220/342/321 219/341/305
f 219/341/305 220/342/321 221/343/303
f 220/342/321 222/344/322 221/343/303
f 221/343/303 222/344/322 223/345/301
f 222/344/322 224/346/323 223/345/301
f 223/345/301 224/346/323 225/347/324
f 224/346/323 226/348/325 225/347/324
f 225/347/324 226/348/325 227/349/300
f 226/348/325 228/350/326 227/349/300
f 227/349/300 228/350/326 229/351/327
f 228/350/326 230/352/328 229/351/327
f 229/351/327 230/352/328 231/353/304
f 230/352/328 232/354/329 231/353/304
f 231/353/304 232/354/329 233/355/306
f 232/354/329 234/356/330 233/355/306
f 233/355/306 234/356/330 235/357/308
f 234/356/330 236/358/331 235/357/308
f 235/357/308 236/358/331 237/359/310
f 236/358/331 238/360/332 237/359/310
f 237/359/310 238/360/332 239/361/311
f 238/360/332 240/362/333 239/361/311
f 544/363/334 545/260/248 546/328/313
f 543/262/250 545/260/248 544/363/334
f 542/364/335 543/262/250 544/363/334
f 541/265/253 543/262/250 542/364/335
f 218/340/320 241/365/336 220/342/321
f 241/365/336 242/366/337 220/342/321
f 220/342/321 242/366/337 222/344/322
f 242/366/337 243/367/338 222/344/322
f 222/344/322 243/367/338 224/346/323
f 243/367/338 244/368/339 224/346/323
f 224/346/323 244/368/339 226/348/325
f 244/368/339 245/369/340 226/348/325
f 226/348/325 245/369/340 228/350/326
f 245/369/340 246/370/341 228/350/326
f 228/350/326 246/370/341 230/352/328
f 246/370/341 247/371/342 230/352/328
f 230/352/328 247/371/342 232/354/329
f 247/371/342 248/372/343 232/354/329
f 232/354/329 248/372/343 234/356/330
f 248/372/343 249/373/344 234/356/330
f 234/356/330 249/373/344 236/358/331
f 249/373/344 250/374/345 236/358/331
f 236/358/331 250/374/345 238/360/332
f 250/374/345 251/375/346 238/360/332
f 238/360/332 251/375/346 240/362/333
f 540/266/254 541/265/253 542/364/335
f 531/62/62 538/376/347 539/63/1
f 537/377/348 538/376/347 531/62/62
f 529/378/349 537/377/348 531/62/62
f 47/78/77 537/377/348 529/378/349
f 241/365/336 218/340/320 252/379/350
f 218/340/320 253/380/351 252/379/350
f 45/76/75 47/78/77 529/378/349
f 530/381/352 36/58/58 34/56/56
f 536/382/353 36/58/58 530/381/352
f 532/383/354 536/382/353 530/381/352
f 218/340/320 216/338/319 253/380/351
f 216/338/319 214/336/318 253/380/351
f 253/380/351 214/336/318 254/384/355
f 214/336/318 212/334/316 254/384/355
f 254/384/355 212/334/316 255/385/356
f 212/334/316 210/332/315 255/385/356
f 255/385/356 210/332/315 256/386/357
f 210/332/315 208/330/314 256/386/357
f 256/386/357 208/330/314 257/387/358
f 535/388/359 536/382/353 532/383/354
f 534/389/360 535/388/359 532/383/354
f 532/383/354 533/64/63 534/389/360
f 531/62/62 533/64/63 532/383/354
f 530/381/352 531/62/62 532/383/354
f 258/390/361 259/391/362 260/392/363
f 259/391/362 261/393/364 260/392/363
f 260/392/363 261/393/364 262/394/365
f 261/393/364 263/395/366 262/394/365
f 262/394/365 263/395/366 264/396/367
f 263/395/366 265/397/368 264/396/367
f 264/396/367 265/397/368 266/398/369
f 265/397/368 267/399/370 266/398/369
f 266/398/369 267/399/370 268/400/371
f 267/399/370 269/401/372 268/400/371
f 268/400/371 269/401/372 270/402/11
f 269/401/372 271/403/373 270/402/11
f 270/402/11 271/403/373 272/11/11
f 271/403/373 273/404/374 272/11/11
f 272/11/11 273/404/374 274/9/9
f 273/404/374 275/405/375 274/9/9
f 529/378/349 531/62/62 530/381/352
f 34/56/56 529/378/349 530/381/352
f 45/76/75 529/378/349 34/56/56
f 32/54/54 45/76/75 34/56/56
f 259/391/362 276/406/376 261/393/364
f 276/406/376 277/407/377 261/393/364
f 261/393/364 277/407/377 263/395/366
f 277/407/377 278/408/372 263/395/366
f 263/395/366 278/408/372 265/397/368
f 278/408/372 279/409/378 265/397/368
f 265/397/368 279/409/378 267/399/370
f 279/409/378 280/410/379 267/399/370
f 267/399/370 280/410/379 269/401/372
f 280/410/379 281/411/380 269/401/372
f 269/401/372 281/411/380 271/403/373
f 281/411/380 282/412/381 271/403/373
f 271/403/373 282/412/381 273/404/374
f 282/412/381 283/413/381 273/404/374
f 273/404/374 283/413/381 275/405/375
f 283/413/381 284/414/382 275/405/375
f 526/415/167 528/416/383 527/417/384
f 525/418/385 526/415/167 527/417/384
f 524/419/161 526/415/167 525/418/385
f 523/420/184 524/419/161 525/418/385
f 276/406/376 285/421/386 277/407/377
f 285/421/386 286/422/387 277/407/377
f 277/407/377 286/422/387 278/408/372
f 286/422/387 287/423/388 278/408/372
f 278/408/372 287/423/388 279/409/378
f 287/423/388 288/424/389 279/409/378
f 279/409/378 288/424/389 280/410/379
f 288/424/389 289/425/390 280/410/379
f 280/410/379 289/425/390 281/411/380
f 289/425/390 290/426/391 281/411/380
f 281/411/380 290/426/391 282/412/381
f 290/426/391 291/427/392 282/412/381
f 282/412/381 291/427/392 283/413/381
f 291/427/392 292/428/392 283/413/381
f 283/413/381 292/428/392 284/414/382
f 292/428/392 293/429/393 284/414/382
f 522/430/394 524/419/161 523/420/184
f 521/431/395 522/430/394 523/420/184
f 520/432/149 522/430/394 521/431/395
f 519/433/396 520/432/149 521/431/395
f 285/421/386 294/434/397 286/422/387
f 294/434/397 295/435/398 286/422/387
f 286/422/387 295/435/398 287/423/388
f 295/435/398 296/436/399 287/423/388
f 287/423/388 296/436/399 288/424/389
f 296/436/399 297/437/400 288/424/389
f 288/424/389 297/437/400 289/425/390
f 297/437/400 298/438/401 289/425/390
f 289/425/390 298/438/401 290/426/391
f 298/438/401 299/439/402 290/426/391
f 290/426/391 299/439/402 291/427/392
f 299/439/402 300/440/403 291/427/392
f 291/427/392 300/440/403 292/428/392
f 300/440/403 301/441/403 292/428/392
f 292/428/392 301/441/403 293/429/393
f 301/441/403 302/442/404 293/429/393
f 518/443/142 520/432/149 519/433/396
f 517/444/61 518/443/142 519/433/396
f 514/445/405 518/443/142 517/444/61
f 516/446/112 514/445/405 517/444/61
f 294/434/397 303/447/401 295/435/398
f 303/447/401 304/448/406 295/435/398
f 295/435/398 304/448/406 296/436/399
f 304/448/406 305/449/407 296/436/399
f 296/436/399 305/449/407 297/437/400
f 305/449/407 306/450/408 297/437/400
f 297/437/400 306/450/408 298/438/401
f 306/450/408 307/451/409 298/438/401
f 298/438/401 307/451/409 299/439/402
f 307/451/409 308/452/410 299/439/402
f 299/439/402 308/452/410 300/440/403
f 308/452/410 309/453/411 300/440/403
f 300/440/403 309/453/411 301/441/403
f 309/453/411 310/454/412 301/441/403
f 301/441/403 310/454/412 302/442/404
f 310/454/412 311/455/413 302/442/404
f 514/445/405 516/446/112 515/456/120
f 513/457/414 514/445/405 515/456/120
f 510/458/415 511/459/416 512/460/416
f 509/461/415 511/459/416 510/458/415
f 303/447/401 312/462/417 304/448/406
f 312/462/417 313/463/418 304/448/406
f 304/448/406 313/463/418 305/449/407
f 313/463/418 314/464/419 305/449/407
f 305/449/407 314/464/419 306/450/408
f 314/464/419 315/465/420 306/450/408
f 306/450/408 315/465/420 307/451/409
f 315/465/420 316/466/421 307/451/409
f 307/451/409 316/466/421 308/452/410
f 316/466/421 317/467/422 308/452/410
f 308/452/410 317/467/422 309/453/411
f 317/467/422 318/468/423 309/453/411
f 309/453/411 318/468/423 310/454/412
f 318/468/423 319/469/423 310/454/412
f 310/454/412 319/469/423 311/455/413
f 319/469/423 320/470/424 311/455/413
f 508/471/425 509/461/415 510/458/415
f 507/472/426 509/461/415 508/471/425
f 506/473/427 507/472/426 508/471/425
f 505/474/427 507/472/426 506/473/427
f 312/462/417 321/475/421 313/463/418
f 321/475/421 322/476/428 313/463/418
f 313/463/418 322/476/428 314/464/419
f 322/476/428 323/477/429 314/464/419
f 314/464/419 323/477/429 315/465/420
f 323/477/429 324/478/430 315/465/420
f 315/465/420 324/478/430 316/466/421
f 324/478/430 325/479/431 316/466/421
f 316/466/421 325/479/431 317/467/422
f 325/479/431 326/480/432 317/467/422
f 317/467/422 326/480/432 318/468/423
f 326/480/432 327/481/433 318/468/423
f 318/468/423 327/481/433 319/469/423
f 327/481/433 328/482/433 319/469/423
f 319/469/423 328/482/433 320/470/424
f 328/482/433 329/483/434 320/470/424
f 504/484/435 505/474/427 506/473/427
f 503/485/436 505/474/427 504/484/435
f 502/486/437 503/485/436 504/484/435
f 501/487/437 503/485/436 502/486/437
f 321/475/421 330/488/438 322/476/428
f 330/488/438 331/489/439 322/476/428
f 322/476/428 331/489/439 323/477/429
f 331/489/439 332/490/440 323/477/429
f 323/477/429 332/490/440 324/478/430
f 332/490/440 333/491/441 324/478/430
f 324/478/430 333/491/441 325/479/431
f 333/491/441 334/492/442 325/479/431
f 325/479/431 334/492/442 326/480/432
f 334/492/442 335/493/443 326/480/432
f 326/480/432 335/493/443 327/481/433
f 335/493/443 336/494/444 327/481/433
f 327/481/433 336/494/444 328/482/433
f 336/494/444 337/495/444 328/482/433
f 328/482/433 337/495/444 329/483/434
f 337/495/444 338/496/445 329/483/434
f 500/497/446 501/487/437 502/486/437
f 499/498/446 501/487/437 500/497/446
f 497/499/447 499/498/446 500/497/446
f 497/499/447 498/500/447 499/498/446
f 330/488/438 339/501/448 331/489/439
f 339/501/448 340/502/449 331/489/439
f 331/489/439 340/502/449 332/490/440
f 340/502/449 341/503/450 332/490/440
f 332/490/440 341/503/450 333/491/441
f 341/503/450 342/504/451 333/491/441
f 333/491/441 342/504/451 334/492/442
f 342/504/451 343/505/452 334/492/442
f 334/492/442 343/505/452 335/493/443
f 343/505/452 344/506/453 335/493/443
f 335/493/443 344/506/453 336/494/444
f 344/506/453 345/507/12 336/494/444
f 336/494/444 345/507/12 337/495/444
f 345/507/12 346/12/12 337/495/444
f 337/495/444 346/12/12 338/496/445
f 346/12/12 347/14/14 338/496/445
f 496/508/454 498/500/447 497/499/447
f 495/509/455 496/508/454 497/499/447
f 494/510/456 496/508/454 495/509/455
f 493/511/457 494/510/456 495/509/455
f 339/501/448 348/512/458 340/502/449
f 348/512/458 349/513/459 340/502/449
f 340/502/449 349/513/459 341/503/450
f 349/513/459 350/514/460 341/503/450
f 341/503/450 350/514/460 342/504/451
f 350/514/460 351/515/461 342/504/451
f 342/504/451 351/515/461 343/505/452
f 351/515/461 352/516/462 343/505/452
f 343/505/452 352/516/462 344/506/453
f 352/516/462 353/517/463 344/506/453
f 344/506/453 353/517/463 345/507/12
f 353/517/463 354/518/464 345/507/12
f 345/507/12 354/518/464 346/12/12
f 354/518/464 355/519/465 346/12/12
f 346/12/12 355/519/465 356/13/13
f 355/519/465 357/520/466 356/13/13
f 356/13/13 357/520/466 358/521/467
f 357/520/466 359/522/468 358/521/467
f 358/521/467 359/522/468 360/523/469
f 359/522/468 361/524/470 360/523/469
f 360/523/469 361/524/470 362/525/471
f 361/524/470 363/526/472 362/525/471
f 362/525/471 363/526/472 364/527/473
f 363/526/472 365/528/474 364/527/473
f 364/527/473 365/528/474 366/529/10
f 492/530/475 494/510/456 493/511/457
f 491/531/475 492/530/475 493/511/457
f 490/532/476 492/530/475 491/531/475
f 489/533/477 490/532/476 491/531/475
f 488/534/478 490/532/476 489/533/477
f 348/512/458 367/535/479 349/513/459
f 367/535/479 368/536/480 349/513/459
f 349/513/459 368/536/480 350/514/460
f 368/536/480 369/537/481 350/514/460
f 350/514/460 369/537/481 351/515/461
f 369/537/481 370/538/482 351/515/461
f 351/515/461 370/538/482 352/516/462
f 370/538/482 371/539/483 352/516/462
f 352/516/462 371/539/483 353/517/463
f 371/539/483 372/540/484 353/517/463
f 353/517/463 372/540/484 354/518/464
f 372/540/484 373/541/466 354/518/464
f 354/518/464 373/541/466 355/519/465
f 373/541/466 357/520/466 355/519/465
f 487/542/478 488/534/478 489/533/477
f 486/543/468 488/534/478 487/542/478
f 485/544/468 486/543/468 487/542/478
f 483/545/470 486/543/468 485/544/468
f 368/536/480 374/546/485 369/537/481
f 374/546/485 375/547/486 369/537/481
f 369/537/481 375/547/486 370/538/482
f 375/547/486 376/548/487 370/538/482
f 370/538/482 376/548/487 371/539/483
f 376/548/487 377/549/488 371/539/483
f 371/539/483 377/549/488 372/540/484
f 377/549/488 378/550/489 372/540/484
f 372/540/484 378/550/489 373/541/466
f 378/550/489 379/551/490 373/541/466
f 373/541/466 379/551/490 357/520/466
f 379/551/490 359/522/468 357/520/466
f 484/552/470 483/545/470 485/544/468
f 483/545/470 484/552/470 482/553/472
f 480/554/472 483/545/470 482/553/472
f 480/554/472 482/553/472 481/555/474
f 374/546/485 380/556/491 375/547/486
f 380/556/491 381/557/492 375/547/486
f 375/547/486 381/557/492 376/548/487
f 381/557/492 382/558/493 376/548/487
f 376/548/487 382/558/493 377/549/488
f 382/558/493 383/559/494 377/549/488
f 377/549/488 383/559/494 378/550/489
f 383/559/494 384/560/495 378/550/489
f 378/550/489 384/560/495 379/551/490
f 384/560/495 385/561/470 379/551/490
f 379/551/490 385/561/470 359/522/468
f 385/561/470 361/524/470 359/522/468
f 479/562/474 480/554/472 481/555/474
f 477/563/496 478/564/496 476/565/497
f 475/566/498 477/563/496 476/565/497
f 475/566/498 476/565/497 474/567/499
f 380/556/491 386/568/500 381/557/492
f 386/568/500 387/569/501 381/557/492
f 381/557/492 387/569/501 382/558/493
f 387/569/501 388/570/502 382/558/493
f 382/558/493 388/570/502 383/559/494
f 388/570/502 389/571/503 383/559/494
f 383/559/494 389/571/503 384/560/495
f 389/571/503 390/572/504 384/560/495
f 384/560/495 390/572/504 385/561/470
f 390/572/504 391/573/472 385/561/470
f 385/561/470 391/573/472 361/524/470
f 391/573/472 363/526/472 361/524/470
f 473/574/499 475/566/498 474/567/499
f 473/574/499 474/567/499 472/575/505
f 471/576/506 473/574/499 472/575/505
f 471/576/506 472/575/505 470/577/507
f 386/568/500 392/578/508 387/569/501
f 392/578/508 393/579/509 387/569/501
f 387/569/501 393/579/509 388/570/502
f 393/579/509 394/580/510 388/570/502
f 388/570/502 394/580/510 389/571/503
f 394/580/510 395/581/511 389/571/503
f 389/571/503 395/581/511 390/572/504
f 395/581/511 396/582/512 390/572/504
f 390/572/504 396/582/512 391/573/472
f 396/582/512 397/583/416 391/573/472
f 391/573/472 397/583/416 363/526/472
f 397/583/416 365/528/474 363/526/472
f 469/584/513 471/576/506 470/577/507
f 469/584/513 470/577/507 468/585/514
f 467/586/514 469/584/513 468/585/514
f 467/586/514 468/585/514 466/587/515
f 392/578/508 398/588/516 393/579/509
f 398/588/516 399/589/365 393/579/509
f 393/579/509 399/589/365 394/580/510
f 465/590/515 467/586/514 466/587/515
f 465/590/515 466/587/515 464/591/517
f 463/592/517 465/590/515 464/591/517
f 463/592/517 464/591/517 462/593/518
f 461/594/519 463/592/517 462/593/518
f 398/588/516 392/578/508 400/595/361
f 392/578/508 401/596/520 400/595/361
f 461/594/519 462/593/518 460/597/521
f 459/598/521 461/594/519 460/597/521
f 459/598/521 460/597/521 458/599/522
f 457/600/523 459/598/521 458/599/522
f 392/578/508 386/568/500 401/596/520
f 386/568/500 402/601/524 401/596/520
f 457/600/523 458/599/522 456/602/525
f 455/603/526 457/600/523 456/602/525
f 455/603/526 456/602/525 454/604/527
f 453/605/527 455/603/526 454/604/527
f 386/568/500 380/556/491 402/601/524
f 380/556/491 403/606/488 402/601/524
f 453/605/527 454/604/527 452/607/528
f 451/608/529 453/605/527 452/607/528
f 451/608/529 452/607/528 450/609/530
f 449/610/530 451/608/529 450/609/530
f 380/556/491 374/546/485 403/606/488
f 374/546/485 404/611/531 403/606/488
f 449/610/530 450/609/530 448/612/532
f 446/613/532 449/610/530 448/612/532
f 404/611/531 374/546/485 367/535/479
f 374/546/485 368/536/480 367/535/479
f 446/613/532 448/612/532 447/614/533
f 445/615/496 446/613/532 447/614/533
f 442/616/534 443/617/358 444/618/358
f 441/619/534 443/617/358 442/616/534
f 262/394/365 264/396/367 405/620/510
f 264/396/367 406/621/535 405/620/510
f 440/622/356 441/619/534 442/616/534
f 439/623/356 441/619/534 440/622/356
f 438/624/355 439/623/356 440/622/356
f 437/625/355 439/623/356 438/624/355
f 264/396/367 266/398/369 406/621/535
f 266/398/369 407/626/536 406/621/535
f 435/627/467 437/625/355 438/624/355
f 435/627/467 436/628/467 437/625/355
f 433/629/537 436/628/467 435/627/467
f 434/630/13 433/629/537 435/627/467
f 266/398/369 268/400/371 407/626/536
f 268/400/371 408/631/416 407/626/536
f 433/629/537 434/630/13 432/632/14
f 431/633/14 433/629/537 432/632/14
f 431/633/14 432/632/14 430/634/337
f 429/635/337 431/633/14 430/634/337
f 268/400/371 270/402/11 408/631/416
f 270/402/11 409/636/416 408/631/416
f 429/635/337 430/634/337 428/637/338
f 427/638/338 429/635/337 428/637/338
f 427/638/338 428/637/338 426/639/339
f 425/640/339 427/638/338 426/639/339
f 270/402/11 272/11/11 409/636/416
f 272/11/11 410/10/10 409/636/416
f 425/640/339 426/639/339 424/641/340
f 423/642/340 425/640/339 424/641/340
f 423/642/340 424/641/340 422/643/538
f 421/644/538 423/642/340 422/643/538
f 411/645/358 412/646/345 413/647/358
f 412/646/345 414/648/539 413/647/358
f 421/644/538 422/643/538 420/649/342
f 419/650/342 421/644/538 420/649/342
f 419/650/342 420/649/342 418/651/540
f 417/652/343 419/650/342 418/651/540
f 412/646/345 415/653/541 414/648/539
f 415/653/541 416/654/344 414/648/539
f 417/652/343 418/651/540 416/654/344
f 415/653/541 417/652/343 416/654/344
