# Blender 5.2.2 LTS
# www.blender.org
mtllib front sight.mtl
o sight_front_1_sentinel_react_v25_velochampbp_main.001
v -0.264615 -0.150690 148.967865
v -0.765965 -0.150690 148.967865
v -0.264615 0.573482 148.967865
v -0.765965 0.573482 148.967865
v -0.988788 -0.336375 148.095123
v -0.765965 -0.150690 148.967865
v -0.264616 -0.336375 148.262268
v -0.264615 -0.150690 148.967865
v -0.988788 -0.336375 148.095123
v -0.988788 0.573482 148.095123
v -0.765965 -0.150690 148.967865
v -0.765965 0.573482 148.967865
v -0.264615 -0.150690 148.967865
v -0.264615 0.573482 148.967865
v 0.246019 -0.150690 148.967865
v 0.246019 0.573482 148.967865
v 0.468841 -0.336375 148.095123
v -0.264616 -0.336375 148.262268
v 0.246019 -0.150690 148.967865
v -0.264615 -0.150690 148.967865
v 0.468841 -0.336375 148.095123
v 0.246019 -0.150690 148.967865
v 0.468841 0.573482 148.095123
v 0.246019 0.573482 148.967865
v -2.353574 0.322807 146.971741
v -3.634801 0.322807 146.962448
v -2.901345 5.354875 140.482040
v -3.421264 5.354875 140.482040
v -0.264615 -2.295353 149.469223
v -0.264615 -2.295353 150.574036
v -2.297868 -2.295353 149.469223
v -2.390711 -2.295353 150.574036
v -0.264617 -6.027625 133.388885
v -3.634802 -6.027625 133.388885
v -0.264616 -6.092615 137.232574
v -3.634802 -6.092615 137.232574
v -2.353574 0.322807 148.875031
v -3.634801 0.322807 148.875031
v -2.353574 0.322807 146.971741
v -3.634801 0.322807 146.962448
v -5.185272 -4.003657 150.574066
v -5.185273 -4.003657 147.036743
v -4.108298 -2.703861 150.574051
v -4.108298 -2.703861 147.036728
v -4.461100 -5.879077 150.574066
v -4.461101 -5.879077 147.036743
v -5.185272 -5.674823 150.574066
v -5.185273 -5.674823 147.036743
v -2.353574 0.322807 148.875031
v -2.279300 -0.707745 148.512939
v -2.390711 -2.295353 150.574036
v -2.297868 -2.295353 149.469223
v -4.108298 -2.703861 147.036728
v -3.634801 -2.703861 147.036728
v -4.108298 -2.703861 150.574051
v -3.634801 -2.703861 150.574051
v -5.185273 -4.003657 147.036743
v -5.185272 -4.003657 150.574066
v -5.185273 -5.674823 147.036743
v -5.185272 -5.674823 150.574066
v -0.264615 -0.707745 148.512939
v -0.264615 -2.295353 149.469223
v -2.279300 -0.707745 148.512939
v -2.297868 -2.295353 149.469223
v 1.833627 0.322807 146.971725
v 2.381397 5.354875 140.482040
v 3.105570 0.322807 146.962448
v 2.901316 5.354875 140.482040
v -0.264615 -2.295353 149.469223
v 1.777921 -2.295353 149.469223
v -0.264615 -2.295353 150.574036
v 1.870764 -2.295353 150.574036
v -0.264617 -6.027625 133.388885
v -0.264616 -6.092615 137.232574
v 3.105569 -6.027625 133.388885
v 3.105569 -6.092615 137.232574
v 1.833627 0.322807 148.875031
v 1.833627 0.322807 146.971725
v 3.105570 0.322807 148.875031
v 3.105570 0.322807 146.962448
v 4.665325 -4.003657 150.574066
v 3.588352 -2.703861 150.574036
v 4.665325 -4.003657 147.036743
v 3.588351 -2.703861 147.036728
v 3.931869 -5.879077 150.574066
v 4.665325 -5.674823 150.574066
v 3.931869 -5.879077 147.036743
v 4.665325 -5.674823 147.036743
v 1.833627 0.322807 148.875031
v 1.870764 -2.295353 150.574036
v 1.759352 -0.707745 148.512939
v 1.777921 -2.295353 149.469223
v 3.588351 -2.703861 147.036728
v 3.588352 -2.703861 150.574036
v 3.105570 -2.703861 147.036728
v 3.105570 -2.703861 150.574036
v 4.665325 -4.003657 147.036743
v 4.665325 -5.674823 147.036743
v 4.665325 -4.003657 150.574066
v 4.665325 -5.674823 150.574066
v -0.264615 -0.707745 148.512939
v 1.759352 -0.707745 148.512939
v -0.264615 -2.295353 149.469223
v 1.777921 -2.295353 149.469223
v -0.264616 -0.336375 148.262268
v -0.264616 -0.707745 148.262268
v -0.988788 -0.707745 148.095123
v -0.988788 -0.336375 148.095123
v -1.573696 -0.707745 147.630920
v -1.573696 0.573482 147.630920
v -0.988788 0.573482 148.095123
v -1.898645 0.573482 146.953171
v -1.898645 -0.707745 146.953171
v -1.898645 0.573482 146.201141
v -1.898645 -0.707745 146.201141
v -1.573696 0.573482 145.532669
v -1.573696 -0.707745 145.532669
v -0.988788 0.573482 145.068466
v -0.988788 -0.707745 145.068466
v -0.264616 0.573482 144.901337
v -0.264616 -0.707745 144.901337
v -0.264615 0.573482 148.967865
v -0.765965 0.573482 148.967865
v -0.988788 0.573482 148.095123
v -0.264616 0.573482 144.901337
v -1.573696 0.573482 147.630920
v -1.898645 0.573482 146.953171
v -1.898645 0.573482 146.201141
v -1.573696 0.573482 145.532669
v -0.988788 0.573482 145.068466
v -0.264617 1.808289 136.777618
v -0.264616 1.845426 140.417053
v -0.914515 1.947552 136.833328
v -0.905230 1.975405 140.417053
v -1.592265 2.253933 136.963303
v -1.573697 2.291070 140.417053
v -2.260732 2.736714 137.176849
v -2.242163 2.783136 140.426331
v -2.947767 3.460886 137.483231
v -2.947767 3.516592 140.444901
v -2.929199 4.482154 137.928864
v -2.910630 5.113484 138.458069
v -2.901345 5.354875 139.247238
v -2.901345 5.354875 140.482040
v -4.461100 -5.879077 150.574066
v -5.185272 -5.674823 150.574066
v -4.461100 -4.300754 150.574066
v -5.185272 -4.003657 150.574066
v -3.755496 -3.780835 150.574066
v -4.108298 -2.703861 150.574051
v -3.634801 -2.703861 150.574051
v -2.390711 -2.295353 150.574036
v -0.264615 -3.780835 150.574066
v -3.634801 -2.295353 150.574051
v -0.264615 -3.325906 150.574066
v -0.264615 -2.295353 150.574036
v -3.634801 0.322807 148.875031
v -2.353574 0.322807 148.875031
v -0.264617 -6.027625 133.388885
v -0.264617 1.808289 136.777618
v -0.914515 1.947552 136.833328
v -3.634802 -6.027625 133.388885
v -1.592265 2.253933 136.963303
v -2.260732 2.736714 137.176849
v -2.947767 3.460886 137.483231
v -3.495538 3.479455 137.492508
v -3.458401 4.482154 137.928864
v -2.929199 4.482154 137.928864
v -3.430548 5.113484 138.458069
v -2.910630 5.113484 138.458069
v -3.421264 5.354875 139.247238
v -2.901345 5.354875 139.247238
v -3.421264 5.354875 140.482040
v -2.901345 5.354875 140.482040
v -0.264616 3.043095 140.435623
v -0.264616 0.332091 144.585678
v -0.905230 3.210212 140.435623
v -0.970219 0.332091 144.715652
v -1.573697 3.637287 140.435623
v -1.610833 0.332091 145.114883
v -2.242163 4.398596 140.435623
v -2.019341 0.332091 145.709076
v -2.901345 5.354875 140.482040
v -2.353574 0.322807 146.971741
v 3.588351 -2.703861 147.036728
v 3.235550 -3.780835 147.036743
v 4.665325 -4.003657 147.036743
v 3.931869 -4.300754 147.036743
v 4.665325 -5.674823 147.036743
v 3.931869 -5.879077 147.036743
v 0.468841 -0.707745 145.068466
v -0.264616 0.573482 144.901337
v -0.264616 -0.707745 144.901337
v 0.468841 0.573482 145.068466
v 1.053749 -0.707745 145.532669
v 1.053749 0.573482 145.532669
v 1.378698 -0.707745 146.201141
v 1.378698 0.573482 146.201141
v 1.378698 -0.707745 146.953171
v 1.378698 0.573482 146.953171
v 1.053749 -0.707745 147.630920
v 1.053749 0.573482 147.630920
v 0.468841 -0.336375 148.095123
v 0.468841 0.573482 148.095123
v 0.468841 -0.707745 148.095123
v -0.264616 -0.336375 148.262268
v -0.264616 -0.707745 148.262268
v -0.264615 0.573482 148.967865
v 0.468841 0.573482 148.095123
v 0.246019 0.573482 148.967865
v -0.264616 0.573482 144.901337
v 1.053749 0.573482 147.630920
v 1.378698 0.573482 146.953171
v 1.378698 0.573482 146.201141
v 1.053749 0.573482 145.532669
v 0.468841 0.573482 145.068466
v -4.108298 -2.703861 147.036728
v -5.185273 -4.003657 147.036743
v -3.755497 -3.780835 147.036743
v -4.461101 -4.300754 147.036743
v -5.185273 -5.674823 147.036743
v -4.461101 -5.879077 147.036743
v -0.970219 0.332091 144.715652
v -0.264616 0.332091 144.585678
v -0.264616 -0.707745 144.715652
v -0.951651 -0.707745 144.836349
v -1.610833 0.332091 145.114883
v -1.573696 -0.707745 145.244858
v -2.019341 0.332091 145.709076
v -1.972919 -0.707745 145.829773
v -2.353574 0.322807 146.971741
v -2.279300 -0.707745 146.981018
v -2.279300 -0.707745 148.512939
v -2.353574 0.322807 148.875031
v -0.905230 1.975405 140.417053
v -0.264616 1.845426 140.417053
v -0.264616 3.043095 140.435623
v -0.905230 3.210212 140.435623
v -1.573697 2.291070 140.417053
v -1.573697 3.637287 140.435623
v -2.242163 2.783136 140.426331
v -2.242163 4.398596 140.435623
v -2.947767 3.516592 140.444901
v -2.901345 5.354875 140.482040
v -0.264617 1.808289 136.777618
v 0.394566 1.947552 136.833328
v -0.264616 1.845426 140.417053
v 0.385282 1.975405 140.417053
v 1.072317 2.253933 136.963303
v 1.053748 2.291070 140.417053
v 1.740783 2.736714 137.176849
v 1.722215 2.783136 140.426331
v 2.427818 3.460886 137.483231
v 2.427819 3.516592 140.444901
v 2.409250 4.482154 137.928864
v 2.390682 5.113484 138.458069
v 2.381397 5.354875 139.247238
v 2.381397 5.354875 140.482040
v 2.381397 5.354875 139.247238
v 2.901316 5.354875 140.482040
v 2.381397 5.354875 140.482040
v 2.901316 5.354875 139.247238
v 2.390682 5.113484 138.458069
v 2.910600 5.113484 138.458069
v 2.409250 4.482154 137.928864
v 2.938452 4.482154 137.928864
v 2.427818 3.460886 137.483231
v 2.975590 3.479455 137.492508
v 3.105569 -6.027625 133.388885
v 1.740783 2.736714 137.176849
v 1.072317 2.253933 136.963303
v 0.394566 1.947552 136.833328
v -0.264617 -6.027625 133.388885
v -0.264617 1.808289 136.777618
v 3.931869 -5.879077 150.574066
v 3.931869 -4.300754 150.574066
v 4.665325 -5.674823 150.574066
v 4.665325 -4.003657 150.574066
v 3.235550 -3.780835 150.574066
v 3.588352 -2.703861 150.574036
v 3.105570 -2.703861 150.574036
v 1.870764 -2.295353 150.574036
v 3.105570 -2.295353 150.574036
v -0.264615 -3.780835 150.574066
v 3.105570 0.322807 148.875031
v 1.833627 0.322807 148.875031
v -0.264615 -3.325906 150.574066
v -0.264615 -2.295353 150.574036
v 0.440988 0.332091 144.715652
v -0.264616 -0.707745 144.715652
v -0.264616 0.332091 144.585678
v 0.431704 -0.707745 144.836349
v 1.090886 0.332091 145.114883
v 1.053749 -0.707745 145.244858
v 1.499393 0.332091 145.709076
v 1.452972 -0.707745 145.829773
v 1.833627 0.322807 146.971725
v 1.759352 -0.707745 146.981018
v 1.759352 -0.707745 148.512939
v 1.833627 0.322807 148.875031
v 0.385282 1.975405 140.417053
v -0.264616 3.043095 140.435623
v -0.264616 1.845426 140.417053
v 0.375998 3.210212 140.435623
v 1.053748 2.291070 140.417053
v 1.044464 3.637287 140.435623
v 1.722215 2.783136 140.426331
v 1.712931 4.398596 140.435623
v 2.427819 3.516592 140.444901
v 2.381397 5.354875 140.482040
v -0.264616 3.043095 140.435623
v 0.375998 3.210212 140.435623
v -0.264616 0.332091 144.585678
v 0.440988 0.332091 144.715652
v 1.044464 3.637287 140.435623
v 1.090886 0.332091 145.114883
v 1.712931 4.398596 140.435623
v 1.499393 0.332091 145.709076
v 2.381397 5.354875 140.482040
v 1.833627 0.322807 146.971725
v -3.634801 -2.703861 150.574051
v -3.634801 -2.703861 147.036728
v -3.634801 -2.295353 150.574051
v -3.634801 0.322807 148.875031
v -3.634801 0.322807 146.962448
v -3.634802 -2.703861 137.251114
v -3.634802 -6.092615 137.232574
v -3.634802 -6.027625 133.388885
v -3.495538 3.479455 137.492508
v -3.458401 4.482154 137.928864
v -3.430548 5.113484 138.458069
v -3.421264 5.354875 139.247238
v -3.421264 5.354875 140.482040
v 3.105570 -2.703861 150.574036
v 3.105570 -2.295353 150.574036
v 3.105570 -2.703861 147.036728
v 3.105570 0.322807 148.875031
v 3.105570 0.322807 146.962448
v 3.105569 -2.703861 137.251114
v 3.105569 -6.027625 133.388885
v 3.105569 -6.092615 137.232574
v 2.975590 3.479455 137.492508
v 2.938452 4.482154 137.928864
v 2.910600 5.113484 138.458069
v 2.901316 5.354875 139.247238
v 2.901316 5.354875 140.482040
v -0.951651 -0.707745 144.836349
v -0.264616 -0.707745 144.715652
v -0.264615 -0.707745 148.512939
v -1.573696 -0.707745 145.244858
v -1.972919 -0.707745 145.829773
v -2.279300 -0.707745 146.981018
v -2.279300 -0.707745 148.512939
v 1.759352 -0.707745 148.512939
v -0.264615 -0.707745 148.512939
v 1.759352 -0.707745 146.981018
v 1.452972 -0.707745 145.829773
v 1.053749 -0.707745 145.244858
v 0.431704 -0.707745 144.836349
v -0.264616 -0.707745 144.715652
vn -0.0000 -0.0000 1.0000
vn -0.0517 -0.9732 0.2240
vn -0.0477 -0.9714 0.2327
vn -0.0531 -0.9732 0.2236
vn -0.0000 -0.9642 0.2651
vn -0.9735 -0.0000 0.2286
vn 0.0535 -0.9729 0.2251
vn 0.0536 -0.9728 0.2254
vn 0.0534 -0.9729 0.2251
vn 0.9735 -0.0000 0.2286
vn -0.0043 0.7901 0.6130
vn -0.0044 0.7901 0.6130
vn -0.0004 0.7899 0.6133
vn -0.0000 0.7898 0.6133
vn -0.0000 1.0000 0.0055
vn -0.0000 -1.0000 -0.0004
vn -0.7700 0.6380 -0.0000
vn -0.2578 -0.9662 -0.0000
vn 0.9955 0.0411 0.0855
vn 0.9954 0.0416 0.0858
vn 0.9956 0.0397 0.0844
vn 0.9957 0.0388 0.0837
vn -0.9997 0.0224 -0.0037
vn -0.0000 0.5412 0.8409
vn 0.0004 0.7899 0.6133
vn 0.0040 0.7901 0.6130
vn 0.0043 0.7901 0.6130
vn 0.7700 0.6380 -0.0000
vn 0.2683 -0.9633 -0.0000
vn -0.9956 0.0397 0.0844
vn -0.9954 0.0416 0.0858
vn -0.9955 0.0411 0.0855
vn -0.9957 0.0388 0.0837
vn 0.9997 -0.0227 -0.0000
vn -0.0003 0.5412 0.8409
vn -0.2158 -0.0000 0.9764
vn -0.4207 -0.0000 0.9072
vn -0.5594 -0.0000 0.8289
vn -0.7939 -0.0000 0.6081
vn -0.6217 -0.0000 0.7833
vn -0.9751 -0.0000 0.2217
vn -0.9765 -0.0000 -0.2154
vn -0.7800 -0.0000 -0.6258
vn -0.4207 -0.0000 -0.9072
vn -0.2158 -0.0000 -0.9764
vn 0.2127 0.9771 -0.0072
vn 0.2026 0.9793 -0.0008
vn 0.3130 0.9497 -0.0074
vn 0.3126 0.9499 -0.0069
vn 0.4882 0.8727 -0.0101
vn 0.4956 0.8685 -0.0105
vn 0.6434 0.7654 -0.0130
vn 0.6496 0.7602 -0.0122
vn 0.8899 0.4561 -0.0091
vn 0.9145 0.4046 -0.0072
vn 0.9998 -0.0221 -0.0011
vn 0.9996 -0.0271 -0.0031
vn 0.9996 -0.0267 -0.0022
vn 0.9997 -0.0252 -0.0000
vn 0.0038 0.2034 0.9791
vn -0.0000 0.4865 0.8737
vn -0.0000 0.5391 0.8422
vn 0.0064 0.3969 -0.9178
vn 0.0003 0.3965 -0.9180
vn 0.0038 0.3963 -0.9181
vn 0.0001 0.3965 -0.9181
vn -0.0025 0.3968 -0.9179
vn 0.0033 0.3963 -0.9181
vn 0.0001 0.3974 -0.9176
vn -0.0021 0.3977 -0.9175
vn 0.0028 0.5095 -0.8605
vn 0.0031 0.5090 -0.8608
vn 0.0002 0.8402 -0.5423
vn -0.0000 0.8417 -0.5399
vn -0.0000 0.9931 -0.1176
vn -0.0000 0.9931 -0.1177
vn 0.1062 0.8227 0.5584
vn 0.2234 0.8112 0.5404
vn 0.3637 0.7726 0.5203
vn 0.2498 0.7956 0.5519
vn 0.6115 0.6465 0.4562
vn 0.5581 0.6735 0.4848
vn 0.7531 0.5342 0.3840
vn 0.8501 0.4452 0.2814
vn 0.7888 0.5042 0.3514
vn 0.8844 0.4020 0.2371
vn -0.0000 -0.0000 -1.0000
vn 0.2222 -0.0000 -0.9750
vn 0.4425 -0.0000 -0.8968
vn 0.7800 -0.0000 -0.6258
vn 0.9765 -0.0000 -0.2154
vn 0.9751 -0.0000 0.2217
vn 0.7939 -0.0000 0.6081
vn 0.5609 -0.0000 0.8279
vn 0.6231 -0.0000 0.7822
vn 0.4425 -0.0000 0.8968
vn 0.2222 -0.0000 0.9750
vn 0.1798 0.1220 0.9761
vn 0.3752 0.1190 0.9193
vn 0.1749 0.1187 0.9774
vn 0.3755 0.1190 0.9192
vn 0.6969 0.1131 0.7082
vn 0.7012 0.1138 0.7038
vn 0.9281 0.0836 0.3627
vn 0.9283 0.0835 0.3623
vn 0.9898 0.0733 0.1222
vn 0.9898 0.0732 0.1223
vn 0.9974 0.0719 -0.0000
vn -0.0002 -0.0009 -1.0000
vn -0.0003 -0.0009 -1.0000
vn -0.0004 -0.0008 -1.0000
vn -0.0006 -0.0012 -1.0000
vn 0.0006 -0.0011 -1.0000
vn 0.0005 -0.0003 -1.0000
vn 0.0005 -0.0002 -1.0000
vn -0.0353 0.0157 -0.9993
vn -0.3008 0.9536 -0.0091
vn -0.2059 0.9785 -0.0100
vn -0.1973 0.9803 -0.0083
vn -0.3127 0.9498 -0.0099
vn -0.4882 0.8727 -0.0101
vn -0.4927 0.8701 -0.0104
vn -0.6434 0.7654 -0.0130
vn -0.6468 0.7626 -0.0120
vn -0.8899 0.4561 -0.0091
vn -0.9145 0.4046 -0.0072
vn -0.9998 -0.0221 -0.0011
vn -0.9996 -0.0271 -0.0031
vn -0.9996 -0.0267 -0.0022
vn -0.9997 -0.0252 -0.0000
vn -0.0001 0.8417 -0.5399
vn -0.0000 0.8402 -0.5423
vn 0.0029 0.5095 -0.8604
vn -0.0001 0.3974 -0.9176
vn 0.0021 0.3977 -0.9175
vn -0.0001 0.3965 -0.9181
vn -0.0033 0.3963 -0.9181
vn 0.0025 0.3968 -0.9179
vn -0.0038 0.3963 -0.9181
vn -0.0003 0.3965 -0.9180
vn -0.0063 0.3969 -0.9178
vn 0.0001 0.5391 0.8422
vn -0.1590 0.1214 0.9798
vn -0.3730 0.1195 0.9201
vn -0.1624 0.1171 0.9797
vn -0.3745 0.1197 0.9195
vn -0.6893 0.1104 0.7160
vn -0.7012 0.1138 0.7038
vn -0.9281 0.0836 0.3627
vn -0.9283 0.0835 0.3623
vn -0.9898 0.0733 0.1222
vn -0.9898 0.0732 0.1223
vn -0.9974 0.0719 -0.0000
vn 0.0002 -0.0009 -1.0000
vn 0.0003 -0.0009 -1.0000
vn 0.0004 -0.0008 -1.0000
vn 0.0003 -0.0010 -1.0000
vn 0.0006 -0.0012 -1.0000
vn -0.0006 -0.0011 -1.0000
vn -0.0005 -0.0003 -1.0000
vn -0.0005 -0.0002 -1.0000
vn 0.0395 0.0062 -0.9992
vn -0.3603 0.7740 0.5207
vn -0.2068 0.8168 0.5386
vn -0.0995 0.8223 0.5602
vn -0.2501 0.7945 0.5533
vn -0.6120 0.6461 0.4562
vn -0.5510 0.6764 0.4887
vn -0.7515 0.5371 0.3831
vn -0.8501 0.4452 0.2814
vn -0.7846 0.5078 0.3556
vn -0.8844 0.4020 0.2371
vn -0.9998 0.0219 -0.0036
vn -0.9997 0.0216 -0.0064
vn -0.9998 0.0217 -0.0044
vn -0.9995 0.0300 -0.0062
vn -0.9997 0.0251 -0.0036
vn -0.9997 0.0249 -0.0036
vn -0.9997 0.0250 -0.0037
vn 0.9997 -0.0229 -0.0000
vn 0.9998 0.0214 -0.0060
vn 0.9998 0.0218 -0.0043
vn 0.9996 0.0290 -0.0055
vn 0.9974 0.0721 -0.0000
vn 0.9974 0.0719 0.0001
vn 0.9974 0.0720 -0.0000
vt 0.343209 0.043407
vt 0.343209 0.040966
vt 0.346635 0.040966
vt 0.346635 0.043407
vt 0.342215 0.043273
vt 0.338222 0.044272
vt 0.338940 0.040989
vt 0.342211 0.040984
vt 0.346642 0.048686
vt 0.342322 0.048696
vt 0.343211 0.044396
vt 0.346642 0.044389
vt 0.152637 0.208299
vt 0.152638 0.205459
vt 0.170797 0.207149
vt 0.170769 0.208299
vt 0.324892 0.045264
vt 0.324892 0.042629
vt 0.329764 0.042629
vt 0.329764 0.045264
vt 0.927692 0.035574
vt 0.927692 0.031013
vt 0.932883 0.031013
vt 0.932883 0.035574
vt 0.000913 0.010189
vt 0.003753 0.010220
vt 0.003753 0.014523
vt 0.000913 0.014522
vt 0.158997 0.002150
vt 0.158997 0.013848
vt 0.153405 0.013848
vt 0.153404 0.002150
vt 0.312305 0.043012
vt 0.324004 0.043011
vt 0.324004 0.045511
vt 0.312305 0.045511
vt 0.916354 0.004300
vt 0.914662 0.002151
vt 0.922143 0.002151
vt 0.920804 0.004300
vt 0.499581 0.138808
vt 0.501159 0.138808
vt 0.501159 0.150505
vt 0.499581 0.150505
vt 0.608655 0.084756
vt 0.608655 0.073058
vt 0.614188 0.073058
vt 0.614188 0.084756
vt 0.191102 0.175640
vt 0.191102 0.169601
vt 0.197717 0.169601
vt 0.197717 0.175640
vt 0.344009 0.025217
vt 0.344009 0.027193
vt 0.340090 0.025217
vt 0.340090 0.027193
vt 0.336169 0.025217
vt 0.340090 0.031921
vt 0.336169 0.031921
vt 0.332250 0.031921
vt 0.332250 0.025217
vt 0.328330 0.031921
vt 0.328330 0.025217
vt 0.324410 0.031921
vt 0.324410 0.025217
vt 0.320490 0.031921
vt 0.320490 0.025217
vt 0.316570 0.031921
vt 0.316570 0.025217
vt 0.342218 0.021174
vt 0.342218 0.024281
vt 0.336914 0.019833
vt 0.317431 0.024281
vt 0.334071 0.016267
vt 0.329961 0.014289
vt 0.325400 0.014289
vt 0.321289 0.016267
vt 0.318446 0.019833
vt 0.096578 0.049168
vt 0.096578 0.059193
vt 0.094729 0.059133
vt 0.094729 0.049168
vt 0.092657 0.058870
vt 0.092657 0.049168
vt 0.090308 0.058415
vt 0.090308 0.049168
vt 0.087447 0.057688
vt 0.087447 0.049168
vt 0.084822 0.056607
vt 0.082910 0.055208
vt 0.081912 0.053009
vt 0.081912 0.049168
vt 0.225576 0.134056
vt 0.222917 0.134056
vt 0.222917 0.128640
vt 0.225576 0.127573
vt 0.220357 0.126763
vt 0.221636 0.122814
vt 0.219893 0.122814
vt 0.215300 0.121321
vt 0.207568 0.126763
vt 0.219893 0.121321
vt 0.207568 0.125092
vt 0.207568 0.121321
vt 0.219893 0.109928
vt 0.215300 0.109928
vt 0.020335 0.079424
vt 0.043555 0.079424
vt 0.019954 0.081372
vt 0.043555 0.088406
vt 0.019054 0.083222
vt 0.017658 0.085075
vt 0.015548 0.086959
vt 0.015515 0.088406
vt 0.012546 0.088406
vt 0.012524 0.086959
vt 0.010299 0.088406
vt 0.010279 0.086959
vt 0.008055 0.088406
vt 0.008034 0.086959
vt 0.004713 0.088406
vt 0.004693 0.086959
vt 0.486315 0.134453
vt 0.486315 0.151152
vt 0.484148 0.151152
vt 0.483397 0.134476
vt 0.481676 0.151152
vt 0.480607 0.133625
vt 0.478710 0.151152
vt 0.478443 0.132275
vt 0.475314 0.151152
vt 0.475314 0.129440
vt 0.080491 0.038015
vt 0.077039 0.035490
vt 0.077039 0.041766
vt 0.080491 0.041646
vt 0.077039 0.048092
vt 0.080491 0.049090
vt 0.806506 0.002150
vt 0.808268 0.002150
vt 0.806506 0.004604
vt 0.808268 0.004604
vt 0.810148 0.002150
vt 0.810148 0.004604
vt 0.811927 0.002150
vt 0.811927 0.004604
vt 0.815034 0.002150
vt 0.815034 0.004604
vt 0.818793 0.004604
vt 0.819685 0.002150
vt 0.917652 0.054114
vt 0.917652 0.055788
vt 0.914849 0.054114
vt 0.914849 0.055788
vt 0.917652 0.057613
vt 0.914849 0.057613
vt 0.917652 0.059520
vt 0.914849 0.059520
vt 0.917652 0.061696
vt 0.914849 0.061696
vt 0.041737 0.433707
vt 0.041736 0.422009
vt 0.043088 0.422009
vt 0.051750 0.427607
vt 0.051753 0.433943
vt 0.041737 0.466140
vt 0.030631 0.466140
vt 0.030631 0.478879
vt 0.062215 0.465298
vt 0.065540 0.463867
vt 0.067639 0.462107
vt 0.068424 0.459485
vt 0.068425 0.455411
vt 0.073842 0.036893
vt 0.071572 0.036497
vt 0.073842 0.024400
vt 0.069513 0.035144
vt 0.068206 0.033222
vt 0.067209 0.029464
vt 0.067209 0.024400
s 1
usemtl sentinel_react_v25_velochampbp_main.001
f 2/1/1 1/2/1 3/3/1
f 4/4/1 2/1/1 3/3/1
f 6/5/2 5/6/3 7/7/4
f 8/8/5 6/5/2 7/7/4
f 10/9/6 9/10/6 11/11/6
f 12/12/6 10/9/6 11/11/6
f 14/3/1 13/2/1 15/1/1
f 14/3/1 15/1/1 16/4/1
f 18/7/7 17/6/8 19/5/9
f 18/7/7 19/5/9 20/8/5
f 22/11/10 21/10/10 23/9/10
f 22/11/10 23/9/10 24/12/10
f 26/13/11 25/14/12 27/15/13
f 28/16/14 26/13/11 27/15/13
f 30/17/15 29/18/15 31/19/15
f 32/20/15 30/17/15 31/19/15
f 34/21/16 33/22/16 35/23/16
f 36/24/16 34/21/16 35/23/16
f 38/25/15 37/26/15 39/27/15
f 40/28/15 38/25/15 39/27/15
f 42/29/17 41/30/17 43/31/17
f 44/32/17 42/29/17 43/31/17
f 46/33/18 45/34/18 47/35/18
f 48/36/18 46/33/18 47/35/18
f 50/37/19 49/38/20 51/39/21
f 52/40/22 50/37/19 51/39/21
f 54/41/15 53/42/15 55/43/15
f 56/44/15 54/41/15 55/43/15
f 58/45/23 57/46/23 59/47/23
f 60/48/23 58/45/23 59/47/23
f 62/49/24 61/50/24 63/51/24
f 64/52/24 62/49/24 63/51/24
f 66/15/25 65/14/26 67/13/27
f 66/15/25 67/13/27 68/16/14
f 70/19/15 69/18/15 71/17/15
f 70/19/15 71/17/15 72/20/15
f 74/23/16 73/22/16 75/21/16
f 74/23/16 75/21/16 76/24/16
f 78/27/15 77/26/15 79/25/15
f 78/27/15 79/25/15 80/28/15
f 82/31/28 81/30/28 83/29/28
f 82/31/28 83/29/28 84/32/28
f 86/35/29 85/34/29 87/33/29
f 86/35/29 87/33/29 88/36/29
f 90/39/30 89/38/31 91/37/32
f 90/39/30 91/37/32 92/40/33
f 94/43/15 93/42/15 95/41/15
f 94/43/15 95/41/15 96/44/15
f 98/47/34 97/46/34 99/45/34
f 98/47/34 99/45/34 100/48/34
f 102/51/24 101/50/24 103/49/24
f 102/51/24 103/49/24 104/52/35
f 106/53/36 105/54/36 107/55/37
f 105/54/36 108/56/38 107/55/37
f 107/55/37 108/56/38 109/57/39
f 111/58/40 110/59/39 108/56/38
f 108/56/38 110/59/39 109/57/39
f 109/57/39 110/59/39 112/60/41
f 113/61/41 109/57/39 112/60/41
f 113/61/41 112/60/41 114/62/42
f 115/63/42 113/61/41 114/62/42
f 115/63/42 114/62/42 116/64/43
f 117/65/43 115/63/42 116/64/43
f 117/65/43 116/64/43 118/66/44
f 119/67/44 117/65/43 118/66/44
f 119/67/44 118/66/44 120/68/45
f 121/69/45 119/67/44 120/68/45
f 123/70/15 122/71/15 124/72/15
f 124/72/15 122/71/15 125/73/15
f 124/72/15 125/73/15 126/74/15
f 126/74/15 125/73/15 127/75/15
f 127/75/15 125/73/15 128/76/15
f 128/76/15 125/73/15 129/77/15
f 129/77/15 125/73/15 130/78/15
f 132/79/46 131/80/47 133/81/48
f 134/82/49 132/79/46 133/81/48
f 134/82/49 133/81/48 135/83/50
f 136/84/51 134/82/49 135/83/50
f 136/84/51 135/83/50 137/85/52
f 138/86/53 136/84/51 137/85/52
f 138/86/53 137/85/52 139/87/54
f 140/88/55 138/86/53 139/87/54
f 139/87/54 141/89/56 140/88/55
f 141/89/56 142/90/57 140/88/55
f 140/88/55 142/90/57 143/91/58
f 144/92/59 140/88/55 143/91/58
f 146/93/1 145/94/1 147/95/1
f 148/96/1 146/93/1 147/95/1
f 148/96/1 147/95/1 149/97/1
f 150/98/1 148/96/1 149/97/1
f 150/98/1 149/97/1 151/99/1
f 151/99/1 149/97/1 152/100/60
f 149/97/1 153/101/1 152/100/60
f 154/102/61 151/99/1 152/100/60
f 153/101/1 155/103/1 152/100/60
f 156/104/1 152/100/60 155/103/1
f 154/102/61 152/100/60 157/105/62
f 152/100/60 158/106/62 157/105/62
f 160/107/63 159/108/64 161/109/65
f 159/108/64 162/110/66 161/109/65
f 163/111/67 161/109/65 162/110/66
f 164/112/68 163/111/67 162/110/66
f 165/113/69 164/112/68 162/110/66
f 166/114/70 165/113/69 162/110/66
f 166/114/70 167/115/71 165/113/69
f 167/115/71 168/116/72 165/113/69
f 167/115/71 169/117/73 168/116/72
f 169/117/73 170/118/74 168/116/72
f 169/117/73 171/119/75 170/118/74
f 171/119/75 172/120/76 170/118/74
f 172/120/76 171/119/75 173/121/15
f 174/122/15 172/120/76 173/121/15
f 176/123/77 175/124/78 177/125/79
f 178/126/80 176/123/77 177/125/79
f 178/126/80 177/125/79 179/127/81
f 180/128/82 178/126/80 179/127/81
f 180/128/82 179/127/81 181/129/83
f 182/130/84 180/128/82 181/129/83
f 181/129/83 183/131/85 182/130/84
f 183/131/85 184/132/86 182/130/84
f 186/133/87 185/134/87 187/135/87
f 186/133/87 187/135/87 188/136/87
f 189/137/87 188/136/87 187/135/87
f 189/137/87 190/138/87 188/136/87
f 192/68/88 191/67/89 193/69/88
f 192/68/88 194/66/89 191/67/89
f 194/66/89 195/65/90 191/67/89
f 194/66/89 196/64/90 195/65/90
f 196/64/90 197/63/91 195/65/90
f 196/64/90 198/62/91 197/63/91
f 198/62/91 199/61/92 197/63/91
f 198/62/91 200/60/92 199/61/92
f 200/60/92 201/57/93 199/61/92
f 200/60/92 202/59/93 201/57/93
f 201/57/93 202/59/93 203/56/94
f 203/56/94 202/59/93 204/58/95
f 201/57/93 203/56/94 205/55/96
f 205/55/96 203/56/94 206/54/97
f 205/55/96 206/54/97 207/53/97
f 209/72/15 208/71/15 210/70/15
f 211/73/15 208/71/15 209/72/15
f 212/74/15 211/73/15 209/72/15
f 213/75/15 211/73/15 212/74/15
f 214/76/15 211/73/15 213/75/15
f 215/77/15 211/73/15 214/76/15
f 216/78/15 211/73/15 215/77/15
f 218/135/87 217/134/87 219/133/87
f 220/136/87 218/135/87 219/133/87
f 218/135/87 220/136/87 221/137/87
f 220/136/87 222/138/87 221/137/87
f 224/139/98 223/140/99 225/141/100
f 223/140/99 226/142/101 225/141/100
f 223/140/99 227/143/102 226/142/101
f 227/143/102 228/144/103 226/142/101
f 227/143/102 229/145/104 228/144/103
f 229/145/104 230/146/105 228/144/103
f 229/145/104 231/147/106 230/146/105
f 231/147/106 232/148/107 230/146/105
f 233/149/108 232/148/107 231/147/106
f 234/150/108 233/149/108 231/147/106
f 236/151/109 235/152/110 237/153/109
f 235/152/110 238/154/111 237/153/109
f 238/154/111 235/152/110 239/155/110
f 240/156/112 238/154/111 239/155/110
f 239/155/110 241/157/113 240/156/112
f 241/157/113 242/158/114 240/156/112
f 242/158/114 241/157/113 243/159/115
f 244/160/116 242/158/114 243/159/115
f 246/81/117 245/80/118 247/79/119
f 246/81/117 247/79/119 248/82/120
f 249/83/121 246/81/117 248/82/120
f 249/83/121 248/82/120 250/84/122
f 251/85/123 249/83/121 250/84/122
f 251/85/123 250/84/122 252/86/124
f 253/87/125 251/85/123 252/86/124
f 253/87/125 252/86/124 254/88/126
f 254/88/126 255/89/127 253/87/125
f 254/88/126 256/90/128 255/89/127
f 257/91/129 256/90/128 254/88/126
f 257/91/129 254/88/126 258/92/130
f 260/121/15 259/120/76 261/122/15
f 260/121/15 262/119/75 259/120/76
f 263/118/131 259/120/76 262/119/75
f 263/118/131 262/119/75 264/117/132
f 265/116/72 263/118/131 264/117/132
f 265/116/72 264/117/132 266/115/133
f 267/113/134 265/116/72 266/115/133
f 267/113/134 266/115/133 268/114/135
f 269/110/136 267/113/134 268/114/135
f 269/110/136 270/112/137 267/113/134
f 269/110/136 271/111/138 270/112/137
f 269/110/136 272/109/139 271/111/138
f 272/109/139 269/110/136 273/108/140
f 272/109/139 273/108/140 274/107/141
f 276/95/1 275/94/1 277/93/1
f 276/95/1 277/93/1 278/96/1
f 279/97/1 276/95/1 278/96/1
f 279/97/1 278/96/1 280/98/1
f 281/99/1 279/97/1 280/98/1
f 282/100/60 279/97/1 281/99/1
f 282/100/60 281/99/1 283/102/61
f 282/100/60 284/101/1 279/97/1
f 285/105/62 282/100/60 283/102/61
f 285/105/62 286/106/142 282/100/60
f 282/100/60 287/103/1 284/101/1
f 287/103/1 282/100/60 288/104/1
f 290/141/143 289/140/144 291/139/145
f 290/141/143 292/142/146 289/140/144
f 292/142/146 293/143/147 289/140/144
f 292/142/146 294/144/148 293/143/147
f 294/144/148 295/145/149 293/143/147
f 294/144/148 296/146/150 295/145/149
f 296/146/150 297/147/151 295/145/149
f 296/146/150 298/148/152 297/147/151
f 297/147/151 298/148/152 299/149/153
f 297/147/151 299/149/153 300/150/153
f 302/153/154 301/152/155 303/151/154
f 302/153/154 304/154/156 301/152/155
f 305/155/157 301/152/155 304/154/156
f 305/155/157 304/154/156 306/156/158
f 306/156/158 307/157/159 305/155/157
f 306/156/158 308/158/160 307/157/159
f 309/159/161 307/157/159 308/158/160
f 309/159/161 308/158/160 310/160/162
f 312/125/163 311/124/164 313/123/165
f 312/125/163 313/123/165 314/126/166
f 315/127/167 312/125/163 314/126/166
f 315/127/167 314/126/166 316/128/168
f 317/129/169 315/127/167 316/128/168
f 317/129/169 316/128/168 318/130/170
f 318/130/170 319/131/171 317/129/169
f 318/130/170 320/132/172 319/131/171
f 322/161/23 321/162/23 323/163/23
f 322/161/23 323/163/23 324/164/23
f 325/165/173 322/161/23 324/164/23
f 326/166/174 322/161/23 325/165/173
f 327/167/23 326/166/174 328/168/175
f 328/168/175 326/166/174 329/169/176
f 329/169/176 326/166/174 325/165/173
f 330/170/177 329/169/176 325/165/173
f 330/170/177 325/165/173 331/171/178
f 325/165/173 332/172/179 331/171/178
f 333/173/178 332/172/179 325/165/173
f 335/163/34 334/162/34 336/161/34
f 337/164/34 335/163/34 336/161/34
f 337/164/34 336/161/34 338/165/180
f 338/165/180 336/161/34 339/166/181
f 340/168/182 339/166/181 341/167/34
f 342/169/183 339/166/181 340/168/182
f 338/165/180 339/166/181 342/169/183
f 338/165/180 342/169/183 343/170/184
f 344/171/185 338/165/180 343/170/184
f 344/171/185 345/172/184 338/165/180
f 338/165/180 345/172/184 346/173/186
f 348/174/15 347/175/15 349/176/15
f 347/175/15 350/177/15 349/176/15
f 349/176/15 350/177/15 351/178/15
f 352/179/15 349/176/15 351/178/15
f 352/179/15 353/180/15 349/176/15
f 355/176/15 354/180/15 356/179/15
f 357/178/15 355/176/15 356/179/15
f 357/178/15 358/177/15 355/176/15
f 355/176/15 358/177/15 359/175/15
f 355/176/15 359/175/15 360/174/15
